<svg xmlns="http://www.w3.org/2000/svg" width="30" height="30" viewBox="0 0 30 30">
  <g id="Knop" transform="translate(-1555 -6220)">
    <rect id="Rectangle_245" data-name="Rectangle 245" width="30" height="30" rx="15" transform="translate(1555 6220)" fill="#f2f2f2"/>
    <path id="Path_346" data-name="Path 346" d="M93.256,5.82l-6-5.75a.249.249,0,0,0-.35,0l-1.5,1.5a.25.25,0,0,0,.005.358L89.719,6l-4.308,4.068a.25.25,0,0,0-.005.358l1.5,1.5a.25.25,0,0,0,.35,0l6-5.75a.251.251,0,0,0,0-.361Z" transform="translate(1481.667 6229)" fill="#263742"/>
  </g>
</svg>
