<svg xmlns="http://www.w3.org/2000/svg" width="56" height="56" viewBox="0 0 56 56">
  <g id="Icon" transform="translate(-1289 -1755)">
    <rect id="Rectangle_225" data-name="Rectangle 225" width="56" height="56" rx="28" transform="translate(1289 1755)" fill="#6ba1b8"/>
    <g id="team" transform="translate(1304 1769)">
      <path id="Path_26410" data-name="Path 26410" d="M5.742,200.541v-5.349a3.931,3.931,0,0,1,.164-1.122H2.187a2.215,2.215,0,0,0-1.546.622,2.084,2.084,0,0,0-.642,1.5v4.256a2.076,2.076,0,0,0,.518,1.366,2.184,2.184,0,0,0,.6.482v6.186a.832.832,0,0,0,.844.819H7.146v-5.719A4.056,4.056,0,0,1,5.742,200.541Zm0,0" transform="translate(0 -183.457)" fill="#fff"/>
      <path id="Path_26411" data-name="Path 26411" d="M25.506,65.481A3.209,3.209,0,1,0,22.2,62.274,3.262,3.262,0,0,0,25.506,65.481Zm0,0" transform="translate(-20.948 -55.836)" fill="#fff"/>
      <path id="Path_26412" data-name="Path 26412" d="M140.279,169.668h-5.962a2.565,2.565,0,0,0-1.789.72,2.413,2.413,0,0,0-.743,1.736v5.349a2.4,2.4,0,0,0,.6,1.581,2.535,2.535,0,0,0,.805.615v7.9a.832.832,0,0,0,.844.819h6.53a.832.832,0,0,0,.844-.819v-7.9a2.531,2.531,0,0,0,.8-.615,2.4,2.4,0,0,0,.6-1.581v-5.349a2.412,2.412,0,0,0-.743-1.736A2.565,2.565,0,0,0,140.279,169.668Zm0,0" transform="translate(-124.355 -160.389)" fill="#fff"/>
      <path id="Path_26413" data-name="Path 26413" d="M163.623,7.641a3.886,3.886,0,0,0,3.939-3.821,3.941,3.941,0,0,0-7.878,0A3.885,3.885,0,0,0,163.623,7.641Zm0,0" transform="translate(-150.68)" fill="#fff"/>
      <path id="Path_26414" data-name="Path 26414" d="M339.012,194.692a2.215,2.215,0,0,0-1.546-.622h-3.832a3.938,3.938,0,0,1,.164,1.122v5.349a4.056,4.056,0,0,1-1.4,3.041V209.3a.888.888,0,0,0,.1.006h5.2a.832.832,0,0,0,.844-.819V202.3a2.186,2.186,0,0,0,.6-.482,2.076,2.076,0,0,0,.518-1.366v-4.256A2.084,2.084,0,0,0,339.012,194.692Zm0,0" transform="translate(-313.654 -183.457)" fill="#fff"/>
      <path id="Path_26415" data-name="Path 26415" d="M324.92,65.481a3.209,3.209,0,1,0-3.307-3.207A3.262,3.262,0,0,0,324.92,65.481Zm0,0" transform="translate(-303.48 -55.836)" fill="#fff"/>
    </g>
  </g>
</svg>
