<svg xmlns="http://www.w3.org/2000/svg" width="56" height="56" viewBox="0 0 56 56">
  <g id="Icon" transform="translate(-905 -2005)">
    <rect id="Rectangle_226" data-name="Rectangle 226" width="56" height="56" rx="28" transform="translate(905 2005)" fill="#6ba1b8"/>
    <g id="shield" transform="translate(907.624 2017)">
      <path id="Path_26416" data-name="Path 26416" d="M38.2,4.86,26.684.252a3.524,3.524,0,0,0-2.617,0L12.553,4.86A3.444,3.444,0,0,0,10.4,8.428C11.5,18.435,18.346,32,25.376,32S39.256,18.435,40.355,8.428A3.441,3.441,0,0,0,38.2,4.86Zm-1.527,5.249c-.758,7.623-5.515,18.338-11.3,18.338S14.838,17.731,14.08,10.108a2.6,2.6,0,0,1,1.675-2.681l8.683-3.28a2.656,2.656,0,0,1,1.876,0L35,7.427A2.593,2.593,0,0,1,36.672,10.108Z" transform="translate(0 0)" fill="#fff"/>
      <path id="Path_26417" data-name="Path 26417" d="M63,58.6a.345.345,0,0,0-.221.356,31.034,31.034,0,0,0,3.5,11.168c1.777,3.217,3.846,5.138,5.532,5.138h0V55.293a.351.351,0,0,0-.125.023Z" transform="translate(-46.43 -49.064)" fill="#fff"/>
    </g>
  </g>
</svg>
