<svg xmlns="http://www.w3.org/2000/svg" width="56" height="56" viewBox="0 0 56 56">
  <g id="Icon" transform="translate(-905 -1755)">
    <rect id="Rectangle_224" data-name="Rectangle 224" width="56" height="56" rx="28" transform="translate(905 1755)" fill="#6ba1b8"/>
    <g id="compare" transform="translate(919 1768.488)">
      <path id="Path_26406" data-name="Path 26406" d="M0,5.84c0-.558.421-.55.421-.55,1.788,0,15.521,0,17.917,0,.781,0,1.286,0,1.286,0V2.143c0-1.218.881-.3.881-.3S27.1,7.121,27.791,7.84a.694.694,0,0,1-.059,1.016l-7.059,6.182s-.841.917-.839-.076,0-3.413,0-3.413-.564,0-1.432,0c-2.482,0-16.062,0-17.9,0,0,0-.5.136-.5-.647S0,6.4,0,5.84Z" transform="translate(0 0)" fill="#fff"/>
      <path id="Path_26407" data-name="Path 26407" d="M28,17.857c0-.562-.421-.55-.421-.55-1.784,0-15.521,0-17.919,0-.779,0-1.286,0-1.286,0V14.158c0-1.214-.879-.3-.879-.3S.9,19.134.208,19.851a.7.7,0,0,0,.059,1.024l7.057,6.182s.838.915.838-.082,0-3.411,0-3.411.564,0,1.434-.006c2.482.006,16.064,0,17.9,0,0,0,.5.138.5-.649S28,18.42,28,17.857Z" transform="translate(0 0.071)" fill="#fff"/>
    </g>
  </g>
</svg>
