<svg xmlns="http://www.w3.org/2000/svg" width="56" height="56" viewBox="0 0 56 56">
  <g id="Icon" transform="translate(-1289 -2005)">
    <rect id="Rectangle_227" data-name="Rectangle 227" width="56" height="56" rx="28" transform="translate(1289 2005)" fill="#6ba1b8"/>
    <g id="calendar-day-14" transform="translate(1298.287 2017)">
      <path id="Path_26418" data-name="Path 26418" d="M29.679,3.352H28.65v-.6a2.811,2.811,0,0,0-5.621,0v.6H14.4v-.6a2.811,2.811,0,0,0-5.621,0v.6H7.747A4,4,0,0,0,3.713,7.3V26.052A4,4,0,0,0,7.747,30H29.679a4,4,0,0,0,4.034-3.948V7.3A4,4,0,0,0,29.679,3.352Zm-4.894-.6a1.054,1.054,0,0,1,2.108,0V4.9a1.054,1.054,0,0,1-2.108,0Zm-14.253,0a1.054,1.054,0,0,1,2.108,0V4.9a1.054,1.054,0,0,1-2.108,0Zm20.247,23.3a1.09,1.09,0,0,1-1.1,1.077H7.747a1.09,1.09,0,0,1-1.1-1.077V13.326H30.779V26.052Z" transform="translate(0)" fill="#fff"/>
      <path id="Path_26419" data-name="Path 26419" d="M104.559,179.455h.781v6.875a.98.98,0,0,0,.989.969h.019a.98.98,0,0,0,.99-.969v-7.862a.98.98,0,0,0-.99-.969h-1.789a.98.98,0,0,0-.99.969v.019A.98.98,0,0,0,104.559,179.455Z" transform="translate(-91.086 -162.241)" fill="#fff"/>
      <path id="Path_26420" data-name="Path 26420" d="M168.528,182.941H168.2V182.2a.981.981,0,0,0-.99-.969h-.019a.98.98,0,0,0-.99.969v.742h-1.348l2.345-3.989a.954.954,0,0,0,0-.968,1,1,0,0,0-.857-.484h-.021a1,1,0,0,0-.858.486l-3.117,5.305a.954.954,0,0,0-.132.483v.154a.98.98,0,0,0,.989.968h3v1.434a.981.981,0,0,0,.99.969h.019a.981.981,0,0,0,.99-.969V184.9h.332a.98.98,0,0,0,.99-.968v-.019A.98.98,0,0,0,168.528,182.941Z" transform="translate(-144.575 -162.242)" fill="#fff"/>
    </g>
  </g>
</svg>
