<svg xmlns="http://www.w3.org/2000/svg" width="34" height="36.001" viewBox="0 0 34 36.001">
  <g id="Menu" transform="translate(-328 -14.999)">
    <path id="Menu-2" data-name="Menu" d="M-9255.5,10965a1.5,1.5,0,0,1-1.5-1.5,1.5,1.5,0,0,1,1.5-1.5h17a1.5,1.5,0,0,1,1.5,1.5,1.5,1.5,0,0,1-1.5,1.5Zm0-7a1.5,1.5,0,0,1-1.5-1.5,1.5,1.5,0,0,1,1.5-1.5h23a1.5,1.5,0,0,1,1.5,1.5,1.5,1.5,0,0,1-1.5,1.5Zm0-7a1.5,1.5,0,0,1-1.5-1.5,1.5,1.5,0,0,1,1.5-1.5h19a1.5,1.5,0,0,1,1.5,1.5,1.5,1.5,0,0,1-1.5,1.5Z" transform="translate(9589 -10933)" fill="#1f2430"/>
    <text id="menu-3" data-name="menu" transform="translate(345 48)" fill="#6ba1b8" font-size="12" font-family="Helvetica-Bold, Helvetica" font-weight="700"><tspan x="-16.002" y="0">menu</tspan></text>
  </g>
</svg>
