<svg xmlns="http://www.w3.org/2000/svg" width="32" height="36" viewBox="0 0 32 36">
  <g id="phone" transform="translate(-32)">
    <g id="Group_479" data-name="Group 479" transform="translate(32)">
      <g id="Group_478" data-name="Group 478">
        <path id="Path_26502" data-name="Path 26502" d="M54.857,6.75V2.25A2.27,2.27,0,0,0,52.571,0H34.286A2.272,2.272,0,0,0,32,2.25v31.5A2.27,2.27,0,0,0,34.286,36H52.571a2.269,2.269,0,0,0,2.286-2.25V27H52.571v2.25H34.286V4.5H52.571V6.75Z" transform="translate(-32)" fill="#161d2d"/>
      </g>
    </g>
    <g id="Group_481" data-name="Group 481" transform="translate(45.714 9)">
      <g id="Group_480" data-name="Group 480">
        <path id="Path_26503" data-name="Path 26503" d="M240,128H226.286A2.272,2.272,0,0,0,224,130.25v9a2.243,2.243,0,0,0,2.286,2.25h2.286v2.25a1.125,1.125,0,0,0,.631,1.006,1.176,1.176,0,0,0,.512.119,1.157,1.157,0,0,0,.686-.225l4.267-3.15H240a2.243,2.243,0,0,0,2.286-2.25v-9A2.243,2.243,0,0,0,240,128Zm-10.24,7.875a1.144,1.144,0,0,1-1.154-1.125,1.123,1.123,0,0,1,1.131-1.125h.023a1.125,1.125,0,1,1,0,2.25Zm6.857,0a1.146,1.146,0,0,1-1.154-1.125,1.125,1.125,0,0,1,1.131-1.125h.023a1.125,1.125,0,1,1,0,2.25Z" transform="translate(-224 -128)" fill="#6ba1b8"/>
      </g>
    </g>
  </g>
</svg>
