<svg xmlns="http://www.w3.org/2000/svg" width="48" height="36" viewBox="0 0 48 36">
  <g id="mail" transform="translate(0 -64)">
    <g id="Group_132" data-name="Group 132" transform="translate(0 64)">
      <g id="Group_131" data-name="Group 131">
        <path id="Path_330" data-name="Path 330" d="M288.334,213.333a11,11,0,1,0,5.5,20.527,1,1,0,0,0-1-1.73,9,9,0,1,1,4.5-7.8v1a2,2,0,0,1-4,0v-4a1,1,0,0,0-1.69-.719,5,5,0,1,0,.423,7.012,3.994,3.994,0,0,0,7.268-2.294v-1A11.012,11.012,0,0,0,288.334,213.333Zm0,14a3,3,0,1,1,3-3A3,3,0,0,1,288.334,227.333Z" transform="translate(-251.334 -199.333)" fill="#6ba1b8"/>
        <path id="Path_331" data-name="Path 331" d="M14.132,66.314l16.474,13.4a.946.946,0,0,0,.177.115,1.507,1.507,0,0,0,.692.169,1.619,1.619,0,0,0,.879-.291L48.815,66.315a1,1,0,0,0-.06-1.6A3.973,3.973,0,0,0,46.473,64h-30a3.969,3.969,0,0,0-2.281.719,1,1,0,0,0-.06,1.6Z" transform="translate(-12.473 -64)" fill="#161d2d"/>
        <path id="Path_332" data-name="Path 332" d="M24,133.923a13.015,13.015,0,0,1,13-13,1,1,0,0,0,1-1V114.57a1,1,0,0,0-.57-.9,1.01,1.01,0,0,0-1.061.128L21.026,126.28l-.176.116a3.491,3.491,0,0,1-3.872-.115L1.631,113.794A1,1,0,0,0,0,114.569v18.354a4,4,0,0,0,4,4H23.159a1,1,0,0,0,.99-1.142A12.98,12.98,0,0,1,24,133.923Z" transform="translate(0 -108.923)" fill="#161d2d"/>
      </g>
    </g>
  </g>
</svg>
