<svg xmlns="http://www.w3.org/2000/svg" width="156" height="30" viewBox="0 0 156 30">
  <path id="Stars" d="M-6897-597.1l-9.885,5.1,1.887-10.8-8-7.648,11.053-1.575L-6897-622l4.947,9.976,11.054,1.575-8,7.648,1.887,10.8Zm36-1.98-8.031,4.079,1.533-8.64-6.5-6.118,8.982-1.26L-6861-619l4.021,7.98,8.98,1.26-6.5,6.118,1.533,8.64Zm-72,0-8.031,4.079,1.534-8.64-6.5-6.118,8.98-1.26L-6933-619l4.02,7.98,8.981,1.26-6.5,6.118,1.533,8.64Zm103-1.322-6.8,3.4,1.3-7.2-5.5-5.1,7.6-1.05L-6830-617l3.4,6.652,7.6,1.05-5.5,5.1,1.3,7.2Zm-134,0-6.8,3.4,1.3-7.2-5.5-5.1,7.6-1.05L-6964-617l3.4,6.652,7.6,1.05-5.5,5.1,1.3,7.2Z" transform="translate(6975 622)" fill="#ffab00"/>
</svg>
