<svg fill="none" height="339" stroke-linecap="square" stroke-miterlimit="10" width="548" xmlns="http://www.w3.org/2000/svg" xmlns:xlink="http://www.w3.org/1999/xlink"><clipPath id="a"><path d="m146.233 69.784h384.817v231.648h-384.817z"/></clipPath><path d="m0 0h548v339h-548z" fill="#fff"/><path d="m146.5 69.5v232" stroke="#333" stroke-linecap="butt"/><path d="m242.5 69.5v232m96-232v232m96-232v232m97-232v232" stroke="#ccc" stroke-linecap="butt"/><path clip-path="url(#a)" d="m146 168v-64h113a2 2 0 0 1 2 2v60a2 2 0 0 1 -2 2z"/><path clip-path="url(#a)" d="m146 168v-64h113a2 2 0 0 1 2 2v60a2 2 0 0 1 -2 2z" fill="#e64a19"/><path clip-path="url(#a)" d="m146 267v-64h365a2 2 0 0 1 2 2v60a2 2 0 0 1 -2 2z"/><path clip-path="url(#a)" d="m146 267v-64h365a2 2 0 0 1 2 2v60a2 2 0 0 1 -2 2z" fill="#e64a19"/><path d="m239.181 140.5h-1.078v-7.219l-2.187.797v-.984l3.11-1.172h.155zm7 0h-1.078v-7.219l-2.187.797v-.984l3.11-1.172h.155zm7.594-3.75q-.328.406-.812.656-.47.235-1.032.235-.734 0-1.28-.36-.548-.36-.845-1.015-.296-.672-.296-1.47 0-.843.312-1.53.328-.688.922-1.047.61-.375 1.406-.375 1.266 0 1.985.953.734.953.734 2.578v.313q0 2.5-.984 3.64-.985 1.14-2.97 1.172h-.218v-.906h.234q1.344-.031 2.063-.703.719-.672.781-2.141zm-1.672 0q.547 0 1-.328.469-.344.688-.828v-.438q0-1.062-.469-1.734-.469-.672-1.172-.672-.719 0-1.156.547-.422.547-.422 1.453 0 .875.406 1.438.422.562 1.125.562z" stroke="#e64a19" stroke-linecap="round" stroke-linejoin="round" stroke-width="3"/><path d="m239.181 140.5h-1.078v-7.219l-2.187.797v-.984l3.11-1.172h.155zm7 0h-1.078v-7.219l-2.187.797v-.984l3.11-1.172h.155zm7.594-3.75q-.328.406-.812.656-.47.235-1.032.235-.734 0-1.28-.36-.548-.36-.845-1.015-.296-.672-.296-1.47 0-.843.312-1.53.328-.688.922-1.047.61-.375 1.406-.375 1.266 0 1.985.953.734.953.734 2.578v.313q0 2.5-.984 3.64-.985 1.14-2.97 1.172h-.218v-.906h.234q1.344-.031 2.063-.703.719-.672.781-2.141zm-1.672 0q.547 0 1-.328.469-.344.688-.828v-.438q0-1.062-.469-1.734-.469-.672-1.172-.672-.719 0-1.156.547-.422.547-.422 1.453 0 .875.406 1.438.422.562 1.125.562z" fill="#fff"/><path d="m489.251 234.703h.813q.78-.016 1.218-.406.438-.39.438-1.063 0-1.5-1.5-1.5-.703 0-1.125.407-.406.406-.406 1.062h-1.094q0-1.016.734-1.687.75-.672 1.89-.672 1.204 0 1.892.64.687.641.687 1.782 0 .562-.36 1.078-.359.515-.984.781.703.219 1.078.734.391.516.391 1.266 0 1.14-.75 1.828-.75.672-1.953.672-1.188 0-1.953-.656-.75-.656-.75-1.719h1.094q0 .672.437 1.078.438.406 1.188.406.78 0 1.187-.406.422-.422.422-1.187 0-.735-.453-1.125-.453-.407-1.328-.422h-.813v-.89zm10.61-1.516q0 .641-.344 1.141t-.906.781q.656.282 1.046.844.391.547.391 1.25 0 1.094-.75 1.766-.734.656-1.953.656-1.234 0-1.984-.656-.735-.672-.735-1.766 0-.703.375-1.25.375-.562 1.047-.844-.562-.28-.89-.78-.329-.5-.329-1.142 0-1.078.688-1.703.687-.64 1.828-.64 1.125 0 1.812.64.704.625.704 1.703zm-.891 3.985q0-.719-.453-1.156-.453-.453-1.188-.453-.734 0-1.187.453-.438.437-.438 1.172 0 .718.438 1.14.437.406 1.203.406.75 0 1.187-.422.438-.421.438-1.14zm-1.625-5.438q-.64 0-1.047.407-.39.39-.39 1.078 0 .64.39 1.047.39.406 1.031.406.657 0 1.047-.406.39-.407.39-1.047 0-.656-.405-1.063-.407-.422-1.016-.422zm7.89 7.766h-1.078v-7.219l-2.187.797v-.984l3.11-1.172h.156v8.578z" stroke="#e64a19" stroke-linecap="round" stroke-linejoin="round" stroke-width="3"/><path d="m489.251 234.703h.813q.78-.016 1.218-.406.438-.39.438-1.063 0-1.5-1.5-1.5-.703 0-1.125.407-.406.406-.406 1.062h-1.094q0-1.016.734-1.687.75-.672 1.89-.672 1.204 0 1.892.64.687.641.687 1.782 0 .562-.36 1.078-.359.515-.984.781.703.219 1.078.734.391.516.391 1.266 0 1.14-.75 1.828-.75.672-1.953.672-1.188 0-1.953-.656-.75-.656-.75-1.719h1.094q0 .672.437 1.078.438.406 1.188.406.78 0 1.187-.406.422-.422.422-1.187 0-.735-.453-1.125-.453-.407-1.328-.422h-.813v-.89zm10.61-1.516q0 .641-.344 1.141t-.906.781q.656.282 1.046.844.391.547.391 1.25 0 1.094-.75 1.766-.734.656-1.953.656-1.234 0-1.984-.656-.735-.672-.735-1.766 0-.703.375-1.25.375-.562 1.047-.844-.562-.28-.89-.78-.329-.5-.329-1.142 0-1.078.688-1.703.687-.64 1.828-.64 1.125 0 1.812.64.704.625.704 1.703zm-.891 3.985q0-.719-.453-1.156-.453-.453-1.188-.453-.734 0-1.187.453-.438.437-.438 1.172 0 .718.438 1.14.437.406 1.203.406.75 0 1.187-.422.438-.421.438-1.14zm-1.625-5.438q-.64 0-1.047.407-.39.39-.39 1.078 0 .64.39 1.047.39.406 1.031.406.657 0 1.047-.406.39-.407.39-1.047 0-.656-.405-1.063-.407-.422-1.016-.422zm7.89 7.766h-1.078v-7.219l-2.187.797v-.984l3.11-1.172h.156v8.578z" fill="#fff"/><path d="m64.014 136.227h-4.312v3.516h5.016v1.078h-6.329v-9.953h6.25v1.078h-4.937v3.203h4.312zm5.672 2.844 2.844-8.203h1.438l-3.704 9.953h-1.156l-3.687-9.953h1.437zm11.469.86q.672 0 1.172-.407.516-.422.578-1.031h1.188q-.032.625-.438 1.203-.406.578-1.078.922-.672.344-1.422.344-1.516 0-2.406-1-.89-1.016-.89-2.766v-.219q0-1.078.39-1.922.406-.843 1.14-1.297.75-.468 1.766-.468 1.234 0 2.063.75.828.734.875 1.922h-1.188q-.062-.72-.547-1.172-.484-.47-1.203-.47-.969 0-1.5.704-.531.688-.531 2v.234q0 1.282.531 1.985.531.687 1.5.687zm7.11 1.03q-1.516 0-2.454-.984-.937-1-.937-2.656v-.219q0-1.11.422-1.969.422-.875 1.172-1.359t1.64-.484q1.438 0 2.235.953.796.937.796 2.719v.515h-5q.016 1.094.625 1.781.625.672 1.563.672.672 0 1.125-.265.469-.282.828-.735l.766.594q-.922 1.438-2.782 1.438zm-.157-6.64q-.765 0-1.297.562-.515.563-.64 1.563h3.703v-.094q-.047-.969-.516-1.5-.469-.531-1.25-.531zm7.656.234q-.28-.047-.625-.047-1.234 0-1.687 1.063v5.25h-1.266v-7.39h1.235l.015.843q.625-.984 1.766-.984.375 0 .562.093zm3.141-2.922v1.797h1.375v.97h-1.375v4.593q0 .437.188.672.187.218.625.218.218 0 .609-.093v1.03q-.5.142-.969.142-.86 0-1.297-.516-.422-.516-.422-1.453v-4.594h-1.343v-.969h1.343v-1.797zm4.656 9.188h-1.265v-7.39h1.265zm-1.36-9.36q0-.312.188-.515.188-.219.547-.219.375 0 .563.219.203.203.203.516 0 .312-.203.515-.188.203-.563.203-.36 0-.547-.203-.187-.203-.187-.515zm3.61 9.36v-6.422h-1.172v-.969h1.172v-.765q0-1.188.625-1.828.64-.657 1.813-.657.437 0 .86.11l-.063 1.03q-.328-.062-.688-.062-.61 0-.953.36-.328.36-.328 1.031v.781h1.578v.97h-1.578v6.42h-1.266zm5.75 0h-1.265v-7.39h1.265zm-1.36-9.36q0-.312.188-.515.188-.219.547-.219.375 0 .563.219.203.203.203.516 0 .312-.203.515-.188.203-.563.203-.36 0-.547-.203-.187-.203-.187-.515zm5.954 8.47q.672 0 1.172-.407.516-.422.578-1.031h1.188q-.032.625-.438 1.203-.406.578-1.078.922-.672.344-1.422.344-1.516 0-2.406-1-.89-1.016-.89-2.766v-.219q0-1.078.39-1.922.406-.843 1.14-1.297.75-.468 1.766-.468 1.234 0 2.063.75.828.734.875 1.922h-1.188q-.062-.72-.547-1.172-.484-.47-1.203-.47-.969 0-1.5.704-.531.688-.531 2v.234q0 1.282.531 1.985.531.687 1.5.687zm8.61.89q-.11-.219-.188-.781-.875.922-2.11.922-1.093 0-1.796-.61-.688-.625-.688-1.578 0-1.156.875-1.797.875-.64 2.469-.64h1.234v-.579q0-.671-.406-1.062-.39-.39-1.156-.39-.688 0-1.14.343-.454.344-.454.828h-1.281q0-.562.39-1.078.407-.516 1.079-.812.671-.297 1.468-.297 1.282 0 2 .64.735.64.766 1.75v3.407q0 1.015.25 1.625v.109h-1.313zm-2.11-.969q.594 0 1.125-.297.547-.312.781-.812v-1.516h-1q-2.312 0-2.312 1.36 0 .593.39.937.391.328 1.016.328zm7.25-8.219v1.797h1.375v.97h-1.375v4.593q0 .437.188.672.187.218.625.218.218 0 .609-.093v1.03q-.5.142-.969.142-.86 0-1.297-.516-.422-.516-.422-1.453v-4.594h-1.343v-.969h1.343v-1.797zm6.36 9.329q-1.516 0-2.454-.985-.937-1-.937-2.656v-.219q0-1.11.422-1.969.422-.875 1.172-1.359t1.64-.484q1.438 0 2.235.953.796.937.796 2.719v.515h-5q.016 1.094.625 1.781.625.672 1.563.672.672 0 1.125-.265.469-.282.828-.735l.766.594q-.922 1.438-2.782 1.438zm-.157-6.641q-.765 0-1.297.562-.515.563-.64 1.563h3.703v-.094q-.047-.969-.516-1.5-.469-.531-1.25-.531zm-103.718 105.074v-9.953h2.812q1.297 0 2.297.578 1 .562 1.531 1.625.547 1.062.563 2.437v.641q0 1.406-.547 2.469-.547 1.047-1.563 1.625-1 .562-2.344.578h-2.75zm1.312-8.875v7.797h1.375q1.516 0 2.36-.938.859-.937.859-2.687v-.578q0-1.704-.797-2.641-.797-.938-2.266-.953zm10.984 7.125 2.844-8.203h1.438l-3.704 9.953h-1.156l-3.687-9.953h1.437zm5.75 2.61h-1.078l4.156-10.813h1.079l-4.157 10.812zm13.61-5.516q0 1.468-.5 2.562-.485 1.078-1.391 1.656-.906.578-2.11.578-1.171 0-2.077-.578-.907-.578-1.407-1.64-.5-1.078-.515-2.485v-.718q0-1.438.5-2.532.5-1.109 1.406-1.687.906-.594 2.094-.594 1.187 0 2.093.578.922.578 1.407 1.688.5 1.093.5 2.547zm-1.313-.641q0-1.766-.719-2.719-.703-.953-1.968-.953-1.25 0-1.97.953-.702.953-.733 2.625v.735q0 1.718.718 2.703.735.968 1.985.968 1.28 0 1.968-.921.704-.922.72-2.657v-.734zm6.953 3.547 2.844-8.203h1.438l-3.704 9.953h-1.156l-3.687-9.953h1.437zm11.469.86q.672 0 1.172-.407.516-.422.578-1.031h1.188q-.032.625-.438 1.203-.406.578-1.078.922-.672.343-1.422.343-1.516 0-2.406-1-.89-1.015-.89-2.765v-.219q0-1.078.39-1.922.406-.844 1.14-1.297.75-.468 1.766-.468 1.234 0 2.063.75.828.734.875 1.921h-1.188q-.062-.718-.547-1.171-.484-.47-1.203-.47-.969 0-1.5.704-.531.687-.531 2v.234q0 1.282.531 1.985.531.687 1.5.687zm7.11 1.03q-1.516 0-2.454-.984-.937-1-.937-2.656v-.219q0-1.11.422-1.969.422-.875 1.172-1.359t1.64-.484q1.438 0 2.235.953.796.937.796 2.718v.516h-5q.016 1.094.625 1.781.625.672 1.563.672.672 0 1.125-.265.469-.282.828-.735l.766.594q-.922 1.437-2.782 1.437zm-.157-6.64q-.765 0-1.297.562-.515.563-.64 1.563h3.703v-.094q-.047-.969-.516-1.5-.469-.531-1.25-.531zm7.656.234q-.28-.047-.625-.047-1.234 0-1.687 1.063v5.25h-1.266v-7.39h1.235l.015.843q.625-.984 1.766-.984.375 0 .562.093zm3.141-2.922v1.797h1.375v.969h-1.375v4.594q0 .437.188.672.187.218.625.218.218 0 .609-.093v1.03q-.5.141-.969.141-.86 0-1.297-.515-.422-.516-.422-1.453v-4.594h-1.343v-.969h1.343v-1.797zm4.656 9.188h-1.265v-7.39h1.265zm-1.36-9.36q0-.312.188-.515.188-.219.547-.219.375 0 .563.219.203.203.203.515 0 .313-.203.516-.188.203-.563.203-.36 0-.547-.203-.187-.203-.187-.516zm3.61 9.36v-6.422h-1.172v-.969h1.172v-.765q0-1.188.625-1.829.64-.656 1.813-.656.437 0 .86.11l-.063 1.03q-.328-.062-.688-.062-.61 0-.953.36-.328.36-.328 1.031v.781h1.578v.969h-1.578v6.422zm5.75 0h-1.265v-7.39h1.265zm-1.36-9.36q0-.312.188-.515.188-.219.547-.219.375 0 .563.219.203.203.203.515 0 .313-.203.516-.188.203-.563.203-.36 0-.547-.203-.187-.203-.187-.516zm5.954 8.47q.672 0 1.172-.407.516-.422.578-1.031h1.188q-.032.625-.438 1.203-.406.578-1.078.922-.672.343-1.422.343-1.516 0-2.406-1-.89-1.015-.89-2.765v-.219q0-1.078.39-1.922.406-.844 1.14-1.297.75-.468 1.766-.468 1.234 0 2.063.75.828.734.875 1.921h-1.188q-.062-.718-.547-1.171-.484-.47-1.203-.47-.969 0-1.5.704-.531.687-.531 2v.234q0 1.282.531 1.985.531.687 1.5.687zm8.61.89q-.11-.219-.188-.781-.875.921-2.11.921-1.093 0-1.796-.609-.688-.625-.688-1.578 0-1.156.875-1.797.875-.64 2.469-.64h1.234v-.579q0-.672-.406-1.062-.39-.39-1.156-.39-.688 0-1.14.343-.454.344-.454.828h-1.281q0-.562.39-1.078.407-.516 1.079-.813.671-.296 1.468-.296 1.282 0 2 .64.735.64.766 1.75v3.406q0 1.016.25 1.625v.11h-1.313zm-2.11-.969q.594 0 1.125-.297.547-.312.781-.812v-1.517h-1q-2.312 0-2.312 1.36 0 .593.39.937.391.328 1.016.328zm7.25-8.219v1.797h1.375v.969h-1.375v4.594q0 .437.188.672.187.218.625.218.218 0 .609-.093v1.03q-.5.141-.969.141-.86 0-1.297-.515-.422-.516-.422-1.453v-4.594h-1.343v-.969h1.343v-1.797zm6.36 9.328q-1.516 0-2.454-.984-.937-1-.937-2.656v-.219q0-1.11.422-1.969.422-.875 1.172-1.359t1.64-.484q1.438 0 2.235.953.796.937.796 2.718v.516h-5q.016 1.094.625 1.781.625.672 1.563.672.672 0 1.125-.265.469-.282.828-.735l.766.594q-.922 1.437-2.782 1.437zm-.157-6.64q-.765 0-1.297.562-.515.563-.64 1.563h3.703v-.094q-.047-.969-.516-1.5-.469-.531-1.25-.531zm13.188 84.287q0 2.219-.766 3.313-.75 1.078-2.36 1.078-1.593 0-2.359-1.047-.765-1.063-.797-3.172v-1.687q0-2.188.75-3.25.766-1.078 2.391-1.078 1.61 0 2.36 1.03.765 1.032.78 3.173v1.64zm-1.266-1.719q0-1.609-.453-2.343-.438-.735-1.422-.735-.969 0-1.422.735-.437.719-.453 2.234v2.031q0 1.61.469 2.391.469.766 1.422.766.937 0 1.39-.72.453-.733.469-2.296zm87.391 5.969h-1.265v-8.422l-2.563.922v-1.14l3.625-1.36h.203zm10.079-4.25q0 2.219-.766 3.313-.75 1.078-2.36 1.078-1.593 0-2.359-1.047-.765-1.063-.797-3.172v-1.687q0-2.188.75-3.25.766-1.078 2.39-1.078 1.61 0 2.36 1.03.766 1.032.782 3.173zm-1.266-1.719q0-1.609-.453-2.343-.438-.735-1.422-.735-.969 0-1.422.735-.437.719-.453 2.234v2.031q0 1.61.469 2.391.468.766 1.422.766.937 0 1.39-.72.453-.733.469-2.296zm9.266 1.72q0 2.218-.766 3.312-.75 1.078-2.36 1.078-1.593 0-2.359-1.047-.765-1.063-.797-3.172v-1.687q0-2.188.75-3.25.766-1.078 2.39-1.078 1.61 0 2.36 1.03.766 1.032.782 3.173v1.64zm-1.266-1.72q0-1.609-.453-2.343-.438-.735-1.422-.735-.969 0-1.422.735-.437.719-.453 2.234v2.031q0 1.61.469 2.391.468.766 1.422.766.937 0 1.39-.72.453-.733.469-2.296zm81.751 5.969h-6.516v-.906l3.438-3.828q.765-.875 1.062-1.406.297-.547.297-1.141 0-.766-.484-1.266-.47-.5-1.25-.5-.938 0-1.47.532-.515.53-.515 1.5h-1.265q0-1.375.875-2.22.89-.858 2.375-.858 1.39 0 2.187.734.813.719.813 1.937 0 1.47-1.875 3.5l-2.657 2.891h4.985zm7.718-4.25q0 2.219-.765 3.313-.75 1.078-2.36 1.078-1.593 0-2.359-1.047-.766-1.063-.797-3.172v-1.687q0-2.188.75-3.25.766-1.078 2.39-1.078 1.61 0 2.36 1.03.766 1.032.781 3.173zm-1.265-1.719q0-1.609-.453-2.343-.438-.735-1.422-.735-.969 0-1.422.735-.438.719-.453 2.234v2.031q0 1.61.469 2.391.468.766 1.421.766.938 0 1.391-.72.453-.733.469-2.296zm9.265 1.72q0 2.218-.765 3.312-.75 1.078-2.36 1.078-1.593 0-2.359-1.047-.766-1.063-.797-3.172v-1.687q0-2.188.75-3.25.766-1.078 2.39-1.078 1.61 0 2.36 1.03.766 1.032.781 3.173v1.64zm-1.265-1.72q0-1.609-.453-2.343-.438-.735-1.422-.735-.969 0-1.422.735-.438.719-.453 2.234v2.031q0 1.61.469 2.391.468.766 1.421.766.938 0 1.391-.72.453-.733.469-2.296zm77.079.376h.937q.906-.016 1.406-.47.516-.452.516-1.234 0-1.75-1.734-1.75-.828 0-1.313.47-.484.468-.484 1.233h-1.266q0-1.187.86-1.968.875-.781 2.203-.781 1.406 0 2.203.75.797.75.797 2.062 0 .656-.422 1.266-.406.609-1.14.906.827.266 1.265.875.453.594.453 1.453 0 1.344-.875 2.14-.875.782-2.281.782-1.391 0-2.282-.75-.875-.766-.875-2.016h1.282q0 .781.5 1.266.515.469 1.375.469.922 0 1.406-.485.484-.484.484-1.375 0-.86-.531-1.328-.531-.469-1.547-.484h-.937zm12.39 1.343q0 2.219-.765 3.313-.75 1.078-2.36 1.078-1.593 0-2.36-1.047-.765-1.063-.796-3.172v-1.687q0-2.188.75-3.25.766-1.078 2.39-1.078 1.61 0 2.36 1.03.766 1.032.781 3.173zm-1.265-1.719q0-1.609-.453-2.343-.438-.735-1.422-.735-.97 0-1.422.735-.438.719-.453 2.234v2.031q0 1.61.468 2.391.47.766 1.422.766.938 0 1.39-.72.454-.733.47-2.296zm9.265 1.72q0 2.218-.765 3.312-.75 1.078-2.36 1.078-1.593 0-2.36-1.047-.765-1.063-.796-3.172v-1.687q0-2.188.75-3.25.766-1.078 2.39-1.078 1.61 0 2.36 1.03.766 1.032.781 3.173v1.64zm-1.265-1.72q0-1.609-.453-2.343-.438-.735-1.422-.735-.97 0-1.422.735-.438.719-.453 2.234v2.031q0 1.61.468 2.391.47.766 1.422.766.938 0 1.39-.72.454-.733.47-2.296zm80.578 2.626h1.376v1.03h-1.375v2.313h-1.282v-2.312h-4.53v-.75l4.452-6.89h1.36v6.608zm-4.374 0h3.093v-4.875l-.14.265zm13.265-.907q0 2.219-.765 3.313-.75 1.078-2.36 1.078-1.594 0-2.36-1.047-.765-1.063-.796-3.172v-1.687q0-2.188.75-3.25.766-1.078 2.39-1.078 1.61 0 2.36 1.03.766 1.032.781 3.173zm-1.265-1.719q0-1.609-.454-2.343-.437-.735-1.421-.735-.97 0-1.422.735-.438.719-.453 2.234v2.031q0 1.61.468 2.391.47.766 1.422.766.938 0 1.39-.72.454-.733.47-2.296zm9.265 1.72q0 2.218-.765 3.312-.75 1.078-2.36 1.078-1.594 0-2.36-1.047-.765-1.063-.796-3.172v-1.687q0-2.188.75-3.25.766-1.078 2.39-1.078 1.61 0 2.36 1.03.766 1.032.781 3.173v1.64zm-1.265-1.72q0-1.609-.454-2.343-.437-.735-1.421-.735-.97 0-1.422.735-.438.719-.453 2.234v2.031q0 1.61.468 2.391.47.766 1.422.766.938 0 1.39-.72.454-.733.47-2.296z" fill="#757575"/><path d="m23.606 57.318h-4.172l-.937 2.593h-1.36l3.813-9.953h1.14l3.813 9.953h-1.343l-.953-2.593zm-3.781-1.078h3.39l-1.703-4.657zm8.281-3.72.031.923q.86-1.063 2.22-1.063 2.343 0 2.374 2.64v4.891h-1.265v-4.89q-.016-.797-.375-1.172-.36-.39-1.11-.39-.625 0-1.094.327-.453.329-.718.86v5.265h-1.266v-7.39h1.203zm11.375 7.391q-.11-.218-.187-.78-.875.921-2.11.921-1.093 0-1.796-.61-.688-.624-.688-1.577 0-1.157.875-1.797.875-.64 2.469-.64h1.234v-.579q0-.672-.406-1.063-.39-.39-1.156-.39-.688 0-1.141.344-.453.343-.453.828h-1.282q0-.563.39-1.078.407-.516 1.078-.813.672-.297 1.47-.297 1.28 0 2 .64.733.641.765 1.75v3.407q0 1.016.25 1.625v.11h-1.313zm-2.11-.968q.595 0 1.126-.297.547-.313.781-.813v-1.515h-1q-2.312 0-2.312 1.36 0 .593.39.937.39.328 1.016.328zm6.907.968h-1.265v-10.5h1.265zm4.047-1.859 1.719-5.531h1.36l-2.97 8.531q-.687 1.844-2.203 1.844l-.234-.016-.469-.094v-1.015l.344.015q.64 0 1-.265.36-.25.594-.938l.28-.75-2.64-7.312h1.375zm8.89-.11q0-.5-.39-.78-.39-.297-1.344-.5-.953-.204-1.531-.485-.563-.297-.828-.687-.266-.391-.266-.938 0-.922.766-1.547.766-.625 1.969-.625 1.25 0 2.03.656.782.641.782 1.657h-1.265q0-.532-.438-.907t-1.11-.375q-.687 0-1.078.313-.39.297-.39.781 0 .453.36.688.359.234 1.296.453.953.203 1.547.5t.875.719q.281.406.281 1 0 .984-.797 1.593-.796.594-2.062.594-.875 0-1.563-.312-.687-.329-1.078-.891-.375-.563-.375-1.219h1.266q.031.64.5 1.016.484.375 1.25.375.719 0 1.156-.297.438-.297.438-.781zm4.063 1.97h-1.265v-7.392h1.265v7.39zm-1.36-9.36q0-.312.188-.516.188-.218.547-.218.375 0 .563.218.203.204.203.516 0 .313-.203.516-.188.203-.563.203-.36 0-.547-.203-.187-.203-.187-.516zm7.298 7.39q0-.5-.391-.78-.39-.297-1.344-.5-.953-.204-1.531-.485-.563-.297-.828-.687-.266-.391-.266-.938 0-.922.766-1.547.766-.625 1.969-.625 1.25 0 2.03.656.782.641.782 1.657h-1.266q0-.532-.437-.907-.438-.375-1.11-.375-.687 0-1.078.313-.39.297-.39.781 0 .453.36.688.359.234 1.296.453.953.203 1.547.5t.875.719q.281.406.281 1 0 .984-.797 1.593-.796.594-2.062.594-.875 0-1.563-.312-.687-.329-1.078-.891-.375-.563-.375-1.219h1.266q.031.64.5 1.016.484.375 1.25.375.719 0 1.156-.297.438-.297.438-.781zm5.359-1.796q0-1.094.422-1.953.437-.875 1.187-1.344.766-.469 1.75-.469 1.5 0 2.438 1.047.937 1.047.937 2.781v.094q0 1.078-.421 1.938-.407.843-1.188 1.328-.766.484-1.75.484-1.516 0-2.453-1.047-.922-1.047-.922-2.765zm1.266.156q0 1.219.562 1.969.578.75 1.547.75.953 0 1.516-.75.578-.766.578-2.125 0-1.219-.578-1.969-.578-.766-1.532-.766-.937 0-1.515.75-.578.75-.578 2.141zm7.687 3.61v-6.422h-1.172v-.97h1.172v-.765q0-1.187.625-1.828.64-.656 1.813-.656.437 0 .859.11l-.063 1.03q-.328-.062-.687-.062-.61 0-.953.36-.328.359-.328 1.03v.782h1.578v.969h-1.578v6.421h-1.266zm7.828-4.985.516-4.969h5.094v1.172h-4.032l-.296 2.703q.734-.422 1.656-.422 1.36 0 2.156.907.813.89.813 2.422 0 1.53-.844 2.421-.828.891-2.313.891-1.312 0-2.156-.734-.828-.735-.953-2.032h1.203q.11.86.594 1.297.5.438 1.312.438.875 0 1.375-.594.516-.61.516-1.672 0-1-.547-1.594-.547-.609-1.453-.609-.813 0-1.297.36l-.328.265zm13.657.734q0 2.22-.766 3.313-.75 1.078-2.36 1.078-1.593 0-2.359-1.047-.766-1.062-.797-3.172v-1.687q0-2.188.75-3.25.766-1.078 2.39-1.078 1.61 0 2.36 1.031.766 1.031.782 3.172zm-1.266-1.718q0-1.61-.453-2.344-.438-.734-1.422-.734-.969 0-1.422.734-.438.719-.453 2.234v2.032q0 1.609.469 2.39.468.766 1.422.766.937 0 1.39-.719.453-.734.469-2.297zm9.266 1.718q0 2.22-.766 3.313-.75 1.078-2.36 1.078-1.593 0-2.359-1.047-.766-1.062-.797-3.172v-1.687q0-2.188.75-3.25.766-1.078 2.39-1.078 1.61 0 2.36 1.031.766 1.031.782 3.172zm-1.266-1.718q0-1.61-.453-2.344-.438-.734-1.422-.734-.969 0-1.422.734-.438.719-.453 2.234v2.032q0 1.609.469 2.39.468.766 1.422.766.937 0 1.39-.719.453-.734.469-2.297zm7.422-.532q.844-1.03 2.187-1.03 2.344 0 2.375 2.64v4.89h-1.265v-4.89q-.016-.797-.375-1.172-.36-.39-1.11-.39-.625 0-1.093.327-.454.329-.72.86v5.265h-1.265v-10.5h1.266zm8.11 6.5h-1.266v-7.39h1.265v7.39zm-1.36-9.359q0-.312.187-.516.188-.218.547-.218.375 0 .563.218.203.204.203.516 0 .313-.203.516-.188.203-.563.203-.36 0-.547-.203-.187-.203-.187-.516zm2.687 5.594q0-1.719.797-2.735.797-1.03 2.125-1.03 1.344 0 2.11.952l.062-.812h1.156v7.219q0 1.437-.86 2.25-.843.828-2.28.828-.797 0-1.563-.344-.765-.328-1.172-.922l.657-.766q.812 1 1.984 1 .922 0 1.437-.515.532-.516.532-1.469v-.625q-.766.875-2.079.875-1.296 0-2.109-1.047-.797-1.047-.797-2.86zm1.266.156q0 1.25.515 1.969.516.703 1.438.703 1.203 0 1.766-1.094v-3.375q-.594-1.047-1.75-1.047-.922 0-1.454.72-.515.702-.515 2.124zm8.297-2.89q.843-1.032 2.187-1.032 2.344 0 2.375 2.64v4.891h-1.265v-4.89q-.016-.797-.375-1.172-.36-.39-1.11-.39-.625 0-1.094.327-.453.329-.718.86v5.265h-1.266v-10.5h1.266v4zm11.453-2.688v1.797h1.375v.969h-1.375v4.593q0 .438.187.672.188.219.625.219.22 0 .61-.094v1.031q-.5.141-.969.141-.86 0-1.297-.516-.422-.515-.422-1.453v-4.593h-1.344v-.97h1.344v-1.796zm6.86 2.922q-.282-.047-.626-.047-1.234 0-1.687 1.062v5.25h-1.266v-7.39h1.234l.016.844q.625-.985 1.766-.985.375 0 .562.094v1.172zm6 6.265q-.11-.218-.188-.78-.875.921-2.11.921-1.093 0-1.797-.61-.687-.624-.687-1.577 0-1.157.875-1.797.875-.64 2.469-.64h1.234v-.579q0-.672-.406-1.063-.39-.39-1.156-.39-.688 0-1.141.344-.453.343-.453.828h-1.281q0-.563.39-1.078.406-.516 1.078-.813.672-.297 1.47-.297 1.28 0 2 .64.733.641.765 1.75v3.407q0 1.016.25 1.625v.11h-1.313zm-2.11-.968q.594 0 1.125-.297.547-.313.781-.813v-1.515h-1q-2.312 0-2.312 1.36 0 .593.39.937.39.328 1.016.328zm6.156.968v-6.421h-1.172v-.97h1.172v-.765q0-1.187.625-1.828.64-.656 1.813-.656.437 0 .859.11l-.063 1.03q-.328-.062-.687-.062-.61 0-.953.36-.328.359-.328 1.03v.782h1.578v.969h-1.578v6.421zm5 0v-6.421h-1.172v-.97h1.172v-.765q0-1.187.625-1.828.64-.656 1.813-.656.437 0 .859.11l-.063 1.03q-.328-.062-.687-.062-.61 0-.953.36-.328.359-.328 1.03v.782h1.578v.969h-1.578v6.421zm5.75 0h-1.266v-7.39h1.266zm-1.36-9.359q0-.312.188-.516.188-.218.547-.218.375 0 .563.218.203.204.203.516 0 .313-.203.516-.188.203-.563.203-.36 0-.547-.203-.187-.203-.187-.516zm5.954 8.469q.672 0 1.172-.406.515-.422.578-1.032h1.187q-.03.625-.437 1.203-.406.579-1.078.922-.672.344-1.422.344-1.516 0-2.406-1-.891-1.016-.891-2.766v-.218q0-1.078.39-1.922.407-.844 1.141-1.297.75-.469 1.766-.469 1.234 0 2.062.75.828.735.875 1.922h-1.187q-.063-.719-.547-1.172-.484-.469-1.203-.469-.969 0-1.5.704-.531.687-.531 2v.234q0 1.281.53 1.984.532.688 1.5.688zm7.281 1.75h-1.078l4.156-10.813h1.078zm15-4.469q0 1.688-.781 2.719-.766 1.031-2.078 1.031-1.344 0-2.125-.86v3.563h-1.266v-10.234h1.156l.063.812q.781-.953 2.156-.953 1.328 0 2.094 1 .781 1 .781 2.797zm-1.266-.156q0-1.25-.53-1.969-.532-.719-1.47-.719-1.14 0-1.718 1.016v3.531q.578 1.016 1.734 1.016.922 0 1.453-.719.531-.734.531-2.156zm6.594-2.5q-.281-.047-.625-.047-1.234 0-1.687 1.062v5.25h-1.266v-7.39h1.234l.016.844q.625-.985 1.766-.985.375 0 .562.094zm4.5 6.406q-1.515 0-2.453-.984-.937-1-.937-2.657v-.218q0-1.11.421-1.969.422-.875 1.172-1.36.75-.484 1.641-.484 1.438 0 2.234.953.797.938.797 2.72v.515h-5q.016 1.093.625 1.781.625.672 1.563.672.672 0 1.125-.266.468-.281.828-.734l.765.594q-.921 1.437-2.78 1.437zm-.156-6.64q-.766 0-1.297.562-.516.562-.64 1.562h3.703v-.093q-.047-.969-.516-1.5-.469-.532-1.25-.532zm5.266-.891.046.812q.813-.953 2.188-.953 1.547 0 2.11 1.188.374-.532.968-.86.594-.328 1.39-.328 2.438 0 2.485 2.578v4.953h-1.266v-4.875q0-.796-.375-1.187-.359-.39-1.203-.39-.718 0-1.187.421-.453.406-.531 1.125v4.906h-1.266v-4.843q0-1.61-1.578-1.61-1.25 0-1.703 1.047v5.406h-1.266v-7.39zm12.187 7.39h-1.266v-7.39h1.266zm-1.36-9.359q0-.312.188-.516.188-.218.547-.218.375 0 .563.218.203.204.203.516 0 .313-.203.516-.188.203-.563.203-.36 0-.547-.203-.187-.203-.187-.516zm7.563 8.625q-.75.875-2.172.875-1.187 0-1.812-.687-.61-.688-.61-2.032v-4.812h1.25v4.765q0 1.688 1.375 1.688 1.454 0 1.922-1.078v-5.376h1.266v7.39h-1.203l-.016-.734zm4.61-6.656.046.812q.813-.953 2.188-.953 1.547 0 2.11 1.188.374-.532.968-.86.594-.328 1.39-.328 2.438 0 2.485 2.578v4.953h-1.266v-4.875q0-.796-.375-1.187-.359-.39-1.203-.39-.718 0-1.187.421-.453.406-.531 1.125v4.906h-1.266v-4.843q0-1.61-1.578-1.61-1.25 0-1.703 1.047v5.406h-1.266v-7.39zm20.078 3.781q0 1.688-.781 2.719-.782 1.031-2.094 1.031-1.39 0-2.156-1l-.063.86h-1.172v-10.5h1.266v3.921q.765-.953 2.11-.953 1.358 0 2.124 1.016.766 1.015.766 2.797v.11zm-1.266-.156q0-1.281-.5-1.985-.5-.703-1.437-.703-1.25 0-1.797 1.157v3.203q.578 1.156 1.812 1.156.906 0 1.406-.703.516-.703.516-2.125zm6.578-2.5q-.281-.047-.625-.047-1.234 0-1.687 1.062v5.25h-1.266v-7.39h1.234l.016.844q.625-.985 1.766-.985.375 0 .562.094zm6 6.265q-.11-.218-.187-.78-.875.921-2.11.921-1.093 0-1.797-.61-.687-.624-.687-1.577 0-1.157.875-1.797.875-.64 2.469-.64h1.234v-.579q0-.672-.406-1.063-.39-.39-1.156-.39-.688 0-1.141.344-.453.343-.453.828h-1.281q0-.563.39-1.078.406-.516 1.078-.813.672-.297 1.47-.297 1.28 0 2 .64.733.641.765 1.75v3.407q0 1.016.25 1.625v.11h-1.313zm-2.11-.968q.595 0 1.126-.297.547-.313.781-.813v-1.515h-1q-2.312 0-2.312 1.36 0 .593.39.937.39.328 1.016.328zm6.735-6.422.031.922q.86-1.063 2.22-1.063 2.343 0 2.374 2.64v4.891h-1.265v-4.89q-.016-.797-.375-1.172-.36-.39-1.11-.39-.625 0-1.094.327-.453.329-.718.86v5.265h-1.266v-7.39zm6.5 3.625q0-1.703.797-2.735.813-1.03 2.11-1.03 1.312 0 2.062.89v-3.86h1.266v10.5h-1.157l-.062-.796q-.766.937-2.11.937-1.296 0-2.109-1.047-.797-1.062-.797-2.765zm1.266.156q0 1.25.515 1.969.516.703 1.438.703 1.203 0 1.75-1.078v-3.406q-.563-1.032-1.734-1.032-.938 0-1.454.72-.515.702-.515 2.124zm14.344 1.64q0-.5-.391-.78-.39-.297-1.344-.5-.953-.204-1.531-.485-.563-.297-.828-.687-.266-.391-.266-.938 0-.922.766-1.547.765-.625 1.969-.625 1.25 0 2.03.656.782.641.782 1.657h-1.266q0-.532-.437-.907-.438-.375-1.11-.375-.687 0-1.077.313-.391.297-.391.781 0 .453.36.688.359.234 1.296.453.953.203 1.547.5t.875.719q.281.406.281 1 0 .984-.797 1.593-.797.594-2.062.594-.875 0-1.563-.312-.687-.329-1.078-.891-.375-.563-.375-1.219h1.266q.031.64.5 1.016.484.375 1.25.375.719 0 1.156-.297.438-.297.438-.781zm4.062 1.97h-1.266v-7.392h1.266v7.39zm-1.36-9.36q0-.312.188-.516.188-.218.547-.218.375 0 .563.218.203.204.203.516 0 .313-.203.516-.188.203-.563.203-.36 0-.547-.203-.187-.203-.187-.516zm4.704.172v1.797h1.375v.969h-1.375v4.593q0 .438.187.672.188.219.625.219.22 0 .61-.094v1.031q-.5.141-.969.141-.86 0-1.297-.516-.422-.515-.422-1.453v-4.593h-1.344v-.97h1.344v-1.796zm6.36 9.328q-1.516 0-2.454-.984-.937-1-.937-2.657v-.218q0-1.11.421-1.969.422-.875 1.172-1.36.75-.484 1.641-.484 1.438 0 2.234.953.797.938.797 2.72v.515h-5q.016 1.093.625 1.781.625.672 1.563.672.672 0 1.125-.266.469-.281.828-.734l.765.594q-.921 1.437-2.78 1.437zm-.157-6.64q-.766 0-1.297.562-.516.562-.64 1.562h3.703v-.093q-.047-.969-.516-1.5-.469-.532-1.25-.532zm8.39 4.53q0-.5-.39-.78-.39-.297-1.344-.5-.953-.204-1.531-.485-.563-.297-.828-.687-.266-.391-.266-.938 0-.922.766-1.547.765-.625 1.969-.625 1.25 0 2.03.656.782.641.782 1.657h-1.266q0-.532-.437-.907-.438-.375-1.11-.375-.687 0-1.077.313-.391.297-.391.781 0 .453.36.688.359.234 1.296.453.953.203 1.547.5t.875.719q.281.406.281 1 0 .984-.797 1.593-.797.594-2.062.594-.875 0-1.563-.312-.687-.329-1.078-.891-.375-.563-.375-1.219h1.266q.031.64.5 1.016.484.375 1.25.375.719 0 1.156-.297.438-.297.438-.781zm7.063 1.97h-1.266v-7.392h1.266v7.39zm-1.36-9.36q0-.312.188-.516.188-.218.547-.218.375 0 .563.218.203.204.203.516 0 .313-.203.516-.188.203-.563.203-.36 0-.547-.203-.187-.203-.187-.516zm4.188 1.969.031.922q.86-1.063 2.22-1.063 2.343 0 2.374 2.64v4.891h-1.265v-4.89q-.016-.797-.375-1.172-.36-.39-1.11-.39-.625 0-1.094.327-.453.329-.718.86v5.265h-1.266v-7.39zm17.656 7.39h-1.328l-5.015-7.671v7.671h-1.313v-9.953h1.313l5.031 7.703v-7.703h1.313v9.953zm3.657-1.078h4.719v1.078h-6.032v-9.953h1.313z" fill="#bdbdbd"/><path d="m27.45 34.411h-9.313v-1.296l4.922-5.47q1.094-1.25 1.5-2.015.422-.781.422-1.61 0-1.109-.672-1.827-.672-.719-1.797-.719-1.359 0-2.109.781-.734.766-.734 2.125h-1.813q0-1.969 1.266-3.172 1.265-1.218 3.39-1.218 1.985 0 3.125 1.046 1.157 1.047 1.157 2.766 0 2.11-2.672 5l-3.813 4.14h7.141v1.47zm9.313-4.78h1.968v1.484h-1.968v3.296h-1.813v-3.296h-6.484v-1.063l6.375-9.86h1.922v9.438zm-6.25 0h4.437v-6.97l-.219.391-4.219 6.578zm9.468-6.704q0-1.281.813-2.11.812-.827 2.094-.827 1.296 0 2.093.843.813.828.813 2.157v.687q0 1.297-.813 2.11-.812.812-2.078.812-1.265 0-2.094-.813-.828-.812-.828-2.171zm1.344.75q0 .766.422 1.266.437.484 1.156.484.703 0 1.125-.469.422-.484.422-1.312v-.719q0-.766-.422-1.266t-1.14-.5q-.72 0-1.141.5-.422.5-.422 1.297v.72zm5.578 7.25q0-1.281.813-2.11.812-.827 2.093-.827 1.282 0 2.094.828.828.812.828 2.172v.703q0 1.265-.812 2.093-.813.829-2.094.829-1.266 0-2.094-.813-.828-.812-.828-2.172zm1.344.766q0 .765.422 1.265.437.485 1.156.485.703 0 1.125-.485.422-.484.422-1.312v-.719q0-.781-.422-1.266-.422-.484-1.14-.484-.688 0-1.126.484-.437.485-.437 1.297zm-4.938 1.64-1.015-.64 6.937-11.11 1.032.641-6.954 11.11zm16.532-4.297q0-1.562.609-2.796.61-1.25 1.688-1.922 1.093-.672 2.5-.672 2.156 0 3.484 1.5 1.344 1.484 1.344 3.969v.125q0 1.546-.594 2.78-.594 1.22-1.703 1.907-1.094.688-2.516.688-2.14 0-3.484-1.5-1.328-1.5-1.328-3.954zm1.812.204q0 1.765.813 2.828.828 1.062 2.187 1.062 1.375 0 2.188-1.078.812-1.078.812-3.016 0-1.75-.828-2.828-.828-1.078-2.188-1.078-1.343 0-2.171 1.063-.813 1.062-.813 3.047zm10.547 5.17v-9.17h-1.656v-1.391h1.656v-1.094q0-1.687.906-2.61.922-.937 2.578-.937.625 0 1.235.157l-.094 1.468q-.453-.078-.969-.078-.89 0-1.375.516-.468.5-.468 1.453v1.125h2.25v1.39h-2.25v9.172h-1.813zm14.469-4.484.265 1.875.407-1.687 2.812-9.922h1.578l2.75 9.922.39 1.718.298-1.922 2.219-9.718h1.874l-3.436 14.218h-1.719l-2.922-10.359-.234-1.094-.219 1.094-3.031 10.36h-1.719l-3.437-14.22h1.875l2.25 9.735zm19.031 4.688q-2.14 0-3.5-1.407-1.344-1.422-1.344-3.78v-.345q0-1.562.594-2.797.61-1.234 1.688-1.937 1.078-.703 2.343-.703 2.063 0 3.203 1.36 1.141 1.359 1.141 3.89v.75h-7.156q.031 1.562.906 2.531.875.953 2.219.953.969 0 1.625-.39.672-.391 1.172-1.032l1.093.86q-1.328 2.047-3.984 2.047zm-.219-9.485q-1.093 0-1.843.797-.735.797-.907 2.234h5.282v-.14q-.079-1.375-.75-2.125-.657-.766-1.782-.766zm15.782 4.11q0 2.421-1.11 3.906-1.11 1.469-2.984 1.469-2.016 0-3.11-1.422l-.078 1.218h-1.656v-15h1.797v5.594q1.094-1.36 3.016-1.36 1.921 0 3.015 1.454 1.11 1.453 1.11 3.984zm-1.813-.204q0-1.843-.719-2.843-.703-1.016-2.031-1.016-1.797 0-2.578 1.672v4.562q.828 1.657 2.594 1.657 1.297 0 2.015-1 .719-1 .719-3.032zm10.016 2.579q0-.735-.547-1.141t-1.922-.703q-1.375-.297-2.188-.703-.796-.407-1.187-.969-.375-.578-.375-1.36 0-1.296 1.094-2.187 1.093-.906 2.812-.906 1.797 0 2.906.937 1.125.922 1.125 2.36h-1.828q0-.735-.625-1.266-.625-.547-1.578-.547-1 0-1.562.438-.547.422-.547 1.125 0 .64.515.984.516.328 1.875.64 1.36.298 2.188.72.844.406 1.25 1 .406.593.406 1.437 0 1.422-1.14 2.281-1.126.86-2.938.86-1.266 0-2.25-.454-.969-.453-1.531-1.25-.547-.812-.547-1.75h1.812q.047.907.72 1.438.687.531 1.796.531 1.031 0 1.64-.406.626-.422.626-1.11zm5.812 2.796h-1.797v-10.56h1.797v10.562zm-1.953-13.375q0-.437.266-.734.28-.312.796-.312.532 0 .797.312.282.297.282.734 0 .438-.282.735-.265.297-.797.297-.515 0-.796-.297-.266-.297-.266-.735zm7.438.25v2.563h1.984v1.39h-1.985v6.547q0 .641.266.97.266.312.906.312.313 0 .86-.125v1.468q-.719.204-1.39.204-1.204 0-1.829-.735-.61-.734-.61-2.094v-6.545h-1.921v-1.391h1.922v-2.563h1.796zm8.937 13.329q-2.14 0-3.5-1.407-1.344-1.422-1.344-3.78v-.345q0-1.562.594-2.797.61-1.234 1.688-1.937 1.078-.703 2.343-.703 2.063 0 3.203 1.36 1.141 1.359 1.141 3.89v.75h-7.156q.031 1.562.906 2.531.875.953 2.219.953.968 0 1.625-.39.672-.391 1.172-1.032l1.093.86q-1.328 2.047-3.984 2.047zm-.219-9.485q-1.094 0-1.844.797-.734.797-.906 2.234h5.281v-.14q-.078-1.375-.75-2.125-.656-.766-1.78-.766zm12.985 6.485q0-.735-.547-1.141t-1.922-.703q-1.375-.297-2.188-.703-.797-.407-1.187-.969-.375-.578-.375-1.36 0-1.296 1.094-2.187 1.093-.906 2.812-.906 1.797 0 2.906.937 1.125.922 1.125 2.36h-1.828q0-.735-.625-1.266-.625-.547-1.578-.547-1 0-1.562.438-.547.422-.547 1.125 0 .64.515.984.516.328 1.875.64 1.36.298 2.188.72.844.406 1.25 1 .406.593.406 1.437 0 1.422-1.14 2.281-1.126.86-2.938.86-1.266 0-2.25-.454-.969-.453-1.531-1.25-.547-.812-.547-1.75h1.812q.047.907.72 1.438.687.531 1.796.531 1.031 0 1.64-.406.626-.422.626-1.11zm20.062 2.796h-1.89v-6.578h-7.157v6.578h-1.875v-14.217h1.875v6.11h7.156v-6.11h1.891zm9.313 0q-.157-.312-.25-1.109-1.266 1.313-3.016 1.313-1.563 0-2.563-.891-1-.89-1-2.25 0-1.64 1.25-2.547 1.266-.922 3.532-.922h1.765v-.828q0-.953-.578-1.516-.562-.562-1.656-.562-.969 0-1.625.5-.656.484-.656 1.172h-1.813q0-.781.563-1.516.562-.75 1.515-1.172.97-.437 2.125-.437 1.828 0 2.86.922 1.031.906 1.078 2.515v4.86q0 1.453.36 2.312v.156zm-3-1.375q.859 0 1.609-.437.766-.438 1.11-1.14v-2.173h-1.423q-3.312 0-3.312 1.938 0 .86.563 1.344.562.468 1.453.468zm10.968-1.078 2.61-8.109h1.843l-3.78 10.562h-1.376l-3.828-10.562h1.844l2.687 8.11zm10.891 2.657q-2.14 0-3.5-1.407-1.344-1.422-1.344-3.78v-.345q0-1.562.594-2.797.61-1.234 1.688-1.937 1.078-.703 2.343-.703 2.063 0 3.203 1.36 1.141 1.359 1.141 3.89v.75h-7.156q.031 1.562.906 2.531.875.953 2.219.953.968 0 1.625-.39.672-.391 1.172-1.032l1.093.86q-1.328 2.047-3.984 2.047zm-.219-9.485q-1.094 0-1.844.797-.734.797-.906 2.234h5.281v-.14q-.078-1.375-.75-2.125-.656-.766-1.78-.766zm18.36 9.281q-.157-.312-.25-1.109-1.266 1.313-3.016 1.313-1.563 0-2.563-.891-1-.89-1-2.25 0-1.64 1.25-2.547 1.266-.922 3.532-.922h1.765v-.828q0-.953-.578-1.516-.562-.562-1.656-.562-.969 0-1.625.5-.656.484-.656 1.172h-1.813q0-.781.563-1.516.562-.75 1.515-1.172.97-.437 2.125-.437 1.828 0 2.86.922 1.031.906 1.078 2.515v4.86q0 1.453.36 2.312v.156zm-3-1.375q.859 0 1.609-.437.766-.438 1.11-1.14v-2.173h-1.423q-3.312 0-3.312 1.938 0 .86.563 1.344.562.468 1.453.468zm9.187-9.187.063 1.328q1.203-1.531 3.156-1.531 3.36 0 3.375 3.781v6.984h-1.797v-7q-.016-1.14-.531-1.687-.5-.547-1.594-.547-.875 0-1.547.469-.656.469-1.031 1.234v7.531h-1.797v-10.56h1.703zm22.61 3.984h-6.157v5.047h7.156v1.531h-9.03v-14.217h8.937v1.547h-7.063v4.562h6.156v1.531zm7.671 4.094 4.063-11.734h2.047l-5.266 14.218h-1.672l-5.25-14.218h2.031zm23.75-2.031q-.265 2.265-1.672 3.5-1.39 1.219-3.718 1.219-2.516 0-4.047-1.813-1.516-1.812-1.516-4.844v-1.357q0-1.984.703-3.484.72-1.5 2.016-2.313 1.297-.812 3.016-.812 2.265 0 3.625 1.265 1.375 1.266 1.593 3.5h-1.89q-.235-1.687-1.063-2.453-.812-.766-2.265-.766-1.797 0-2.829 1.329-1.015 1.328-1.015 3.78v1.376q0 2.312.969 3.687.968 1.36 2.703 1.36 1.562 0 2.39-.703.844-.704 1.11-2.47h1.89zm6.641 4.719q-2.14 0-3.5-1.407-1.344-1.422-1.344-3.78v-.345q0-1.562.594-2.797.61-1.234 1.688-1.937 1.078-.703 2.343-.703 2.063 0 3.203 1.36 1.141 1.359 1.141 3.89v.75h-7.156q.031 1.562.906 2.531.875.953 2.219.953.969 0 1.625-.39.672-.391 1.172-1.032l1.093.86q-1.328 2.047-3.984 2.047zm-.219-9.485q-1.094 0-1.844.797-.734.797-.906 2.234h5.281v-.14q-.078-1.375-.75-2.125-.656-.766-1.78-.766zm11.938.328q-.406-.062-.875-.062-1.781 0-2.422 1.515v7.5h-1.797v-10.56h1.75l.031 1.219q.89-1.422 2.516-1.422.531 0 .797.14v1.672zm4.344-4.172v2.563h1.984v1.39h-1.985v6.547q0 .641.266.97.266.312.906.312.313 0 .86-.125v1.468q-.719.204-1.39.204-1.204 0-1.829-.735-.61-.734-.61-2.094v-6.545h-1.921v-1.391h1.922v-2.563h1.796zm6.515 13.125h-1.797v-10.56h1.797v10.562zm-1.953-13.375q0-.437.266-.734.28-.312.796-.312.532 0 .797.312.282.297.282.734 0 .438-.282.735-.265.297-.797.297-.515 0-.796-.297-.266-.297-.266-.735zm5.875 13.375v-9.17h-1.656v-1.391h1.656v-1.094q0-1.687.906-2.61.922-.937 2.578-.937.625 0 1.235.157l-.094 1.468q-.453-.078-.969-.078-.89 0-1.375.516-.469.5-.469 1.453v1.125h2.25v1.39h-2.25v9.172h-1.812zm8.078 0h-1.797v-10.56h1.797v10.562zm-1.953-13.375q0-.437.266-.734.28-.312.796-.312.532 0 .797.312.282.297.282.734 0 .438-.282.735-.265.297-.797.297-.515 0-.796-.297-.266-.297-.266-.735zm9.234 12.094q.97 0 1.688-.578.719-.594.797-1.469h1.719q-.063.907-.641 1.735-.563.812-1.531 1.312-.954.485-2.032.485-2.156 0-3.437-1.438-1.266-1.453-1.266-3.953v-.297q0-1.547.563-2.75.562-1.203 1.625-1.86 1.062-.671 2.5-.671 1.781 0 2.953 1.062 1.187 1.063 1.265 2.766h-1.718q-.078-1.016-.781-1.672-.688-.672-1.72-.672-1.374 0-2.14 1-.75.985-.75 2.86v.343q0 1.828.75 2.813.75.984 2.156.984zm12.282 1.281q-.157-.312-.25-1.109-1.266 1.313-3.016 1.313-1.563 0-2.563-.891-1-.89-1-2.25 0-1.64 1.25-2.547 1.266-.922 3.532-.922h1.765v-.828q0-.953-.578-1.516-.562-.562-1.656-.562-.969 0-1.625.5-.656.484-.656 1.172h-1.813q0-.781.563-1.516.562-.75 1.515-1.172.97-.437 2.125-.437 1.828 0 2.86.922 1.031.906 1.078 2.515v4.86q0 1.453.36 2.312v.156zm-3-1.375q.859 0 1.609-.437.766-.438 1.11-1.14v-2.173h-1.423q-3.312 0-3.312 1.938 0 .86.563 1.344.562.468 1.453.468zm9.921-11.75v2.563h1.985v1.39h-1.985v6.547q0 .641.266.97.266.312.906.312.313 0 .86-.125v1.468q-.719.204-1.39.204-1.204 0-1.829-.735-.61-.734-.61-2.094v-6.545h-1.921v-1.391h1.922v-2.563h1.796zm8.938 13.329q-2.14 0-3.5-1.407-1.344-1.422-1.344-3.78v-.345q0-1.562.594-2.797.61-1.234 1.688-1.937 1.078-.703 2.343-.703 2.063 0 3.203 1.36 1.141 1.359 1.141 3.89v.75h-7.156q.031 1.562.906 2.531.875.953 2.219.953.969 0 1.625-.39.672-.391 1.172-1.032l1.093.86q-1.328 2.047-3.984 2.047zm-.219-9.485q-1.094 0-1.844.797-.734.797-.906 2.234h5.281v-.14q-.078-1.375-.75-2.125-.656-.766-1.78-.766z" fill="#757575"/></svg>