<svg fill="none" height="339" stroke-linecap="square" stroke-miterlimit="10" viewBox="0 0 548 339" width="548" xmlns="http://www.w3.org/2000/svg" xmlns:xlink="http://www.w3.org/1999/xlink"><clipPath id="a"><path d="m146.23315 69.78353h384.81555v231.64872h-384.81555z"/></clipPath><path d="m0 0h548v339h-548z" fill="#fff"/><path d="m146.5 69.5v232" stroke="#333" stroke-linecap="butt"/><path d="m223.5 69.5v232" stroke="#ccc" stroke-linecap="butt"/><path d="m300.5 69.5v232" stroke="#ccc" stroke-linecap="butt"/><path d="m377.5 69.5v232" stroke="#ccc" stroke-linecap="butt"/><path d="m454.5 69.5v232" stroke="#ccc" stroke-linecap="butt"/><path d="m531.5 69.5v232" stroke="#ccc" stroke-linecap="butt"/><path clip-path="url(#a)" d="m146 168v-64h94c1.10457 0 2 .89543 2 2v60c0 1.10457-.89543 2-2 2z"/><path clip-path="url(#a)" d="m146 168v-64h94c1.10457 0 2 .89543 2 2v60c0 1.10457-.89543 2-2 2z" fill="#e64a19"/><path clip-path="url(#a)" d="m146 267v-64h288c1.10458 0 2 .89543 2 2v60c0 1.10458-.89542 2-2 2z"/><path clip-path="url(#a)" d="m146 267v-64h288c1.10458 0 2 .89543 2 2v60c0 1.10458-.89542 2-2 2z" fill="#e64a19"/><path d="m217.05177 140.5h-1.26562v-8.42188l-2.5625.92188v-1.14062l3.625-1.35938h.20312zm10.35938 0h-6.51563v-.90625l3.4375-3.82813q.76563-.875 1.0625-1.40624.29688-.54688.29688-1.14063 0-.76563-.48438-1.26563-.46875-.5-1.25-.5-.9375 0-1.46875.53126-.51562.53124-.51562 1.5h-1.26563q0-1.375.875-2.21876.89063-.85937 2.375-.85937 1.39063 0 2.1875.73437.8125.71876.8125 1.9375 0 1.46876-1.875 3.5l-2.65625 2.89063h4.98438zm6.82812-3.34375h1.375v1.03125h-1.375v2.3125h-1.28125v-2.3125h-4.53125v-.75l4.45313-6.89062h1.35937zm-4.375 0h3.09375v-4.875l-.14062.26563z" stroke="#e64a19" stroke-linecap="round" stroke-linejoin="round" stroke-width="3"/><path d="m217.05177 140.5h-1.26562v-8.42188l-2.5625.92188v-1.14062l3.625-1.35938h.20312zm10.35938 0h-6.51563v-.90625l3.4375-3.82813q.76563-.875 1.0625-1.40624.29688-.54688.29688-1.14063 0-.76563-.48438-1.26563-.46875-.5-1.25-.5-.9375 0-1.46875.53126-.51562.53124-.51562 1.5h-1.26563q0-1.375.875-2.21876.89063-.85937 2.375-.85937 1.39063 0 2.1875.73437.8125.71876.8125 1.9375 0 1.46876-1.875 3.5l-2.65625 2.89063h4.98438zm6.82812-3.34375h1.375v1.03125h-1.375v2.3125h-1.28125v-2.3125h-4.53125v-.75l4.45313-6.89062h1.35937zm-4.375 0h3.09375v-4.875l-.14062.26563z" fill="#fff"/><path d="m408.6863 233.90625h.9375q.90626-.01563 1.40626-.46875.51564-.45312.51564-1.23438 0-1.75-1.7344-1.75-.8281 0-1.3125.46876-.48437.46874-.48437 1.23437h-1.26563q0-1.1875.8594-1.96875.875-.78125 2.2031-.78125 1.40626 0 2.20313.75.79687.75.79687 2.0625 0 .65625-.42187 1.26563-.40623.60937-1.14063.90624.82813.26563 1.26563.875.45313.59376.45313 1.45313 0 1.34375-.875 2.14063-.875.78124-2.28126.78124-1.3906 0-2.28124-.75-.875-.76562-.875-2.01562h1.28124q0 .78125.5 1.26562.51563.46876 1.375.46876.9219 0 1.40626-.48438.48437-.48438.48437-1.375 0-.85938-.53123-1.32812-.53127-.46876-1.5469-.48438h-.9375zm12.57813-3.65625-4.125 9.25h-1.3125l4.09377-8.92188h-5.375v-1.03124h6.71873zm6.54687-.70312v1.0625h-.23437q-1.48437.03124-2.35937.875-.875.84374-1.01563 2.39062.79687-.90625 2.15627-.90625 1.29686 0 2.0625.92187.78123.90626.78123 2.35938 0 1.54688-.84373 2.46875-.82814.92187-2.2344.92187-1.42187 0-2.3125-1.09374-.8906-1.10938-.8906-2.82813v-.48437q0-2.75 1.17186-4.20313 1.17187-1.45313 3.48437-1.48437zm-1.67187 4.48437q-.64063 0-1.1875.39063-.54687.375-.76563.96874v.46876q0 1.23437.5469 1.98437.5625.75 1.3906.75.8594 0 1.34376-.625.48437-.64063.48437-1.65625 0-1.03125-.5-1.65625-.48437-.625-1.3125-.625z" stroke="#e64a19" stroke-linecap="round" stroke-linejoin="round" stroke-width="3"/><path d="m408.6863 233.90625h.9375q.90626-.01563 1.40626-.46875.51564-.45312.51564-1.23438 0-1.75-1.7344-1.75-.8281 0-1.3125.46876-.48437.46874-.48437 1.23437h-1.26563q0-1.1875.8594-1.96875.875-.78125 2.2031-.78125 1.40626 0 2.20313.75.79687.75.79687 2.0625 0 .65625-.42187 1.26563-.40623.60937-1.14063.90624.82813.26563 1.26563.875.45313.59376.45313 1.45313 0 1.34375-.875 2.14063-.875.78124-2.28126.78124-1.3906 0-2.28124-.75-.875-.76562-.875-2.01562h1.28124q0 .78125.5 1.26562.51563.46876 1.375.46876.9219 0 1.40626-.48438.48437-.48438.48437-1.375 0-.85938-.53123-1.32812-.53127-.46876-1.5469-.48438h-.9375zm12.57813-3.65625-4.125 9.25h-1.3125l4.09377-8.92188h-5.375v-1.03124h6.71873zm6.54687-.70312v1.0625h-.23437q-1.48437.03124-2.35937.875-.875.84374-1.01563 2.39062.79687-.90625 2.15627-.90625 1.29686 0 2.0625.92187.78123.90626.78123 2.35938 0 1.54688-.84373 2.46875-.82814.92187-2.2344.92187-1.42187 0-2.3125-1.09374-.8906-1.10938-.8906-2.82813v-.48437q0-2.75 1.17186-4.20313 1.17187-1.45313 3.48437-1.48437zm-1.67187 4.48437q-.64063 0-1.1875.39063-.54687.375-.76563.96874v.46876q0 1.23437.5469 1.98437.5625.75 1.3906.75.8594 0 1.34376-.625.48437-.64063.48437-1.65625 0-1.03125-.5-1.65625-.48437-.625-1.3125-.625z" fill="#fff"/><g fill="#666"><path d="m64.014404 136.22719h-4.312504v3.51562h5.01563v1.07813h-6.32813v-9.95313h6.250004v1.07813h-4.937504v3.20312h4.312504zm5.671876 2.84375 2.84375-8.20313h1.4375l-3.703126 9.95313h-1.15625l-3.6875-9.95313h1.4375zm11.46875.85937q.671874 0 1.171874-.40625.515626-.42187.578126-1.03125h1.1875q-.03125.625-.4375 1.20313-.40625.57812-1.078126.92187-.671874.34375-1.421874.34375-1.515626 0-2.40625-1-.890626-1.01562-.890626-2.76562v-.21875q0-1.07813.390626-1.92188.40625-.84375 1.140624-1.29687.75-.46875 1.765626-.46875 1.234374 0 2.0625.75.828124.73437.875 1.92187h-1.1875q-.0625-.71875-.546876-1.17187-.484374-.46875-1.203124-.46875-.96875 0-1.5.70312-.53125.6875-.53125 2v.23438q0 1.28125.53125 1.98437.53125.6875 1.5.6875zm7.109374 1.03125q-1.515624 0-2.453124-.98437-.9375-1-.9375-2.65625v-.21875q0-1.10938.421874-1.96875.421876-.875 1.171876-1.35938.75-.48437 1.640624-.48437 1.4375 0 2.234376.95312.796874.9375.796874 2.71875v.51563h-5q.015626 1.09375.625 1.78125.625.67187 1.5625.67187.671876 0 1.125-.26562.46875-.28125.828126-.73438l.765624.59375q-.921874 1.4375-2.78125 1.4375zm-.15625-6.64062q-.765624 0-1.296874.5625-.515626.5625-.640626 1.5625h3.703126v-.09375q-.046876-.96875-.515626-1.5-.46875-.53125-1.25-.53125zm7.65625.23437q-.28125-.04687-.625-.04687-1.234374 0-1.6875 1.0625v5.25h-1.265624v-7.39063h1.234374l.015626.84375q.625-.98437 1.765624-.98437.375 0 .5625.09375zm3.140626-2.92187v1.79687h1.375v.96875h-1.375v4.59375q0 .4375.1875.67188.1875.21875.625.21875.21875 0 .609374-.09375v1.03125q-.5.14062-.96875.14062-.859374 0-1.296874-.51562-.421876-.51563-.421876-1.45313v-4.59375h-1.34375v-.96875h1.34375v-1.79687zm4.65625 9.1875h-1.265626v-7.39063h1.265626zm-1.359376-9.35938q0-.3125.1875-.51562.1875-.21875.546876-.21875.375 0 .5625.21875.203124.20312.203124.51562 0 .3125-.203124.51563-.1875.20312-.5625.20312-.359376 0-.546876-.20312-.1875-.20313-.1875-.51563zm3.609376 9.35938v-6.42188h-1.171876v-.96875h1.171876v-.76562q0-1.1875.625-1.82813.640624-.65625 1.8125-.65625.4375 0 .859374.10938l-.0625 1.03125q-.328124-.0625-.6875-.0625-.609374 0-.953124.35937-.328126.35938-.328126 1.03125v.78125h1.578126v.96875h-1.578126v6.42188zm5.75 0h-1.265626v-7.39063h1.265626zm-1.359376-9.35938q0-.3125.1875-.51562.1875-.21875.546876-.21875.375 0 .5625.21875.203124.20312.203124.51562 0 .3125-.203124.51563-.1875.20312-.5625.20312-.359376 0-.546876-.20312-.1875-.20313-.1875-.51563zm5.953126 8.46875q.671874 0 1.171874-.40625.515626-.42187.578126-1.03125h1.1875q-.03125.625-.4375 1.20313-.40625.57812-1.078126.92187-.671874.34375-1.421874.34375-1.515626 0-2.40625-1-.890626-1.01562-.890626-2.76562v-.21875q0-1.07813.390626-1.92188.40625-.84375 1.140624-1.29687.75-.46875 1.765626-.46875 1.234374 0 2.0625.75.828124.73437.875 1.92187h-1.1875q-.0625-.71875-.546876-1.17187-.484374-.46875-1.203124-.46875-.96875 0-1.5.70312-.53125.6875-.53125 2v.23438q0 1.28125.53125 1.98437.53125.6875 1.5.6875zm8.609374.89063q-.109374-.21875-.1875-.78125-.875.92187-2.109374.92187-1.09375 0-1.796876-.60937-.6875-.625-.6875-1.57813 0-1.15625.875-1.79687.875-.64063 2.46875-.64063h1.234376v-.57812q0-.67188-.40625-1.0625-.390626-.39063-1.15625-.39063-.6875 0-1.140626.34375-.453124.34375-.453124.82813h-1.28125q0-.5625.390624-1.07813.40625-.51562 1.078126-.8125.671874-.29687 1.46875-.29687 1.28125 0 2 .64062.734374.64063.765624 1.75v3.40625q0 1.01563.25 1.625v.10938zm-2.109374-.96875q.59375 0 1.125-.29688.546874-.3125.78125-.8125v-1.51562h-1q-2.3125 0-2.3125 1.35937 0 .59375.390624.9375.390626.32813 1.015626.32813zm7.25-8.21875v1.79687h1.375v.96875h-1.375v4.59375q0 .4375.1875.67188.1875.21875.625.21875.21875 0 .60937-.09375v1.03125q-.5.14062-.96875.14062-.85937 0-1.29687-.51562-.42188-.51563-.42188-1.45313v-4.59375h-1.343746v-.96875h1.343746v-1.79687zm6.35937 9.32812q-1.51562 0-2.45312-.98437-.9375-1-.9375-2.65625v-.21875q0-1.10938.42187-1.96875.42188-.875 1.17188-1.35938.75-.48437 1.64062-.48437 1.4375 0 2.23438.95312.79687.9375.79687 2.71875v.51563h-5q.01563 1.09375.625 1.78125.625.67187 1.5625.67187.67188 0 1.125-.26562.46875-.28125.82813-.73438l.76562.59375q-.92187 1.4375-2.78125 1.4375zm-.15625-6.64062q-.76562 0-1.29687.5625-.51563.5625-.64063 1.5625h3.70313v-.09375q-.04688-.96875-.51563-1.5-.46875-.53125-1.25-.53125z"/><path d="m32.3894 239.39485v-9.95312h2.8125q1.296875 0 2.296875.57812 1 .5625 1.53125 1.625.546875 1.0625.5625 2.4375v.64063q0 1.40625-.546875 2.46875-.546875 1.04687-1.5625 1.625-1 .5625-2.34375.57812zm1.3125-8.875v7.79688h1.375q1.515625 0 2.359375-.9375.859375-.9375.859375-2.6875v-.57813q0-1.70312-.796875-2.64062-.796875-.9375-2.265625-.95313zm10.984375 7.125 2.84375-8.20312h1.4375l-3.703125 9.95312h-1.15625l-3.6875-9.95312h1.4375zm5.75 2.60938h-1.078125l4.15625-10.8125h1.078125zm13.609379-5.51563q0 1.46875-.500004 2.5625-.484375 1.07813-1.390625 1.65625-.90625.57813-2.109375.57813-1.171875 0-2.078125-.57813-.90625-.57812-1.40625-1.64062-.5-1.07813-.515625-2.48438v-.71875q0-1.4375.5-2.53125.5-1.10937 1.40625-1.6875.90625-.59375 2.09375-.59375 1.1875 0 2.09375.57813.921875.57812 1.40625 1.6875.500004 1.09375.500004 2.54687zm-1.312504-.64062q0-1.76563-.71875-2.71875-.703125-.95313-1.96875-.95313-1.25 0-1.96875.95313-.703125.95312-.734375 2.625v.73437q0 1.71875.71875 2.70313.734375.96875 1.984375.96875 1.28125 0 1.96875-.92188.703125-.92187.71875-2.65625zm6.95313 3.54687 2.84375-8.20312h1.4375l-3.703126 9.95312h-1.15625l-3.6875-9.95312h1.4375zm11.46875.85938q.671874 0 1.171874-.40625.515626-.42188.578126-1.03125h1.1875q-.03125.625-.4375 1.20312-.40625.57813-1.078126.92188-.671874.34375-1.421874.34375-1.515626 0-2.40625-1-.890626-1.01563-.890626-2.76563v-.21875q0-1.07812.390626-1.92187.40625-.84375 1.140624-1.29688.75-.46875 1.765626-.46875 1.234374 0 2.0625.75.828124.73438.875 1.92188h-1.1875q-.0625-.71875-.546876-1.17188-.484374-.46875-1.203124-.46875-.96875 0-1.5.70313-.53125.6875-.53125 2v.23437q0 1.28125.53125 1.98438.53125.6875 1.5.6875zm7.109374 1.03125q-1.515624 0-2.453124-.98438-.9375-1-.9375-2.65625v-.21875q0-1.10937.421874-1.96875.421876-.875 1.171876-1.35937.75-.48438 1.640624-.48438 1.4375 0 2.234376.95313.796874.9375.796874 2.71875v.51562h-5q.015626 1.09375.625 1.78125.625.67188 1.5625.67188.671876 0 1.125-.26563.46875-.28125.828126-.73437l.765624.59375q-.921874 1.4375-2.78125 1.4375zm-.15625-6.64063q-.765624 0-1.296874.5625-.515626.5625-.640626 1.5625h3.703126v-.09375q-.046876-.96875-.515626-1.5-.46875-.53125-1.25-.53125zm7.65625.23438q-.28125-.04688-.625-.04688-1.234374 0-1.6875 1.0625v5.25h-1.265624v-7.39062h1.234374l.015626.84375q.625-.98438 1.765624-.98438.375 0 .5625.09375zm3.140626-2.92188v1.79688h1.375v.96875h-1.375v4.59375q0 .4375.1875.67187.1875.21875.625.21875.21875 0 .609374-.09375v1.03125q-.5.14063-.96875.14063-.859374 0-1.296874-.51563-.421876-.51562-.421876-1.45312v-4.59375h-1.34375v-.96875h1.34375v-1.79688zm4.65625 9.1875h-1.265626v-7.39062h1.265626zm-1.359376-9.35937q0-.3125.1875-.51563.1875-.21875.546876-.21875.375 0 .5625.21875.203124.20313.203124.51563 0 .3125-.203124.51562-.1875.20313-.5625.20313-.359376 0-.546876-.20313-.1875-.20312-.1875-.51562zm3.609376 9.35937v-6.42187h-1.171876v-.96875h1.171876v-.76563q0-1.1875.625-1.82812.640624-.65625 1.8125-.65625.4375 0 .859374.10937l-.0625 1.03125q-.328124-.0625-.6875-.0625-.609374 0-.953124.35938-.328126.35937-.328126 1.03125v.78125h1.578126v.96875h-1.578126v6.42187zm5.75 0h-1.265626v-7.39062h1.265626zm-1.359376-9.35937q0-.3125.1875-.51563.1875-.21875.546876-.21875.375 0 .5625.21875.203124.20313.203124.51563 0 .3125-.203124.51562-.1875.20313-.5625.20313-.359376 0-.546876-.20313-.1875-.20312-.1875-.51562zm5.953126 8.46875q.671874 0 1.171874-.40625.515626-.42188.578126-1.03125h1.1875q-.03125.625-.4375 1.20312-.40625.57813-1.078126.92188-.671874.34375-1.421874.34375-1.515626 0-2.40625-1-.890626-1.01563-.890626-2.76563v-.21875q0-1.07812.390626-1.92187.40625-.84375 1.140624-1.29688.75-.46875 1.765626-.46875 1.234374 0 2.0625.75.828124.73438.875 1.92188h-1.1875q-.0625-.71875-.546876-1.17188-.484374-.46875-1.203124-.46875-.96875 0-1.5.70313-.53125.6875-.53125 2v.23437q0 1.28125.53125 1.98438.53125.6875 1.5.6875zm8.609374.89062q-.109374-.21875-.1875-.78125-.875.92188-2.109374.92188-1.09375 0-1.796876-.60938-.6875-.625-.6875-1.57812 0-1.15625.875-1.79688.875-.64062 2.46875-.64062h1.234376v-.57813q0-.67187-.40625-1.0625-.390626-.39062-1.15625-.39062-.6875 0-1.140626.34375-.453124.34375-.453124.82812h-1.28125q0-.5625.390624-1.07812.40625-.51563 1.078126-.8125.671874-.29688 1.46875-.29688 1.28125 0 2 .64063.734374.64062.765624 1.75v3.40625q0 1.01562.25 1.625v.10937zm-2.109374-.96875q.59375 0 1.125-.29687.546874-.3125.78125-.8125v-1.51563h-1q-2.3125 0-2.3125 1.35938 0 .59375.390624.9375.390626.32812 1.015626.32812zm7.25-8.21875v1.79688h1.375v.96875h-1.375v4.59375q0 .4375.1875.67187.1875.21875.625.21875.21875 0 .60937-.09375v1.03125q-.5.14063-.96875.14063-.85937 0-1.29687-.51563-.42188-.51562-.42188-1.45312v-4.59375h-1.343746v-.96875h1.343746v-1.79688zm6.35937 9.32813q-1.51562 0-2.45312-.98438-.9375-1-.9375-2.65625v-.21875q0-1.10937.42187-1.96875.42188-.875 1.17188-1.35937.75-.48438 1.64062-.48438 1.4375 0 2.23438.95313.79687.9375.79687 2.71875v.51562h-5q.01563 1.09375.625 1.78125.625.67188 1.5625.67188.67188 0 1.125-.26563.46875-.28125.82813-.73437l.76562.59375q-.92187 1.4375-2.78125 1.4375zm-.15625-6.64063q-.76562 0-1.29687.5625-.51563.5625-.64063 1.5625h3.70313v-.09375q-.04688-.96875-.51563-1.5-.46875-.53125-1.25-.53125z"/><path d="m149.29565 317.18225q0 2.21875-.76562 3.3125-.75 1.07813-2.35938 1.07813-1.59375 0-2.35937-1.04688-.76563-1.0625-.79688-3.17187v-1.6875q0-2.1875.75-3.25.76563-1.07813 2.39063-1.07813 1.60937 0 2.35937 1.03125.76563 1.03125.78125 3.17188zm-1.26562-1.71875q0-1.60937-.45313-2.34375-.4375-.73437-1.42187-.73437-.96875 0-1.42188.73437-.4375.71875-.45312 2.23438v2.03125q0 1.60937.46875 2.39062.46875.76563 1.42187.76563.9375 0 1.39063-.71875.45312-.73438.46875-2.29688z"/><path d="m216.18063 321.43225h-1.26562v-8.42187l-2.5625.92187v-1.14062l3.625-1.35938h.20312zm10.07813-4.25q0 2.21875-.76563 3.3125-.75 1.07813-2.35937 1.07813-1.59375 0-2.35938-1.04688-.76562-1.0625-.79687-3.17187v-1.6875q0-2.1875.75-3.25.76562-1.07813 2.39062-1.07813 1.60938 0 2.35938 1.03125.76562 1.03125.78125 3.17188zm-1.26563-1.71875q0-1.60937-.45312-2.34375-.4375-.73437-1.42188-.73437-.96875 0-1.42187.73437-.4375.71875-.45313 2.23438v2.03125q0 1.60937.46875 2.39062.46875.76563 1.42188.76563.9375 0 1.39062-.71875.45313-.73438.46875-2.29688zm9.26563 1.71875q0 2.21875-.76563 3.3125-.75 1.07813-2.35937 1.07813-1.59375 0-2.35938-1.04688-.76562-1.0625-.79687-3.17187v-1.6875q0-2.1875.75-3.25.76562-1.07813 2.39062-1.07813 1.60938 0 2.35938 1.03125.76562 1.03125.78125 3.17188zm-1.26563-1.71875q0-1.60937-.45312-2.34375-.4375-.73437-1.42188-.73437-.96875 0-1.42187.73437-.4375.71875-.45313 2.23438v2.03125q0 1.60937.46875 2.39062.46875.76563 1.42188.76563.9375 0 1.39062-.71875.45313-.73438.46875-2.29688z"/><path d="m295.5031 321.43225h-6.5156v-.90625l3.4375-3.82812q.7656-.875 1.0625-1.40625.29686-.54688.29686-1.14063 0-.76562-.48436-1.26562-.46876-.5-1.25-.5-.9375 0-1.46876.53125-.51564.53125-.51564 1.5h-1.2656q0-1.375.875-2.21875.8906-.85938 2.375-.85938 1.3906 0 2.1875.73438.8125.71875.8125 1.9375 0 1.46875-1.875 3.5l-2.65626 2.89062h4.98436zm7.71876-4.25q0 2.21875-.76562 3.3125-.75 1.07813-2.35938 1.07813-1.59376 0-2.35936-1.04688-.76564-1.0625-.7969-3.17187v-1.6875q0-2.1875.75-3.25.76564-1.07813 2.39064-1.07813 1.60936 0 2.35936 1.03125.76564 1.03125.78126 3.17188zm-1.26562-1.71875q0-1.60937-.45314-2.34375-.4375-.73437-1.42186-.73437-.96874 0-1.42188.73437-.4375.71875-.45312 2.23438v2.03125q0 1.60937.46876 2.39062.46874.76563 1.42186.76563.9375 0 1.39064-.71875.4531-.73438.46874-2.29688zm9.26562 1.71875q0 2.21875-.76562 3.3125-.75 1.07813-2.35938 1.07813-1.59376 0-2.35936-1.04688-.76564-1.0625-.7969-3.17187v-1.6875q0-2.1875.75-3.25.76564-1.07813 2.39064-1.07813 1.60936 0 2.35936 1.03125.76564 1.03125.78126 3.17188zm-1.26562-1.71875q0-1.60937-.45314-2.34375-.4375-.73437-1.42186-.73437-.96874 0-1.42188.73437-.4375.71875-.45312 2.23438v2.03125q0 1.60937.46876 2.39062.46874.76563 1.42186.76563.9375 0 1.39064-.71875.4531-.73438.46874-2.29688z"/><path d="m367.79434 315.8385h.9375q.90626-.01562 1.40626-.46875.51562-.45312.51562-1.23437 0-1.75-1.73438-1.75-.82812 0-1.3125.46875-.48437.46875-.48437 1.23437h-1.26563q0-1.1875.85938-1.96875.875-.78125 2.20312-.78125 1.40626 0 2.20313.75.79687.75.79687 2.0625 0 .65625-.42187 1.26563-.40625.60937-1.14063.90625.82813.26562 1.26563.875.45313.59375.45313 1.45312 0 1.34375-.875 2.14063-.875.78125-2.28126.78125-1.39062 0-2.28124-.75-.875-.76563-.875-2.01563h1.28124q0 .78125.5 1.26563.51563.46875 1.375.46875.92188 0 1.40626-.48438.48437-.48437.48437-1.375 0-.85937-.53125-1.32812-.53125-.46875-1.54688-.48438h-.9375zm12.39063 1.34375q0 2.21875-.76563 3.3125-.75 1.07813-2.35937 1.07813-1.59375 0-2.35937-1.04688-.76563-1.0625-.79688-3.17187v-1.6875q0-2.1875.75-3.25.76562-1.07813 2.39062-1.07813 1.60938 0 2.35938 1.03125.76562 1.03125.78125 3.17188zm-1.26563-1.71875q0-1.60937-.45312-2.34375-.4375-.73437-1.42188-.73437-.96874 0-1.42187.73437-.4375.71875-.45313 2.23438v2.03125q0 1.60937.46876 2.39062.46874.76563 1.42187.76563.9375 0 1.39063-.71875.45312-.73438.46874-2.29688zm9.26563 1.71875q0 2.21875-.76563 3.3125-.75 1.07813-2.35937 1.07813-1.59375 0-2.35937-1.04688-.76563-1.0625-.79688-3.17187v-1.6875q0-2.1875.75-3.25.76562-1.07813 2.39062-1.07813 1.60938 0 2.35938 1.03125.76562 1.03125.78125 3.17188zm-1.26563-1.71875q0-1.60937-.45312-2.34375-.4375-.73437-1.42188-.73437-.96874 0-1.42187.73437-.4375.71875-.45313 2.23438v2.03125q0 1.60937.46876 2.39062.46874.76563 1.42187.76563.9375 0 1.39063-.71875.45312-.73438.46874-2.29688z"/><path d="m448.25745 318.0885h1.375v1.03125h-1.375v2.3125h-1.28125v-2.3125h-4.53125v-.75l4.45312-6.89062h1.35938zm-4.375 0h3.09375v-4.875l-.14063.26563zm13.26562-.90625q0 2.21875-.76562 3.3125-.75 1.07813-2.35938 1.07813-1.59375 0-2.35937-1.04688-.76563-1.0625-.79688-3.17187v-1.6875q0-2.1875.75-3.25.76563-1.07813 2.39063-1.07813 1.60937 0 2.35937 1.03125.76563 1.03125.78125 3.17188zm-1.26562-1.71875q0-1.60937-.45313-2.34375-.4375-.73437-1.42187-.73437-.96875 0-1.42188.73437-.4375.71875-.45312 2.23438v2.03125q0 1.60937.46875 2.39062.46875.76563 1.42187.76563.9375 0 1.39063-.71875.45312-.73438.46875-2.29688zm9.26562 1.71875q0 2.21875-.76562 3.3125-.75 1.07813-2.35938 1.07813-1.59375 0-2.35937-1.04688-.76563-1.0625-.79688-3.17187v-1.6875q0-2.1875.75-3.25.76563-1.07813 2.39063-1.07813 1.60937 0 2.35937 1.03125.76563 1.03125.78125 3.17188zm-1.26562-1.71875q0-1.60937-.45313-2.34375-.4375-.73437-1.42187-.73437-.96875 0-1.42188.73437-.4375.71875-.45312 2.23438v2.03125q0 1.60937.46875 2.39062.46875.76563 1.42187.76563.9375 0 1.39063-.71875.45312-.73438.46875-2.29688z"/><path d="m520.45496 316.44788.51564-4.96875h5.09373v1.17187h-4.03123l-.2969 2.70313q.7344-.42188 1.65626-.42188 1.35937 0 2.15624.90625.8125.89063.8125 2.42188 0 1.53125-.84374 2.42187-.82813.89063-2.3125.89063-1.3125 0-2.15626-.73438-.8281-.73437-.9531-2.03125h1.2031q.1094.85938.59376 1.29688.5.4375 1.3125.4375.875 0 1.375-.59375.51564-.60938.51564-1.67188 0-1-.5469-1.59375-.54687-.60937-1.4531-.60937-.8125 0-1.2969.35937l-.3281.26563zm13.65624.73437q0 2.21875-.7656 3.3125-.75 1.07813-2.3594 1.07813-1.59374 0-2.35937-1.04688-.76563-1.0625-.79687-3.17187v-1.6875q0-2.1875.75-3.25.76564-1.07813 2.39064-1.07813 1.60936 0 2.35936 1.03125.76564 1.03125.78124 3.17188zm-1.2656-1.71875q0-1.60937-.45314-2.34375-.4375-.73437-1.42186-.73437-.96877 0-1.4219.73437-.4375.71875-.4531 2.23438v2.03125q0 1.60937.46873 2.39062.46877.76563 1.42187.76563.9375 0 1.39063-.71875.45313-.73438.46877-2.29688zm9.2656 1.71875q0 2.21875-.7656 3.3125-.75 1.07813-2.3594 1.07813-1.59374 0-2.35937-1.04688-.76563-1.0625-.79687-3.17187v-1.6875q0-2.1875.75-3.25.76564-1.07813 2.39064-1.07813 1.60936 0 2.35936 1.03125.76564 1.03125.78124 3.17188zm-1.2656-1.71875q0-1.60937-.45314-2.34375-.4375-.73437-1.42186-.73437-.96877 0-1.4219.73437-.4375.71875-.4531 2.23438v2.03125q0 1.60937.46873 2.39062.46877.76563 1.42187.76563.9375 0 1.39063-.71875.45313-.73438.46877-2.29688z"/></g><path d="m23.60625 57.317726h-4.171874l-.9375 2.59375h-1.359376l3.8125-9.953126h1.140626l3.8125 9.953126h-1.34375zm-3.78125-1.078126h3.390626l-1.703126-4.65625zm8.28125-3.71875.03125.921876q.859376-1.0625 2.21875-1.0625 2.34375 0 2.375 2.640624v4.890626h-1.265624v-4.890626q-.015626-.796874-.375-1.171874-.359376-.390626-1.109376-.390626-.625 0-1.09375.328126-.453124.328124-.71875.859374v5.265626h-1.265624v-7.390626zm11.375 7.390626q-.109374-.21875-.1875-.78125-.875.921874-2.109374.921874-1.09375 0-1.796876-.609374-.6875-.625-.6875-1.578126 0-1.15625.875-1.796874.875-.640626 2.46875-.640626h1.234376v-.578124q0-.671876-.40625-1.0625-.390626-.390626-1.15625-.390626-.6875 0-1.140626.34375-.453124.34375-.453124.828126h-1.28125q0-.5625.390624-1.078126.40625-.515624 1.078126-.8125.671874-.296874 1.46875-.296874 1.28125 0 2 .640624.734374.640626.765624 1.75v3.40625q0 1.015626.25 1.625v.109376zm-2.109374-.96875q.59375 0 1.125-.296876.546874-.3125.78125-.8125v-1.515624h-1q-2.3125 0-2.3125 1.359374 0 .59375.390624.9375.390626.328126 1.015626.328126zm6.90625.96875h-1.265626v-10.5h1.265626zm4.046874-1.859376 1.71875-5.53125h1.359376l-2.96875 8.53125q-.6875 1.84375-2.203126 1.84375l-.234374-.015624-.46875-.09375v-1.015626l.34375.015626q.640624 0 1-.265626.359374-.25.59375-.9375l.28125-.75-2.640626-7.3125h1.375zm8.890626-.109374q0-.5-.390626-.78125-.390624-.296876-1.34375-.5-.953124-.203126-1.53125-.484376-.5625-.296874-.828124-.6875-.265626-.390624-.265626-.9375 0-.921874.765626-1.546874.765624-.625 1.96875-.625 1.25 0 2.03125.65625.78125.640624.78125 1.65625h-1.265626q0-.53125-.4375-.90625-.4375-.375-1.109374-.375-.6875 0-1.078126.3125-.390624.296874-.390624.78125 0 .453124.359374.6875.359376.234374 1.296876.453124.953124.203126 1.546874.5.59375.296876.875.71875.28125.40625.28125 1 0 .984376-.796874 1.59375-.796876.59375-2.0625.59375-.875 0-1.5625-.3125-.6875-.328124-1.078126-.890624-.375-.5625-.375-1.21875h1.265626q.03125.640624.5 1.015624.484374.375 1.25.375.71875 0 1.15625-.296874.4375-.296876.4375-.78125zm4.0625 1.96875h-1.265626v-7.390626h1.265626zm-1.359376-9.359376q0-.3125.1875-.515624.1875-.21875.546876-.21875.375 0 .5625.21875.203124.203124.203124.515624 0 .3125-.203124.515626-.1875.203124-.5625.203124-.359376 0-.546876-.203124-.1875-.203126-.1875-.515626zm7.29687 7.390626q0-.5-.39062-.78125-.39063-.296876-1.34375-.5-.95313-.203126-1.53125-.484376-.5625-.296874-.828124-.6875-.265626-.390624-.265626-.9375 0-.921874.765626-1.546874.765624-.625 1.968744-.625 1.25 0 2.03125.65625.78125.640624.78125 1.65625h-1.26562q0-.53125-.4375-.90625-.4375-.375-1.10938-.375-.6875 0-1.07812.3125-.39063.296874-.39063.78125 0 .453124.35938.6875.35937.234374 1.29687.453124.95313.203126 1.54688.5.59375.296876.875.71875.28125.40625.28125 1 0 .984376-.79688 1.59375-.79687.59375-2.0625.59375-.875 0-1.5625-.3125-.687494-.328124-1.07812-.890624-.375-.5625-.375-1.21875h1.265626q.03125.640624.499994 1.015624.48438.375 1.25.375.71875 0 1.15625-.296874.4375-.296876.4375-.78125zm5.35938-1.796876q0-1.09375.42187-1.953124.4375-.875 1.1875-1.34375.76563-.46875 1.75-.46875 1.5 0 2.4375 1.046874.9375 1.046876.9375 2.78125v.09375q0 1.078126-.42187 1.9375-.40625.84375-1.1875 1.328126-.76563.484374-1.75.484374-1.51563 0-2.45313-1.046874-.92187-1.046876-.92187-2.765626zm1.26562.15625q0 1.21875.5625 1.96875.57813.75 1.54688.75.95312 0 1.51562-.75.57813-.765624.57813-2.125 0-1.21875-.57813-1.96875-.57812-.765624-1.53125-.765624-.9375 0-1.51562.75-.57813.75-.57813 2.140624zm7.6875 3.609376v-6.421876h-1.17187v-.96875h1.17187v-.765624q0-1.1875.625-1.828126.64063-.65625 1.8125-.65625.4375 0 .85938.109376l-.0625 1.03125q-.32813-.0625-.6875-.0625-.60938 0-.95313.359374-.32812.359376-.32812 1.03125v.78125h1.57812v.96875h-1.57812v6.421876zm7.82813-4.984376.51562-4.96875h5.09375v1.171876h-4.03125l-.29687 2.703124q.73437-.421874 1.65625-.421874 1.35937 0 2.15625.90625.8125.890624.8125 2.421874 0 1.53125-.84375 2.421876-.82813.890624-2.3125.890624-1.3125 0-2.15625-.734374-.82813-.734376-.95313-2.03125h1.20313q.10937.859374.59375 1.296874.5.4375 1.3125.4375.875 0 1.375-.59375.51562-.609374.51562-1.671874 0-1-.54687-1.59375-.54688-.609376-1.45313-.609376-.8125 0-1.29687.359376l-.32813.265624zm13.65625.734376q0 2.21875-.76563 3.3125-.75 1.078124-2.35937 1.078124-1.59375 0-2.35938-1.046874-.76562-1.0625-.79687-3.171876v-1.6875q0-2.1875.75-3.25.76562-1.078124 2.39062-1.078124 1.60938 0 2.35938 1.03125.76562 1.03125.78125 3.171874zm-1.26563-1.71875q0-1.609376-.45312-2.34375-.4375-.734376-1.42188-.734376-.96875 0-1.42187.734376-.4375.71875-.45313 2.234374v2.03125q0 1.609376.46875 2.390626.46875.765624 1.42188.765624.9375 0 1.39062-.71875.45313-.734374.46875-2.296874zm9.26563 1.71875q0 2.21875-.76563 3.3125-.75 1.078124-2.35937 1.078124-1.59375 0-2.35938-1.046874-.76562-1.0625-.79687-3.171876v-1.6875q0-2.1875.75-3.25.76562-1.078124 2.39062-1.078124 1.60938 0 2.35938 1.03125.76562 1.03125.78125 3.171874zm-1.26563-1.71875q0-1.609376-.45312-2.34375-.4375-.734376-1.42188-.734376-.96875 0-1.42187.734376-.4375.71875-.45313 2.234374v2.03125q0 1.609376.46875 2.390626.46875.765624 1.42188.765624.9375 0 1.39062-.71875.45313-.734374.46875-2.296874zm7.42188-.53125q.84375-1.03125 2.1875-1.03125 2.34375 0 2.375 2.640624v4.890626h-1.26563v-4.890626q-.01562-.796874-.375-1.171874-.35937-.390626-1.10937-.390626-.625 0-1.09375.328126-.45313.328124-.71875.859374v5.265626h-1.26563v-10.5h1.26563zm8.10937 6.5h-1.26562v-7.390626h1.26562zm-1.35937-9.359376q0-.3125.1875-.515624.1875-.21875.54687-.21875.375 0 .5625.21875.20313.203124.20313.515624 0 .3125-.20313.515626-.1875.203124-.5625.203124-.35937 0-.54687-.203124-.1875-.203126-.1875-.515626zm2.6875 5.59375q0-1.71875.79687-2.734374.79688-1.03125 2.125-1.03125 1.34375 0 2.10938.953124l.0625-.8125h1.15625v7.21875q0 1.4375-.85938 2.25-.84375.828126-2.28125.828126-.79687 0-1.5625-.34375-.76562-.328126-1.17187-.921876l.65625-.765624q.8125 1 1.98437 1 .92188 0 1.4375-.515626.53125-.515624.53125-1.46875v-.625q-.76562.875-2.07812.875-1.29688 0-2.10938-1.046874-.79687-1.046876-.79687-2.859376zm1.26562.15625q0 1.25.51563 1.96875.51562.703126 1.4375.703126 1.20312 0 1.76562-1.09375v-3.375q-.59375-1.046876-1.75-1.046876-.92187 0-1.45312.71875-.51563.703126-.51563 2.125zm8.29688-2.890624q.84375-1.03125 2.1875-1.03125 2.34375 0 2.375 2.640624v4.890626h-1.26563v-4.890626q-.01562-.796874-.375-1.171874-.35937-.390626-1.10937-.390626-.625 0-1.09375.328126-.45313.328124-.71875.859374v5.265626h-1.26563v-10.5h1.26563zm9.375 2.78125h-3.34375v-1.03125h3.34375zm3.07812-5.46875v1.796874h1.375v.96875h-1.375v4.59375q0 .4375.1875.671876.1875.21875.625.21875.21875 0 .60938-.09375v1.03125q-.5.140624-.96875.140624-.85938 0-1.29688-.515624-.42187-.515626-.42187-1.453126v-4.59375h-1.34375v-.96875h1.34375v-1.796874zm6.85938 2.921874q-.28125-.046874-.625-.046874-1.23438 0-1.6875 1.0625v5.25h-1.26563v-7.390626h1.23438l.01562.84375q.625-.984374 1.76563-.984374.375 0 .5625.09375zm6 6.265626q-.10938-.21875-.1875-.78125-.875.921874-2.10938.921874-1.09375 0-1.79687-.609374-.6875-.625-.6875-1.578126 0-1.15625.875-1.796874.875-.640626 2.46875-.640626h1.23437v-.578124q0-.671876-.40625-1.0625-.39062-.390626-1.15625-.390626-.6875 0-1.14062.34375-.45313.34375-.45313.828126h-1.28125q0-.5625.39063-1.078126.40625-.515624 1.07812-.8125.67188-.296874 1.46875-.296874 1.28125 0 2 .640624.73438.640626.76563 1.75v3.40625q0 1.015626.25 1.625v.109376zm-2.10938-.96875q.59375 0 1.125-.296876.54688-.3125.78125-.8125v-1.515624h-1q-2.3125 0-2.3125 1.359374 0 .59375.39063.9375.39062.328126 1.01562.328126zm6.15625.96875v-6.421876h-1.17187v-.96875h1.17187v-.765624q0-1.1875.625-1.828126.64063-.65625 1.8125-.65625.4375 0 .85938.109376l-.0625 1.03125q-.32813-.0625-.6875-.0625-.60938 0-.95313.359374-.32812.359376-.32812 1.03125v.78125h1.57812v.96875h-1.57812v6.421876zm5 0v-6.421876h-1.17187v-.96875h1.17187v-.765624q0-1.1875.625-1.828126.64063-.65625 1.8125-.65625.4375 0 .85938.109376l-.0625 1.03125q-.32813-.0625-.6875-.0625-.60938 0-.95313.359374-.32812.359376-.32812 1.03125v.78125h1.57812v.96875h-1.57812v6.421876zm5.75 0h-1.26562v-7.390626h1.26562zm-1.35937-9.359376q0-.3125.1875-.515624.1875-.21875.54687-.21875.375 0 .5625.21875.20313.203124.20313.515624 0 .3125-.20313.515626-.1875.203124-.5625.203124-.35937 0-.54687-.203124-.1875-.203126-.1875-.515626zm5.95312 8.46875q.67188 0 1.17188-.40625.51562-.421874.57812-1.03125h1.1875q-.03125.625-.4375 1.203126-.40625.578124-1.07812.921874-.67188.34375-1.42188.34375-1.51562 0-2.40625-1-.89062-1.015624-.89062-2.765624v-.21875q0-1.078126.39062-1.921876.40625-.84375 1.14063-1.296874.75-.46875 1.76562-.46875 1.23438 0 2.0625.75.82813.734374.875 1.921874h-1.1875q-.0625-.71875-.54687-1.171874-.48438-.46875-1.20313-.46875-.96875 0-1.5.703124-.53125.6875-.53125 2v.234376q0 1.28125.53125 1.984374.53125.6875 1.5.6875zm4.28125 1.75h-1.07812l4.15625-10.8125h1.07812zm12-4.46875q0 1.6875-.78125 2.71875-.76562 1.03125-2.07812 1.03125-1.34375 0-2.125-.859374v3.5625h-1.26563v-10.234376h1.15625l.0625.8125q.78125-.953124 2.15625-.953124 1.32813 0 2.09375 1 .78125 1 .78125 2.796874zm-1.26562-.15625q0-1.25-.53125-1.96875-.53125-.71875-1.46875-.71875-1.14063 0-1.71875 1.015626v3.53125q.57812 1.015624 1.73437 1.015624.92188 0 1.45313-.71875.53125-.734374.53125-2.15625zm6.59375-2.5q-.28125-.046874-.625-.046874-1.23438 0-1.6875 1.0625v5.25h-1.26563v-7.390626h1.23438l.01562.84375q.625-.984374 1.76563-.984374.375 0 .5625.09375zm4.5 6.40625q-1.51563 0-2.45313-.984374-.9375-1-.9375-2.65625v-.21875q0-1.109376.42188-1.96875.42187-.875 1.17187-1.359376.75-.484374 1.64063-.484374 1.4375 0 2.23437.953124.79688.9375.79688 2.71875v.515626h-5q.01562 1.09375.625 1.78125.625.671874 1.5625.671874.67187 0 1.125-.265624.46875-.28125.82812-.734376l.76563.59375q-.92188 1.4375-2.78125 1.4375zm-.15625-6.640624q-.76563 0-1.29688.5625-.51562.5625-.64062 1.5625h3.70312v-.09375q-.04687-.96875-.51562-1.5-.46875-.53125-1.25-.53125zm5.26562-.890626.04688.8125q.8125-.953124 2.1875-.953124 1.54687 0 2.10937 1.1875.375-.53125.96875-.859376.59375-.328124 1.39063-.328124 2.4375 0 2.48437 2.578124v4.953126h-1.26562v-4.875q0-.796876-.375-1.1875-.35938-.390626-1.20313-.390626-.71875 0-1.1875.421876-.45312.40625-.53125 1.125v4.90625h-1.26562v-4.84375q0-1.609376-1.57813-1.609376-1.25 0-1.70312 1.046876v5.40625h-1.26563v-7.390626zm12.1875 7.390626h-1.26562v-7.390626h1.26562zm-1.35937-9.359376q0-.3125.1875-.515624.1875-.21875.54687-.21875.375 0 .5625.21875.20313.203124.20313.515624 0 .3125-.20313.515626-.1875.203124-.5625.203124-.35937 0-.54687-.203124-.1875-.203126-.1875-.515626zm7.5625 8.625q-.75.875-2.17188.875-1.1875 0-1.8125-.6875-.60937-.6875-.60937-2.03125v-4.8125h1.25v4.765626q0 1.6875 1.375 1.6875 1.45312 0 1.92187-1.078126v-5.375h1.26563v7.390626h-1.20313zm4.60937-6.65625.04688.8125q.8125-.953124 2.1875-.953124 1.54687 0 2.10937 1.1875.375-.53125.96875-.859376.59375-.328124 1.39063-.328124 2.4375 0 2.48437 2.578124v4.953126h-1.26562v-4.875q0-.796876-.375-1.1875-.35938-.390626-1.20313-.390626-.71875 0-1.1875.421876-.45312.40625-.53125 1.125v4.90625h-1.26562v-4.84375q0-1.609376-1.57813-1.609376-1.25 0-1.70312 1.046876v5.40625h-1.26563v-7.390626zm20.07813 3.78125q0 1.6875-.78125 2.71875-.78125 1.03125-2.09375 1.03125-1.39063 0-2.15625-1l-.0625.859376h-1.17188v-10.5h1.26563v3.921874q.76562-.953124 2.10937-.953124 1.35938 0 2.125 1.015624.76563 1.015626.76563 2.796876zm-1.26563-.15625q0-1.28125-.5-1.984374-.5-.703126-1.4375-.703126-1.25 0-1.79687 1.15625v3.203126q.57812 1.15625 1.8125 1.15625.90625 0 1.40625-.703126.51562-.703124.51562-2.125zm6.57814-2.5q-.28126-.046874-.625-.046874-1.23436 0-1.6875 1.0625v5.25h-1.26562v-7.390626h1.23436l.01564.84375q.625-.984374 1.76562-.984374.375 0 .5625.09375zm6 6.265626q-.10936-.21875-.1875-.78125-.875.921874-2.10936.921874-1.09376 0-1.7969-.609374-.6875-.625-.6875-1.578126 0-1.15625.875-1.796874.875-.640626 2.46876-.640626h1.23438v-.578124q0-.671876-.40624-1.0625-.39064-.390626-1.15626-.390626-.6875 0-1.14064.34375-.4531.34375-.4531.828126h-1.28126q0-.5625.39062-1.078126.40624-.515624 1.07814-.8125.67186-.296874 1.46874-.296874 1.28126 0 2 .640624.73436.640626.76562 1.75v3.40625q0 1.015626.25 1.625v.109376zm-2.10936-.96875q.59374 0 1.125-.296876.54686-.3125.78124-.8125v-1.515624h-1q-2.3125 0-2.3125 1.359374 0 .59375.39062.9375.39064.328126 1.01564.328126zm6.73436-6.421876.03124.921876q.8594-1.0625 2.21876-1.0625 2.34374 0 2.375 2.640624v4.890626h-1.26562v-4.890626q-.01564-.796874-.375-1.171874-.35938-.390626-1.10938-.390626-.625 0-1.09376.328126-.4531.328124-.71874.859374v5.265626h-1.26562v-7.390626zm6.5 3.625q0-1.703124.79688-2.734374.8125-1.03125 2.10936-1.03125 1.3125 0 2.0625.890624v-3.859374h1.26564v10.5h-1.15624l-.0625-.796876q-.76564.9375-2.1094.9375-1.29686 0-2.10936-1.046874-.79688-1.0625-.79688-2.765626zm1.26564.15625q0 1.25.5156 1.96875.51564.703126 1.4375.703126 1.20314 0 1.75-1.078126v-3.40625q-.5625-1.03125-1.73436-1.03125-.9375 0-1.45314.71875-.5156.703126-.5156 2.125zm14.34374 1.640626q0-.5-.39064-.78125-.3906-.296876-1.34374-.5-.95312-.203126-1.53126-.484376-.5625-.296874-.8281-.6875-.26564-.390624-.26564-.9375 0-.921874.76564-1.546874.7656-.625 1.96874-.625 1.25 0 2.03126.65625.78124.640624.78124 1.65625h-1.26564q0-.53125-.4375-.90625-.4375-.375-1.10936-.375-.6875 0-1.07814.3125-.3906.296874-.3906.78125 0 .453124.35936.6875.35938.234374 1.29688.453124.95312.203126 1.54686.5.59376.296876.875.71875.28126.40625.28126 1 0 .984376-.79686 1.59375-.7969.59375-2.0625.59375-.875 0-1.5625-.3125-.6875-.328124-1.07814-.890624-.375-.5625-.375-1.21875h1.26564q.03124.640624.5 1.015624.48436.375 1.25.375.71874 0 1.15624-.296874.4375-.296876.4375-.78125zm4.0625 1.96875h-1.26564v-7.390626h1.26564zm-1.35938-9.359376q0-.3125.1875-.515624.1875-.21875.54688-.21875.375 0 .5625.21875.20312.203124.20312.515624 0 .3125-.20312.515626-.1875.203124-.5625.203124-.35938 0-.54688-.203124-.1875-.203126-.1875-.515626zm4.70314.171876v1.796874h1.375v.96875h-1.375v4.59375q0 .4375.1875.671876.1875.21875.625.21875.21874 0 .60936-.09375v1.03125q-.5.140624-.96876.140624-.85936 0-1.29686-.515624-.42188-.515626-.42188-1.453126v-4.59375h-1.34376v-.96875h1.34376v-1.796874zm6.35936 9.328124q-1.51562 0-2.45312-.984374-.9375-1-.9375-2.65625v-.21875q0-1.109376.42186-1.96875.4219-.875 1.1719-1.359376.75-.484374 1.6406-.484374 1.4375 0 2.2344.953124.79686.9375.79686 2.71875v.515626h-5q.01564 1.09375.625 1.78125.625.671874 1.5625.671874.67188 0 1.125-.265624.46874-.28125.82814-.734376l.7656.59375q-.92186 1.4375-2.78124 1.4375zm-.15626-6.640624q-.7656 0-1.29686.5625-.51564.5625-.64064 1.5625h3.70314v-.09375q-.04688-.96875-.51564-1.5-.46874-.53125-1.25-.53125zm8.39064 4.53125q0-.5-.39064-.78125-.3906-.296876-1.34374-.5-.95312-.203126-1.53126-.484376-.5625-.296874-.8281-.6875-.26564-.390624-.26564-.9375 0-.921874.76564-1.546874.7656-.625 1.96874-.625 1.25 0 2.03126.65625.78124.640624.78124 1.65625h-1.26564q0-.53125-.4375-.90625-.4375-.375-1.10936-.375-.6875 0-1.07814.3125-.3906.296874-.3906.78125 0 .453124.35936.6875.35938.234374 1.29688.453124.95312.203126 1.54686.5.59376.296876.875.71875.28126.40625.28126 1 0 .984376-.79686 1.59375-.7969.59375-2.0625.59375-.875 0-1.5625-.3125-.6875-.328124-1.07814-.890624-.375-.5625-.375-1.21875h1.26564q.03124.640624.5 1.015624.48436.375 1.25.375.71874 0 1.15624-.296874.4375-.296876.4375-.78125zm7.0625 1.96875h-1.26564v-7.390626h1.26564zm-1.35938-9.359376q0-.3125.1875-.515624.1875-.21875.54688-.21875.375 0 .5625.21875.20312.203124.20312.515624 0 .3125-.20312.515626-.1875.203124-.5625.203124-.35938 0-.54688-.203124-.1875-.203126-.1875-.515626zm4.1875 1.96875.03124.921876q.8594-1.0625 2.21876-1.0625 2.34374 0 2.375 2.640624v4.890626h-1.26562v-4.890626q-.01564-.796874-.375-1.171874-.35938-.390626-1.10938-.390626-.625 0-1.09376.328126-.4531.328124-.71874.859374v5.265626h-1.26562v-7.390626zm17.65624 7.390626h-1.3281l-5.01564-7.671876v7.671876h-1.3125v-9.953126h1.3125l5.03124 7.703126v-7.703126h1.3125zm3.65626-1.078126h4.71874v1.078126h-6.03124v-9.953126h1.3125z" fill="#999"/><path d="m27.45 34.411476h-9.3125v-1.296876l4.921876-5.468749q1.09375-1.25 1.5-2.015625.421874-.78125.421874-1.609375 0-1.109375-.671874-1.828125-.671876-.71875-1.796876-.71875-1.359374 0-2.109374.78125-.734376.765625-.734376 2.125h-1.8125q0-1.96875 1.265626-3.171875 1.265624-1.21875 3.390624-1.21875 1.984376 0 3.125 1.046875 1.15625 1.046875 1.15625 2.765625 0 2.109375-2.671874 5l-3.8125 4.140625h7.140624zm2.515626-7.125.71875-7.09375h7.28125v1.671875h-5.75l-.421876 3.875q1.046876-.609375 2.375-.609375 1.9375 0 3.078126 1.28125 1.140624 1.28125 1.140624 3.46875 0 2.203124-1.1875 3.46875-1.1875 1.265624-3.3125 1.265624-1.890624 0-3.078124-1.046874-1.1875-1.046876-1.359376-2.890625h1.71875q.15625 1.21875.859376 1.843749.703124.609376 1.859374.609376 1.265626 0 1.984376-.859376.71875-.859374.71875-2.374999 0-1.421875-.78125-2.28125-.78125-.875-2.0625-.875-1.1875 0-1.859376.515625l-.484374.390625zm10.015624-4.359375q0-1.28125.8125-2.109375.8125-.828125 2.09375-.828125 1.296876 0 2.09375.84375.8125.828125.8125 2.15625v.6875q0 1.296875-.8125 2.109375-.8125.8125-2.078124.8125-1.265626 0-2.09375-.8125-.828126-.8125-.828126-2.171875zm1.34375.75q0 .765625.421876 1.265625.4375.484375 1.15625.484375.703124 0 1.125-.46875.421874-.484375.421874-1.3125v-.71875q0-.765625-.421874-1.265625-.421876-.5-1.140626-.5-.71875 0-1.140624.5-.421876.5-.421876 1.296875zm5.578126 7.25q0-1.28125.8125-2.109375.8125-.828125 2.09375-.828125 1.28125 0 2.09375.828125.828124.8125.828124 2.171875v.703125q0 1.265624-.8125 2.09375-.8125.828124-2.09375.828124-1.265624 0-2.09375-.8125-.828124-.8125-.828124-2.171874zm1.34375.765625q0 .765624.421874 1.265624.4375.484376 1.15625.484376.703126 0 1.125-.484376.421876-.484374.421876-1.312499v-.71875q0-.78125-.421876-1.265625-.421874-.484375-1.140624-.484375-.6875 0-1.125.484375-.4375.484375-.4375 1.296875zm-4.9375 1.640624-1.015626-.640624 6.9375-11.109375 1.03125.640625zm16.53125-4.296874q0-1.5625.609374-2.796875.609376-1.25 1.6875-1.921875 1.09375-.671875 2.5-.671875 2.15625 0 3.48437 1.5 1.34375 1.484375 1.34375 3.96875v.125q0 1.546875-.59375 2.781249-.59375 1.21875-1.70312 1.90625-1.09375.6875-2.51563.6875-2.14062 0-3.48437-1.5-1.328124-1.499999-1.328124-3.953124zm1.8125.203125q0 1.765625.8125 2.828125.828124 1.0625 2.187494 1.0625 1.375 0 2.1875-1.078126.8125-1.078124.8125-3.015624 0-1.75-.82812-2.828125-.82813-1.078125-2.1875-1.078125-1.34375 0-2.171874 1.0625-.8125 1.0625-.8125 3.046875zm10.546874 5.171875v-9.171875h-1.65625v-1.390625h1.65625v-1.09375q0-1.6875.90625-2.609375.92187-.9375 2.57812-.9375.625 0 1.23438.15625l-.09375 1.46875q-.45313-.078125-.96875-.078125-.89063 0-1.375.515625-.46875.5-.46875 1.453125v1.125h2.25v1.390625h-2.25v9.171875zm21.21875-12.671875h-4.5625v12.671875h-1.85938v-12.671875h-4.5625v-1.546875h10.98438zm1.42187 7.296875q0-1.5625.60938-2.796875.60937-1.25 1.6875-1.921875 1.09375-.671875 2.5-.671875 2.15625 0 3.48437 1.5 1.34375 1.484375 1.34375 3.96875v.125q0 1.546875-.59375 2.781249-.59375 1.21875-1.70312 1.90625-1.09375.6875-2.51563.6875-2.14062 0-3.48437-1.5-1.32813-1.499999-1.32813-3.953124zm1.8125.203125q0 1.765625.8125 2.828125.82813 1.0625 2.1875 1.0625 1.375 0 2.1875-1.078126.8125-1.078124.8125-3.015624 0-1.75-.82812-2.828125-.82813-1.078125-2.1875-1.078125-1.34375 0-2.17188 1.0625-.8125 1.0625-.8125 3.046875zm18.59375 0q0 2.421875-1.10937 3.906249-1.09375 1.46875-2.98438 1.46875-1.92187 0-3.03125-1.234374v5.09375h-1.79687v-14.625h1.64062l.09375 1.171875q1.09375-1.375 3.0625-1.375 1.90625 0 3.01563 1.4375 1.10937 1.4375 1.10937 4zm-1.8125-.203125q0-1.78125-.76562-2.8125-.75-1.046875-2.07813-1.046875-1.64062 0-2.46875 1.453125v5.0625q.8125 1.4375 2.48438 1.4375 1.29687 0 2.0625-1.03125.76562-1.03125.76562-3.0625zm20.09375 5.375h-1.89062l-7.15625-10.953125v10.953125h-1.875v-14.21875h1.875l7.1875 11v-11h1.85937zm4.95313-1.53125h6.75v1.53125h-8.625v-14.21875h1.875zm17.1875-2.953125.26562 1.875.40625-1.6875 2.8125-9.921875h1.57813l2.75 9.921875.39062 1.71875.29688-1.921875 2.21875-9.71875h1.875l-3.4375 14.21875h-1.71875l-2.92188-10.359375-.23437-1.09375-.21875 1.09375-3.03125 10.359375h-1.71875l-3.4375-14.21875h1.875zm19.03125 4.687499q-2.14063 0-3.5-1.40625-1.34375-1.421874-1.34375-3.781249v-.34375q0-1.5625.59375-2.796875.60937-1.234375 1.6875-1.9375 1.07812-.703125 2.34375-.703125 2.0625 0 3.20312 1.359375 1.14063 1.359375 1.14063 3.890625v.75h-7.15625q.03125 1.5625.90625 2.531249.875.953126 2.21875.953126.96875 0 1.625-.390626.67187-.390624 1.17187-1.031249l1.09375.859375q-1.32812 2.046874-3.98437 2.046874zm-.21875-9.484374q-1.09375 0-1.84375.796875-.73438.796875-.90625 2.234375h5.28125v-.140625q-.07813-1.375-.75-2.125-.65625-.765625-1.78125-.765625zm15.78125 4.109375q0 2.421875-1.10938 3.906249-1.10937 1.46875-2.98437 1.46875-2.01563 0-3.10938-1.421874l-.07812 1.21875h-1.65625v-15h1.79687v5.59375q1.09375-1.359375 3.01563-1.359375 1.92187 0 3.01562 1.453125 1.10938 1.453125 1.10938 3.984375zm-1.8125-.203125q0-1.84375-.71875-2.84375-.70313-1.015625-2.03125-1.015625-1.79688 0-2.57813 1.671875v4.5625q.82813 1.65625 2.59375 1.65625 1.29688 0 2.01563-1 .71875-1 .71875-3.03125zm10.01562 2.578125q0-.734375-.54687-1.140625-.54688-.40625-1.92188-.703125-1.375-.296875-2.1875-.703125-.79687-.40625-1.1875-.96875-.375-.578125-.375-1.359375 0-1.296875 1.09375-2.1875 1.09375-.90625 2.8125-.90625 1.79688 0 2.90625.9375 1.125.921875 1.125 2.359375h-1.82812q0-.734375-.625-1.265625-.625-.546875-1.57813-.546875-1 0-1.5625.4375-.54687.421875-.54687 1.125 0 .640625.51562.984375.51563.328125 1.875.640625 1.35938.296875 2.1875.71875.84375.40625 1.25 1 .40625.59375.40625 1.4375 0 1.421874-1.14062 2.28125-1.125.859374-2.9375.859374-1.26563 0-2.25-.453124-.96875-.453126-1.53125-1.25-.54688-.8125-.54688-1.75h1.8125q.04688.90625.71875 1.4375.6875.53125 1.79688.53125 1.03125 0 1.64062-.40625.625-.421876.625-1.109375zm5.8125 2.796875h-1.79687v-10.5625h1.79687zm-1.95312-13.375q0-.4375.26562-.734375.28125-.3125.79688-.3125.53125 0 .79687.3125.28125.296875.28125.734375 0 .4375-.28125.734375-.26562.296875-.79687.296875-.51563 0-.79688-.296875-.26562-.296875-.26562-.734375zm7.4375.25v2.5625h1.98437v1.390625h-1.98437v6.546875q0 .640624.26562.96875.26563.3125.90625.3125.3125 0 .85938-.125v1.46875q-.71875.203124-1.39063.203124-1.20312 0-1.82812-.734374-.60938-.734376-.60938-2.09375v-6.546875h-1.92187v-1.390625h1.92187v-2.5625zm8.9375 13.328124q-2.14063 0-3.5-1.40625-1.34375-1.421874-1.34375-3.781249v-.34375q0-1.5625.59375-2.796875.60937-1.234375 1.6875-1.9375 1.07812-.703125 2.34375-.703125 2.0625 0 3.20312 1.359375 1.14063 1.359375 1.14063 3.890625v.75h-7.15625q.03125 1.5625.90625 2.531249.875.953126 2.21875.953126.96875 0 1.625-.390626.67187-.390624 1.17187-1.031249l1.09375.859375q-1.32812 2.046874-3.98437 2.046874zm-.21875-9.484374q-1.09375 0-1.84375.796875-.73438.796875-.90625 2.234375h5.28125v-.140625q-.07813-1.375-.75-2.125-.65625-.765625-1.78125-.765625zm12.98437 6.484375q0-.734375-.54687-1.140625-.54688-.40625-1.92188-.703125-1.375-.296875-2.1875-.703125-.79687-.40625-1.1875-.96875-.375-.578125-.375-1.359375 0-1.296875 1.09375-2.1875 1.09375-.90625 2.8125-.90625 1.79688 0 2.90625.9375 1.125.921875 1.125 2.359375h-1.82812q0-.734375-.625-1.265625-.625-.546875-1.57813-.546875-1 0-1.5625.4375-.54687.421875-.54687 1.125 0 .640625.51562.984375.51563.328125 1.875.640625 1.35938.296875 2.1875.71875.84375.40625 1.25 1 .40625.59375.40625 1.4375 0 1.421874-1.14062 2.28125-1.125.859374-2.9375.859374-1.26563 0-2.25-.453124-.96875-.453126-1.53125-1.25-.54688-.8125-.54688-1.75h1.8125q.04688.90625.71875 1.4375.6875.53125 1.79688.53125 1.03125 0 1.64062-.40625.625-.421876.625-1.109375zm19.14063-11.421875v9.671875q0 2-1.26563 3.281249-1.25 1.28125-3.39062 1.4375l-.5.03125q-2.34375 0-3.73438-1.265624-1.375-1.265626-1.39062-3.46875v-9.6875h1.84375v9.625q0 1.546875.84375 2.40625.85937.84375 2.4375.84375 1.59375 0 2.4375-.84375.84375-.84375.84375-2.390625v-9.640625zm8.85939 11.421875q0-.734375-.54688-1.140625-.54686-.40625-1.92186-.703125-1.37503-.296875-2.18753-.703125-.79687-.40625-1.1875-.96875-.375-.578125-.375-1.359375 0-1.296875 1.09375-2.1875 1.09375-.90625 2.81252-.90625 1.79686 0 2.90626.9375 1.125.921875 1.125 2.359375h-1.82814q0-.734375-.625-1.265625-.625-.546875-1.57812-.546875-1 0-1.56252.4375-.54687.421875-.54687 1.125 0 .640625.51562.984375.51563.328125 1.87503.640625 1.35936.296875 2.1875.71875.84374.40625 1.25 1 .40624.59375.40624 1.4375 0 1.421874-1.14064 2.28125-1.125.859374-2.9375.859374-1.26563 0-2.25-.453124-.96875-.453126-1.53125-1.25-.54688-.8125-.54688-1.75h1.8125q.04688.90625.71875 1.4375.68752.53125 1.79688.53125 1.03126 0 1.64064-.40625.625-.421876.625-1.109375zm8.23436 2.999999q-2.1406 0-3.5-1.40625-1.34374-1.421874-1.34374-3.781249v-.34375q0-1.5625.59374-2.796875.6094-1.234375 1.6875-1.9375 1.07814-.703125 2.34376-.703125 2.0625 0 3.20314 1.359375 1.1406 1.359375 1.1406 3.890625v.75h-7.15624q.03124 1.5625.90624 2.531249.875.953126 2.21876.953126.96874 0 1.625-.390626.67188-.390624 1.17188-1.031249l1.09376.859375q-1.32814 2.046874-3.9844 2.046874zm-.21874-9.484374q-1.09376 0-1.84376.796875-.73436.796875-.90624 2.234375h5.28124v-.140625q-.0781-1.375-.75-2.125-.65624-.765625-1.78124-.765625zm18.35938 9.28125q-.15624-.3125-.25-1.109376-1.26564 1.3125-3.01564 1.3125-1.5625 0-2.5625-.890624-1-.890626-1-2.25 0-1.640625 1.25-2.546875 1.26564-.921875 3.53126-.921875h1.76564v-.828125q0-.953125-.57814-1.515625-.5625-.5625-1.65626-.5625-.96874 0-1.625.5-.65624.484375-.65624 1.171875h-1.8125q0-.78125.5625-1.515625.5625-.75 1.51564-1.171875.96874-.4375 2.125-.4375 1.8281 0 2.85936.921875 1.03124.90625 1.07814 2.515625v4.859375q0 1.453124.35936 2.3125v.15625zm-3-1.375q.85936 0 1.60936-.4375.76564-.4375 1.1094-1.140625v-2.171875h-1.4219q-3.3125 0-3.3125 1.9375 0 .859374.5625 1.34375.5625.46875 1.45314.46875zm9.1875-9.1875.0625 1.328125q1.20312-1.53125 3.15626-1.53125 3.35936 0 3.375 3.78125v6.984375h-1.7969v-7q-.0156-1.140625-.53124-1.6875-.5-.546875-1.59376-.546875-.875 0-1.54686.46875-.65624.46875-1.03124 1.234375v7.53125h-1.7969v-10.5625zm22.60936 3.984375h-6.15624v5.046875h7.15624v1.53125h-9.03124v-14.21875h8.9375v1.546875h-7.0625v4.5625h6.15624zm7.6719 4.09375 4.0625-11.734375h2.04686l-5.26562 14.21875h-1.67188l-5.25-14.21875h2.03124zm23.75-2.03125q-.26564 2.265625-1.6719 3.499999-1.3906 1.21875-3.71874 1.21875-2.51562 0-4.04686-1.8125-1.51564-1.812499-1.51564-4.843749v-1.359375q0-1.984375.70314-3.484375.71874-1.5 2.0156-2.3125 1.2969-.8125 3.01564-.8125 2.26562 0 3.625 1.265625 1.375 1.265625 1.59376 3.5h-1.89064q-.23436-1.6875-1.0625-2.453125-.8125-.765625-2.26562-.765625-1.79688 0-2.82814 1.328125-1.0156 1.328125-1.0156 3.78125v1.375q0 2.3125.96874 3.6875.96876 1.359375 2.70312 1.359375 1.5625 0 2.39064-.703126.84374-.703124 1.10936-2.468749zm6.6406 4.718749q-2.1406 0-3.5-1.40625-1.34374-1.421874-1.34374-3.781249v-.34375q0-1.5625.59374-2.796875.6094-1.234375 1.6875-1.9375 1.07814-.703125 2.34376-.703125 2.0625 0 3.20314 1.359375 1.1406 1.359375 1.1406 3.890625v.75h-7.15624q.03124 1.5625.90624 2.531249.875.953126 2.21876.953126.96874 0 1.625-.390626.67188-.390624 1.17188-1.031249l1.09376.859375q-1.32814 2.046874-3.9844 2.046874zm-.21874-9.484374q-1.09376 0-1.84376.796875-.73436.796875-.90624 2.234375h5.28124v-.140625q-.0781-1.375-.75-2.125-.65624-.765625-1.78124-.765625zm11.9375.328125q-.40626-.0625-.875-.0625-1.78126 0-2.42186 1.515625v7.5h-1.7969v-10.5625h1.75l.03126 1.21875q.89064-1.421875 2.51564-1.421875.53124 0 .79686.140625zm4.34374-4.171875v2.5625h1.9844v1.390625h-1.9844v6.546875q0 .640624.26564.96875.26562.3125.90626.3125.3125 0 .85936-.125v1.46875q-.71876.203124-1.39062.203124-1.20314 0-1.82814-.734374-.60936-.734376-.60936-2.09375v-6.546875h-1.92188v-1.390625h1.92188v-2.5625zm6.51564 13.125h-1.79688v-10.5625h1.79688zm-1.95314-13.375q0-.4375.26564-.734375.28126-.3125.79686-.3125.53126 0 .7969.3125.28124.296875.28124.734375 0 .4375-.28124.734375-.26564.296875-.7969.296875-.5156 0-.79686-.296875-.26564-.296875-.26564-.734375zm5.875 13.375v-9.171875h-1.65624v-1.390625h1.65624v-1.09375q0-1.6875.90626-2.609375.92188-.9375 2.57814-.9375.625 0 1.23436.15625l-.09376 1.46875q-.4531-.078125-.96874-.078125-.89062 0-1.375.515625-.46876.5-.46876 1.453125v1.125h2.25v1.390625h-2.25v9.171875zm8.07814 0h-1.79688v-10.5625h1.79688zm-1.95314-13.375q0-.4375.26564-.734375.28126-.3125.79686-.3125.53126 0 .7969.3125.28124.296875.28124.734375 0 .4375-.28124.734375-.26564.296875-.7969.296875-.5156 0-.79686-.296875-.26564-.296875-.26564-.734375zm9.2344 12.09375q.96874 0 1.6875-.578126.71874-.593749.79686-1.468749h1.71874q-.0625.90625-.6406 1.734375-.5625.8125-1.53126 1.3125-.95314.484374-2.03124.484374-2.15626 0-3.4375-1.4375-1.26564-1.453124-1.26564-3.953124v-.296875q0-1.546875.5625-2.75.5625-1.203125 1.625-1.859375 1.0625-.671875 2.5-.671875 1.78124 0 2.95314 1.0625 1.1875 1.0625 1.2656 2.765625h-1.71874q-.07812-1.015625-.78126-1.671875-.6875-.671875-1.71874-.671875-1.375 0-2.14062 1-.75.984375-.75 2.859375v.34375q0 1.828125.75 2.812499.75.984376 2.15626.984376zm12.28124 1.28125q-.15624-.3125-.25-1.109376-1.26564 1.3125-3.01564 1.3125-1.5625 0-2.5625-.890624-1-.890626-1-2.25 0-1.640625 1.25-2.546875 1.26564-.921875 3.53126-.921875h1.76564v-.828125q0-.953125-.57814-1.515625-.5625-.5625-1.65626-.5625-.96874 0-1.625.5-.65624.484375-.65624 1.171875h-1.8125q0-.78125.5625-1.515625.5625-.75 1.51564-1.171875.96874-.4375 2.125-.4375 1.8281 0 2.85936.921875 1.03124.90625 1.07814 2.515625v4.859375q0 1.453124.35936 2.3125v.15625zm-3-1.375q.85936 0 1.60936-.4375.76564-.4375 1.1094-1.140625v-2.171875h-1.4219q-3.3125 0-3.3125 1.9375 0 .859374.5625 1.34375.5625.46875 1.45314.46875zm9.92186-11.75v2.5625h1.9844v1.390625h-1.9844v6.546875q0 .640624.26564.96875.26562.3125.90626.3125.3125 0 .85936-.125v1.46875q-.71876.203124-1.39062.203124-1.20314 0-1.82814-.734374-.60936-.734376-.60936-2.09375v-6.546875h-1.92188v-1.390625h1.92188v-2.5625zm8.9375 13.328124q-2.1406 0-3.5-1.40625-1.34374-1.421874-1.34374-3.781249v-.34375q0-1.5625.59374-2.796875.6094-1.234375 1.6875-1.9375 1.07814-.703125 2.34376-.703125 2.0625 0 3.20314 1.359375 1.1406 1.359375 1.1406 3.890625v.75h-7.15624q.03124 1.5625.90624 2.531249.875.953126 2.21876.953126.96874 0 1.625-.390626.67188-.390624 1.17188-1.031249l1.09376.859375q-1.32814 2.046874-3.9844 2.046874zm-.21874-9.484374q-1.09376 0-1.84376.796875-.73436.796875-.90624 2.234375h5.28124v-.140625q-.0781-1.375-.75-2.125-.65624-.765625-1.78124-.765625z" fill="#434343"/></svg>