<svg fill="none" stroke-linecap="square" stroke-miterlimit="10" width="548" height="339" xmlns="http://www.w3.org/2000/svg">
  <path fill="#fff" d="M0 0h548v339H0V0z"/>
  <path stroke="#333" stroke-linecap="butt" d="M147.5 69.5v232"/>
  <path stroke="#ccc" stroke-linecap="butt" d="M243.5 69.5v232M339.5 69.5v232M435.5 69.5v232M531.5 69.5v232"/>
  <clipPath id="a">
    <path d="M147.231 69.784H531.05v231.648H147.23V69.784z"/>
  </clipPath>
  <path clip-path="url(#a)" d="M147 168v-64h357a2 2 0 012 2v60a2 2 0 01-2 2z"/>
  <path fill="#e64a19" clip-path="url(#a)" d="M147 168v-64h357a2 2 0 012 2v60a2 2 0 01-2 2z"/>
  <path clip-path="url(#a)" d="M147 267v-64h371a2 2 0 012 2v60a2 2 0 01-2 2z"/>
  <path fill="#e64a19" clip-path="url(#a)" d="M147 267v-64h371a2 2 0 012 2v60a2 2 0 01-2 2z"/>
  <path stroke="#e64a19" stroke-width="3" stroke-linejoin="round" stroke-linecap="round" d="M484.566 140.5h-1.078v-7.219l-2.187.797v-.984l3.109-1.172h.156v8.578zm8.625-6.313q0 .641-.344 1.141-.343.5-.906.781.656.282 1.047.844.39.547.39 1.25 0 1.094-.75 1.766-.734.656-1.952.656-1.235 0-1.985-.656-.734-.672-.734-1.766 0-.703.375-1.25.375-.562 1.047-.844-.563-.28-.89-.78-.33-.5-.33-1.142 0-1.078.688-1.703.688-.64 1.829-.64 1.125 0 1.812.64.703.625.703 1.703zm-.89 3.985q0-.719-.454-1.156-.453-.453-1.187-.453t-1.188.453q-.437.437-.437 1.172 0 .718.437 1.14.438.406 1.204.406.75 0 1.187-.422.438-.421.438-1.14zm-1.625-5.438q-.641 0-1.047.407-.39.39-.39 1.078 0 .64.39 1.047.39.406 1.03.406.657 0 1.048-.406.39-.407.39-1.047 0-.656-.406-1.063-.406-.422-1.015-.422zm9.843-.156l-3.53 7.922h-1.142l3.516-7.64h-4.61v-.891h5.766v.61z"/>
  <path fill="#fff" d="M484.566 140.5h-1.078v-7.219l-2.187.797v-.984l3.109-1.172h.156v8.578zm8.625-6.313q0 .641-.344 1.141-.343.5-.906.781.656.282 1.047.844.39.547.39 1.25 0 1.094-.75 1.766-.734.656-1.952.656-1.235 0-1.985-.656-.734-.672-.734-1.766 0-.703.375-1.25.375-.562 1.047-.844-.563-.28-.89-.78-.33-.5-.33-1.142 0-1.078.688-1.703.688-.64 1.829-.64 1.125 0 1.812.64.703.625.703 1.703zm-.89 3.985q0-.719-.454-1.156-.453-.453-1.187-.453t-1.188.453q-.437.437-.437 1.172 0 .718.437 1.14.438.406 1.204.406.75 0 1.187-.422.438-.421.438-1.14zm-1.625-5.438q-.641 0-1.047.407-.39.39-.39 1.078 0 .64.39 1.047.39.406 1.03.406.657 0 1.048-.406.39-.407.39-1.047 0-.656-.406-1.063-.406-.422-1.015-.422zm9.843-.156l-3.53 7.922h-1.142l3.516-7.64h-4.61v-.891h5.766v.61z"/>
  <path stroke="#e64a19" stroke-width="3" stroke-linejoin="round" stroke-linecap="round" d="M498 239.5h-1.078v-7.219l-2.188.797v-.984l3.11-1.172H498v8.578zm7.594-3.75q-.329.406-.813.656-.469.235-1.031.235-.735 0-1.281-.36-.547-.36-.844-1.015-.297-.672-.297-1.47 0-.843.312-1.53.329-.688.922-1.047.61-.375 1.407-.375 1.265 0 1.984.953.734.953.734 2.578v.313q0 2.5-.984 3.64-.984 1.14-2.969 1.172h-.219v-.906h.235q1.344-.031 2.062-.703.719-.672.782-2.141zm-1.672 0q.547 0 1-.328.468-.344.687-.828v-.438q0-1.062-.469-1.734-.468-.672-1.171-.672-.72 0-1.157.547-.422.547-.422 1.453 0 .875.407 1.438.422.562 1.125.562zm9.093.89h1.188v.876h-1.188v1.984h-1.078v-1.984h-3.89v-.641l3.812-5.906h1.156v5.672zm-3.734 0h2.656v-4.187l-.14.234-2.516 3.954z"/>
  <path fill="#fff" d="M498 239.5h-1.078v-7.219l-2.188.797v-.984l3.11-1.172H498v8.578zm7.594-3.75q-.329.406-.813.656-.469.235-1.031.235-.735 0-1.281-.36-.547-.36-.844-1.015-.297-.672-.297-1.47 0-.843.312-1.53.329-.688.922-1.047.61-.375 1.407-.375 1.265 0 1.984.953.734.953.734 2.578v.313q0 2.5-.984 3.64-.984 1.14-2.969 1.172h-.219v-.906h.235q1.344-.031 2.062-.703.719-.672.782-2.141zm-1.672 0q.547 0 1-.328.468-.344.687-.828v-.438q0-1.062-.469-1.734-.468-.672-1.171-.672-.72 0-1.157.547-.422.547-.422 1.453 0 .875.407 1.438.422.562 1.125.562zm9.093.89h1.188v.876h-1.188v1.984h-1.078v-1.984h-3.89v-.641l3.812-5.906h1.156v5.672zm-3.734 0h2.656v-4.187l-.14.234-2.516 3.954z"/>
  <path fill="#757575" d="M53.044 127.665q0 1.468-.5 2.562-.485 1.078-1.39 1.656-.907.579-2.11.579-1.172 0-2.078-.579-.907-.578-1.407-1.64-.5-1.078-.515-2.485v-.718q0-1.438.5-2.532.5-1.109 1.406-1.687.906-.594 2.094-.594 1.187 0 2.094.578.921.578 1.406 1.688.5 1.094.5 2.547v.625zm-1.313-.64q0-1.767-.718-2.72-.704-.953-1.97-.953-1.25 0-1.968.953-.703.953-.734 2.625v.735q0 1.718.718 2.703.735.969 1.985.969 1.281 0 1.969-.922.703-.922.718-2.657v-.734zm10.985 2.14q-.188 1.578-1.172 2.437-.985.86-2.61.86-1.765 0-2.828-1.266-1.062-1.266-1.062-3.39v-.954q0-1.39.5-2.437.5-1.063 1.406-1.625.906-.563 2.094-.563 1.594 0 2.547.89.953.891 1.125 2.454h-1.328q-.172-1.188-.75-1.719-.563-.547-1.594-.547-1.25 0-1.969.938-.703.922-.703 2.64v.97q0 1.624.672 2.577.672.953 1.89.953 1.094 0 1.672-.484.594-.5.782-1.734h1.328zm4.61-1.282q-1.688-.484-2.47-1.187-.765-.719-.765-1.75 0-1.172.937-1.938.938-.78 2.453-.78 1.016 0 1.813.405.812.391 1.25 1.094.453.688.453 1.516h-1.328q0-.906-.578-1.422-.563-.516-1.61-.516-.968 0-1.515.438-.547.422-.547 1.187 0 .61.515 1.032.516.406 1.75.765 1.25.344 1.954.766.703.422 1.03.984.345.563.345 1.313 0 1.218-.954 1.953-.937.719-2.515.719-1.031 0-1.922-.391-.875-.406-1.36-1.078-.484-.688-.484-1.563h1.313q0 .907.672 1.438.671.515 1.78.515 1.048 0 1.595-.421.546-.422.546-1.157 0-.734-.515-1.125-.5-.406-1.844-.797zm6.374.547v3.89h-1.312v-9.952h3.671q1.625 0 2.547.844.938.828.938 2.203 0 1.437-.906 2.234-.907.781-2.594.781H73.7zm0-1.078h2.36q1.046 0 1.609-.5.562-.5.562-1.422 0-.89-.562-1.422-.563-.546-1.531-.562H73.7v3.906zm14.063-1.297q-.282-.047-.625-.047-1.235 0-1.688 1.063v5.25h-1.266v-7.39h1.235l.015.843q.625-.984 1.766-.984.375 0 .563.093v1.172zm4.5 6.407q-1.516 0-2.454-.985-.937-1-.937-2.656v-.219q0-1.11.422-1.969.422-.875 1.172-1.359t1.64-.484q1.438 0 2.235.953.797.937.797 2.719v.515h-5q.015 1.094.625 1.781.625.672 1.562.672.672 0 1.125-.265.469-.282.828-.735l.766.594q-.922 1.438-2.781 1.438zm-.157-6.641q-.765 0-1.297.562-.515.563-.64 1.563h3.703v-.094q-.047-.969-.516-1.5-.468-.531-1.25-.531zm8.391 4.531q0-.5-.39-.781-.391-.297-1.344-.5-.954-.203-1.532-.484-.562-.297-.828-.688-.265-.39-.265-.937 0-.922.765-1.547.766-.625 1.969-.625 1.25 0 2.031.656.781.64.781 1.656h-1.265q0-.531-.438-.906-.437-.375-1.109-.375-.688 0-1.078.312-.39.297-.39.782 0 .453.359.687.359.235 1.296.453.954.203 1.547.5.594.297.875.72.282.405.282 1 0 .983-.797 1.593-.797.594-2.063.594-.875 0-1.562-.313-.688-.328-1.078-.89-.375-.563-.375-1.22h1.265q.031.641.5 1.016.485.375 1.25.375.719 0 1.156-.297.438-.296.438-.78zm8.937-1.64q0 1.687-.78 2.718-.766 1.032-2.079 1.032-1.344 0-2.125-.86v3.563h-1.266V124.93h1.157l.062.813q.781-.953 2.156-.953 1.329 0 2.094 1 .781 1 .781 2.797v.125zm-1.265-.157q0-1.25-.531-1.968-.532-.72-1.47-.72-1.14 0-1.718 1.016v3.532q.578 1.015 1.734 1.015.922 0 1.454-.718.53-.735.53-2.157zm2.687 0q0-1.093.422-1.953.438-.875 1.188-1.344.765-.468 1.75-.468 1.5 0 2.437 1.047.938 1.046.938 2.78v.095q0 1.078-.422 1.937-.406.844-1.188 1.328-.765.485-1.75.485-1.515 0-2.453-1.047-.922-1.047-.922-2.766v-.094zm1.266.157q0 1.218.562 1.968.579.75 1.547.75.953 0 1.516-.75.578-.765.578-2.125 0-1.218-.578-1.968-.578-.766-1.531-.766-.938 0-1.516.75-.578.75-.578 2.14zm8.266-3.782l.03.922q.86-1.062 2.22-1.062 2.343 0 2.375 2.64v4.89h-1.266v-4.89q-.016-.797-.375-1.172-.36-.39-1.11-.39-.624 0-1.093.328-.453.328-.719.86v5.265h-1.266v-7.39h1.204zm11.109 5.422q0-.5-.39-.781-.391-.297-1.344-.5-.954-.203-1.532-.484-.562-.297-.828-.688-.265-.39-.265-.937 0-.922.765-1.547.766-.625 1.969-.625 1.25 0 2.031.656.781.64.781 1.656h-1.265q0-.531-.438-.906-.437-.375-1.109-.375-.688 0-1.078.312-.39.297-.39.782 0 .453.359.687.359.235 1.296.453.954.203 1.547.5.594.297.875.72.282.405.282 1 0 .983-.797 1.593-.797.594-2.063.594-.875 0-1.562-.313-.688-.328-1.078-.89-.375-.563-.375-1.22h1.265q.031.641.5 1.016.485.375 1.25.375.719 0 1.156-.297.438-.296.438-.78zm5.766 2.11q-1.516 0-2.454-.985-.937-1-.937-2.656v-.219q0-1.11.422-1.969.422-.875 1.172-1.359t1.64-.484q1.438 0 2.235.953.797.937.797 2.719v.515h-5q.015 1.094.625 1.781.625.672 1.562.672.672 0 1.125-.265.469-.282.828-.735l.766.594q-.922 1.438-2.781 1.438zm-.157-6.641q-.765 0-1.297.562-.515.563-.64 1.563h3.703v-.094q-.047-.969-.516-1.5-.468-.531-1.25-.531zM20.497 147.352q0-.5-.39-.781-.391-.297-1.344-.5-.954-.203-1.532-.484-.562-.297-.828-.688-.265-.39-.265-.937 0-.922.765-1.547.766-.625 1.969-.625 1.25 0 2.031.656.781.64.781 1.656H20.42q0-.531-.438-.906-.437-.375-1.109-.375-.688 0-1.078.312-.39.297-.39.782 0 .453.359.687.359.235 1.296.453.954.203 1.547.5.594.297.875.72.282.405.282 1 0 .983-.797 1.593-.797.594-2.063.594-.875 0-1.562-.313-.688-.328-1.078-.89-.375-.563-.375-1.22h1.265q.031.641.5 1.016.485.375 1.25.375.719 0 1.156-.297.438-.296.438-.78zm4.406-7.219v1.797h1.375v.97h-1.375v4.593q0 .437.188.672.187.218.625.218.218 0 .61-.093v1.03q-.5.142-.97.142-.859 0-1.297-.516-.421-.516-.421-1.453v-4.594h-1.344v-.969h1.344v-1.797h1.265zm7.86 9.188q-.11-.219-.188-.781-.875.922-2.11.922-1.093 0-1.796-.61-.688-.625-.688-1.578 0-1.156.875-1.797.875-.64 2.47-.64h1.233v-.579q0-.671-.406-1.062-.39-.39-1.156-.39-.688 0-1.14.343-.454.344-.454.828h-1.281q0-.562.39-1.078.407-.516 1.079-.812.672-.297 1.468-.297 1.282 0 2 .64.735.64.766 1.75v3.407q0 1.015.25 1.625v.109h-1.312zm-2.11-.969q.594 0 1.125-.297.547-.312.781-.812v-1.516h-1q-2.312 0-2.312 1.36 0 .593.39.937.391.328 1.016.328zm11.781-2.64q0 1.687-.78 2.718-.766 1.032-2.079 1.032-1.344 0-2.125-.86v3.563h-1.266V141.93h1.157l.062.813q.781-.953 2.156-.953 1.329 0 2.094 1 .781 1 .781 2.797v.125zm-1.265-.157q0-1.25-.531-1.968-.532-.72-1.47-.72-1.14 0-1.718 1.016v3.532q.578 1.015 1.734 1.015.922 0 1.454-.718.53-.735.53-2.157zm4.39 3.766h-1.265v-10.5h1.265v10.5zm4.704.14q-1.516 0-2.454-.984-.937-1-.937-2.656v-.219q0-1.11.422-1.969.422-.875 1.172-1.359t1.64-.484q1.438 0 2.235.953.797.937.797 2.719v.515h-5q.015 1.094.625 1.781.625.672 1.562.672.672 0 1.125-.265.469-.282.828-.735l.766.594q-.922 1.438-2.781 1.438zm-.157-6.64q-.765 0-1.297.562-.515.563-.64 1.563h3.703v-.094q-.047-.969-.516-1.5-.468-.531-1.25-.531zm3.782 2.734q0-1.703.796-2.734.813-1.031 2.11-1.031 1.312 0 2.062.89v-3.86h1.266v10.5h-1.156l-.063-.796q-.765.938-2.11.938-1.296 0-2.109-1.047-.796-1.063-.796-2.766v-.094zm1.265.157q0 1.25.516 1.968.515.703 1.437.703 1.203 0 1.75-1.078V143.9q-.562-1.031-1.734-1.031-.938 0-1.453.719-.516.703-.516 2.125zm11.406 3.609h-1.265v-7.39h1.265v7.39zm-1.359-9.36q0-.312.188-.515.187-.219.546-.219.375 0 .563.219.203.203.203.516 0 .312-.203.515-.188.203-.563.203-.359 0-.546-.203-.188-.203-.188-.515zm4.188 1.97l.03.921q.86-1.062 2.22-1.062 2.343 0 2.375 2.64v4.89h-1.266v-4.89q-.016-.797-.375-1.172-.36-.39-1.11-.39-.624 0-1.093.328-.453.328-.719.86v5.265h-1.266v-7.39h1.204zm12.765 6.5q.672 0 1.172-.407.516-.422.578-1.031h1.188q-.032.625-.438 1.203-.406.578-1.078.922-.672.344-1.422.344-1.515 0-2.406-1-.89-1.016-.89-2.766v-.219q0-1.078.39-1.922.406-.843 1.14-1.297.75-.468 1.766-.468 1.235 0 2.063.75.828.734.875 1.922h-1.188q-.062-.72-.547-1.172-.484-.47-1.203-.47-.969 0-1.5.704-.531.688-.531 2v.234q0 1.282.531 1.985.531.687 1.5.687zm7.11 1.03q-1.516 0-2.454-.984-.937-1-.937-2.656v-.219q0-1.11.422-1.969.422-.875 1.172-1.359t1.64-.484q1.438 0 2.235.953.797.937.797 2.719v.515h-5q.015 1.094.625 1.781.625.672 1.562.672.672 0 1.125-.265.469-.282.828-.735l.766.594q-.922 1.438-2.781 1.438zm-.157-6.64q-.765 0-1.297.562-.515.563-.64 1.563h3.703v-.094q-.047-.969-.516-1.5-.468-.531-1.25-.531zm7.657.234q-.282-.047-.625-.047-1.235 0-1.688 1.063v5.25h-1.266v-7.39h1.235l.015.843q.625-.984 1.766-.984.375 0 .563.093v1.172zm3.14-2.922v1.797h1.375v.97h-1.375v4.593q0 .437.188.672.187.218.625.218.218 0 .61-.093v1.03q-.5.142-.97.142-.859 0-1.297-.516-.421-.516-.421-1.453v-4.594h-1.344v-.969h1.344v-1.797h1.265zm4.656 9.188h-1.265v-7.39h1.265v7.39zm-1.359-9.36q0-.312.188-.515.187-.219.546-.219.375 0 .563.219.203.203.203.516 0 .312-.203.515-.188.203-.563.203-.359 0-.546-.203-.188-.203-.188-.515zm3.61 9.36v-6.422h-1.172v-.969h1.171v-.765q0-1.188.625-1.828.641-.657 1.813-.657.437 0 .86.11l-.063 1.03q-.328-.062-.688-.062-.609 0-.953.36-.328.36-.328 1.031v.781h1.578v.97h-1.578v6.42h-1.266zm5.75 0h-1.266v-7.39h1.265v7.39zm-1.36-9.36q0-.312.188-.515.187-.219.546-.219.375 0 .563.219.203.203.203.516 0 .312-.203.515-.188.203-.563.203-.359 0-.546-.203-.188-.203-.188-.515zm5.953 8.47q.672 0 1.172-.407.516-.422.578-1.031h1.188q-.032.625-.438 1.203-.406.578-1.078.922-.672.344-1.422.344-1.515 0-2.406-1-.89-1.016-.89-2.766v-.219q0-1.078.39-1.922.406-.843 1.14-1.297.75-.468 1.766-.468 1.235 0 2.063.75.828.734.875 1.922h-1.188q-.062-.72-.547-1.172-.484-.47-1.203-.47-.969 0-1.5.704-.531.688-.531 2v.234q0 1.282.531 1.985.531.687 1.5.687zm8.61.89q-.11-.219-.188-.781-.875.922-2.11.922-1.093 0-1.796-.61-.688-.625-.688-1.578 0-1.156.875-1.797.875-.64 2.47-.64h1.233v-.579q0-.671-.406-1.062-.39-.39-1.156-.39-.688 0-1.14.343-.454.344-.454.828h-1.281q0-.562.39-1.078.407-.516 1.079-.812.672-.297 1.468-.297 1.282 0 2 .64.735.64.766 1.75v3.407q0 1.015.25 1.625v.109h-1.312zm-2.11-.969q.594 0 1.125-.297.547-.312.781-.812v-1.516h-1q-2.312 0-2.312 1.36 0 .593.39.937.391.328 1.016.328zm7.25-8.219v1.797h1.375v.97h-1.375v4.593q0 .437.188.672.187.218.625.218.218 0 .61-.093v1.03q-.5.142-.97.142-.859 0-1.297-.516-.421-.516-.421-1.453v-4.594h-1.344v-.969h1.344v-1.797h1.265zm6.36 9.329q-1.516 0-2.454-.985-.937-1-.937-2.656v-.219q0-1.11.422-1.969.422-.875 1.172-1.359t1.64-.484q1.438 0 2.235.953.797.937.797 2.719v.515h-5q.015 1.094.625 1.781.625.672 1.562.672.672 0 1.125-.265.469-.282.828-.735l.766.594q-.922 1.438-2.781 1.438zm-.157-6.641q-.765 0-1.297.562-.515.563-.64 1.563h3.703v-.094q-.047-.969-.516-1.5-.468-.531-1.25-.531zM38.044 239.395h-1.328l-5.016-7.672v7.672h-1.312v-9.953H31.7l5.031 7.703v-7.703h1.313v9.953zm1.812-3.766q0-1.094.422-1.953.438-.875 1.188-1.344.765-.468 1.75-.468 1.5 0 2.437 1.046.938 1.047.938 2.782v.093q0 1.079-.422 1.938-.406.844-1.188 1.328-.765.484-1.75.484-1.515 0-2.453-1.046-.922-1.047-.922-2.766v-.094zm1.266.156q0 1.22.562 1.97.579.75 1.547.75.953 0 1.516-.75.578-.766.578-2.126 0-1.219-.578-1.969-.578-.765-1.531-.765-.938 0-1.516.75-.578.75-.578 2.14zm8.781-5.578v1.797h1.375v.969h-1.375v4.594q0 .437.188.672.187.218.625.218.218 0 .61-.093v1.03q-.5.141-.97.141-.859 0-1.297-.515-.421-.516-.421-1.453v-4.594h-1.344v-.969h1.344v-1.797h1.265zm14.14 4.532q0 1.468-.5 2.562-.484 1.078-1.39 1.656-.906.578-2.11.578-1.171 0-2.077-.578-.907-.578-1.407-1.64-.5-1.078-.515-2.485v-.718q0-1.438.5-2.532.5-1.109 1.406-1.687.906-.594 2.094-.594 1.187 0 2.094.578.921.578 1.406 1.688.5 1.093.5 2.547v.625zm-1.312-.641q0-1.766-.718-2.719-.704-.953-1.97-.953-1.25 0-1.968.953-.703.953-.734 2.625v.735q0 1.718.718 2.703.735.968 1.985.968 1.281 0 1.969-.921.703-.922.718-2.657v-.734zm10.985 2.14q-.188 1.579-1.172 2.438-.985.86-2.61.86-1.765 0-2.828-1.266-1.062-1.266-1.062-3.39v-.954q0-1.39.5-2.437.5-1.063 1.406-1.625.906-.563 2.094-.563 1.594 0 2.547.89.953.891 1.125 2.454h-1.328q-.172-1.188-.75-1.719-.563-.547-1.594-.547-1.25 0-1.969.938-.703.922-.703 2.64v.97q0 1.624.672 2.577.672.953 1.89.953 1.094 0 1.672-.484.594-.5.782-1.734h1.328zm4.61-1.28q-1.688-.485-2.47-1.188-.765-.719-.765-1.75 0-1.172.937-1.938.938-.78 2.453-.78 1.016 0 1.813.405.812.391 1.25 1.094.453.688.453 1.516h-1.328q0-.907-.578-1.422-.563-.516-1.61-.516-.968 0-1.515.438-.547.422-.547 1.187 0 .61.515 1.031.516.407 1.75.766 1.25.344 1.954.766.703.422 1.03.984.345.563.345 1.313 0 1.218-.954 1.953-.937.718-2.515.718-1.031 0-1.922-.39-.875-.406-1.36-1.078-.484-.688-.484-1.563h1.313q0 .906.672 1.438.671.515 1.78.515 1.048 0 1.595-.422.546-.421.546-1.156 0-.734-.515-1.125-.5-.406-1.844-.797zm6.374.546v3.89h-1.312v-9.952h3.671q1.625 0 2.547.843.938.829.938 2.204 0 1.437-.906 2.234-.907.781-2.594.781H84.7zm0-1.078h2.36q1.046 0 1.609-.5.562-.5.562-1.422 0-.89-.562-1.422-.563-.547-1.531-.562H84.7v3.906zm14.797 3q0-.5-.39-.781-.391-.297-1.344-.5-.954-.203-1.532-.485-.562-.296-.828-.687-.265-.39-.265-.938 0-.921.765-1.546.766-.625 1.969-.625 1.25 0 2.031.656.781.64.781 1.656H99.42q0-.531-.438-.906-.437-.375-1.109-.375-.688 0-1.078.312-.39.297-.39.782 0 .453.359.687.359.234 1.296.453.954.203 1.547.5.594.297.875.719.282.406.282 1 0 .984-.797 1.594-.797.593-2.063.593-.875 0-1.562-.312-.688-.328-1.078-.89-.375-.563-.375-1.22h1.265q.031.641.5 1.016.485.375 1.25.375.719 0 1.156-.297.438-.297.438-.78zm4.406-7.219v1.797h1.375v.969h-1.375v4.594q0 .437.188.672.187.218.625.218.218 0 .61-.093v1.03q-.5.141-.97.141-.859 0-1.297-.515-.421-.516-.421-1.453v-4.594h-1.344v-.969h1.344v-1.797h1.265zm7.86 9.188q-.11-.219-.188-.781-.875.921-2.11.921-1.093 0-1.796-.609-.688-.625-.688-1.578 0-1.156.875-1.797.875-.64 2.47-.64h1.233v-.579q0-.672-.406-1.062-.39-.39-1.156-.39-.688 0-1.14.343-.454.344-.454.828h-1.281q0-.562.39-1.078.407-.516 1.079-.813.672-.296 1.468-.296 1.282 0 2 .64.735.64.766 1.75v3.406q0 1.016.25 1.625v.11h-1.312zm-2.11-.969q.594 0 1.125-.297.547-.312.781-.812V235.8h-1q-2.312 0-2.312 1.36 0 .593.39.937.391.328 1.016.328zm11.781-2.64q0 1.687-.78 2.718-.766 1.031-2.079 1.031-1.344 0-2.125-.859v3.563h-1.266v-10.235h1.157l.062.813q.781-.953 2.156-.953 1.329 0 2.094 1 .781 1 .781 2.796v.125zm-1.265-.157q0-1.25-.531-1.969-.532-.718-1.47-.718-1.14 0-1.718 1.015v3.532q.578 1.015 1.734 1.015.922 0 1.454-.719.53-.734.53-2.156zm4.39 3.766h-1.265v-10.5h1.265v10.5zm4.704.14q-1.516 0-2.454-.984-.937-1-.937-2.656v-.219q0-1.11.422-1.969.422-.875 1.172-1.359t1.64-.484q1.438 0 2.235.953.797.937.797 2.718v.516h-5q.015 1.094.625 1.781.625.672 1.562.672.672 0 1.125-.265.469-.282.828-.735l.766.594q-.922 1.437-2.781 1.437zm-.157-6.64q-.765 0-1.297.562-.515.563-.64 1.563h3.703v-.094q-.047-.969-.516-1.5-.468-.531-1.25-.531zm3.782 2.734q0-1.703.796-2.734.813-1.031 2.11-1.031 1.312 0 2.062.89v-3.86h1.266v10.5h-1.156l-.063-.796q-.765.937-2.11.937-1.296 0-2.109-1.046-.796-1.063-.796-2.766v-.094zm1.265.156q0 1.25.516 1.97.515.702 1.437.702 1.203 0 1.75-1.078v-3.406q-.562-1.031-1.734-1.031-.938 0-1.453.718-.516.704-.516 2.125zM150.294 317.182q0 2.219-.766 3.313-.75 1.078-2.36 1.078-1.593 0-2.359-1.047-.765-1.063-.796-3.172v-1.687q0-2.188.75-3.25.765-1.078 2.39-1.078 1.61 0 2.36 1.03.765 1.032.78 3.173v1.64zm-1.266-1.719q0-1.609-.453-2.343-.437-.735-1.422-.735-.969 0-1.422.735-.437.719-.453 2.234v2.031q0 1.61.469 2.391.469.766 1.422.766.937 0 1.39-.72.454-.733.47-2.296v-2.063zM236.592 316.448l.516-4.969h5.093v1.172h-4.031l-.297 2.703q.735-.422 1.656-.422 1.36 0 2.157.906.812.891.812 2.422 0 1.532-.844 2.422-.828.89-2.312.89-1.313 0-2.156-.733-.828-.735-.953-2.032h1.203q.109.86.593 1.297.5.438 1.313.438.875 0 1.375-.594.516-.61.516-1.672 0-1-.547-1.594-.547-.61-1.453-.61-.813 0-1.297.36l-.328.266-1.016-.25zm13.656.734q0 2.219-.765 3.313-.75 1.078-2.36 1.078-1.594 0-2.36-1.047-.765-1.063-.796-3.172v-1.687q0-2.188.75-3.25.766-1.078 2.39-1.078 1.61 0 2.36 1.03.766 1.032.781 3.173v1.64zm-1.265-1.719q0-1.609-.454-2.343-.437-.735-1.421-.735-.97 0-1.422.735-.438.719-.453 2.234v2.031q0 1.61.468 2.391.469.766 1.422.766.938 0 1.39-.72.454-.733.47-2.296v-2.063zM332.124 321.432h-1.265v-8.422l-2.563.922v-1.14l3.625-1.36h.203v10zm10.078-4.25q0 2.219-.765 3.313-.75 1.078-2.36 1.078-1.593 0-2.359-1.047-.766-1.063-.797-3.172v-1.687q0-2.188.75-3.25.766-1.078 2.39-1.078 1.61 0 2.36 1.03.766 1.032.781 3.173v1.64zm-1.265-1.719q0-1.609-.453-2.343-.438-.735-1.422-.735-.969 0-1.422.735-.438.719-.453 2.234v2.031q0 1.61.469 2.391.468.766 1.421.766.938 0 1.391-.72.453-.733.469-2.296v-2.063zm9.265 1.72q0 2.218-.765 3.312-.75 1.078-2.36 1.078-1.593 0-2.359-1.047-.766-1.063-.797-3.172v-1.687q0-2.188.75-3.25.766-1.078 2.39-1.078 1.61 0 2.36 1.03.766 1.032.781 3.173v1.64zm-1.265-1.72q0-1.609-.453-2.343-.438-.735-1.422-.735-.969 0-1.422.735-.438.719-.453 2.234v2.031q0 1.61.469 2.391.468.766 1.421.766.938 0 1.391-.72.453-.733.469-2.296v-2.063zM428.079 321.432h-1.266v-8.422l-2.562.922v-1.14l3.625-1.36h.203v10zm4.422-4.984l.515-4.969h5.094v1.172h-4.031l-.297 2.703q.734-.422 1.656-.422 1.36 0 2.156.906.813.891.813 2.422 0 1.532-.844 2.422-.828.89-2.312.89-1.313 0-2.157-.733-.828-.735-.953-2.032h1.203q.11.86.594 1.297.5.438 1.313.438.875 0 1.375-.594.515-.61.515-1.672 0-1-.547-1.594-.546-.61-1.453-.61-.812 0-1.297.36l-.328.266-1.015-.25zm13.656.734q0 2.219-.766 3.313-.75 1.078-2.36 1.078-1.593 0-2.358-1.047-.766-1.063-.797-3.172v-1.687q0-2.188.75-3.25.765-1.078 2.39-1.078 1.61 0 2.36 1.03.765 1.032.78 3.173v1.64zm-1.266-1.719q0-1.609-.453-2.343-.437-.735-1.422-.735-.969 0-1.422.735-.437.719-.453 2.234v2.031q0 1.61.469 2.391.469.766 1.422.766.937 0 1.39-.72.454-.733.47-2.296v-2.063zM526.392 321.432h-6.515v-.906l3.437-3.828q.766-.875 1.063-1.406.297-.547.297-1.141 0-.766-.485-1.266-.468-.5-1.25-.5-.937 0-1.468.532-.516.53-.516 1.5h-1.266q0-1.375.875-2.22.891-.858 2.375-.858 1.391 0 2.188.734.812.719.812 1.937 0 1.47-1.875 3.5l-2.656 2.891h4.984v1.031zm7.72-4.25q0 2.219-.766 3.313-.75 1.078-2.36 1.078-1.594 0-2.36-1.047-.765-1.063-.796-3.172v-1.687q0-2.188.75-3.25.766-1.078 2.39-1.078 1.61 0 2.36 1.03.766 1.032.781 3.173v1.64zm-1.266-1.719q0-1.609-.454-2.343-.437-.735-1.421-.735-.97 0-1.422.735-.438.719-.453 2.234v2.031q0 1.61.468 2.391.47.766 1.422.766.938 0 1.39-.72.454-.733.47-2.296v-2.063zm9.265 1.72q0 2.218-.765 3.312-.75 1.078-2.36 1.078-1.594 0-2.36-1.047-.765-1.063-.796-3.172v-1.687q0-2.188.75-3.25.766-1.078 2.39-1.078 1.61 0 2.36 1.03.766 1.032.781 3.173v1.64zm-1.265-1.72q0-1.609-.454-2.343-.437-.735-1.421-.735-.97 0-1.422.735-.438.719-.453 2.234v2.031q0 1.61.468 2.391.47.766 1.422.766.938 0 1.39-.72.454-.733.47-2.296v-2.063z"/>
  <path fill="#bdbdbd" d="M23.606 57.318h-4.172l-.937 2.593h-1.36l3.813-9.953h1.14l3.813 9.953H24.56l-.953-2.593zm-3.781-1.078h3.39l-1.703-4.657-1.687 4.657zm8.281-3.72l.031.923q.86-1.063 2.22-1.063 2.343 0 2.374 2.64v4.891h-1.265v-4.89q-.016-.797-.375-1.172-.36-.39-1.11-.39-.625 0-1.094.327-.453.329-.718.86v5.265h-1.266v-7.39h1.203zm11.375 7.391q-.11-.218-.187-.78-.875.921-2.11.921-1.093 0-1.796-.61-.688-.624-.688-1.577 0-1.157.875-1.797.875-.64 2.469-.64h1.234v-.579q0-.672-.406-1.063-.39-.39-1.156-.39-.688 0-1.141.344-.453.343-.453.828H34.84q0-.563.39-1.078.407-.516 1.078-.813.672-.297 1.47-.297 1.28 0 2 .64.733.641.765 1.75v3.407q0 1.016.25 1.625v.11H39.48zm-2.11-.968q.595 0 1.126-.297.547-.313.781-.813v-1.515h-1q-2.312 0-2.312 1.36 0 .593.39.937.39.328 1.016.328zm6.907.968h-1.265v-10.5h1.265v10.5zm4.047-1.859l1.719-5.531h1.36l-2.97 8.531q-.687 1.844-2.203 1.844l-.234-.016-.469-.094v-1.015l.344.015q.64 0 1-.265.36-.25.594-.938l.28-.75-2.64-7.312h1.375l1.844 5.531zm8.89-.11q0-.5-.39-.78-.39-.297-1.344-.5-.953-.204-1.531-.485-.563-.297-.828-.687-.266-.391-.266-.938 0-.922.766-1.547.766-.625 1.969-.625 1.25 0 2.03.656.782.641.782 1.657h-1.265q0-.532-.438-.907t-1.11-.375q-.687 0-1.078.313-.39.297-.39.781 0 .453.36.688.359.234 1.296.453.953.203 1.547.5t.875.719q.281.406.281 1 0 .984-.797 1.593-.796.594-2.062.594-.875 0-1.563-.312-.687-.329-1.078-.891-.375-.563-.375-1.219h1.266q.031.64.5 1.016.484.375 1.25.375.719 0 1.156-.297.438-.297.438-.781zm4.063 1.97h-1.265V52.52h1.265v7.39zm-1.36-9.36q0-.312.188-.516.188-.218.547-.218.375 0 .563.218.203.204.203.516 0 .313-.203.516-.188.203-.563.203-.36 0-.547-.203-.187-.203-.187-.516zm7.298 7.39q0-.5-.391-.78-.39-.297-1.344-.5-.953-.204-1.531-.485-.563-.297-.828-.687-.266-.391-.266-.938 0-.922.766-1.547.766-.625 1.969-.625 1.25 0 2.03.656.782.641.782 1.657h-1.266q0-.532-.437-.907-.438-.375-1.11-.375-.687 0-1.078.313-.39.297-.39.781 0 .453.36.688.359.234 1.296.453.953.203 1.547.5t.875.719q.281.406.281 1 0 .984-.797 1.593-.796.594-2.062.594-.875 0-1.563-.312-.687-.329-1.078-.891-.375-.563-.375-1.219h1.266q.031.64.5 1.016.484.375 1.25.375.719 0 1.156-.297.438-.297.438-.781zm5.359-1.796q0-1.094.422-1.953.437-.875 1.187-1.344.766-.469 1.75-.469 1.5 0 2.438 1.047.937 1.047.937 2.781v.094q0 1.078-.421 1.938-.407.843-1.188 1.328-.766.484-1.75.484-1.516 0-2.453-1.047-.922-1.047-.922-2.765v-.094zm1.266.156q0 1.219.562 1.969.578.75 1.547.75.953 0 1.516-.75.578-.766.578-2.125 0-1.219-.578-1.969-.578-.766-1.532-.766-.937 0-1.515.75-.578.75-.578 2.141zm7.687 3.61V53.49h-1.172v-.97h1.172v-.765q0-1.187.625-1.828.64-.656 1.813-.656.437 0 .859.11l-.063 1.03q-.328-.062-.687-.062-.61 0-.953.36-.328.359-.328 1.03v.782h1.578v.969h-1.578v6.421h-1.266zm7.828-4.985l.516-4.969h5.094v1.172h-4.032l-.296 2.703q.734-.422 1.656-.422 1.36 0 2.156.907.813.89.813 2.422 0 1.53-.844 2.421-.828.891-2.313.891-1.312 0-2.156-.734-.828-.735-.953-2.032H90.2q.11.86.594 1.297.5.438 1.312.438.875 0 1.375-.594.516-.61.516-1.672 0-1-.547-1.594-.547-.609-1.453-.609-.813 0-1.297.36l-.328.265-1.016-.25zm13.657.734q0 2.22-.766 3.313-.75 1.078-2.36 1.078-1.593 0-2.359-1.047-.766-1.062-.797-3.172v-1.687q0-2.188.75-3.25.766-1.078 2.39-1.078 1.61 0 2.36 1.031.766 1.031.782 3.172v1.64zm-1.266-1.718q0-1.61-.453-2.344-.438-.734-1.422-.734-.969 0-1.422.734-.438.719-.453 2.234v2.032q0 1.609.469 2.39.468.766 1.422.766.937 0 1.39-.719.453-.734.469-2.297v-2.062zm9.266 1.718q0 2.22-.766 3.313-.75 1.078-2.36 1.078-1.593 0-2.359-1.047-.766-1.062-.797-3.172v-1.687q0-2.188.75-3.25.766-1.078 2.39-1.078 1.61 0 2.36 1.031.766 1.031.782 3.172v1.64zm-1.266-1.718q0-1.61-.453-2.344-.438-.734-1.422-.734-.969 0-1.422.734-.438.719-.453 2.234v2.032q0 1.609.469 2.39.468.766 1.422.766.937 0 1.39-.719.453-.734.469-2.297v-2.062zm7.422-.532q.844-1.03 2.187-1.03 2.344 0 2.375 2.64v4.89h-1.265v-4.89q-.016-.797-.375-1.172-.36-.39-1.11-.39-.625 0-1.093.327-.454.329-.72.86v5.265h-1.265v-10.5h1.266v4zm8.11 6.5h-1.266v-7.39h1.265v7.39zm-1.36-9.359q0-.312.187-.516.188-.218.547-.218.375 0 .563.218.203.204.203.516 0 .313-.203.516-.188.203-.563.203-.36 0-.547-.203-.187-.203-.187-.516zm2.687 5.594q0-1.719.797-2.735.797-1.03 2.125-1.03 1.344 0 2.11.952l.062-.812h1.156v7.219q0 1.437-.86 2.25-.843.828-2.28.828-.797 0-1.563-.344-.765-.328-1.172-.922l.657-.766q.812 1 1.984 1 .922 0 1.437-.515.532-.516.532-1.469v-.625q-.766.875-2.079.875-1.296 0-2.109-1.047-.797-1.047-.797-2.86zm1.266.156q0 1.25.515 1.969.516.703 1.438.703 1.203 0 1.766-1.094v-3.375q-.594-1.047-1.75-1.047-.922 0-1.454.72-.515.702-.515 2.124zm8.297-2.89q.843-1.032 2.187-1.032 2.344 0 2.375 2.64v4.891h-1.265v-4.89q-.016-.797-.375-1.172-.36-.39-1.11-.39-.625 0-1.094.327-.453.329-.718.86v5.265h-1.266v-10.5h1.266v4zm11.453-2.688v1.797h1.375v.969h-1.375v4.593q0 .438.187.672.188.219.625.219.22 0 .61-.094v1.031q-.5.141-.969.141-.86 0-1.297-.516-.422-.515-.422-1.453V53.49h-1.344v-.97h1.344v-1.796h1.266zm6.86 2.922q-.282-.047-.626-.047-1.234 0-1.687 1.062v5.25h-1.266v-7.39h1.234l.016.844q.625-.985 1.766-.985.375 0 .562.094v1.172zm6 6.265q-.11-.218-.188-.78-.875.921-2.11.921-1.093 0-1.797-.61-.687-.624-.687-1.577 0-1.157.875-1.797.875-.64 2.469-.64h1.234v-.579q0-.672-.406-1.063-.39-.39-1.156-.39-.688 0-1.141.344-.453.343-.453.828h-1.281q0-.563.39-1.078.406-.516 1.078-.813.672-.297 1.47-.297 1.28 0 2 .64.733.641.765 1.75v3.407q0 1.016.25 1.625v.11h-1.313zm-2.11-.968q.594 0 1.125-.297.547-.313.781-.813v-1.515h-1q-2.312 0-2.312 1.36 0 .593.39.937.39.328 1.016.328zm6.156.968V53.49h-1.172v-.97h1.172v-.765q0-1.187.625-1.828.64-.656 1.813-.656.437 0 .859.11l-.063 1.03q-.328-.062-.687-.062-.61 0-.953.36-.328.359-.328 1.03v.782h1.578v.969h-1.578v6.421h-1.266zm5 0V53.49h-1.172v-.97h1.172v-.765q0-1.187.625-1.828.64-.656 1.813-.656.437 0 .859.11l-.063 1.03q-.328-.062-.687-.062-.61 0-.953.36-.328.359-.328 1.03v.782h1.578v.969h-1.578v6.421h-1.266zm5.75 0h-1.266v-7.39h1.266v7.39zm-1.36-9.359q0-.312.188-.516.188-.218.547-.218.375 0 .563.218.203.204.203.516 0 .313-.203.516-.188.203-.563.203-.36 0-.547-.203-.187-.203-.187-.516zm5.954 8.469q.672 0 1.172-.406.515-.422.578-1.032h1.187q-.03.625-.437 1.203-.406.579-1.078.922-.672.344-1.422.344-1.516 0-2.406-1-.891-1.016-.891-2.766v-.218q0-1.078.39-1.922.407-.844 1.141-1.297.75-.469 1.766-.469 1.234 0 2.062.75.828.735.875 1.922h-1.187q-.063-.719-.547-1.172-.484-.469-1.203-.469-.969 0-1.5.704-.531.687-.531 2v.234q0 1.281.53 1.984.532.688 1.5.688zm7.281 1.75h-1.078l4.156-10.813h1.078l-4.156 10.813zm15-4.469q0 1.688-.781 2.719-.766 1.031-2.078 1.031-1.344 0-2.125-.86v3.563h-1.266V52.521h1.156l.063.812q.781-.953 2.156-.953 1.328 0 2.094 1 .781 1 .781 2.797v.125zm-1.266-.156q0-1.25-.53-1.969-.532-.719-1.47-.719-1.14 0-1.718 1.016v3.531q.578 1.016 1.734 1.016.922 0 1.453-.719.531-.734.531-2.156zm6.594-2.5q-.281-.047-.625-.047-1.234 0-1.687 1.062v5.25h-1.266v-7.39h1.234l.016.844q.625-.985 1.766-.985.375 0 .562.094v1.172zm4.5 6.406q-1.515 0-2.453-.984-.937-1-.937-2.657v-.218q0-1.11.421-1.969.422-.875 1.172-1.36.75-.484 1.641-.484 1.438 0 2.234.953.797.938.797 2.72v.515h-5q.016 1.093.625 1.781.625.672 1.563.672.672 0 1.125-.266.468-.281.828-.734l.765.594q-.921 1.437-2.78 1.437zm-.156-6.64q-.766 0-1.297.562-.516.562-.64 1.562h3.703v-.093q-.047-.969-.516-1.5-.469-.532-1.25-.532zm5.266-.891l.046.812q.813-.953 2.188-.953 1.547 0 2.11 1.188.374-.532.968-.86.594-.328 1.39-.328 2.438 0 2.485 2.578v4.953h-1.266v-4.875q0-.796-.375-1.187-.359-.39-1.203-.39-.718 0-1.187.421-.453.406-.531 1.125v4.906h-1.266v-4.843q0-1.61-1.578-1.61-1.25 0-1.703 1.047v5.406h-1.266v-7.39h1.188zm12.187 7.39h-1.266v-7.39h1.266v7.39zm-1.36-9.359q0-.312.188-.516.188-.218.547-.218.375 0 .563.218.203.204.203.516 0 .313-.203.516-.188.203-.563.203-.36 0-.547-.203-.187-.203-.187-.516zm7.563 8.625q-.75.875-2.172.875-1.187 0-1.812-.687-.61-.688-.61-2.032v-4.812h1.25v4.765q0 1.688 1.375 1.688 1.454 0 1.922-1.078V52.52h1.266v7.39h-1.203l-.016-.734zm4.61-6.656l.046.812q.813-.953 2.188-.953 1.547 0 2.11 1.188.374-.532.968-.86.594-.328 1.39-.328 2.438 0 2.485 2.578v4.953h-1.266v-4.875q0-.796-.375-1.187-.359-.39-1.203-.39-.718 0-1.187.421-.453.406-.531 1.125v4.906h-1.266v-4.843q0-1.61-1.578-1.61-1.25 0-1.703 1.047v5.406h-1.266v-7.39h1.188zm20.078 3.781q0 1.688-.781 2.719-.782 1.031-2.094 1.031-1.39 0-2.156-1l-.063.86h-1.172v-10.5h1.266v3.921q.765-.953 2.11-.953 1.358 0 2.124 1.016.766 1.015.766 2.797v.11zm-1.266-.156q0-1.281-.5-1.985-.5-.703-1.437-.703-1.25 0-1.797 1.157v3.203q.578 1.156 1.812 1.156.906 0 1.406-.703.516-.703.516-2.125zm6.578-2.5q-.281-.047-.625-.047-1.234 0-1.687 1.062v5.25h-1.266v-7.39h1.234l.016.844q.625-.985 1.766-.985.375 0 .562.094v1.172zm6 6.265q-.11-.218-.187-.78-.875.921-2.11.921-1.093 0-1.797-.61-.687-.624-.687-1.577 0-1.157.875-1.797.875-.64 2.469-.64h1.234v-.579q0-.672-.406-1.063-.39-.39-1.156-.39-.688 0-1.141.344-.453.343-.453.828h-1.281q0-.563.39-1.078.406-.516 1.078-.813.672-.297 1.47-.297 1.28 0 2 .64.733.641.765 1.75v3.407q0 1.016.25 1.625v.11h-1.313zm-2.11-.968q.595 0 1.126-.297.547-.313.781-.813v-1.515h-1q-2.312 0-2.312 1.36 0 .593.39.937.39.328 1.016.328zm6.735-6.422l.031.922q.86-1.063 2.22-1.063 2.343 0 2.374 2.64v4.891h-1.265v-4.89q-.016-.797-.375-1.172-.36-.39-1.11-.39-.625 0-1.094.327-.453.329-.718.86v5.265h-1.266v-7.39h1.203zm6.5 3.625q0-1.703.797-2.735.813-1.03 2.11-1.03 1.312 0 2.062.89v-3.86h1.266v10.5h-1.157l-.062-.796q-.766.937-2.11.937-1.296 0-2.109-1.047-.797-1.062-.797-2.765v-.094zm1.266.156q0 1.25.515 1.969.516.703 1.438.703 1.203 0 1.75-1.078V54.49q-.563-1.032-1.734-1.032-.938 0-1.454.72-.515.702-.515 2.124zm14.344 1.64q0-.5-.391-.78-.39-.297-1.344-.5-.953-.204-1.531-.485-.563-.297-.828-.687-.266-.391-.266-.938 0-.922.766-1.547.765-.625 1.969-.625 1.25 0 2.03.656.782.641.782 1.657h-1.266q0-.532-.437-.907-.438-.375-1.11-.375-.687 0-1.077.313-.391.297-.391.781 0 .453.36.688.359.234 1.296.453.953.203 1.547.5t.875.719q.281.406.281 1 0 .984-.797 1.593-.797.594-2.062.594-.875 0-1.563-.312-.687-.329-1.078-.891-.375-.563-.375-1.219h1.266q.031.64.5 1.016.484.375 1.25.375.719 0 1.156-.297.438-.297.438-.781zm4.062 1.97h-1.266V52.52h1.266v7.39zm-1.36-9.36q0-.312.188-.516.188-.218.547-.218.375 0 .563.218.203.204.203.516 0 .313-.203.516-.188.203-.563.203-.36 0-.547-.203-.187-.203-.187-.516zm4.704.172v1.797h1.375v.969h-1.375v4.593q0 .438.187.672.188.219.625.219.22 0 .61-.094v1.031q-.5.141-.969.141-.86 0-1.297-.516-.422-.515-.422-1.453V53.49h-1.344v-.97h1.344v-1.796h1.266zm6.36 9.328q-1.516 0-2.454-.984-.937-1-.937-2.657v-.218q0-1.11.421-1.969.422-.875 1.172-1.36.75-.484 1.641-.484 1.438 0 2.234.953.797.938.797 2.72v.515h-5q.016 1.093.625 1.781.625.672 1.563.672.672 0 1.125-.266.469-.281.828-.734l.765.594q-.921 1.437-2.78 1.437zm-.157-6.64q-.766 0-1.297.562-.516.562-.64 1.562h3.703v-.093q-.047-.969-.516-1.5-.469-.532-1.25-.532zm8.39 4.53q0-.5-.39-.78-.39-.297-1.344-.5-.953-.204-1.531-.485-.563-.297-.828-.687-.266-.391-.266-.938 0-.922.766-1.547.765-.625 1.969-.625 1.25 0 2.03.656.782.641.782 1.657h-1.266q0-.532-.437-.907-.438-.375-1.11-.375-.687 0-1.077.313-.391.297-.391.781 0 .453.36.688.359.234 1.296.453.953.203 1.547.5t.875.719q.281.406.281 1 0 .984-.797 1.593-.797.594-2.062.594-.875 0-1.563-.312-.687-.329-1.078-.891-.375-.563-.375-1.219h1.266q.031.64.5 1.016.484.375 1.25.375.719 0 1.156-.297.438-.297.438-.781zm7.063 1.97h-1.266V52.52h1.266v7.39zm-1.36-9.36q0-.312.188-.516.188-.218.547-.218.375 0 .563.218.203.204.203.516 0 .313-.203.516-.188.203-.563.203-.36 0-.547-.203-.187-.203-.187-.516zm4.188 1.969l.031.922q.86-1.063 2.22-1.063 2.343 0 2.374 2.64v4.891h-1.265v-4.89q-.016-.797-.375-1.172-.36-.39-1.11-.39-.625 0-1.094.327-.453.329-.718.86v5.265h-1.266v-7.39h1.203zm17.656 7.39h-1.328l-5.015-7.671v7.671h-1.313v-9.953h1.313l5.031 7.703v-7.703h1.313v9.953zm3.657-1.078h4.719v1.078h-6.032v-9.953h1.313v8.875z"/>
  <path fill="#757575" d="M18.966 27.286l.718-7.093h7.282v1.672h-5.75l-.422 3.875q1.047-.61 2.375-.61 1.937 0 3.078 1.281 1.14 1.282 1.14 3.47 0 2.202-1.187 3.468-1.188 1.266-3.313 1.266-1.89 0-3.078-1.047-1.187-1.047-1.359-2.89h1.719q.156 1.218.86 1.843.702.61 1.858.61 1.266 0 1.985-.86.719-.86.719-2.375 0-1.422-.782-2.281-.78-.875-2.062-.875-1.188 0-1.86.515l-.484.39-1.437-.359zm19.078 1.063q0 3.172-1.078 4.719-1.078 1.547-3.391 1.547-2.281 0-3.375-1.516-1.094-1.516-1.125-4.516v-2.406q0-3.14 1.078-4.656 1.094-1.531 3.406-1.531 2.297 0 3.375 1.484 1.079 1.469 1.11 4.531v2.344zm-1.797-2.469q0-2.297-.656-3.344-.641-1.062-2.032-1.062-1.39 0-2.03 1.047-.626 1.047-.642 3.219v2.89q0 2.297.657 3.406.672 1.094 2.031 1.094 1.344 0 1.984-1.031.657-1.031.688-3.266V25.88zm3.734-2.953q0-1.281.813-2.11.812-.827 2.094-.827 1.296 0 2.093.843.813.828.813 2.157v.687q0 1.297-.813 2.11-.812.812-2.078.812-1.265 0-2.094-.813-.828-.812-.828-2.171v-.688zm1.344.75q0 .766.422 1.266.437.484 1.156.484.703 0 1.125-.469.422-.484.422-1.312v-.719q0-.766-.422-1.266t-1.14-.5q-.72 0-1.141.5-.422.5-.422 1.297v.72zm5.578 7.25q0-1.281.813-2.11.812-.827 2.093-.827 1.282 0 2.094.828.828.812.828 2.172v.703q0 1.265-.812 2.093-.813.829-2.094.829-1.266 0-2.094-.813-.828-.812-.828-2.172v-.703zm1.344.766q0 .765.422 1.265.437.485 1.156.485.703 0 1.125-.485.422-.484.422-1.312v-.719q0-.781-.422-1.266-.422-.484-1.14-.484-.688 0-1.126.484-.437.485-.437 1.297v.735zm-4.938 1.64l-1.015-.64 6.937-11.11 1.032.641-6.954 11.11zm16.532-4.297q0-1.562.609-2.796.61-1.25 1.688-1.922 1.093-.672 2.5-.672 2.156 0 3.484 1.5 1.344 1.484 1.344 3.969v.125q0 1.546-.594 2.78-.594 1.22-1.703 1.907-1.094.688-2.516.688-2.14 0-3.484-1.5-1.328-1.5-1.328-3.954v-.125zm1.812.204q0 1.765.813 2.828.828 1.062 2.187 1.062 1.375 0 2.188-1.078.812-1.078.812-3.016 0-1.75-.828-2.828-.828-1.078-2.188-1.078-1.343 0-2.171 1.063-.813 1.062-.813 3.047zM72.2 34.41V25.24h-1.656v-1.391H72.2v-1.094q0-1.687.906-2.61.922-.937 2.578-.937.625 0 1.235.157l-.094 1.468q-.453-.078-.969-.078-.89 0-1.375.516-.468.5-.468 1.453v1.125h2.25v1.39h-2.25v9.172H72.2zm11.406 0V20.193h4.016q1.844 0 3.266.828 1.437.812 2.203 2.328.78 1.516.797 3.469v.906q0 2.016-.782 3.531-.781 1.516-2.218 2.328-1.438.813-3.344.828h-3.938zm1.875-12.671v11.14h1.969q2.172 0 3.375-1.344 1.203-1.359 1.203-3.843v-.828q0-2.422-1.14-3.766-1.141-1.344-3.22-1.36h-2.187zm15.828 10.187l4.063-11.734h2.047l-5.266 14.218h-1.672l-5.25-14.218h2.032l4.046 11.734zm8.375 3.703h-1.562l5.937-15.437h1.547l-5.922 15.437zm18.86-7.875q0 2.094-.703 3.656-.703 1.547-2 2.375-1.282.829-3 .829-1.688 0-2.985-.829-1.297-.828-2.015-2.359-.72-1.531-.735-3.547v-1.015q0-2.047.703-3.625.72-1.579 2.016-2.407 1.313-.843 2.984-.843 1.72 0 3.016.828 1.313.828 2.016 2.406.703 1.562.703 3.64v.891zm-1.875-.906q0-2.531-1.016-3.875-1.016-1.36-2.844-1.36-1.765 0-2.796 1.36-1.016 1.344-1.047 3.734v1.047q0 2.453 1.03 3.86 1.032 1.406 2.845 1.406 1.812 0 2.797-1.328 1-1.328 1.03-3.797v-1.047zm9.64 5.078l4.063-11.734h2.047l-5.266 14.218h-1.672l-5.25-14.218h2.031l4.047 11.734zm23.75-2.031q-.265 2.265-1.672 3.5-1.39 1.219-3.718 1.219-2.516 0-4.047-1.813-1.516-1.812-1.516-4.844V26.6q0-1.984.703-3.484.72-1.5 2.016-2.313 1.297-.812 3.016-.812 2.265 0 3.625 1.265 1.375 1.266 1.593 3.5h-1.89q-.235-1.687-1.063-2.453-.812-.766-2.265-.766-1.797 0-2.829 1.329-1.015 1.328-1.015 3.78v1.376q0 2.312.969 3.687.968 1.36 2.703 1.36 1.562 0 2.39-.703.844-.704 1.11-2.47h1.89zm6.641 4.719q-2.14 0-3.5-1.407-1.344-1.422-1.344-3.78v-.345q0-1.562.594-2.797.61-1.234 1.688-1.937 1.078-.703 2.343-.703 2.063 0 3.203 1.36 1.141 1.359 1.141 3.89v.75h-7.156q.031 1.562.906 2.531.875.953 2.219.953.968 0 1.625-.39.672-.391 1.172-1.032l1.093.86q-1.328 2.047-3.984 2.047zm-.219-9.485q-1.094 0-1.844.797-.734.797-.906 2.234h5.281v-.14q-.078-1.375-.75-2.125-.656-.766-1.78-.766zm11.938.328q-.407-.062-.875-.062-1.782 0-2.422 1.515v7.5h-1.797V23.85h1.75l.031 1.219q.89-1.422 2.516-1.422.531 0 .797.14v1.672zm4.343-4.172v2.563h1.985v1.39h-1.985v6.547q0 .641.266.97.266.312.906.312.313 0 .86-.125v1.468q-.719.204-1.39.204-1.204 0-1.829-.735-.61-.734-.61-2.094V25.24h-1.921v-1.391h1.922v-2.563h1.796zm6.516 13.125h-1.797V23.85h1.797v10.562zm-1.953-13.375q0-.437.266-.734.28-.312.796-.312.532 0 .797.312.282.297.282.734 0 .438-.282.735-.265.297-.797.297-.515 0-.796-.297-.266-.297-.266-.735zm5.875 13.375V25.24h-1.656v-1.391h1.656v-1.094q0-1.687.906-2.61.922-.937 2.578-.937.625 0 1.235.157l-.094 1.468q-.453-.078-.969-.078-.89 0-1.375.516-.469.5-.469 1.453v1.125h2.25v1.39h-2.25v9.172H193.2zm8.078 0h-1.797V23.85h1.797v10.562zm-1.953-13.375q0-.437.266-.734.28-.312.796-.312.532 0 .797.312.282.297.282.734 0 .438-.282.735-.265.297-.797.297-.515 0-.796-.297-.266-.297-.266-.735zm9.234 12.094q.97 0 1.688-.578.719-.594.797-1.469h1.718q-.062.907-.64 1.735-.563.812-1.531 1.312-.954.485-2.032.485-2.156 0-3.437-1.438-1.266-1.453-1.266-3.953v-.297q0-1.547.563-2.75.562-1.203 1.625-1.86 1.062-.671 2.5-.671 1.781 0 2.953 1.062 1.187 1.063 1.265 2.766h-1.718q-.078-1.016-.782-1.672-.687-.672-1.718-.672-1.375 0-2.14 1-.75.985-.75 2.86v.343q0 1.828.75 2.813.75.984 2.155.984zm12.282 1.281q-.157-.312-.25-1.109-1.266 1.313-3.016 1.313-1.563 0-2.563-.891-1-.89-1-2.25 0-1.64 1.25-2.547 1.266-.922 3.532-.922h1.765v-.828q0-.953-.578-1.516-.562-.562-1.656-.562-.969 0-1.625.5-.656.484-.656 1.172h-1.813q0-.781.563-1.516.562-.75 1.515-1.172.97-.437 2.125-.437 1.828 0 2.86.922 1.031.906 1.078 2.515v4.86q0 1.453.36 2.312v.156h-1.891zm-3-1.375q.859 0 1.609-.437.766-.438 1.11-1.14v-2.173h-1.423q-3.312 0-3.312 1.938 0 .86.563 1.344.562.468 1.453.468zm9.921-11.75v2.563h1.985v1.39h-1.985v6.547q0 .641.266.97.266.312.906.312.313 0 .86-.125v1.468q-.719.204-1.39.204-1.204 0-1.829-.735-.61-.734-.61-2.094V25.24h-1.921v-1.391h1.922v-2.563h1.796zm8.938 13.329q-2.14 0-3.5-1.407-1.344-1.422-1.344-3.78v-.345q0-1.562.594-2.797.61-1.234 1.688-1.937 1.078-.703 2.343-.703 2.063 0 3.203 1.36 1.141 1.359 1.141 3.89v.75h-7.156q.031 1.562.906 2.531.875.953 2.219.953.968 0 1.625-.39.672-.391 1.172-1.032l1.093.86q-1.328 2.047-3.984 2.047zm-.219-9.485q-1.094 0-1.844.797-.734.797-.906 2.234h5.281v-.14q-.078-1.375-.75-2.125-.656-.766-1.78-.766zm12.985 6.485q0-.735-.547-1.141t-1.922-.703q-1.375-.297-2.188-.703-.797-.407-1.187-.969-.375-.578-.375-1.36 0-1.296 1.094-2.187 1.093-.906 2.812-.906 1.797 0 2.906.937 1.125.922 1.125 2.36h-1.828q0-.735-.625-1.266-.625-.547-1.578-.547-1 0-1.562.438-.547.422-.547 1.125 0 .64.515.984.516.328 1.875.64 1.36.298 2.188.72.844.406 1.25 1 .406.593.406 1.437 0 1.422-1.14 2.281-1.126.86-2.938.86-1.266 0-2.25-.454-.969-.453-1.531-1.25-.547-.812-.547-1.75h1.812q.047.907.72 1.438.687.531 1.796.531 1.031 0 1.64-.406.626-.422.626-1.11zm16.984-.922h-5.953l-1.344 3.718h-1.922l5.422-14.218h1.64l5.438 14.218h-1.922l-1.359-3.718zm-5.39-1.532h4.843l-2.422-6.656-2.422 6.656zm15.359-3.703q-.406-.062-.875-.062-1.781 0-2.422 1.515v7.5h-1.797V23.85h1.75l.031 1.219q.89-1.422 2.516-1.422.531 0 .797.14v1.672zm6.281 9.157q-2.14 0-3.5-1.407-1.344-1.422-1.344-3.78v-.345q0-1.562.594-2.797.61-1.234 1.688-1.937 1.078-.703 2.343-.703 2.063 0 3.203 1.36 1.141 1.359 1.141 3.89v.75h-7.156q.031 1.562.906 2.531.875.953 2.219.953.969 0 1.625-.39.672-.391 1.172-1.032l1.093.86q-1.328 2.047-3.984 2.047zm-.219-9.485q-1.094 0-1.844.797-.734.797-.906 2.234h5.281v-.14q-.078-1.375-.75-2.125-.656-.766-1.78-.766zm23.047 9.281h-1.89l-7.157-10.953v10.953h-1.875V20.193h1.875l7.188 11v-11h1.86V34.41zm2.313-5.375q0-1.562.609-2.796.61-1.25 1.688-1.922 1.093-.672 2.5-.672 2.156 0 3.484 1.5 1.344 1.484 1.344 3.969v.125q0 1.546-.594 2.78-.594 1.22-1.703 1.907-1.094.688-2.516.688-2.14 0-3.484-1.5-1.328-1.5-1.328-3.954v-.125zm1.812.204q0 1.765.813 2.828.828 1.062 2.187 1.062 1.375 0 2.188-1.078.812-1.078.812-3.016 0-1.75-.828-2.828-.828-1.078-2.188-1.078-1.343 0-2.171 1.063-.813 1.062-.813 3.047zm12.11-7.954v2.563h1.984v1.39h-1.985v6.547q0 .641.266.97.266.312.906.312.313 0 .86-.125v1.468q-.719.204-1.39.204-1.204 0-1.829-.735-.61-.734-.61-2.094V25.24h-1.921v-1.391h1.922v-2.563h1.796zm20.78 6.47q0 2.093-.702 3.655-.704 1.547-2 2.375-1.282.829-3 .829-1.688 0-2.985-.829-1.297-.828-2.015-2.359-.72-1.531-.735-3.547v-1.015q0-2.047.703-3.625.72-1.579 2.016-2.407 1.313-.843 2.984-.843 1.72 0 3.016.828 1.313.828 2.016 2.406.703 1.562.703 3.64v.891zm-1.874-.907q0-2.531-1.016-3.875-1.016-1.36-2.844-1.36-1.765 0-2.797 1.36-1.015 1.344-1.046 3.734v1.047q0 2.453 1.03 3.86 1.032 1.406 2.845 1.406 1.812 0 2.796-1.328 1-1.328 1.032-3.797v-1.047zm15.39 3.047q-.265 2.265-1.672 3.5-1.39 1.219-3.718 1.219-2.516 0-4.047-1.813-1.516-1.812-1.516-4.844V26.6q0-1.984.703-3.484.72-1.5 2.016-2.313 1.297-.812 3.016-.812 2.265 0 3.625 1.265 1.375 1.266 1.593 3.5h-1.89q-.235-1.687-1.063-2.453-.812-.766-2.265-.766-1.797 0-2.829 1.329-1.015 1.328-1.015 3.78v1.376q0 2.312.969 3.687.968 1.36 2.703 1.36 1.562 0 2.39-.703.844-.704 1.11-2.47h1.89zm6.735-1.828q-2.422-.688-3.516-1.688-1.094-1.015-1.094-2.5 0-1.687 1.344-2.781 1.344-1.11 3.484-1.11 1.47 0 2.61.579 1.156.562 1.781 1.562.625.985.625 2.172h-1.875q0-1.281-.828-2.016-.813-.75-2.313-.75-1.39 0-2.171.61-.766.61-.766 1.703 0 .86.734 1.469.735.593 2.5 1.093 1.782.5 2.782 1.11 1 .594 1.484 1.39.484.797.484 1.891 0 1.719-1.343 2.766-1.344 1.047-3.61 1.047-1.453 0-2.734-.563-1.266-.562-1.953-1.531-.688-.985-.688-2.235h1.89q0 1.297.954 2.047.953.735 2.531.735 1.485 0 2.281-.594.797-.61.797-1.656 0-1.047-.734-1.61-.734-.578-2.656-1.14zm9.687.781v5.562h-1.875V20.193h5.235q2.343 0 3.656 1.187 1.328 1.188 1.328 3.156 0 2.079-1.297 3.204-1.297 1.109-3.703 1.109h-3.344zm0-1.531h3.36q1.515 0 2.312-.703.797-.72.797-2.063 0-1.266-.797-2.016-.797-.765-2.203-.796h-3.469v5.578zm20.313.75q-2.422-.688-3.516-1.688-1.094-1.015-1.094-2.5 0-1.687 1.344-2.781 1.344-1.11 3.484-1.11 1.47 0 2.61.579 1.156.562 1.781 1.562.625.985.625 2.172h-1.875q0-1.281-.828-2.016-.813-.75-2.313-.75-1.39 0-2.171.61-.766.61-.766 1.703 0 .86.734 1.469.735.593 2.5 1.093 1.782.5 2.782 1.11 1 .594 1.484 1.39.484.797.484 1.891 0 1.719-1.343 2.766-1.344 1.047-3.61 1.047-1.453 0-2.734-.563-1.266-.562-1.953-1.531-.688-.985-.688-2.235h1.89q0 1.297.954 2.047.953.735 2.531.735 1.485 0 2.281-.594.797-.61.797-1.656 0-1.047-.734-1.61-.734-.578-2.656-1.14zm9.969-6.782v2.563h1.984v1.39h-1.985v6.547q0 .641.266.97.266.312.906.312.313 0 .86-.125v1.468q-.719.204-1.39.204-1.204 0-1.829-.735-.61-.734-.61-2.094V25.24h-1.921v-1.391h1.922v-2.563h1.796zm11.078 13.125q-.157-.312-.25-1.109-1.266 1.313-3.016 1.313-1.563 0-2.563-.891-1-.89-1-2.25 0-1.64 1.25-2.547 1.266-.922 3.532-.922h1.765v-.828q0-.953-.578-1.516-.562-.562-1.656-.562-.969 0-1.625.5-.656.484-.656 1.172h-1.813q0-.781.563-1.516.562-.75 1.515-1.172.97-.437 2.125-.437 1.828 0 2.86.922 1.031.906 1.078 2.515v4.86q0 1.453.36 2.312v.156h-1.891zm-3-1.375q.859 0 1.609-.437.766-.438 1.11-1.14v-2.173h-1.423q-3.312 0-3.312 1.938 0 .86.563 1.344.562.468 1.453.468zm16.406-3.796q0 2.421-1.11 3.906-1.093 1.469-2.984 1.469-1.922 0-3.031-1.235v5.094h-1.797V23.849h1.64l.094 1.172q1.094-1.375 3.063-1.375 1.906 0 3.015 1.437 1.11 1.438 1.11 4v.157zm-1.813-.204q0-1.78-.765-2.812-.75-1.047-2.078-1.047-1.641 0-2.47 1.453v5.063q.813 1.437 2.485 1.437 1.297 0 2.063-1.031.765-1.031.765-3.063zm5.844 5.375h-1.797v-15h1.797v15zm7.422.204q-2.14 0-3.5-1.407-1.344-1.422-1.344-3.78v-.345q0-1.562.594-2.797.61-1.234 1.688-1.937 1.078-.703 2.343-.703 2.063 0 3.203 1.36 1.141 1.359 1.141 3.89v.75h-7.156q.031 1.562.906 2.531.875.953 2.219.953.969 0 1.625-.39.672-.391 1.172-1.032l1.093.86q-1.328 2.047-3.984 2.047zm-.219-9.485q-1.094 0-1.844.797-.734.797-.906 2.234h5.281v-.14q-.078-1.375-.75-2.125-.656-.766-1.78-.766zm6.39 3.906q0-2.421 1.157-3.906 1.156-1.484 3.016-1.484t2.937 1.265v-5.5h1.813v15h-1.656l-.094-1.14q-1.078 1.344-3.016 1.344-1.828 0-3-1.5-1.156-1.516-1.156-3.938v-.14zm1.813.204q0 1.796.735 2.812.75 1.016 2.062 1.016 1.719 0 2.5-1.532v-4.859q-.797-1.5-2.484-1.5-1.328 0-2.078 1.031-.735 1.032-.735 3.032z"/>
</svg>
