<svg version="1.1" viewBox="0.0 0.0 548.0 339.0" fill="none" stroke="none" stroke-linecap="square" stroke-miterlimit="10" width="548" height="339" xmlns:xlink="http://www.w3.org/1999/xlink" xmlns="http://www.w3.org/2000/svg"><path fill="#ffffff" d="M0 0L548.0 0L548.0 339.0L0 339.0L0 0Z" fill-rule="nonzero"/><path stroke="#333333" stroke-width="1.0" stroke-linecap="butt" d="M147.5 69.5L147.5 301.5" fill-rule="nonzero"/><path stroke="#cccccc" stroke-width="1.0" stroke-linecap="butt" d="M243.5 69.5L243.5 301.5" fill-rule="nonzero"/><path stroke="#cccccc" stroke-width="1.0" stroke-linecap="butt" d="M339.5 69.5L339.5 301.5" fill-rule="nonzero"/><path stroke="#cccccc" stroke-width="1.0" stroke-linecap="butt" d="M435.5 69.5L435.5 301.5" fill-rule="nonzero"/><path stroke="#cccccc" stroke-width="1.0" stroke-linecap="butt" d="M531.5 69.5L531.5 301.5" fill-rule="nonzero"/><clipPath id="id_0"><path d="M147.23132 69.78353L531.0487 69.78353L531.0487 301.43225L147.23132 301.43225L147.23132 69.78353Z" clip-rule="nonzero"/></clipPath><path stroke="#000000" stroke-width="0.0" stroke-linecap="butt" stroke-opacity="0.0" clip-path="url(#id_0)" d="M147.0 168.0L147.0 104.0L322.0 104.0C323.10458 104.0 324.0 104.89543 324.0 106.0L324.0 166.0C324.0 167.10457 323.10458 168.0 322.0 168.0Z" fill-rule="nonzero"/><path fill="#e64a19" clip-path="url(#id_0)" d="M147.0 168.0L147.0 104.0L322.0 104.0C323.10458 104.0 324.0 104.89543 324.0 106.0L324.0 166.0C324.0 167.10457 323.10458 168.0 322.0 168.0Z" fill-rule="nonzero"/><path stroke="#000000" stroke-width="0.0" stroke-linecap="butt" stroke-opacity="0.0" clip-path="url(#id_0)" d="M147.0 267.0L147.0 203.0L329.0 203.0C330.10458 203.0 331.0 203.89543 331.0 205.0L331.0 265.0C331.0 266.10458 330.10458 267.0 329.0 267.0Z" fill-rule="nonzero"/><path fill="#e64a19" clip-path="url(#id_0)" d="M147.0 267.0L147.0 203.0L329.0 203.0C330.10458 203.0 331.0 203.89543 331.0 205.0L331.0 265.0C331.0 266.10458 330.10458 267.0 329.0 267.0Z" fill-rule="nonzero"/><path stroke="#e64a19" stroke-width="3.0" stroke-linejoin="round" stroke-linecap="round" d="M299.1717 140.5L297.90607 140.5L297.90607 132.07812L295.34357 133.0L295.34357 131.85938L298.96857 130.5L299.1717 130.5L299.1717 140.5ZM309.0467 133.14062Q309.0467 133.89062 308.65607 134.46875Q308.26544 135.04688 307.59357 135.375Q308.37482 135.71875 308.82794 136.35938Q309.28107 137.0 309.28107 137.8125Q309.28107 139.10938 308.40607 139.875Q307.5467 140.64062 306.12482 140.64062Q304.68732 140.64062 303.81232 139.875Q302.95294 139.09375 302.95294 137.8125Q302.95294 137.0 303.39044 136.35938Q303.82794 135.70312 304.6092 135.375Q303.95294 135.04688 303.56232 134.46875Q303.18732 133.875 303.18732 133.14062Q303.18732 131.89062 303.9842 131.15625Q304.7967 130.40625 306.12482 130.40625Q307.43732 130.40625 308.2342 131.15625Q309.0467 131.89062 309.0467 133.14062ZM308.01544 137.78125Q308.01544 136.95312 307.4842 136.4375Q306.95294 135.90625 306.09357 135.90625Q305.24982 135.90625 304.7342 136.42188Q304.21857 136.9375 304.21857 137.79688Q304.21857 138.64062 304.71857 139.125Q305.21857 139.60938 306.12482 139.60938Q306.99982 139.60938 307.49982 139.125Q308.01544 138.625 308.01544 137.78125ZM306.12482 131.45312Q305.37482 131.45312 304.90607 131.92188Q304.45294 132.375 304.45294 133.17188Q304.45294 133.92188 304.90607 134.39062Q305.3592 134.85938 306.1092 134.85938Q306.87482 134.85938 307.32794 134.39062Q307.78107 133.92188 307.78107 133.17188Q307.78107 132.40625 307.31232 131.9375Q306.84357 131.45312 306.12482 131.45312ZM316.3592 137.15625L317.7342 137.15625L317.7342 138.1875L316.3592 138.1875L316.3592 140.5L315.07794 140.5L315.07794 138.1875L310.5467 138.1875L310.5467 137.4375L314.99982 130.54688L316.3592 130.54688L316.3592 137.15625ZM311.9842 137.15625L315.07794 137.15625L315.07794 132.28125L314.93732 132.54688L311.9842 137.15625Z" fill-rule="nonzero"/><path fill="#ffffff" d="M299.1717 140.5L297.90607 140.5L297.90607 132.07812L295.34357 133.0L295.34357 131.85938L298.96857 130.5L299.1717 130.5L299.1717 140.5ZM309.0467 133.14062Q309.0467 133.89062 308.65607 134.46875Q308.26544 135.04688 307.59357 135.375Q308.37482 135.71875 308.82794 136.35938Q309.28107 137.0 309.28107 137.8125Q309.28107 139.10938 308.40607 139.875Q307.5467 140.64062 306.12482 140.64062Q304.68732 140.64062 303.81232 139.875Q302.95294 139.09375 302.95294 137.8125Q302.95294 137.0 303.39044 136.35938Q303.82794 135.70312 304.6092 135.375Q303.95294 135.04688 303.56232 134.46875Q303.18732 133.875 303.18732 133.14062Q303.18732 131.89062 303.9842 131.15625Q304.7967 130.40625 306.12482 130.40625Q307.43732 130.40625 308.2342 131.15625Q309.0467 131.89062 309.0467 133.14062ZM308.01544 137.78125Q308.01544 136.95312 307.4842 136.4375Q306.95294 135.90625 306.09357 135.90625Q305.24982 135.90625 304.7342 136.42188Q304.21857 136.9375 304.21857 137.79688Q304.21857 138.64062 304.71857 139.125Q305.21857 139.60938 306.12482 139.60938Q306.99982 139.60938 307.49982 139.125Q308.01544 138.625 308.01544 137.78125ZM306.12482 131.45312Q305.37482 131.45312 304.90607 131.92188Q304.45294 132.375 304.45294 133.17188Q304.45294 133.92188 304.90607 134.39062Q305.3592 134.85938 306.1092 134.85938Q306.87482 134.85938 307.32794 134.39062Q307.78107 133.92188 307.78107 133.17188Q307.78107 132.40625 307.31232 131.9375Q306.84357 131.45312 306.12482 131.45312ZM316.3592 137.15625L317.7342 137.15625L317.7342 138.1875L316.3592 138.1875L316.3592 140.5L315.07794 140.5L315.07794 138.1875L310.5467 138.1875L310.5467 137.4375L314.99982 130.54688L316.3592 130.54688L316.3592 137.15625ZM311.9842 137.15625L315.07794 137.15625L315.07794 132.28125L314.93732 132.54688L311.9842 137.15625Z" fill-rule="nonzero"/><path stroke="#e64a19" stroke-width="3.0" stroke-linejoin="round" stroke-linecap="round" d="M306.84802 239.5L305.5824 239.5L305.5824 231.07812L303.0199 232.0L303.0199 230.85938L306.6449 229.5L306.84802 229.5L306.84802 239.5ZM315.53552 235.125Q315.1449 235.59375 314.5824 235.89062Q314.03552 236.17188 313.37927 236.17188Q312.5199 236.17188 311.87927 235.75Q311.23865 235.32812 310.8949 234.5625Q310.55115 233.78125 310.55115 232.85938Q310.55115 231.85938 310.92615 231.0625Q311.30115 230.25 312.00427 229.82812Q312.7074 229.40625 313.62927 229.40625Q315.11365 229.40625 315.9574 230.51562Q316.81677 231.625 316.81677 233.53125L316.81677 233.89062Q316.81677 236.79688 315.66052 238.14062Q314.5199 239.46875 312.19177 239.5L311.94177 239.5L311.94177 238.4375L312.22302 238.4375Q313.78552 238.40625 314.61365 237.625Q315.4574 236.82812 315.53552 235.125ZM313.5824 235.125Q314.22302 235.125 314.75427 234.73438Q315.30115 234.34375 315.55115 233.76562L315.55115 233.26562Q315.55115 232.01562 315.00427 231.25Q314.4574 230.46875 313.6449 230.46875Q312.80115 230.46875 312.28552 231.10938Q311.78552 231.73438 311.78552 232.78125Q311.78552 233.8125 312.2699 234.46875Q312.7699 235.125 313.5824 235.125ZM325.2074 239.5L318.69177 239.5L318.69177 238.59375L322.12927 234.76562Q322.8949 233.89062 323.19177 233.35938Q323.48865 232.8125 323.48865 232.21875Q323.48865 231.45312 323.00427 230.95312Q322.53552 230.45312 321.75427 230.45312Q320.81677 230.45312 320.28552 230.98438Q319.7699 231.51562 319.7699 232.48438L318.50427 232.48438Q318.50427 231.10938 319.37927 230.26562Q320.2699 229.40625 321.75427 229.40625Q323.1449 229.40625 323.94177 230.14062Q324.75427 230.85938 324.75427 232.07812Q324.75427 233.54688 322.87927 235.57812L320.22302 238.46875L325.2074 238.46875L325.2074 239.5Z" fill-rule="nonzero"/><path fill="#ffffff" d="M306.84802 239.5L305.5824 239.5L305.5824 231.07812L303.0199 232.0L303.0199 230.85938L306.6449 229.5L306.84802 229.5L306.84802 239.5ZM315.53552 235.125Q315.1449 235.59375 314.5824 235.89062Q314.03552 236.17188 313.37927 236.17188Q312.5199 236.17188 311.87927 235.75Q311.23865 235.32812 310.8949 234.5625Q310.55115 233.78125 310.55115 232.85938Q310.55115 231.85938 310.92615 231.0625Q311.30115 230.25 312.00427 229.82812Q312.7074 229.40625 313.62927 229.40625Q315.11365 229.40625 315.9574 230.51562Q316.81677 231.625 316.81677 233.53125L316.81677 233.89062Q316.81677 236.79688 315.66052 238.14062Q314.5199 239.46875 312.19177 239.5L311.94177 239.5L311.94177 238.4375L312.22302 238.4375Q313.78552 238.40625 314.61365 237.625Q315.4574 236.82812 315.53552 235.125ZM313.5824 235.125Q314.22302 235.125 314.75427 234.73438Q315.30115 234.34375 315.55115 233.76562L315.55115 233.26562Q315.55115 232.01562 315.00427 231.25Q314.4574 230.46875 313.6449 230.46875Q312.80115 230.46875 312.28552 231.10938Q311.78552 231.73438 311.78552 232.78125Q311.78552 233.8125 312.2699 234.46875Q312.7699 235.125 313.5824 235.125ZM325.2074 239.5L318.69177 239.5L318.69177 238.59375L322.12927 234.76562Q322.8949 233.89062 323.19177 233.35938Q323.48865 232.8125 323.48865 232.21875Q323.48865 231.45312 323.00427 230.95312Q322.53552 230.45312 321.75427 230.45312Q320.81677 230.45312 320.28552 230.98438Q319.7699 231.51562 319.7699 232.48438L318.50427 232.48438Q318.50427 231.10938 319.37927 230.26562Q320.2699 229.40625 321.75427 229.40625Q323.1449 229.40625 323.94177 230.14062Q324.75427 230.85938 324.75427 232.07812Q324.75427 233.54688 322.87927 235.57812L320.22302 238.46875L325.2074 238.46875L325.2074 239.5Z" fill-rule="nonzero"/><path fill="#666666" d="M53.04383 127.66469Q53.04383 129.13344 52.54383 130.22719Q52.059456 131.30531 51.153206 131.88344Q50.246956 132.46156 49.04383 132.46156Q47.871956 132.46156 46.965706 131.88344Q46.059456 131.30531 45.559456 130.24281Q45.059456 129.16469 45.04383 127.75844L45.04383 127.03969Q45.04383 125.60219 45.54383 124.50844Q46.04383 123.39906 46.95008 122.82094Q47.85633 122.22719 49.04383 122.22719Q50.23133 122.22719 51.13758 122.80531Q52.059456 123.38344 52.54383 124.49281Q53.04383 125.58656 53.04383 127.03969L53.04383 127.66469ZM51.73133 127.02406Q51.73133 125.25844 51.01258 124.30531Q50.309456 123.35219 49.04383 123.35219Q47.79383 123.35219 47.07508 124.30531Q46.371956 125.25844 46.340706 126.93031L46.340706 127.66469Q46.340706 129.38344 47.059456 130.36781Q47.79383 131.33656 49.04383 131.33656Q50.32508 131.33656 51.01258 130.41469Q51.715706 129.49281 51.73133 127.75844L51.73133 127.02406ZM62.715706 129.16469Q62.528206 130.74281 61.54383 131.60219Q60.559456 132.46156 58.934456 132.46156Q57.16883 132.46156 56.10633 131.19594Q55.04383 129.93031 55.04383 127.80531L55.04383 126.85219Q55.04383 125.46156 55.54383 124.41469Q56.04383 123.35219 56.95008 122.78969Q57.85633 122.22719 59.04383 122.22719Q60.63758 122.22719 61.590706 123.11781Q62.54383 124.00844 62.715706 125.57094L61.38758 125.57094Q61.215706 124.38344 60.63758 123.85219Q60.07508 123.30531 59.04383 123.30531Q57.79383 123.30531 57.07508 124.24281Q56.371956 125.16469 56.371956 126.88344L56.371956 127.85219Q56.371956 129.47719 57.04383 130.43031Q57.715706 131.38344 58.934456 131.38344Q60.028206 131.38344 60.60633 130.89906Q61.20008 130.39906 61.38758 129.16469L62.715706 129.16469ZM67.32508 127.88344Q65.63758 127.39906 64.85633 126.69594Q64.090706 125.97719 64.090706 124.94594Q64.090706 123.77406 65.028206 123.00844Q65.965706 122.22719 67.48133 122.22719Q68.496956 122.22719 69.29383 122.63344Q70.10633 123.02406 70.54383 123.72719Q70.996956 124.41469 70.996956 125.24281L69.66883 125.24281Q69.66883 124.33656 69.090706 123.82094Q68.528206 123.30531 67.48133 123.30531Q66.51258 123.30531 65.965706 123.74281Q65.41883 124.16469 65.41883 124.93031Q65.41883 125.53969 65.934456 125.96156Q66.45008 126.36781 67.684456 126.72719Q68.934456 127.07094 69.63758 127.49281Q70.340706 127.91469 70.66883 128.47719Q71.01258 129.03969 71.01258 129.78969Q71.01258 131.00844 70.059456 131.74281Q69.121956 132.46156 67.54383 132.46156Q66.51258 132.46156 65.621956 132.07094Q64.746956 131.66469 64.26258 130.99281Q63.778206 130.30531 63.778206 129.43031L65.090706 129.43031Q65.090706 130.33656 65.76258 130.86781Q66.434456 131.38344 67.54383 131.38344Q68.590706 131.38344 69.13758 130.96156Q69.684456 130.53969 69.684456 129.80531Q69.684456 129.07094 69.16883 128.68031Q68.66883 128.27406 67.32508 127.88344ZM73.70008 128.43031L73.70008 132.32094L72.38758 132.32094L72.38758 122.36781L76.059456 122.36781Q77.684456 122.36781 78.60633 123.21156Q79.54383 124.03969 79.54383 125.41469Q79.54383 126.85219 78.63758 127.64906Q77.73133 128.43031 76.04383 128.43031L73.70008 128.43031ZM73.70008 127.35219L76.059456 127.35219Q77.10633 127.35219 77.66883 126.85219Q78.23133 126.35219 78.23133 125.43031Q78.23133 124.53969 77.66883 124.00844Q77.10633 123.46156 76.13758 123.44594L73.70008 123.44594L73.70008 127.35219ZM87.76258 126.05531Q87.48133 126.00844 87.13758 126.00844Q85.903206 126.00844 85.45008 127.07094L85.45008 132.32094L84.184456 132.32094L84.184456 124.93031L85.41883 124.93031L85.434456 125.77406Q86.059456 124.78969 87.20008 124.78969Q87.57508 124.78969 87.76258 124.88344L87.76258 126.05531ZM92.26258 132.46156Q90.746956 132.46156 89.809456 131.47719Q88.871956 130.47719 88.871956 128.82094L88.871956 128.60219Q88.871956 127.49281 89.29383 126.63344Q89.715706 125.75844 90.465706 125.27406Q91.215706 124.78969 92.10633 124.78969Q93.54383 124.78969 94.340706 125.74281Q95.13758 126.68031 95.13758 128.46156L95.13758 128.97719L90.13758 128.97719Q90.153206 130.07094 90.76258 130.75844Q91.38758 131.43031 92.32508 131.43031Q92.996956 131.43031 93.45008 131.16469Q93.91883 130.88344 94.278206 130.43031L95.04383 131.02406Q94.121956 132.46156 92.26258 132.46156ZM92.10633 125.82094Q91.340706 125.82094 90.809456 126.38344Q90.29383 126.94594 90.16883 127.94594L93.871956 127.94594L93.871956 127.85219Q93.82508 126.88344 93.35633 126.35219Q92.88758 125.82094 92.10633 125.82094ZM100.496956 130.35219Q100.496956 129.85219 100.10633 129.57094Q99.715706 129.27406 98.76258 129.07094Q97.809456 128.86781 97.23133 128.58656Q96.66883 128.28969 96.403206 127.89906Q96.13758 127.50844 96.13758 126.96156Q96.13758 126.03969 96.903206 125.41469Q97.66883 124.78969 98.871956 124.78969Q100.121956 124.78969 100.903206 125.44594Q101.684456 126.08656 101.684456 127.10219L100.41883 127.10219Q100.41883 126.57094 99.98133 126.19594Q99.54383 125.82094 98.871956 125.82094Q98.184456 125.82094 97.79383 126.13344Q97.403206 126.43031 97.403206 126.91469Q97.403206 127.36781 97.76258 127.60219Q98.121956 127.83656 99.059456 128.05531Q100.01258 128.25844 100.60633 128.55531Q101.20008 128.85219 101.48133 129.27406Q101.76258 129.68031 101.76258 130.27406Q101.76258 131.25844 100.965706 131.86781Q100.16883 132.46156 98.903206 132.46156Q98.028206 132.46156 97.340706 132.14906Q96.653206 131.82094 96.26258 131.25844Q95.88758 130.69594 95.88758 130.03969L97.153206 130.03969Q97.184456 130.68031 97.653206 131.05531Q98.13758 131.43031 98.903206 131.43031Q99.621956 131.43031 100.059456 131.13344Q100.496956 130.83656 100.496956 130.35219ZM109.434456 128.71156Q109.434456 130.39906 108.653206 131.43031Q107.88758 132.46156 106.57508 132.46156Q105.23133 132.46156 104.45008 131.60219L104.45008 135.16469L103.184456 135.16469L103.184456 124.93031L104.340706 124.93031L104.403206 125.74281Q105.184456 124.78969 106.559456 124.78969Q107.88758 124.78969 108.653206 125.78969Q109.434456 126.78969 109.434456 128.58656L109.434456 128.71156ZM108.16883 128.55531Q108.16883 127.30531 107.63758 126.58656Q107.10633 125.86781 106.16883 125.86781Q105.028206 125.86781 104.45008 126.88344L104.45008 130.41469Q105.028206 131.43031 106.184456 131.43031Q107.10633 131.43031 107.63758 130.71156Q108.16883 129.97719 108.16883 128.55531ZM110.85633 128.55531Q110.85633 127.46156 111.278206 126.60219Q111.715706 125.72719 112.465706 125.25844Q113.23133 124.78969 114.215706 124.78969Q115.715706 124.78969 116.653206 125.83656Q117.590706 126.88344 117.590706 128.61781L117.590706 128.71156Q117.590706 129.78969 117.16883 130.64906Q116.76258 131.49281 115.98133 131.97719Q115.215706 132.46156 114.23133 132.46156Q112.715706 132.46156 111.778206 131.41469Q110.85633 130.36781 110.85633 128.64906L110.85633 128.55531ZM112.121956 128.71156Q112.121956 129.93031 112.684456 130.68031Q113.26258 131.43031 114.23133 131.43031Q115.184456 131.43031 115.746956 130.68031Q116.32508 129.91469 116.32508 128.55531Q116.32508 127.33656 115.746956 126.58656Q115.16883 125.82094 114.215706 125.82094Q113.278206 125.82094 112.70008 126.57094Q112.121956 127.32094 112.121956 128.71156ZM120.38758 124.93031L120.41883 125.85219Q121.278206 124.78969 122.63758 124.78969Q124.98133 124.78969 125.01258 127.43031L125.01258 132.32094L123.746956 132.32094L123.746956 127.43031Q123.73133 126.63344 123.371956 126.25844Q123.01258 125.86781 122.26258 125.86781Q121.63758 125.86781 121.16883 126.19594Q120.715706 126.52406 120.45008 127.05531L120.45008 132.32094L119.184456 132.32094L119.184456 124.93031L120.38758 124.93031ZM131.49695 130.35219Q131.49695 129.85219 131.10632 129.57094Q130.7157 129.27406 129.76257 129.07094Q128.80945 128.86781 128.23132 128.58656Q127.66883 128.28969 127.403206 127.89906Q127.13758 127.50844 127.13758 126.96156Q127.13758 126.03969 127.903206 125.41469Q128.66882 124.78969 129.87195 124.78969Q131.12195 124.78969 131.9032 125.44594Q132.68445 126.08656 132.68445 127.10219L131.41882 127.10219Q131.41882 126.57094 130.98132 126.19594Q130.54382 125.82094 129.87195 125.82094Q129.18445 125.82094 128.79382 126.13344Q128.4032 126.43031 128.4032 126.91469Q128.4032 127.36781 128.76257 127.60219Q129.12195 127.83656 130.05945 128.05531Q131.01257 128.25844 131.60632 128.55531Q132.20007 128.85219 132.48132 129.27406Q132.76257 129.68031 132.76257 130.27406Q132.76257 131.25844 131.9657 131.86781Q131.16882 132.46156 129.9032 132.46156Q129.0282 132.46156 128.3407 132.14906Q127.653206 131.82094 127.26258 131.25844Q126.88758 130.69594 126.88758 130.03969L128.1532 130.03969Q128.18445 130.68031 128.6532 131.05531Q129.13757 131.43031 129.9032 131.43031Q130.62195 131.43031 131.05945 131.13344Q131.49695 130.83656 131.49695 130.35219ZM137.26257 132.46156Q135.74695 132.46156 134.80945 131.47719Q133.87195 130.47719 133.87195 128.82094L133.87195 128.60219Q133.87195 127.49281 134.29382 126.63344Q134.7157 125.75844 135.4657 125.27406Q136.2157 124.78969 137.10632 124.78969Q138.54382 124.78969 139.3407 125.74281Q140.13757 126.68031 140.13757 128.46156L140.13757 128.97719L135.13757 128.97719Q135.1532 130.07094 135.76257 130.75844Q136.38757 131.43031 137.32507 131.43031Q137.99695 131.43031 138.45007 131.16469Q138.91882 130.88344 139.2782 130.43031L140.04382 131.02406Q139.12195 132.46156 137.26257 132.46156ZM137.10632 125.82094Q136.3407 125.82094 135.80945 126.38344Q135.29382 126.94594 135.16882 127.94594L138.87195 127.94594L138.87195 127.85219Q138.82507 126.88344 138.35632 126.35219Q137.88757 125.82094 137.10632 125.82094Z" fill-rule="nonzero"/><path fill="#666666" d="M20.496956 147.35219Q20.496956 146.85219 20.10633 146.57094Q19.715706 146.27406 18.76258 146.07094Q17.809456 145.86781 17.23133 145.58656Q16.66883 145.28969 16.403206 144.89906Q16.13758 144.50844 16.13758 143.96156Q16.13758 143.03969 16.903206 142.41469Q17.66883 141.78969 18.871956 141.78969Q20.121956 141.78969 20.903206 142.44594Q21.684456 143.08656 21.684456 144.10219L20.41883 144.10219Q20.41883 143.57094 19.98133 143.19594Q19.54383 142.82094 18.871956 142.82094Q18.184456 142.82094 17.79383 143.13344Q17.403206 143.43031 17.403206 143.91469Q17.403206 144.36781 17.76258 144.60219Q18.121956 144.83656 19.059456 145.05531Q20.01258 145.25844 20.60633 145.55531Q21.20008 145.85219 21.48133 146.27406Q21.76258 146.68031 21.76258 147.27406Q21.76258 148.25844 20.965706 148.86781Q20.16883 149.46156 18.903206 149.46156Q18.028206 149.46156 17.340706 149.14906Q16.653206 148.82094 16.26258 148.25844Q15.88758 147.69594 15.88758 147.03969L17.153206 147.03969Q17.184456 147.68031 17.653206 148.05531Q18.13758 148.43031 18.903206 148.43031Q19.621956 148.43031 20.059456 148.13344Q20.496956 147.83656 20.496956 147.35219ZM24.903206 140.13344L24.903206 141.93031L26.278206 141.93031L26.278206 142.89906L24.903206 142.89906L24.903206 147.49281Q24.903206 147.93031 25.090706 148.16469Q25.278206 148.38344 25.715706 148.38344Q25.934456 148.38344 26.32508 148.28969L26.32508 149.32094Q25.82508 149.46156 25.35633 149.46156Q24.496956 149.46156 24.059456 148.94594Q23.63758 148.43031 23.63758 147.49281L23.63758 142.89906L22.29383 142.89906L22.29383 141.93031L23.63758 141.93031L23.63758 140.13344L24.903206 140.13344ZM32.76258 149.32094Q32.653206 149.10219 32.57508 148.53969Q31.70008 149.46156 30.465706 149.46156Q29.371956 149.46156 28.66883 148.85219Q27.98133 148.22719 27.98133 147.27406Q27.98133 146.11781 28.85633 145.47719Q29.73133 144.83656 31.32508 144.83656L32.559456 144.83656L32.559456 144.25844Q32.559456 143.58656 32.153206 143.19594Q31.76258 142.80531 30.996956 142.80531Q30.309456 142.80531 29.85633 143.14906Q29.403206 143.49281 29.403206 143.97719L28.121956 143.97719Q28.121956 143.41469 28.51258 142.89906Q28.91883 142.38344 29.590706 142.08656Q30.26258 141.78969 31.059456 141.78969Q32.340706 141.78969 33.059456 142.43031Q33.79383 143.07094 33.82508 144.18031L33.82508 147.58656Q33.82508 148.60219 34.07508 149.21156L34.07508 149.32094L32.76258 149.32094ZM30.653206 148.35219Q31.246956 148.35219 31.778206 148.05531Q32.32508 147.74281 32.559456 147.24281L32.559456 145.72719L31.559456 145.72719Q29.246956 145.72719 29.246956 147.08656Q29.246956 147.68031 29.63758 148.02406Q30.028206 148.35219 30.653206 148.35219ZM42.434456 145.71156Q42.434456 147.39906 41.653206 148.43031Q40.88758 149.46156 39.57508 149.46156Q38.23133 149.46156 37.45008 148.60219L37.45008 152.16469L36.184456 152.16469L36.184456 141.93031L37.340706 141.93031L37.403206 142.74281Q38.184456 141.78969 39.559456 141.78969Q40.88758 141.78969 41.653206 142.78969Q42.434456 143.78969 42.434456 145.58656L42.434456 145.71156ZM41.16883 145.55531Q41.16883 144.30531 40.63758 143.58656Q40.10633 142.86781 39.16883 142.86781Q38.028206 142.86781 37.45008 143.88344L37.45008 147.41469Q38.028206 148.43031 39.184456 148.43031Q40.10633 148.43031 40.63758 147.71156Q41.16883 146.97719 41.16883 145.55531ZM45.559456 149.32094L44.29383 149.32094L44.29383 138.82094L45.559456 138.82094L45.559456 149.32094ZM50.26258 149.46156Q48.746956 149.46156 47.809456 148.47719Q46.871956 147.47719 46.871956 145.82094L46.871956 145.60219Q46.871956 144.49281 47.29383 143.63344Q47.715706 142.75844 48.465706 142.27406Q49.215706 141.78969 50.10633 141.78969Q51.54383 141.78969 52.340706 142.74281Q53.13758 143.68031 53.13758 145.46156L53.13758 145.97719L48.13758 145.97719Q48.153206 147.07094 48.76258 147.75844Q49.38758 148.43031 50.32508 148.43031Q50.996956 148.43031 51.45008 148.16469Q51.91883 147.88344 52.278206 147.43031L53.04383 148.02406Q52.121956 149.46156 50.26258 149.46156ZM50.10633 142.82094Q49.340706 142.82094 48.809456 143.38344Q48.29383 143.94594 48.16883 144.94594L51.871956 144.94594L51.871956 144.85219Q51.82508 143.88344 51.35633 143.35219Q50.88758 142.82094 50.10633 142.82094ZM53.88758 145.55531Q53.88758 143.85219 54.684456 142.82094Q55.496956 141.78969 56.79383 141.78969Q58.10633 141.78969 58.85633 142.68031L58.85633 138.82094L60.121956 138.82094L60.121956 149.32094L58.965706 149.32094L58.903206 148.52406Q58.13758 149.46156 56.79383 149.46156Q55.496956 149.46156 54.684456 148.41469Q53.88758 147.35219 53.88758 145.64906L53.88758 145.55531ZM55.153206 145.71156Q55.153206 146.96156 55.66883 147.68031Q56.184456 148.38344 57.10633 148.38344Q58.309456 148.38344 58.85633 147.30531L58.85633 143.89906Q58.29383 142.86781 57.121956 142.86781Q56.184456 142.86781 55.66883 143.58656Q55.153206 144.28969 55.153206 145.71156ZM66.559456 149.32094L65.29383 149.32094L65.29383 141.93031L66.559456 141.93031L66.559456 149.32094ZM65.20008 139.96156Q65.20008 139.64906 65.38758 139.44594Q65.57508 139.22719 65.934456 139.22719Q66.309456 139.22719 66.496956 139.44594Q66.70008 139.64906 66.70008 139.96156Q66.70008 140.27406 66.496956 140.47719Q66.309456 140.68031 65.934456 140.68031Q65.57508 140.68031 65.38758 140.47719Q65.20008 140.27406 65.20008 139.96156ZM69.38758 141.93031L69.41883 142.85219Q70.278206 141.78969 71.63758 141.78969Q73.98133 141.78969 74.01258 144.43031L74.01258 149.32094L72.746956 149.32094L72.746956 144.43031Q72.73133 143.63344 72.371956 143.25844Q72.01258 142.86781 71.26258 142.86781Q70.63758 142.86781 70.16883 143.19594Q69.715706 143.52406 69.45008 144.05531L69.45008 149.32094L68.184456 149.32094L68.184456 141.93031L69.38758 141.93031ZM82.153206 148.43031Q82.82508 148.43031 83.32508 148.02406Q83.840706 147.60219 83.903206 146.99281L85.090706 146.99281Q85.059456 147.61781 84.653206 148.19594Q84.246956 148.77406 83.57508 149.11781Q82.903206 149.46156 82.153206 149.46156Q80.63758 149.46156 79.746956 148.46156Q78.85633 147.44594 78.85633 145.69594L78.85633 145.47719Q78.85633 144.39906 79.246956 143.55531Q79.653206 142.71156 80.38758 142.25844Q81.13758 141.78969 82.153206 141.78969Q83.38758 141.78969 84.215706 142.53969Q85.04383 143.27406 85.090706 144.46156L83.903206 144.46156Q83.840706 143.74281 83.35633 143.28969Q82.871956 142.82094 82.153206 142.82094Q81.184456 142.82094 80.653206 143.52406Q80.121956 144.21156 80.121956 145.52406L80.121956 145.75844Q80.121956 147.03969 80.653206 147.74281Q81.184456 148.43031 82.153206 148.43031ZM89.26258 149.46156Q87.746956 149.46156 86.809456 148.47719Q85.871956 147.47719 85.871956 145.82094L85.871956 145.60219Q85.871956 144.49281 86.29383 143.63344Q86.715706 142.75844 87.465706 142.27406Q88.215706 141.78969 89.10633 141.78969Q90.54383 141.78969 91.340706 142.74281Q92.13758 143.68031 92.13758 145.46156L92.13758 145.97719L87.13758 145.97719Q87.153206 147.07094 87.76258 147.75844Q88.38758 148.43031 89.32508 148.43031Q89.996956 148.43031 90.45008 148.16469Q90.91883 147.88344 91.278206 147.43031L92.04383 148.02406Q91.121956 149.46156 89.26258 149.46156ZM89.10633 142.82094Q88.340706 142.82094 87.809456 143.38344Q87.29383 143.94594 87.16883 144.94594L90.871956 144.94594L90.871956 144.85219Q90.82508 143.88344 90.35633 143.35219Q89.88758 142.82094 89.10633 142.82094ZM96.76258 143.05531Q96.48133 143.00844 96.13758 143.00844Q94.903206 143.00844 94.45008 144.07094L94.45008 149.32094L93.184456 149.32094L93.184456 141.93031L94.41883 141.93031L94.434456 142.77406Q95.059456 141.78969 96.20008 141.78969Q96.57508 141.78969 96.76258 141.88344L96.76258 143.05531ZM99.903206 140.13344L99.903206 141.93031L101.278206 141.93031L101.278206 142.89906L99.903206 142.89906L99.903206 147.49281Q99.903206 147.93031 100.090706 148.16469Q100.278206 148.38344 100.715706 148.38344Q100.934456 148.38344 101.32508 148.28969L101.32508 149.32094Q100.82508 149.46156 100.35633 149.46156Q99.496956 149.46156 99.059456 148.94594Q98.63758 148.43031 98.63758 147.49281L98.63758 142.89906L97.29383 142.89906L97.29383 141.93031L98.63758 141.93031L98.63758 140.13344L99.903206 140.13344ZM104.559456 149.32094L103.29383 149.32094L103.29383 141.93031L104.559456 141.93031L104.559456 149.32094ZM103.20008 139.96156Q103.20008 139.64906 103.38758 139.44594Q103.57508 139.22719 103.934456 139.22719Q104.309456 139.22719 104.496956 139.44594Q104.70008 139.64906 104.70008 139.96156Q104.70008 140.27406 104.496956 140.47719Q104.309456 140.68031 103.934456 140.68031Q103.57508 140.68031 103.38758 140.47719Q103.20008 140.27406 103.20008 139.96156ZM106.809456 149.32094L106.809456 142.89906L105.63758 142.89906L105.63758 141.93031L106.809456 141.93031L106.809456 141.16469Q106.809456 139.97719 107.434456 139.33656Q108.07508 138.68031 109.246956 138.68031Q109.684456 138.68031 110.10633 138.78969L110.04383 139.82094Q109.715706 139.75844 109.35633 139.75844Q108.746956 139.75844 108.403206 140.11781Q108.07508 140.47719 108.07508 141.14906L108.07508 141.93031L109.653206 141.93031L109.653206 142.89906L108.07508 142.89906L108.07508 149.32094L106.809456 149.32094ZM112.559456 149.32094L111.29383 149.32094L111.29383 141.93031L112.559456 141.93031L112.559456 149.32094ZM111.20008 139.96156Q111.20008 139.64906 111.38758 139.44594Q111.57508 139.22719 111.934456 139.22719Q112.309456 139.22719 112.496956 139.44594Q112.70008 139.64906 112.70008 139.96156Q112.70008 140.27406 112.496956 140.47719Q112.309456 140.68031 111.934456 140.68031Q111.57508 140.68031 111.38758 140.47719Q111.20008 140.27406 111.20008 139.96156ZM117.153206 148.43031Q117.82508 148.43031 118.32508 148.02406Q118.840706 147.60219 118.903206 146.99281L120.090706 146.99281Q120.059456 147.61781 119.653206 148.19594Q119.246956 148.77406 118.57508 149.11781Q117.903206 149.46156 117.153206 149.46156Q115.63758 149.46156 114.746956 148.46156Q113.85633 147.44594 113.85633 145.69594L113.85633 145.47719Q113.85633 144.39906 114.246956 143.55531Q114.653206 142.71156 115.38758 142.25844Q116.13758 141.78969 117.153206 141.78969Q118.38758 141.78969 119.215706 142.53969Q120.04383 143.27406 120.090706 144.46156L118.903206 144.46156Q118.840706 143.74281 118.35633 143.28969Q117.871956 142.82094 117.153206 142.82094Q116.184456 142.82094 115.653206 143.52406Q115.121956 144.21156 115.121956 145.52406L115.121956 145.75844Q115.121956 147.03969 115.653206 147.74281Q116.184456 148.43031 117.153206 148.43031ZM125.76258 149.32094Q125.653206 149.10219 125.57508 148.53969Q124.70008 149.46156 123.465706 149.46156Q122.371956 149.46156 121.66883 148.85219Q120.98133 148.22719 120.98133 147.27406Q120.98133 146.11781 121.85633 145.47719Q122.73133 144.83656 124.32508 144.83656L125.559456 144.83656L125.559456 144.25844Q125.559456 143.58656 125.153206 143.19594Q124.76258 142.80531 123.996956 142.80531Q123.309456 142.80531 122.85633 143.14906Q122.403206 143.49281 122.403206 143.97719L121.121956 143.97719Q121.121956 143.41469 121.51258 142.89906Q121.91883 142.38344 122.590706 142.08656Q123.26258 141.78969 124.059456 141.78969Q125.340706 141.78969 126.059456 142.43031Q126.79383 143.07094 126.82508 144.18031L126.82508 147.58656Q126.82508 148.60219 127.07508 149.21156L127.07508 149.32094L125.76258 149.32094ZM123.653206 148.35219Q124.246956 148.35219 124.778206 148.05531Q125.32508 147.74281 125.559456 147.24281L125.559456 145.72719L124.559456 145.72719Q122.246956 145.72719 122.246956 147.08656Q122.246956 147.68031 122.63758 148.02406Q123.028206 148.35219 123.653206 148.35219ZM130.9032 140.13344L130.9032 141.93031L132.2782 141.93031L132.2782 142.89906L130.9032 142.89906L130.9032 147.49281Q130.9032 147.93031 131.0907 148.16469Q131.2782 148.38344 131.7157 148.38344Q131.93445 148.38344 132.32507 148.28969L132.32507 149.32094Q131.82507 149.46156 131.35632 149.46156Q130.49695 149.46156 130.05945 148.94594Q129.63757 148.43031 129.63757 147.49281L129.63757 142.89906L128.29382 142.89906L128.29382 141.93031L129.63757 141.93031L129.63757 140.13344L130.9032 140.13344ZM137.26257 149.46156Q135.74695 149.46156 134.80945 148.47719Q133.87195 147.47719 133.87195 145.82094L133.87195 145.60219Q133.87195 144.49281 134.29382 143.63344Q134.7157 142.75844 135.4657 142.27406Q136.2157 141.78969 137.10632 141.78969Q138.54382 141.78969 139.3407 142.74281Q140.13757 143.68031 140.13757 145.46156L140.13757 145.97719L135.13757 145.97719Q135.1532 147.07094 135.76257 147.75844Q136.38757 148.43031 137.32507 148.43031Q137.99695 148.43031 138.45007 148.16469Q138.91882 147.88344 139.2782 147.43031L140.04382 148.02406Q139.12195 149.46156 137.26257 149.46156ZM137.10632 142.82094Q136.3407 142.82094 135.80945 143.38344Q135.29382 143.94594 135.16882 144.94594L138.87195 144.94594L138.87195 144.85219Q138.82507 143.88344 138.35632 143.35219Q137.88757 142.82094 137.10632 142.82094Z" fill-rule="nonzero"/><path fill="#666666" d="M38.04383 239.39485L36.715706 239.39485L31.700079 231.72298L31.700079 239.39485L30.387579 239.39485L30.387579 229.44173L31.700079 229.44173L36.73133 237.14485L36.73133 229.44173L38.04383 229.44173L38.04383 239.39485ZM39.85633 235.62923Q39.85633 234.53548 40.278206 233.6761Q40.715706 232.8011 41.465706 232.33235Q42.23133 231.8636 43.215706 231.8636Q44.715706 231.8636 45.653206 232.91048Q46.590706 233.95735 46.590706 235.69173L46.590706 235.78548Q46.590706 236.8636 46.16883 237.72298Q45.76258 238.56673 44.98133 239.0511Q44.215706 239.53548 43.23133 239.53548Q41.715706 239.53548 40.778206 238.4886Q39.85633 237.44173 39.85633 235.72298L39.85633 235.62923ZM41.121956 235.78548Q41.121956 237.00423 41.684456 237.75423Q42.26258 238.50423 43.23133 238.50423Q44.184456 238.50423 44.746956 237.75423Q45.32508 236.9886 45.32508 235.62923Q45.32508 234.41048 44.746956 233.66048Q44.16883 232.89485 43.215706 232.89485Q42.278206 232.89485 41.70008 233.64485Q41.121956 234.39485 41.121956 235.78548ZM49.903206 230.20735L49.903206 232.00423L51.278206 232.00423L51.278206 232.97298L49.903206 232.97298L49.903206 237.56673Q49.903206 238.00423 50.090706 238.2386Q50.278206 238.45735 50.715706 238.45735Q50.934456 238.45735 51.32508 238.3636L51.32508 239.39485Q50.82508 239.53548 50.35633 239.53548Q49.496956 239.53548 49.059456 239.01985Q48.63758 238.50423 48.63758 237.56673L48.63758 232.97298L47.29383 232.97298L47.29383 232.00423L48.63758 232.00423L48.63758 230.20735L49.903206 230.20735ZM64.04383 234.7386Q64.04383 236.20735 63.54383 237.3011Q63.059456 238.37923 62.153206 238.95735Q61.246956 239.53548 60.04383 239.53548Q58.871956 239.53548 57.965706 238.95735Q57.059456 238.37923 56.559456 237.31673Q56.059456 236.2386 56.04383 234.83235L56.04383 234.1136Q56.04383 232.6761 56.54383 231.58235Q57.04383 230.47298 57.95008 229.89485Q58.85633 229.3011 60.04383 229.3011Q61.23133 229.3011 62.13758 229.87923Q63.059456 230.45735 63.54383 231.56673Q64.04383 232.66048 64.04383 234.1136L64.04383 234.7386ZM62.73133 234.09798Q62.73133 232.33235 62.01258 231.37923Q61.309456 230.4261 60.04383 230.4261Q58.79383 230.4261 58.07508 231.37923Q57.371956 232.33235 57.340706 234.00423L57.340706 234.7386Q57.340706 236.45735 58.059456 237.44173Q58.79383 238.41048 60.04383 238.41048Q61.32508 238.41048 62.01258 237.4886Q62.715706 236.56673 62.73133 234.83235L62.73133 234.09798ZM73.715706 236.2386Q73.528206 237.81673 72.54383 238.6761Q71.559456 239.53548 69.934456 239.53548Q68.16883 239.53548 67.10633 238.26985Q66.04383 237.00423 66.04383 234.87923L66.04383 233.9261Q66.04383 232.53548 66.54383 231.4886Q67.04383 230.4261 67.95008 229.8636Q68.85633 229.3011 70.04383 229.3011Q71.63758 229.3011 72.590706 230.19173Q73.54383 231.08235 73.715706 232.64485L72.38758 232.64485Q72.215706 231.45735 71.63758 230.9261Q71.07508 230.37923 70.04383 230.37923Q68.79383 230.37923 68.07508 231.31673Q67.371956 232.2386 67.371956 233.95735L67.371956 234.9261Q67.371956 236.5511 68.04383 237.50423Q68.715706 238.45735 69.934456 238.45735Q71.028206 238.45735 71.60633 237.97298Q72.20008 237.47298 72.38758 236.2386L73.715706 236.2386ZM78.32508 234.95735Q76.63758 234.47298 75.85633 233.76985Q75.090706 233.0511 75.090706 232.01985Q75.090706 230.84798 76.028206 230.08235Q76.965706 229.3011 78.48133 229.3011Q79.496956 229.3011 80.29383 229.70735Q81.10633 230.09798 81.54383 230.8011Q81.996956 231.4886 81.996956 232.31673L80.66883 232.31673Q80.66883 231.41048 80.090706 230.89485Q79.528206 230.37923 78.48133 230.37923Q77.51258 230.37923 76.965706 230.81673Q76.41883 231.2386 76.41883 232.00423Q76.41883 232.6136 76.934456 233.03548Q77.45008 233.44173 78.684456 233.8011Q79.934456 234.14485 80.63758 234.56673Q81.340706 234.9886 81.66883 235.5511Q82.01258 236.1136 82.01258 236.8636Q82.01258 238.08235 81.059456 238.81673Q80.121956 239.53548 78.54383 239.53548Q77.51258 239.53548 76.621956 239.14485Q75.746956 238.7386 75.26258 238.06673Q74.778206 237.37923 74.778206 236.50423L76.090706 236.50423Q76.090706 237.41048 76.76258 237.94173Q77.434456 238.45735 78.54383 238.45735Q79.590706 238.45735 80.13758 238.03548Q80.684456 237.6136 80.684456 236.87923Q80.684456 236.14485 80.16883 235.75423Q79.66883 235.34798 78.32508 234.95735ZM84.70008 235.50423L84.70008 239.39485L83.38758 239.39485L83.38758 229.44173L87.059456 229.44173Q88.684456 229.44173 89.60633 230.28548Q90.54383 231.1136 90.54383 232.4886Q90.54383 233.9261 89.63758 234.72298Q88.73133 235.50423 87.04383 235.50423L84.70008 235.50423ZM84.70008 234.4261L87.059456 234.4261Q88.10633 234.4261 88.66883 233.9261Q89.23133 233.4261 89.23133 232.50423Q89.23133 231.6136 88.66883 231.08235Q88.10633 230.53548 87.13758 230.51985L84.70008 230.51985L84.70008 234.4261ZM99.496956 237.4261Q99.496956 236.9261 99.10633 236.64485Q98.715706 236.34798 97.76258 236.14485Q96.809456 235.94173 96.23133 235.66048Q95.66883 235.3636 95.403206 234.97298Q95.13758 234.58235 95.13758 234.03548Q95.13758 233.1136 95.903206 232.4886Q96.66883 231.8636 97.871956 231.8636Q99.121956 231.8636 99.903206 232.51985Q100.684456 233.16048 100.684456 234.1761L99.41883 234.1761Q99.41883 233.64485 98.98133 233.26985Q98.54383 232.89485 97.871956 232.89485Q97.184456 232.89485 96.79383 233.20735Q96.403206 233.50423 96.403206 233.9886Q96.403206 234.44173 96.76258 234.6761Q97.121956 234.91048 98.059456 235.12923Q99.01258 235.33235 99.60633 235.62923Q100.20008 235.9261 100.48133 236.34798Q100.76258 236.75423 100.76258 237.34798Q100.76258 238.33235 99.965706 238.94173Q99.16883 239.53548 97.903206 239.53548Q97.028206 239.53548 96.340706 239.22298Q95.653206 238.89485 95.26258 238.33235Q94.88758 237.76985 94.88758 237.1136L96.153206 237.1136Q96.184456 237.75423 96.653206 238.12923Q97.13758 238.50423 97.903206 238.50423Q98.621956 238.50423 99.059456 238.20735Q99.496956 237.91048 99.496956 237.4261ZM103.903206 230.20735L103.903206 232.00423L105.278206 232.00423L105.278206 232.97298L103.903206 232.97298L103.903206 237.56673Q103.903206 238.00423 104.090706 238.2386Q104.278206 238.45735 104.715706 238.45735Q104.934456 238.45735 105.32508 238.3636L105.32508 239.39485Q104.82508 239.53548 104.35633 239.53548Q103.496956 239.53548 103.059456 239.01985Q102.63758 238.50423 102.63758 237.56673L102.63758 232.97298L101.29383 232.97298L101.29383 232.00423L102.63758 232.00423L102.63758 230.20735L103.903206 230.20735ZM111.76258 239.39485Q111.653206 239.1761 111.57508 238.6136Q110.70008 239.53548 109.465706 239.53548Q108.371956 239.53548 107.66883 238.9261Q106.98133 238.3011 106.98133 237.34798Q106.98133 236.19173 107.85633 235.5511Q108.73133 234.91048 110.32508 234.91048L111.559456 234.91048L111.559456 234.33235Q111.559456 233.66048 111.153206 233.26985Q110.76258 232.87923 109.996956 232.87923Q109.309456 232.87923 108.85633 233.22298Q108.403206 233.56673 108.403206 234.0511L107.121956 234.0511Q107.121956 233.4886 107.51258 232.97298Q107.91883 232.45735 108.590706 232.16048Q109.26258 231.8636 110.059456 231.8636Q111.340706 231.8636 112.059456 232.50423Q112.79383 233.14485 112.82508 234.25423L112.82508 237.66048Q112.82508 238.6761 113.07508 239.28548L113.07508 239.39485L111.76258 239.39485ZM109.653206 238.4261Q110.246956 238.4261 110.778206 238.12923Q111.32508 237.81673 111.559456 237.31673L111.559456 235.8011L110.559456 235.8011Q108.246956 235.8011 108.246956 237.16048Q108.246956 237.75423 108.63758 238.09798Q109.028206 238.4261 109.653206 238.4261ZM121.434456 235.78548Q121.434456 237.47298 120.653206 238.50423Q119.88758 239.53548 118.57508 239.53548Q117.23133 239.53548 116.45008 238.6761L116.45008 242.2386L115.184456 242.2386L115.184456 232.00423L116.340706 232.00423L116.403206 232.81673Q117.184456 231.8636 118.559456 231.8636Q119.88758 231.8636 120.653206 232.8636Q121.434456 233.8636 121.434456 235.66048L121.434456 235.78548ZM120.16883 235.62923Q120.16883 234.37923 119.63758 233.66048Q119.10633 232.94173 118.16883 232.94173Q117.028206 232.94173 116.45008 233.95735L116.45008 237.4886Q117.028206 238.50423 118.184456 238.50423Q119.10633 238.50423 119.63758 237.78548Q120.16883 237.0511 120.16883 235.62923ZM124.559456 239.39485L123.29383 239.39485L123.29383 228.89485L124.559456 228.89485L124.559456 239.39485ZM129.26257 239.53548Q127.746956 239.53548 126.809456 238.5511Q125.871956 237.5511 125.871956 235.89485L125.871956 235.6761Q125.871956 234.56673 126.29383 233.70735Q126.715706 232.83235 127.465706 232.34798Q128.2157 231.8636 129.10632 231.8636Q130.54382 231.8636 131.3407 232.81673Q132.13757 233.75423 132.13757 235.53548L132.13757 236.0511L127.13758 236.0511Q127.153206 237.14485 127.76258 237.83235Q128.38757 238.50423 129.32507 238.50423Q129.99695 238.50423 130.45007 238.2386Q130.91882 237.95735 131.2782 237.50423L132.04382 238.09798Q131.12195 239.53548 129.26257 239.53548ZM129.10632 232.89485Q128.3407 232.89485 127.809456 233.45735Q127.29383 234.01985 127.16883 235.01985L130.87195 235.01985L130.87195 234.9261Q130.82507 233.95735 130.35632 233.4261Q129.88757 232.89485 129.10632 232.89485ZM132.88757 235.62923Q132.88757 233.9261 133.68445 232.89485Q134.49695 231.8636 135.79382 231.8636Q137.10632 231.8636 137.85632 232.75423L137.85632 228.89485L139.12195 228.89485L139.12195 239.39485L137.9657 239.39485L137.9032 238.59798Q137.13757 239.53548 135.79382 239.53548Q134.49695 239.53548 133.68445 238.4886Q132.88757 237.4261 132.88757 235.72298L132.88757 235.62923ZM134.1532 235.78548Q134.1532 237.03548 134.66882 237.75423Q135.18445 238.45735 136.10632 238.45735Q137.30945 238.45735 137.85632 237.37923L137.85632 233.97298Q137.29382 232.94173 136.12195 232.94173Q135.18445 232.94173 134.66882 233.66048Q134.1532 234.3636 134.1532 235.78548Z" fill-rule="nonzero"/><path fill="#666666" d="M150.29382 317.18225Q150.29382 319.401 149.5282 320.49475Q148.7782 321.57288 147.16882 321.57288Q145.57507 321.57288 144.80945 320.526Q144.04382 319.4635 144.01257 317.35413L144.01257 315.66663Q144.01257 313.47913 144.76257 312.41663Q145.5282 311.3385 147.1532 311.3385Q148.76257 311.3385 149.51257 312.36975Q150.2782 313.401 150.29382 315.54163L150.29382 317.18225ZM149.0282 315.4635Q149.0282 313.85413 148.57507 313.11975Q148.13757 312.38538 147.1532 312.38538Q146.18445 312.38538 145.73132 313.11975Q145.29382 313.8385 145.2782 315.35413L145.2782 317.38538Q145.2782 318.99475 145.74695 319.776Q146.2157 320.54163 147.16882 320.54163Q148.10632 320.54163 148.55945 319.82288Q149.01257 319.0885 149.0282 317.526L149.0282 315.4635Z" fill-rule="nonzero"/><path fill="#666666" d="M236.17004 321.43225L234.90442 321.43225L234.90442 313.01038L232.34192 313.93225L232.34192 312.79163L235.96692 311.43225L236.17004 311.43225L236.17004 321.43225ZM246.24817 317.18225Q246.24817 319.401 245.48254 320.49475Q244.73254 321.57288 243.12317 321.57288Q241.52942 321.57288 240.7638 320.526Q239.99817 319.4635 239.96692 317.35413L239.96692 315.66663Q239.96692 313.47913 240.71692 312.41663Q241.48254 311.3385 243.10754 311.3385Q244.71692 311.3385 245.46692 312.36975Q246.23254 313.401 246.24817 315.54163L246.24817 317.18225ZM244.98254 315.4635Q244.98254 313.85413 244.52942 313.11975Q244.09192 312.38538 243.10754 312.38538Q242.1388 312.38538 241.68567 313.11975Q241.24817 313.8385 241.23254 315.35413L241.23254 317.38538Q241.23254 318.99475 241.7013 319.776Q242.17004 320.54163 243.12317 320.54163Q244.06067 320.54163 244.5138 319.82288Q244.96692 319.0885 244.98254 317.526L244.98254 315.4635ZM254.24817 317.18225Q254.24817 319.401 253.48254 320.49475Q252.73254 321.57288 251.12317 321.57288Q249.52942 321.57288 248.7638 320.526Q247.99817 319.4635 247.96692 317.35413L247.96692 315.66663Q247.96692 313.47913 248.71692 312.41663Q249.48254 311.3385 251.10754 311.3385Q252.71692 311.3385 253.46692 312.36975Q254.23254 313.401 254.24817 315.54163L254.24817 317.18225ZM252.98254 315.4635Q252.98254 313.85413 252.52942 313.11975Q252.09192 312.38538 251.10754 312.38538Q250.1388 312.38538 249.68567 313.11975Q249.24817 313.8385 249.23254 315.35413L249.23254 317.38538Q249.23254 318.99475 249.7013 319.776Q250.17004 320.54163 251.12317 320.54163Q252.06067 320.54163 252.5138 319.82288Q252.96692 319.0885 252.98254 317.526L252.98254 315.4635Z" fill-rule="nonzero"/><path fill="#666666" d="M334.48376 321.43225L327.96814 321.43225L327.96814 320.526L331.40564 316.69788Q332.17126 315.82288 332.46814 315.29163Q332.765 314.74475 332.765 314.151Q332.765 313.38538 332.28064 312.88538Q331.8119 312.38538 331.03064 312.38538Q330.09314 312.38538 329.5619 312.91663Q329.04626 313.44788 329.04626 314.41663L327.78064 314.41663Q327.78064 313.04163 328.65564 312.19788Q329.54626 311.3385 331.03064 311.3385Q332.42126 311.3385 333.21814 312.07288Q334.03064 312.79163 334.03064 314.01038Q334.03064 315.47913 332.15564 317.51038L329.4994 320.401L334.48376 320.401L334.48376 321.43225ZM342.2025 317.18225Q342.2025 319.401 341.4369 320.49475Q340.6869 321.57288 339.0775 321.57288Q337.48376 321.57288 336.71814 320.526Q335.9525 319.4635 335.92126 317.35413L335.92126 315.66663Q335.92126 313.47913 336.67126 312.41663Q337.4369 311.3385 339.0619 311.3385Q340.67126 311.3385 341.42126 312.36975Q342.1869 313.401 342.2025 315.54163L342.2025 317.18225ZM340.9369 315.4635Q340.9369 313.85413 340.48376 313.11975Q340.04626 312.38538 339.0619 312.38538Q338.09314 312.38538 337.64 313.11975Q337.2025 313.8385 337.1869 315.35413L337.1869 317.38538Q337.1869 318.99475 337.65564 319.776Q338.1244 320.54163 339.0775 320.54163Q340.015 320.54163 340.46814 319.82288Q340.92126 319.0885 340.9369 317.526L340.9369 315.4635ZM350.2025 317.18225Q350.2025 319.401 349.4369 320.49475Q348.6869 321.57288 347.0775 321.57288Q345.48376 321.57288 344.71814 320.526Q343.9525 319.4635 343.92126 317.35413L343.92126 315.66663Q343.92126 313.47913 344.67126 312.41663Q345.4369 311.3385 347.0619 311.3385Q348.67126 311.3385 349.42126 312.36975Q350.1869 313.401 350.2025 315.54163L350.2025 317.18225ZM348.9369 315.4635Q348.9369 313.85413 348.48376 313.11975Q348.04626 312.38538 347.0619 312.38538Q346.09314 312.38538 345.64 313.11975Q345.2025 313.8385 345.1869 315.35413L345.1869 317.38538Q345.1869 318.99475 345.65564 319.776Q346.1244 320.54163 347.0775 320.54163Q348.015 320.54163 348.46814 319.82288Q348.92126 319.0885 348.9369 317.526L348.9369 315.4635Z" fill-rule="nonzero"/><path fill="#666666" d="M425.76624 315.8385L426.70374 315.8385Q427.61 315.82288 428.11 315.36975Q428.6256 314.91663 428.6256 314.13538Q428.6256 312.38538 426.89124 312.38538Q426.0631 312.38538 425.57874 312.85413Q425.09436 313.32288 425.09436 314.0885L423.82874 314.0885Q423.82874 312.901 424.6881 312.11975Q425.5631 311.3385 426.89124 311.3385Q428.2975 311.3385 429.09436 312.0885Q429.89124 312.8385 429.89124 314.151Q429.89124 314.80725 429.46936 315.41663Q429.0631 316.026 428.32874 316.32288Q429.15686 316.5885 429.59436 317.19788Q430.0475 317.79163 430.0475 318.651Q430.0475 319.99475 429.1725 320.79163Q428.2975 321.57288 426.89124 321.57288Q425.5006 321.57288 424.61 320.82288Q423.735 320.05725 423.735 318.80725L425.01624 318.80725Q425.01624 319.5885 425.51624 320.07288Q426.03186 320.54163 426.89124 320.54163Q427.8131 320.54163 428.2975 320.05725Q428.78186 319.57288 428.78186 318.68225Q428.78186 317.82288 428.2506 317.35413Q427.71936 316.88538 426.70374 316.86975L425.76624 316.86975L425.76624 315.8385ZM438.15686 317.18225Q438.15686 319.401 437.39124 320.49475Q436.64124 321.57288 435.03186 321.57288Q433.4381 321.57288 432.6725 320.526Q431.90686 319.4635 431.8756 317.35413L431.8756 315.66663Q431.8756 313.47913 432.6256 312.41663Q433.39124 311.3385 435.01624 311.3385Q436.6256 311.3385 437.3756 312.36975Q438.14124 313.401 438.15686 315.54163L438.15686 317.18225ZM436.89124 315.4635Q436.89124 313.85413 436.4381 313.11975Q436.0006 312.38538 435.01624 312.38538Q434.0475 312.38538 433.59436 313.11975Q433.15686 313.8385 433.14124 315.35413L433.14124 317.38538Q433.14124 318.99475 433.61 319.776Q434.07874 320.54163 435.03186 320.54163Q435.96936 320.54163 436.4225 319.82288Q436.8756 319.0885 436.89124 317.526L436.89124 315.4635ZM446.15686 317.18225Q446.15686 319.401 445.39124 320.49475Q444.64124 321.57288 443.03186 321.57288Q441.4381 321.57288 440.6725 320.526Q439.90686 319.4635 439.8756 317.35413L439.8756 315.66663Q439.8756 313.47913 440.6256 312.41663Q441.39124 311.3385 443.01624 311.3385Q444.6256 311.3385 445.3756 312.36975Q446.14124 313.401 446.15686 315.54163L446.15686 317.18225ZM444.89124 315.4635Q444.89124 313.85413 444.4381 313.11975Q444.0006 312.38538 443.01624 312.38538Q442.0475 312.38538 441.59436 313.11975Q441.15686 313.8385 441.14124 315.35413L441.14124 317.38538Q441.14124 318.99475 441.61 319.776Q442.07874 320.54163 443.03186 320.54163Q443.96936 320.54163 444.4225 319.82288Q444.8756 319.0885 444.89124 317.526L444.89124 315.4635Z" fill-rule="nonzero"/><path fill="#666666" d="M525.2206 318.0885L526.5956 318.0885L526.5956 319.11975L525.2206 319.11975L525.2206 321.43225L523.93933 321.43225L523.93933 319.11975L519.4081 319.11975L519.4081 318.36975L523.8612 311.47913L525.2206 311.47913L525.2206 318.0885ZM520.8456 318.0885L523.93933 318.0885L523.93933 313.2135L523.7987 313.47913L520.8456 318.0885ZM534.1112 317.18225Q534.1112 319.401 533.3456 320.49475Q532.5956 321.57288 530.9862 321.57288Q529.39246 321.57288 528.62683 320.526Q527.8612 319.4635 527.82996 317.35413L527.82996 315.66663Q527.82996 313.47913 528.57996 312.41663Q529.3456 311.3385 530.9706 311.3385Q532.57996 311.3385 533.32996 312.36975Q534.0956 313.401 534.1112 315.54163L534.1112 317.18225ZM532.8456 315.4635Q532.8456 313.85413 532.39246 313.11975Q531.95496 312.38538 530.9706 312.38538Q530.00183 312.38538 529.5487 313.11975Q529.1112 313.8385 529.0956 315.35413L529.0956 317.38538Q529.0956 318.99475 529.56433 319.776Q530.0331 320.54163 530.9862 320.54163Q531.9237 320.54163 532.37683 319.82288Q532.82996 319.0885 532.8456 317.526L532.8456 315.4635ZM542.1112 317.18225Q542.1112 319.401 541.3456 320.49475Q540.5956 321.57288 538.9862 321.57288Q537.39246 321.57288 536.62683 320.526Q535.8612 319.4635 535.82996 317.35413L535.82996 315.66663Q535.82996 313.47913 536.57996 312.41663Q537.3456 311.3385 538.9706 311.3385Q540.57996 311.3385 541.32996 312.36975Q542.0956 313.401 542.1112 315.54163L542.1112 317.18225ZM540.8456 315.4635Q540.8456 313.85413 540.39246 313.11975Q539.95496 312.38538 538.9706 312.38538Q538.00183 312.38538 537.5487 313.11975Q537.1112 313.8385 537.0956 315.35413L537.0956 317.38538Q537.0956 318.99475 537.56433 319.776Q538.0331 320.54163 538.9862 320.54163Q539.9237 320.54163 540.37683 319.82288Q540.82996 319.0885 540.8456 317.526L540.8456 315.4635Z" fill-rule="nonzero"/><path fill="#999999" d="M23.60625 57.317726L19.434376 57.317726L18.496876 59.911476L17.1375 59.911476L20.95 49.95835L22.090626 49.95835L25.903126 59.911476L24.559376 59.911476L23.60625 57.317726ZM19.825 56.2396L23.215626 56.2396L21.5125 51.58335L19.825 56.2396ZM28.10625 52.52085L28.1375 53.442726Q28.996876 52.380226 30.35625 52.380226Q32.7 52.380226 32.73125 55.02085L32.73125 59.911476L31.465626 59.911476L31.465626 55.02085Q31.45 54.223976 31.090626 53.848976Q30.73125 53.45835 29.98125 53.45835Q29.35625 53.45835 28.8875 53.786476Q28.434376 54.1146 28.16875 54.64585L28.16875 59.911476L26.903126 59.911476L26.903126 52.52085L28.10625 52.52085ZM39.48125 59.911476Q39.371876 59.692726 39.29375 59.130226Q38.41875 60.0521 37.184376 60.0521Q36.090626 60.0521 35.3875 59.442726Q34.7 58.817726 34.7 57.8646Q34.7 56.70835 35.575 56.067726Q36.45 55.4271 38.04375 55.4271L39.278126 55.4271L39.278126 54.848976Q39.278126 54.1771 38.871876 53.786476Q38.48125 53.39585 37.715626 53.39585Q37.028126 53.39585 36.575 53.7396Q36.121876 54.08335 36.121876 54.567726L34.840626 54.567726Q34.840626 54.005226 35.23125 53.4896Q35.6375 52.973976 36.309376 52.6771Q36.98125 52.380226 37.778126 52.380226Q39.059376 52.380226 39.778126 53.02085Q40.5125 53.661476 40.54375 54.77085L40.54375 58.1771Q40.54375 59.192726 40.79375 59.8021L40.79375 59.911476L39.48125 59.911476ZM37.371876 58.942726Q37.965626 58.942726 38.496876 58.64585Q39.04375 58.33335 39.278126 57.83335L39.278126 56.317726L38.278126 56.317726Q35.965626 56.317726 35.965626 57.6771Q35.965626 58.27085 36.35625 58.6146Q36.746876 58.942726 37.371876 58.942726ZM44.278126 59.911476L43.0125 59.911476L43.0125 49.411476L44.278126 49.411476L44.278126 59.911476ZM48.325 58.0521L50.04375 52.52085L51.403126 52.52085L48.434376 61.0521Q47.746876 62.89585 46.23125 62.89585L45.996876 62.880226L45.528126 62.786476L45.528126 61.77085L45.871876 61.786476Q46.5125 61.786476 46.871876 61.52085Q47.23125 61.27085 47.465626 60.58335L47.746876 59.83335L45.10625 52.52085L46.48125 52.52085L48.325 58.0521ZM57.215626 57.942726Q57.215626 57.442726 56.825 57.161476Q56.434376 56.8646 55.48125 56.661476Q54.528126 56.45835 53.95 56.1771Q53.3875 55.880226 53.121876 55.4896Q52.85625 55.098976 52.85625 54.5521Q52.85625 53.630226 53.621876 53.005226Q54.3875 52.380226 55.590626 52.380226Q56.840626 52.380226 57.621876 53.036476Q58.403126 53.6771 58.403126 54.692726L57.1375 54.692726Q57.1375 54.161476 56.7 53.786476Q56.2625 53.411476 55.590626 53.411476Q54.903126 53.411476 54.5125 53.723976Q54.121876 54.02085 54.121876 54.505226Q54.121876 54.95835 54.48125 55.192726Q54.840626 55.4271 55.778126 55.64585Q56.73125 55.848976 57.325 56.14585Q57.91875 56.442726 58.2 56.8646Q58.48125 57.27085 58.48125 57.8646Q58.48125 58.848976 57.684376 59.45835Q56.8875 60.0521 55.621876 60.0521Q54.746876 60.0521 54.059376 59.7396Q53.371876 59.411476 52.98125 58.848976Q52.60625 58.286476 52.60625 57.630226L53.871876 57.630226Q53.903126 58.27085 54.371876 58.64585Q54.85625 59.02085 55.621876 59.02085Q56.340626 59.02085 56.778126 58.723976Q57.215626 58.4271 57.215626 57.942726ZM61.278126 59.911476L60.0125 59.911476L60.0125 52.52085L61.278126 52.52085L61.278126 59.911476ZM59.91875 50.5521Q59.91875 50.2396 60.10625 50.036476Q60.29375 49.817726 60.653126 49.817726Q61.028126 49.817726 61.215626 50.036476Q61.41875 50.2396 61.41875 50.5521Q61.41875 50.8646 61.215626 51.067726Q61.028126 51.27085 60.653126 51.27085Q60.29375 51.27085 60.10625 51.067726Q59.91875 50.8646 59.91875 50.5521ZM67.21562 57.942726Q67.21562 57.442726 66.825 57.161476Q66.43437 56.8646 65.48125 56.661476Q64.52812 56.45835 63.95 56.1771Q63.3875 55.880226 63.121876 55.4896Q62.85625 55.098976 62.85625 54.5521Q62.85625 53.630226 63.621876 53.005226Q64.3875 52.380226 65.59062 52.380226Q66.84062 52.380226 67.62187 53.036476Q68.40312 53.6771 68.40312 54.692726L67.1375 54.692726Q67.1375 54.161476 66.7 53.786476Q66.2625 53.411476 65.59062 53.411476Q64.90312 53.411476 64.5125 53.723976Q64.12187 54.02085 64.12187 54.505226Q64.12187 54.95835 64.48125 55.192726Q64.84062 55.4271 65.77812 55.64585Q66.73125 55.848976 67.325 56.14585Q67.91875 56.442726 68.2 56.8646Q68.48125 57.27085 68.48125 57.8646Q68.48125 58.848976 67.68437 59.45835Q66.8875 60.0521 65.62187 60.0521Q64.74687 60.0521 64.05937 59.7396Q63.371876 59.411476 62.98125 58.848976Q62.60625 58.286476 62.60625 57.630226L63.871876 57.630226Q63.903126 58.27085 64.37187 58.64585Q64.85625 59.02085 65.62187 59.02085Q66.34062 59.02085 66.77812 58.723976Q67.21562 58.4271 67.21562 57.942726ZM72.575 56.14585Q72.575 55.0521 72.99687 54.192726Q73.43437 53.317726 74.18437 52.848976Q74.95 52.380226 75.93437 52.380226Q77.43437 52.380226 78.37187 53.4271Q79.30937 54.473976 79.30937 56.20835L79.30937 56.3021Q79.30937 57.380226 78.8875 58.2396Q78.48125 59.08335 77.7 59.567726Q76.93437 60.0521 75.95 60.0521Q74.43437 60.0521 73.49687 59.005226Q72.575 57.95835 72.575 56.2396L72.575 56.14585ZM73.84062 56.3021Q73.84062 57.52085 74.40312 58.27085Q74.98125 59.02085 75.95 59.02085Q76.90312 59.02085 77.46562 58.27085Q78.04375 57.505226 78.04375 56.14585Q78.04375 54.9271 77.46562 54.1771Q76.8875 53.411476 75.93437 53.411476Q74.99687 53.411476 74.41875 54.161476Q73.84062 54.911476 73.84062 56.3021ZM81.52812 59.911476L81.52812 53.4896L80.35625 53.4896L80.35625 52.52085L81.52812 52.52085L81.52812 51.755226Q81.52812 50.567726 82.15312 49.9271Q82.79375 49.27085 83.96562 49.27085Q84.40312 49.27085 84.825 49.380226L84.7625 50.411476Q84.43437 50.348976 84.075 50.348976Q83.46562 50.348976 83.12187 50.70835Q82.79375 51.067726 82.79375 51.7396L82.79375 52.52085L84.37187 52.52085L84.37187 53.4896L82.79375 53.4896L82.79375 59.911476L81.52812 59.911476ZM89.35625 54.9271L89.87187 49.95835L94.96562 49.95835L94.96562 51.130226L90.93437 51.130226L90.6375 53.83335Q91.37187 53.411476 92.29375 53.411476Q93.65312 53.411476 94.45 54.317726Q95.2625 55.20835 95.2625 56.7396Q95.2625 58.27085 94.41875 59.161476Q93.59062 60.0521 92.10625 60.0521Q90.79375 60.0521 89.95 59.317726Q89.12187 58.58335 88.99687 57.286476L90.2 57.286476Q90.30937 58.14585 90.79375 58.58335Q91.29375 59.02085 92.10625 59.02085Q92.98125 59.02085 93.48125 58.4271Q93.99687 57.817726 93.99687 56.755226Q93.99687 55.755226 93.45 55.161476Q92.90312 54.5521 91.99687 54.5521Q91.18437 54.5521 90.7 54.911476L90.37187 55.1771L89.35625 54.9271ZM103.0125 55.661476Q103.0125 57.880226 102.24687 58.973976Q101.49687 60.0521 99.8875 60.0521Q98.29375 60.0521 97.52812 59.005226Q96.7625 57.942726 96.73125 55.83335L96.73125 54.14585Q96.73125 51.95835 97.48125 50.89585Q98.24687 49.817726 99.87187 49.817726Q101.48125 49.817726 102.23125 50.848976Q102.99687 51.880226 103.0125 54.02085L103.0125 55.661476ZM101.74687 53.942726Q101.74687 52.33335 101.29375 51.598976Q100.85625 50.8646 99.87187 50.8646Q98.90312 50.8646 98.45 51.598976Q98.0125 52.317726 97.99687 53.83335L97.99687 55.8646Q97.99687 57.473976 98.46562 58.255226Q98.93437 59.02085 99.8875 59.02085Q100.825 59.02085 101.27812 58.3021Q101.73125 57.567726 101.74687 56.005226L101.74687 53.942726ZM111.0125 55.661476Q111.0125 57.880226 110.24687 58.973976Q109.49687 60.0521 107.8875 60.0521Q106.29375 60.0521 105.52812 59.005226Q104.7625 57.942726 104.73125 55.83335L104.73125 54.14585Q104.73125 51.95835 105.48125 50.89585Q106.24687 49.817726 107.87187 49.817726Q109.48125 49.817726 110.23125 50.848976Q110.99687 51.880226 111.0125 54.02085L111.0125 55.661476ZM109.74687 53.942726Q109.74687 52.33335 109.29375 51.598976Q108.85625 50.8646 107.87187 50.8646Q106.90312 50.8646 106.45 51.598976Q106.0125 52.317726 105.99687 53.83335L105.99687 55.8646Q105.99687 57.473976 106.46562 58.255226Q106.93437 59.02085 107.8875 59.02085Q108.825 59.02085 109.27812 58.3021Q109.73125 57.567726 109.74687 56.005226L109.74687 53.942726ZM117.16875 53.411476Q118.0125 52.380226 119.35625 52.380226Q121.7 52.380226 121.73125 55.02085L121.73125 59.911476L120.46562 59.911476L120.46562 55.02085Q120.45 54.223976 120.09062 53.848976Q119.73125 53.45835 118.98125 53.45835Q118.35625 53.45835 117.8875 53.786476Q117.43437 54.1146 117.16875 54.64585L117.16875 59.911476L115.90312 59.911476L115.90312 49.411476L117.16875 49.411476L117.16875 53.411476ZM125.27812 59.911476L124.0125 59.911476L124.0125 52.52085L125.27812 52.52085L125.27812 59.911476ZM123.91875 50.5521Q123.91875 50.2396 124.10625 50.036476Q124.29375 49.817726 124.65312 49.817726Q125.02812 49.817726 125.21562 50.036476Q125.41875 50.2396 125.41875 50.5521Q125.41875 50.8646 125.21562 51.067726Q125.02812 51.27085 124.65312 51.27085Q124.29375 51.27085 124.10625 51.067726Q123.91875 50.8646 123.91875 50.5521ZM126.60625 56.14585Q126.60625 54.4271 127.40312 53.411476Q128.2 52.380226 129.52812 52.380226Q130.87187 52.380226 131.6375 53.33335L131.7 52.52085L132.85625 52.52085L132.85625 59.7396Q132.85625 61.1771 131.99687 61.9896Q131.15312 62.817726 129.71562 62.817726Q128.91875 62.817726 128.15312 62.473976Q127.3875 62.14585 126.98125 61.5521L127.6375 60.786476Q128.45 61.786476 129.62187 61.786476Q130.54375 61.786476 131.05937 61.27085Q131.59062 60.755226 131.59062 59.8021L131.59062 59.1771Q130.825 60.0521 129.5125 60.0521Q128.21562 60.0521 127.40312 59.005226Q126.60625 57.95835 126.60625 56.14585ZM127.87187 56.3021Q127.87187 57.5521 128.3875 58.27085Q128.90312 58.973976 129.825 58.973976Q131.02812 58.973976 131.59062 57.880226L131.59062 54.505226Q130.99687 53.45835 129.84062 53.45835Q128.91875 53.45835 128.3875 54.1771Q127.87187 54.880226 127.87187 56.3021ZM136.16875 53.411476Q137.0125 52.380226 138.35625 52.380226Q140.7 52.380226 140.73125 55.02085L140.73125 59.911476L139.46562 59.911476L139.46562 55.02085Q139.45 54.223976 139.09062 53.848976Q138.73125 53.45835 137.98125 53.45835Q137.35625 53.45835 136.8875 53.786476Q136.43437 54.1146 136.16875 54.64585L136.16875 59.911476L134.90312 59.911476L134.90312 49.411476L136.16875 49.411476L136.16875 53.411476ZM145.54375 56.192726L142.2 56.192726L142.2 55.161476L145.54375 55.161476L145.54375 56.192726ZM148.62187 50.723976L148.62187 52.52085L149.99687 52.52085L149.99687 53.4896L148.62187 53.4896L148.62187 58.08335Q148.62187 58.52085 148.80937 58.755226Q148.99687 58.973976 149.43437 58.973976Q149.65312 58.973976 150.04375 58.880226L150.04375 59.911476Q149.54375 60.0521 149.075 60.0521Q148.21562 60.0521 147.77812 59.536476Q147.35625 59.02085 147.35625 58.08335L147.35625 53.4896L146.0125 53.4896L146.0125 52.52085L147.35625 52.52085L147.35625 50.723976L148.62187 50.723976ZM155.48125 53.64585Q155.2 53.598976 154.85625 53.598976Q153.62187 53.598976 153.16875 54.661476L153.16875 59.911476L151.90312 59.911476L151.90312 52.52085L153.1375 52.52085L153.15312 53.3646Q153.77812 52.380226 154.91875 52.380226Q155.29375 52.380226 155.48125 52.473976L155.48125 53.64585ZM161.48125 59.911476Q161.37187 59.692726 161.29375 59.130226Q160.41875 60.0521 159.18437 60.0521Q158.09062 60.0521 157.3875 59.442726Q156.7 58.817726 156.7 57.8646Q156.7 56.70835 157.575 56.067726Q158.45 55.4271 160.04375 55.4271L161.27812 55.4271L161.27812 54.848976Q161.27812 54.1771 160.87187 53.786476Q160.48125 53.39585 159.71562 53.39585Q159.02812 53.39585 158.575 53.7396Q158.12187 54.08335 158.12187 54.567726L156.84062 54.567726Q156.84062 54.005226 157.23125 53.4896Q157.6375 52.973976 158.30937 52.6771Q158.98125 52.380226 159.77812 52.380226Q161.05937 52.380226 161.77812 53.02085Q162.5125 53.661476 162.54375 54.77085L162.54375 58.1771Q162.54375 59.192726 162.79375 59.8021L162.79375 59.911476L161.48125 59.911476ZM159.37187 58.942726Q159.96562 58.942726 160.49687 58.64585Q161.04375 58.33335 161.27812 57.83335L161.27812 56.317726L160.27812 56.317726Q157.96562 56.317726 157.96562 57.6771Q157.96562 58.27085 158.35625 58.6146Q158.74687 58.942726 159.37187 58.942726ZM165.52812 59.911476L165.52812 53.4896L164.35625 53.4896L164.35625 52.52085L165.52812 52.52085L165.52812 51.755226Q165.52812 50.567726 166.15312 49.9271Q166.79375 49.27085 167.96562 49.27085Q168.40312 49.27085 168.825 49.380226L168.7625 50.411476Q168.43437 50.348976 168.075 50.348976Q167.46562 50.348976 167.12187 50.70835Q166.79375 51.067726 166.79375 51.7396L166.79375 52.52085L168.37187 52.52085L168.37187 53.4896L166.79375 53.4896L166.79375 59.911476L165.52812 59.911476ZM170.52812 59.911476L170.52812 53.4896L169.35625 53.4896L169.35625 52.52085L170.52812 52.52085L170.52812 51.755226Q170.52812 50.567726 171.15312 49.9271Q171.79375 49.27085 172.96562 49.27085Q173.40312 49.27085 173.825 49.380226L173.7625 50.411476Q173.43437 50.348976 173.075 50.348976Q172.46562 50.348976 172.12187 50.70835Q171.79375 51.067726 171.79375 51.7396L171.79375 52.52085L173.37187 52.52085L173.37187 53.4896L171.79375 53.4896L171.79375 59.911476L170.52812 59.911476ZM176.27812 59.911476L175.0125 59.911476L175.0125 52.52085L176.27812 52.52085L176.27812 59.911476ZM174.91875 50.5521Q174.91875 50.2396 175.10625 50.036476Q175.29375 49.817726 175.65312 49.817726Q176.02812 49.817726 176.21562 50.036476Q176.41875 50.2396 176.41875 50.5521Q176.41875 50.8646 176.21562 51.067726Q176.02812 51.27085 175.65312 51.27085Q175.29375 51.27085 175.10625 51.067726Q174.91875 50.8646 174.91875 50.5521ZM180.87187 59.02085Q181.54375 59.02085 182.04375 58.6146Q182.55937 58.192726 182.62187 57.58335L183.80937 57.58335Q183.77812 58.20835 183.37187 58.786476Q182.96562 59.3646 182.29375 59.70835Q181.62187 60.0521 180.87187 60.0521Q179.35625 60.0521 178.46562 59.0521Q177.575 58.036476 177.575 56.286476L177.575 56.067726Q177.575 54.9896 177.96562 54.14585Q178.37187 53.3021 179.10625 52.848976Q179.85625 52.380226 180.87187 52.380226Q182.10625 52.380226 182.93437 53.130226Q183.7625 53.8646 183.80937 55.0521L182.62187 55.0521Q182.55937 54.33335 182.075 53.880226Q181.59062 53.411476 180.87187 53.411476Q179.90312 53.411476 179.37187 54.1146Q178.84062 54.8021 178.84062 56.1146L178.84062 56.348976Q178.84062 57.630226 179.37187 58.33335Q179.90312 59.02085 180.87187 59.02085ZM185.15312 60.77085L184.075 60.77085L188.23125 49.95835L189.30937 49.95835L185.15312 60.77085ZM197.15312 56.3021Q197.15312 57.9896 196.37187 59.02085Q195.60625 60.0521 194.29375 60.0521Q192.95 60.0521 192.16875 59.192726L192.16875 62.755226L190.90312 62.755226L190.90312 52.52085L192.05937 52.52085L192.12187 53.33335Q192.90312 52.380226 194.27812 52.380226Q195.60625 52.380226 196.37187 53.380226Q197.15312 54.380226 197.15312 56.1771L197.15312 56.3021ZM195.8875 56.14585Q195.8875 54.89585 195.35625 54.1771Q194.825 53.45835 193.8875 53.45835Q192.74687 53.45835 192.16875 54.473976L192.16875 58.005226Q192.74687 59.02085 193.90312 59.02085Q194.825 59.02085 195.35625 58.3021Q195.8875 57.567726 195.8875 56.14585ZM202.48125 53.64585Q202.2 53.598976 201.85625 53.598976Q200.62187 53.598976 200.16875 54.661476L200.16875 59.911476L198.90312 59.911476L198.90312 52.52085L200.1375 52.52085L200.15312 53.3646Q200.77812 52.380226 201.91875 52.380226Q202.29375 52.380226 202.48125 52.473976L202.48125 53.64585ZM206.98125 60.0521Q205.46562 60.0521 204.52812 59.067726Q203.59062 58.067726 203.59062 56.411476L203.59062 56.192726Q203.59062 55.08335 204.0125 54.223976Q204.43437 53.348976 205.18437 52.8646Q205.93437 52.380226 206.825 52.380226Q208.2625 52.380226 209.05937 53.33335Q209.85625 54.27085 209.85625 56.0521L209.85625 56.567726L204.85625 56.567726Q204.87187 57.661476 205.48125 58.348976Q206.10625 59.02085 207.04375 59.02085Q207.71562 59.02085 208.16875 58.755226Q208.6375 58.473976 208.99687 58.02085L209.7625 58.6146Q208.84062 60.0521 206.98125 60.0521ZM206.825 53.411476Q206.05937 53.411476 205.52812 53.973976Q205.0125 54.536476 204.8875 55.536476L208.59062 55.536476L208.59062 55.442726Q208.54375 54.473976 208.075 53.942726Q207.60625 53.411476 206.825 53.411476ZM212.09062 52.52085L212.1375 53.33335Q212.95 52.380226 214.325 52.380226Q215.87187 52.380226 216.43437 53.567726Q216.80937 53.036476 217.40312 52.70835Q217.99687 52.380226 218.79375 52.380226Q221.23125 52.380226 221.27812 54.95835L221.27812 59.911476L220.0125 59.911476L220.0125 55.036476Q220.0125 54.2396 219.6375 53.848976Q219.27812 53.45835 218.43437 53.45835Q217.71562 53.45835 217.24687 53.880226Q216.79375 54.286476 216.71562 55.005226L216.71562 59.911476L215.45 59.911476L215.45 55.067726Q215.45 53.45835 213.87187 53.45835Q212.62187 53.45835 212.16875 54.505226L212.16875 59.911476L210.90312 59.911476L210.90312 52.52085L212.09062 52.52085ZM224.27812 59.911476L223.0125 59.911476L223.0125 52.52085L224.27812 52.52085L224.27812 59.911476ZM222.91875 50.5521Q222.91875 50.2396 223.10625 50.036476Q223.29375 49.817726 223.65312 49.817726Q224.02812 49.817726 224.21562 50.036476Q224.41875 50.2396 224.41875 50.5521Q224.41875 50.8646 224.21562 51.067726Q224.02812 51.27085 223.65312 51.27085Q223.29375 51.27085 223.10625 51.067726Q222.91875 50.8646 222.91875 50.5521ZM230.48125 59.1771Q229.73125 60.0521 228.30937 60.0521Q227.12187 60.0521 226.49687 59.3646Q225.8875 58.6771 225.8875 57.33335L225.8875 52.52085L227.1375 52.52085L227.1375 57.286476Q227.1375 58.973976 228.5125 58.973976Q229.96562 58.973976 230.43437 57.89585L230.43437 52.52085L231.7 52.52085L231.7 59.911476L230.49687 59.911476L230.48125 59.1771ZM235.09062 52.52085L235.1375 53.33335Q235.95 52.380226 237.325 52.380226Q238.87187 52.380226 239.43437 53.567726Q239.80937 53.036476 240.40312 52.70835Q240.99687 52.380226 241.79375 52.380226Q244.23125 52.380226 244.27812 54.95835L244.27812 59.911476L243.0125 59.911476L243.0125 55.036476Q243.0125 54.2396 242.6375 53.848976Q242.27812 53.45835 241.43437 53.45835Q240.71562 53.45835 240.24687 53.880226Q239.79375 54.286476 239.71562 55.005226L239.71562 59.911476L238.45 59.911476L238.45 55.067726Q238.45 53.45835 236.87187 53.45835Q235.62187 53.45835 235.16875 54.505226L235.16875 59.911476L233.90312 59.911476L233.90312 52.52085L235.09062 52.52085ZM255.16875 56.3021Q255.16875 57.9896 254.3875 59.02085Q253.60625 60.0521 252.29375 60.0521Q250.90312 60.0521 250.1375 59.0521L250.075 59.911476L248.90312 59.911476L248.90312 49.411476L250.16875 49.411476L250.16875 53.33335Q250.93437 52.380226 252.27812 52.380226Q253.6375 52.380226 254.40312 53.39585Q255.16875 54.411476 255.16875 56.192726L255.16875 56.3021ZM253.90312 56.14585Q253.90312 54.8646 253.40312 54.161476Q252.90312 53.45835 251.96562 53.45835Q250.71562 53.45835 250.16875 54.6146L250.16875 57.817726Q250.74687 58.973976 251.98125 58.973976Q252.8875 58.973976 253.3875 58.27085Q253.90312 57.567726 253.90312 56.14585ZM260.48126 53.64585Q260.2 53.598976 259.85626 53.598976Q258.6219 53.598976 258.16876 54.661476L258.16876 59.911476L256.90314 59.911476L256.90314 52.52085L258.1375 52.52085L258.15314 53.3646Q258.77814 52.380226 259.91876 52.380226Q260.29376 52.380226 260.48126 52.473976L260.48126 53.64585ZM266.48126 59.911476Q266.3719 59.692726 266.29376 59.130226Q265.41876 60.0521 264.1844 60.0521Q263.09064 60.0521 262.3875 59.442726Q261.7 58.817726 261.7 57.8646Q261.7 56.70835 262.575 56.067726Q263.45 55.4271 265.04376 55.4271L266.27814 55.4271L266.27814 54.848976Q266.27814 54.1771 265.8719 53.786476Q265.48126 53.39585 264.71564 53.39585Q264.02814 53.39585 263.575 53.7396Q263.1219 54.08335 263.1219 54.567726L261.84064 54.567726Q261.84064 54.005226 262.23126 53.4896Q262.6375 52.973976 263.3094 52.6771Q263.98126 52.380226 264.77814 52.380226Q266.0594 52.380226 266.77814 53.02085Q267.5125 53.661476 267.54376 54.77085L267.54376 58.1771Q267.54376 59.192726 267.79376 59.8021L267.79376 59.911476L266.48126 59.911476ZM264.3719 58.942726Q264.96564 58.942726 265.4969 58.64585Q266.04376 58.33335 266.27814 57.83335L266.27814 56.317726L265.27814 56.317726Q262.96564 56.317726 262.96564 57.6771Q262.96564 58.27085 263.35626 58.6146Q263.7469 58.942726 264.3719 58.942726ZM271.10626 52.52085L271.1375 53.442726Q271.9969 52.380226 273.35626 52.380226Q275.7 52.380226 275.73126 55.02085L275.73126 59.911476L274.46564 59.911476L274.46564 55.02085Q274.45 54.223976 274.09064 53.848976Q273.73126 53.45835 272.98126 53.45835Q272.35626 53.45835 271.8875 53.786476Q271.4344 54.1146 271.16876 54.64585L271.16876 59.911476L269.90314 59.911476L269.90314 52.52085L271.10626 52.52085ZM277.60626 56.14585Q277.60626 54.442726 278.40314 53.411476Q279.21564 52.380226 280.5125 52.380226Q281.825 52.380226 282.575 53.27085L282.575 49.411476L283.84064 49.411476L283.84064 59.911476L282.6844 59.911476L282.6219 59.1146Q281.85626 60.0521 280.5125 60.0521Q279.21564 60.0521 278.40314 59.005226Q277.60626 57.942726 277.60626 56.2396L277.60626 56.14585ZM278.8719 56.3021Q278.8719 57.5521 279.3875 58.27085Q279.90314 58.973976 280.825 58.973976Q282.02814 58.973976 282.575 57.89585L282.575 54.4896Q282.0125 53.45835 280.84064 53.45835Q279.90314 53.45835 279.3875 54.1771Q278.8719 54.880226 278.8719 56.3021ZM293.21564 57.942726Q293.21564 57.442726 292.825 57.161476Q292.4344 56.8646 291.48126 56.661476Q290.52814 56.45835 289.95 56.1771Q289.3875 55.880226 289.1219 55.4896Q288.85626 55.098976 288.85626 54.5521Q288.85626 53.630226 289.6219 53.005226Q290.3875 52.380226 291.59064 52.380226Q292.84064 52.380226 293.6219 53.036476Q294.40314 53.6771 294.40314 54.692726L293.1375 54.692726Q293.1375 54.161476 292.7 53.786476Q292.2625 53.411476 291.59064 53.411476Q290.90314 53.411476 290.5125 53.723976Q290.1219 54.02085 290.1219 54.505226Q290.1219 54.95835 290.48126 55.192726Q290.84064 55.4271 291.77814 55.64585Q292.73126 55.848976 293.325 56.14585Q293.91876 56.442726 294.2 56.8646Q294.48126 57.27085 294.48126 57.8646Q294.48126 58.848976 293.6844 59.45835Q292.8875 60.0521 291.6219 60.0521Q290.7469 60.0521 290.0594 59.7396Q289.3719 59.411476 288.98126 58.848976Q288.60626 58.286476 288.60626 57.630226L289.8719 57.630226Q289.90314 58.27085 290.3719 58.64585Q290.85626 59.02085 291.6219 59.02085Q292.34064 59.02085 292.77814 58.723976Q293.21564 58.4271 293.21564 57.942726ZM297.27814 59.911476L296.0125 59.911476L296.0125 52.52085L297.27814 52.52085L297.27814 59.911476ZM295.91876 50.5521Q295.91876 50.2396 296.10626 50.036476Q296.29376 49.817726 296.65314 49.817726Q297.02814 49.817726 297.21564 50.036476Q297.41876 50.2396 297.41876 50.5521Q297.41876 50.8646 297.21564 51.067726Q297.02814 51.27085 296.65314 51.27085Q296.29376 51.27085 296.10626 51.067726Q295.91876 50.8646 295.91876 50.5521ZM300.6219 50.723976L300.6219 52.52085L301.9969 52.52085L301.9969 53.4896L300.6219 53.4896L300.6219 58.08335Q300.6219 58.52085 300.8094 58.755226Q300.9969 58.973976 301.4344 58.973976Q301.65314 58.973976 302.04376 58.880226L302.04376 59.911476Q301.54376 60.0521 301.075 60.0521Q300.21564 60.0521 299.77814 59.536476Q299.35626 59.02085 299.35626 58.08335L299.35626 53.4896L298.0125 53.4896L298.0125 52.52085L299.35626 52.52085L299.35626 50.723976L300.6219 50.723976ZM306.98126 60.0521Q305.46564 60.0521 304.52814 59.067726Q303.59064 58.067726 303.59064 56.411476L303.59064 56.192726Q303.59064 55.08335 304.0125 54.223976Q304.4344 53.348976 305.1844 52.8646Q305.9344 52.380226 306.825 52.380226Q308.2625 52.380226 309.0594 53.33335Q309.85626 54.27085 309.85626 56.0521L309.85626 56.567726L304.85626 56.567726Q304.8719 57.661476 305.48126 58.348976Q306.10626 59.02085 307.04376 59.02085Q307.71564 59.02085 308.16876 58.755226Q308.6375 58.473976 308.9969 58.02085L309.7625 58.6146Q308.84064 60.0521 306.98126 60.0521ZM306.825 53.411476Q306.0594 53.411476 305.52814 53.973976Q305.0125 54.536476 304.8875 55.536476L308.59064 55.536476L308.59064 55.442726Q308.54376 54.473976 308.075 53.942726Q307.60626 53.411476 306.825 53.411476ZM315.21564 57.942726Q315.21564 57.442726 314.825 57.161476Q314.4344 56.8646 313.48126 56.661476Q312.52814 56.45835 311.95 56.1771Q311.3875 55.880226 311.1219 55.4896Q310.85626 55.098976 310.85626 54.5521Q310.85626 53.630226 311.6219 53.005226Q312.3875 52.380226 313.59064 52.380226Q314.84064 52.380226 315.6219 53.036476Q316.40314 53.6771 316.40314 54.692726L315.1375 54.692726Q315.1375 54.161476 314.7 53.786476Q314.2625 53.411476 313.59064 53.411476Q312.90314 53.411476 312.5125 53.723976Q312.1219 54.02085 312.1219 54.505226Q312.1219 54.95835 312.48126 55.192726Q312.84064 55.4271 313.77814 55.64585Q314.73126 55.848976 315.325 56.14585Q315.91876 56.442726 316.2 56.8646Q316.48126 57.27085 316.48126 57.8646Q316.48126 58.848976 315.6844 59.45835Q314.8875 60.0521 313.6219 60.0521Q312.7469 60.0521 312.0594 59.7396Q311.3719 59.411476 310.98126 58.848976Q310.60626 58.286476 310.60626 57.630226L311.8719 57.630226Q311.90314 58.27085 312.3719 58.64585Q312.85626 59.02085 313.6219 59.02085Q314.34064 59.02085 314.77814 58.723976Q315.21564 58.4271 315.21564 57.942726ZM322.27814 59.911476L321.0125 59.911476L321.0125 52.52085L322.27814 52.52085L322.27814 59.911476ZM320.91876 50.5521Q320.91876 50.2396 321.10626 50.036476Q321.29376 49.817726 321.65314 49.817726Q322.02814 49.817726 322.21564 50.036476Q322.41876 50.2396 322.41876 50.5521Q322.41876 50.8646 322.21564 51.067726Q322.02814 51.27085 321.65314 51.27085Q321.29376 51.27085 321.10626 51.067726Q320.91876 50.8646 320.91876 50.5521ZM325.10626 52.52085L325.1375 53.442726Q325.9969 52.380226 327.35626 52.380226Q329.7 52.380226 329.73126 55.02085L329.73126 59.911476L328.46564 59.911476L328.46564 55.02085Q328.45 54.223976 328.09064 53.848976Q327.73126 53.45835 326.98126 53.45835Q326.35626 53.45835 325.8875 53.786476Q325.4344 54.1146 325.16876 54.64585L325.16876 59.911476L323.90314 59.911476L323.90314 52.52085L325.10626 52.52085ZM342.7625 59.911476L341.4344 59.911476L336.41876 52.2396L336.41876 59.911476L335.10626 59.911476L335.10626 49.95835L336.41876 49.95835L341.45 57.661476L341.45 49.95835L342.7625 49.95835L342.7625 59.911476ZM346.41876 58.83335L351.1375 58.83335L351.1375 59.911476L345.10626 59.911476L345.10626 49.95835L346.41876 49.95835L346.41876 58.83335Z" fill-rule="nonzero"/><path fill="#434343" d="M18.965626 27.286476L19.684376 20.192726L26.965626 20.192726L26.965626 21.864601L21.215626 21.864601L20.79375 25.739601Q21.840626 25.130226 23.16875 25.130226Q25.10625 25.130226 26.246876 26.411476Q27.3875 27.692726 27.3875 29.880226Q27.3875 32.08335 26.2 33.348976Q25.0125 34.6146 22.8875 34.6146Q20.996876 34.6146 19.809376 33.567726Q18.621876 32.52085 18.45 30.677101L20.16875 30.677101Q20.325 31.895851 21.028126 32.52085Q21.73125 33.130226 22.8875 33.130226Q24.153126 33.130226 24.871876 32.27085Q25.590626 31.411476 25.590626 29.895851Q25.590626 28.473976 24.809376 27.614601Q24.028126 26.739601 22.746876 26.739601Q21.559376 26.739601 20.8875 27.255226L20.403126 27.645851L18.965626 27.286476ZM35.075 34.411476L33.246876 34.411476L33.246876 22.364601L29.60625 23.708351L29.60625 22.067726L34.79375 20.130226L35.075 20.130226L35.075 34.411476ZM39.98125 22.927101Q39.98125 21.645851 40.79375 20.817726Q41.60625 19.989601 42.8875 19.989601Q44.184376 19.989601 44.98125 20.833351Q45.79375 21.661476 45.79375 22.989601L45.79375 23.677101Q45.79375 24.973976 44.98125 25.786476Q44.16875 26.598976 42.903126 26.598976Q41.6375 26.598976 40.809376 25.786476Q39.98125 24.973976 39.98125 23.614601L39.98125 22.927101ZM41.325 23.677101Q41.325 24.442726 41.746876 24.942726Q42.184376 25.427101 42.903126 25.427101Q43.60625 25.427101 44.028126 24.958351Q44.45 24.473976 44.45 23.645851L44.45 22.927101Q44.45 22.161476 44.028126 21.661476Q43.60625 21.161476 42.8875 21.161476Q42.16875 21.161476 41.746876 21.661476Q41.325 22.161476 41.325 22.958351L41.325 23.677101ZM46.903126 30.927101Q46.903126 29.645851 47.715626 28.817726Q48.528126 27.989601 49.809376 27.989601Q51.090626 27.989601 51.903126 28.817726Q52.73125 29.630226 52.73125 30.989601L52.73125 31.692726Q52.73125 32.95835 51.91875 33.786476Q51.10625 34.6146 49.825 34.6146Q48.559376 34.6146 47.73125 33.8021Q46.903126 32.9896 46.903126 31.630226L46.903126 30.927101ZM48.246876 31.692726Q48.246876 32.45835 48.66875 32.95835Q49.10625 33.442726 49.825 33.442726Q50.528126 33.442726 50.95 32.95835Q51.371876 32.473976 51.371876 31.645851L51.371876 30.927101Q51.371876 30.145851 50.95 29.661476Q50.528126 29.177101 49.809376 29.177101Q49.121876 29.177101 48.684376 29.661476Q48.246876 30.145851 48.246876 30.958351L48.246876 31.692726ZM43.309376 33.33335L42.29375 32.692726L49.23125 21.583351L50.2625 22.223976L43.309376 33.33335ZM59.840626 29.036476Q59.840626 27.473976 60.45 26.239601Q61.059376 24.989601 62.1375 24.317726Q63.23125 23.645851 64.6375 23.645851Q66.79375 23.645851 68.12187 25.145851Q69.46562 26.630226 69.46562 29.114601L69.46562 29.239601Q69.46562 30.786476 68.87187 32.02085Q68.27812 33.2396 67.16875 33.9271Q66.075 34.6146 64.65312 34.6146Q62.5125 34.6146 61.16875 33.1146Q59.840626 31.614601 59.840626 29.161476L59.840626 29.036476ZM61.653126 29.239601Q61.653126 31.005226 62.465626 32.067726Q63.29375 33.130226 64.65312 33.130226Q66.02812 33.130226 66.84062 32.0521Q67.65312 30.973976 67.65312 29.036476Q67.65312 27.286476 66.825 26.208351Q65.99687 25.130226 64.6375 25.130226Q63.29375 25.130226 62.465626 26.192726Q61.653126 27.255226 61.653126 29.239601ZM72.2 34.411476L72.2 25.239601L70.54375 25.239601L70.54375 23.848976L72.2 23.848976L72.2 22.755226Q72.2 21.067726 73.10625 20.145851Q74.02812 19.208351 75.68437 19.208351Q76.30937 19.208351 76.91875 19.364601L76.825 20.833351Q76.37187 20.755226 75.85625 20.755226Q74.96562 20.755226 74.48125 21.270851Q74.0125 21.770851 74.0125 22.723976L74.0125 23.848976L76.2625 23.848976L76.2625 25.239601L74.0125 25.239601L74.0125 34.411476L72.2 34.411476ZM83.60625 34.411476L83.60625 20.192726L87.62187 20.192726Q89.46562 20.192726 90.8875 21.020851Q92.325 21.833351 93.09062 23.348976Q93.87187 24.864601 93.8875 26.817726L93.8875 27.723976Q93.8875 29.739601 93.10625 31.255226Q92.325 32.77085 90.8875 33.58335Q89.45 34.39585 87.54375 34.411476L83.60625 34.411476ZM85.48125 21.739601L85.48125 32.880226L87.45 32.880226Q89.62187 32.880226 90.825 31.536476Q92.02812 30.177101 92.02812 27.692726L92.02812 26.864601Q92.02812 24.442726 90.8875 23.098976Q89.74687 21.755226 87.66875 21.739601L85.48125 21.739601ZM101.30937 31.927101L105.37187 20.192726L107.41875 20.192726L102.15312 34.411476L100.48125 34.411476L95.23125 20.192726L97.2625 20.192726L101.30937 31.927101ZM109.68437 35.630226L108.12187 35.630226L114.05937 20.192726L115.60625 20.192726L109.68437 35.630226ZM128.54375 27.755226Q128.54375 29.848976 127.84062 31.411476Q127.1375 32.95835 125.84062 33.786476Q124.55937 34.6146 122.84062 34.6146Q121.15312 34.6146 119.85625 33.786476Q118.55937 32.95835 117.84062 31.427101Q117.12187 29.895851 117.10625 27.880226L117.10625 26.864601Q117.10625 24.817726 117.80937 23.239601Q118.52812 21.661476 119.825 20.833351Q121.1375 19.989601 122.80937 19.989601Q124.52812 19.989601 125.825 20.817726Q127.1375 21.645851 127.84062 23.223976Q128.54375 24.786476 128.54375 26.864601L128.54375 27.755226ZM126.66875 26.848976Q126.66875 24.317726 125.65312 22.973976Q124.6375 21.614601 122.80937 21.614601Q121.04375 21.614601 120.0125 22.973976Q118.99687 24.317726 118.96562 26.708351L118.96562 27.755226Q118.96562 30.208351 119.99687 31.614601Q121.02812 33.02085 122.84062 33.02085Q124.65312 33.02085 125.6375 31.692726Q126.6375 30.364601 126.66875 27.895851L126.66875 26.848976ZM136.30937 31.927101L140.37187 20.192726L142.41875 20.192726L137.15312 34.411476L135.48125 34.411476L130.23125 20.192726L132.2625 20.192726L136.30937 31.927101ZM160.05937 29.895851Q159.79375 32.161476 158.3875 33.39585Q156.99687 34.6146 154.66875 34.6146Q152.15312 34.6146 150.62187 32.8021Q149.10625 30.989601 149.10625 27.958351L149.10625 26.598976Q149.10625 24.614601 149.80937 23.114601Q150.52812 21.614601 151.825 20.802101Q153.12187 19.989601 154.84062 19.989601Q157.10625 19.989601 158.46562 21.255226Q159.84062 22.520851 160.05937 24.755226L158.16875 24.755226Q157.93437 23.067726 157.10625 22.302101Q156.29375 21.536476 154.84062 21.536476Q153.04375 21.536476 152.0125 22.864601Q150.99687 24.192726 150.99687 26.645851L150.99687 28.020851Q150.99687 30.333351 151.96562 31.708351Q152.93437 33.067726 154.66875 33.067726Q156.23125 33.067726 157.05937 32.3646Q157.90312 31.661476 158.16875 29.895851L160.05937 29.895851ZM166.7 34.6146Q164.55937 34.6146 163.2 33.20835Q161.85625 31.786476 161.85625 29.427101L161.85625 29.083351Q161.85625 27.520851 162.45 26.286476Q163.05937 25.052101 164.1375 24.348976Q165.21562 23.645851 166.48125 23.645851Q168.54375 23.645851 169.68437 25.005226Q170.825 26.364601 170.825 28.895851L170.825 29.645851L163.66875 29.645851Q163.7 31.208351 164.575 32.1771Q165.45 33.130226 166.79375 33.130226Q167.7625 33.130226 168.41875 32.7396Q169.09062 32.348976 169.59062 31.708351L170.68437 32.567726Q169.35625 34.6146 166.7 34.6146ZM166.48125 25.130226Q165.3875 25.130226 164.6375 25.927101Q163.90312 26.723976 163.73125 28.161476L169.0125 28.161476L169.0125 28.020851Q168.93437 26.645851 168.2625 25.895851Q167.60625 25.130226 166.48125 25.130226ZM178.41875 25.458351Q178.0125 25.395851 177.54375 25.395851Q175.7625 25.395851 175.12187 26.911476L175.12187 34.411476L173.325 34.411476L173.325 23.848976L175.075 23.848976L175.10625 25.067726Q175.99687 23.645851 177.62187 23.645851Q178.15312 23.645851 178.41875 23.786476L178.41875 25.458351ZM182.7625 21.286476L182.7625 23.848976L184.74687 23.848976L184.74687 25.239601L182.7625 25.239601L182.7625 31.786476Q182.7625 32.4271 183.02812 32.755226Q183.29375 33.067726 183.93437 33.067726Q184.24687 33.067726 184.79375 32.942726L184.79375 34.411476Q184.075 34.6146 183.40312 34.6146Q182.2 34.6146 181.575 33.880226Q180.96562 33.14585 180.96562 31.786476L180.96562 25.239601L179.04375 25.239601L179.04375 23.848976L180.96562 23.848976L180.96562 21.286476L182.7625 21.286476ZM189.27812 34.411476L187.48125 34.411476L187.48125 23.848976L189.27812 23.848976L189.27812 34.411476ZM187.325 21.036476Q187.325 20.598976 187.59062 20.302101Q187.87187 19.989601 188.3875 19.989601Q188.91875 19.989601 189.18437 20.302101Q189.46562 20.598976 189.46562 21.036476Q189.46562 21.473976 189.18437 21.770851Q188.91875 22.067726 188.3875 22.067726Q187.87187 22.067726 187.59062 21.770851Q187.325 21.473976 187.325 21.036476ZM193.2 34.411476L193.2 25.239601L191.54375 25.239601L191.54375 23.848976L193.2 23.848976L193.2 22.755226Q193.2 21.067726 194.10625 20.145851Q195.02812 19.208351 196.68437 19.208351Q197.30937 19.208351 197.91875 19.364601L197.825 20.833351Q197.37187 20.755226 196.85625 20.755226Q195.96562 20.755226 195.48125 21.270851Q195.0125 21.770851 195.0125 22.723976L195.0125 23.848976L197.2625 23.848976L197.2625 25.239601L195.0125 25.239601L195.0125 34.411476L193.2 34.411476ZM201.27812 34.411476L199.48125 34.411476L199.48125 23.848976L201.27812 23.848976L201.27812 34.411476ZM199.325 21.036476Q199.325 20.598976 199.59062 20.302101Q199.87187 19.989601 200.3875 19.989601Q200.91875 19.989601 201.18437 20.302101Q201.46562 20.598976 201.46562 21.036476Q201.46562 21.473976 201.18437 21.770851Q200.91875 22.067726 200.3875 22.067726Q199.87187 22.067726 199.59062 21.770851Q199.325 21.473976 199.325 21.036476ZM208.55937 33.130226Q209.52812 33.130226 210.24687 32.5521Q210.96562 31.958351 211.04375 31.083351L212.7625 31.083351Q212.7 31.989601 212.12187 32.817726Q211.55937 33.630226 210.59062 34.130226Q209.6375 34.6146 208.55937 34.6146Q206.40312 34.6146 205.12187 33.1771Q203.85625 31.723976 203.85625 29.223976L203.85625 28.927101Q203.85625 27.380226 204.41875 26.177101Q204.98125 24.973976 206.04375 24.317726Q207.10625 23.645851 208.54375 23.645851Q210.325 23.645851 211.49687 24.708351Q212.68437 25.770851 212.7625 27.473976L211.04375 27.473976Q210.96562 26.458351 210.2625 25.802101Q209.575 25.130226 208.54375 25.130226Q207.16875 25.130226 206.40312 26.130226Q205.65312 27.114601 205.65312 28.989601L205.65312 29.333351Q205.65312 31.161476 206.40312 32.14585Q207.15312 33.130226 208.55937 33.130226ZM220.84062 34.411476Q220.68437 34.098976 220.59062 33.3021Q219.325 34.6146 217.575 34.6146Q216.0125 34.6146 215.0125 33.723976Q214.0125 32.83335 214.0125 31.473976Q214.0125 29.833351 215.2625 28.927101Q216.52812 28.005226 218.79375 28.005226L220.55937 28.005226L220.55937 27.177101Q220.55937 26.223976 219.98125 25.661476Q219.41875 25.098976 218.325 25.098976Q217.35625 25.098976 216.7 25.598976Q216.04375 26.083351 216.04375 26.770851L214.23125 26.770851Q214.23125 25.989601 214.79375 25.255226Q215.35625 24.505226 216.30937 24.083351Q217.27812 23.645851 218.43437 23.645851Q220.2625 23.645851 221.29375 24.567726Q222.325 25.473976 222.37187 27.083351L222.37187 31.942726Q222.37187 33.39585 222.73125 34.255226L222.73125 34.411476L220.84062 34.411476ZM217.84062 33.036476Q218.7 33.036476 219.45 32.598976Q220.21562 32.161476 220.55937 31.458351L220.55937 29.286476L219.1375 29.286476Q215.825 29.286476 215.825 31.223976Q215.825 32.08335 216.3875 32.567726Q216.95 33.036476 217.84062 33.036476ZM227.7625 21.286476L227.7625 23.848976L229.74687 23.848976L229.74687 25.239601L227.7625 25.239601L227.7625 31.786476Q227.7625 32.4271 228.02812 32.755226Q228.29375 33.067726 228.93437 33.067726Q229.24687 33.067726 229.79375 32.942726L229.79375 34.411476Q229.075 34.6146 228.40312 34.6146Q227.2 34.6146 226.575 33.880226Q225.96562 33.14585 225.96562 31.786476L225.96562 25.239601L224.04375 25.239601L224.04375 23.848976L225.96562 23.848976L225.96562 21.286476L227.7625 21.286476ZM236.7 34.6146Q234.55937 34.6146 233.2 33.20835Q231.85625 31.786476 231.85625 29.427101L231.85625 29.083351Q231.85625 27.520851 232.45 26.286476Q233.05937 25.052101 234.1375 24.348976Q235.21562 23.645851 236.48125 23.645851Q238.54375 23.645851 239.68437 25.005226Q240.825 26.364601 240.825 28.895851L240.825 29.645851L233.66875 29.645851Q233.7 31.208351 234.575 32.1771Q235.45 33.130226 236.79375 33.130226Q237.7625 33.130226 238.41875 32.7396Q239.09062 32.348976 239.59062 31.708351L240.68437 32.567726Q239.35625 34.6146 236.7 34.6146ZM236.48125 25.130226Q235.3875 25.130226 234.6375 25.927101Q233.90312 26.723976 233.73125 28.161476L239.0125 28.161476L239.0125 28.020851Q238.93437 26.645851 238.2625 25.895851Q237.60625 25.130226 236.48125 25.130226ZM249.46562 31.614601Q249.46562 30.880226 248.91875 30.473976Q248.37187 30.067726 246.99687 29.770851Q245.62187 29.473976 244.80937 29.067726Q244.0125 28.661476 243.62187 28.098976Q243.24687 27.520851 243.24687 26.739601Q243.24687 25.442726 244.34062 24.552101Q245.43437 23.645851 247.15312 23.645851Q248.95 23.645851 250.05937 24.583351Q251.18437 25.505226 251.18437 26.942726L249.35625 26.942726Q249.35625 26.208351 248.73125 25.677101Q248.10625 25.130226 247.15312 25.130226Q246.15312 25.130226 245.59062 25.567726Q245.04375 25.989601 245.04375 26.692726Q245.04375 27.333351 245.55937 27.677101Q246.075 28.005226 247.43437 28.317726Q248.79375 28.614601 249.62187 29.036476Q250.46562 29.442726 250.87187 30.036476Q251.27812 30.630226 251.27812 31.473976Q251.27812 32.89585 250.1375 33.755226Q249.0125 34.6146 247.2 34.6146Q245.93437 34.6146 244.95 34.161476Q243.98125 33.70835 243.41875 32.911476Q242.87187 32.098976 242.87187 31.161476L244.68437 31.161476Q244.73125 32.067726 245.40312 32.598976Q246.09062 33.130226 247.2 33.130226Q248.23125 33.130226 248.84062 32.723976Q249.46562 32.3021 249.46562 31.614601ZM266.45 30.692726L260.4969 30.692726L259.15314 34.411476L257.23126 34.411476L262.65314 20.192726L264.29376 20.192726L269.73126 34.411476L267.8094 34.411476L266.45 30.692726ZM261.0594 29.161476L265.90314 29.161476L263.48126 22.505226L261.0594 29.161476ZM276.41876 25.458351Q276.0125 25.395851 275.54376 25.395851Q273.7625 25.395851 273.1219 26.911476L273.1219 34.411476L271.325 34.411476L271.325 23.848976L273.075 23.848976L273.10626 25.067726Q273.9969 23.645851 275.6219 23.645851Q276.15314 23.645851 276.41876 23.786476L276.41876 25.458351ZM282.7 34.6146Q280.5594 34.6146 279.2 33.20835Q277.85626 31.786476 277.85626 29.427101L277.85626 29.083351Q277.85626 27.520851 278.45 26.286476Q279.0594 25.052101 280.1375 24.348976Q281.21564 23.645851 282.48126 23.645851Q284.54376 23.645851 285.6844 25.005226Q286.825 26.364601 286.825 28.895851L286.825 29.645851L279.66876 29.645851Q279.7 31.208351 280.575 32.1771Q281.45 33.130226 282.79376 33.130226Q283.7625 33.130226 284.41876 32.7396Q285.09064 32.348976 285.59064 31.708351L286.6844 32.567726Q285.35626 34.6146 282.7 34.6146ZM282.48126 25.130226Q281.3875 25.130226 280.6375 25.927101Q279.90314 26.723976 279.73126 28.161476L285.0125 28.161476L285.0125 28.020851Q284.9344 26.645851 284.2625 25.895851Q283.60626 25.130226 282.48126 25.130226ZM305.52814 34.411476L303.6375 34.411476L296.48126 23.458351L296.48126 34.411476L294.60626 34.411476L294.60626 20.192726L296.48126 20.192726L303.66876 31.192726L303.66876 20.192726L305.52814 20.192726L305.52814 34.411476ZM307.84064 29.036476Q307.84064 27.473976 308.45 26.239601Q309.0594 24.989601 310.1375 24.317726Q311.23126 23.645851 312.6375 23.645851Q314.79376 23.645851 316.1219 25.145851Q317.46564 26.630226 317.46564 29.114601L317.46564 29.239601Q317.46564 30.786476 316.8719 32.02085Q316.27814 33.2396 315.16876 33.9271Q314.075 34.6146 312.65314 34.6146Q310.5125 34.6146 309.16876 33.1146Q307.84064 31.614601 307.84064 29.161476L307.84064 29.036476ZM309.65314 29.239601Q309.65314 31.005226 310.46564 32.067726Q311.29376 33.130226 312.65314 33.130226Q314.02814 33.130226 314.84064 32.0521Q315.65314 30.973976 315.65314 29.036476Q315.65314 27.286476 314.825 26.208351Q313.9969 25.130226 312.6375 25.130226Q311.29376 25.130226 310.46564 26.192726Q309.65314 27.255226 309.65314 29.239601ZM321.7625 21.286476L321.7625 23.848976L323.7469 23.848976L323.7469 25.239601L321.7625 25.239601L321.7625 31.786476Q321.7625 32.4271 322.02814 32.755226Q322.29376 33.067726 322.9344 33.067726Q323.2469 33.067726 323.79376 32.942726L323.79376 34.411476Q323.075 34.6146 322.40314 34.6146Q321.2 34.6146 320.575 33.880226Q319.96564 33.14585 319.96564 31.786476L319.96564 25.239601L318.04376 25.239601L318.04376 23.848976L319.96564 23.848976L319.96564 21.286476L321.7625 21.286476ZM342.54376 27.755226Q342.54376 29.848976 341.84064 31.411476Q341.1375 32.95835 339.84064 33.786476Q338.5594 34.6146 336.84064 34.6146Q335.15314 34.6146 333.85626 33.786476Q332.5594 32.95835 331.84064 31.427101Q331.1219 29.895851 331.10626 27.880226L331.10626 26.864601Q331.10626 24.817726 331.8094 23.239601Q332.52814 21.661476 333.825 20.833351Q335.1375 19.989601 336.8094 19.989601Q338.52814 19.989601 339.825 20.817726Q341.1375 21.645851 341.84064 23.223976Q342.54376 24.786476 342.54376 26.864601L342.54376 27.755226ZM340.66876 26.848976Q340.66876 24.317726 339.65314 22.973976Q338.6375 21.614601 336.8094 21.614601Q335.04376 21.614601 334.0125 22.973976Q332.9969 24.317726 332.96564 26.708351L332.96564 27.755226Q332.96564 30.208351 333.9969 31.614601Q335.02814 33.02085 336.84064 33.02085Q338.65314 33.02085 339.6375 31.692726Q340.6375 30.364601 340.66876 27.895851L340.66876 26.848976ZM356.0594 29.895851Q355.79376 32.161476 354.3875 33.39585Q352.9969 34.6146 350.66876 34.6146Q348.15314 34.6146 346.6219 32.8021Q345.10626 30.989601 345.10626 27.958351L345.10626 26.598976Q345.10626 24.614601 345.8094 23.114601Q346.52814 21.614601 347.825 20.802101Q349.1219 19.989601 350.84064 19.989601Q353.10626 19.989601 354.46564 21.255226Q355.84064 22.520851 356.0594 24.755226L354.16876 24.755226Q353.9344 23.067726 353.10626 22.302101Q352.29376 21.536476 350.84064 21.536476Q349.04376 21.536476 348.0125 22.864601Q346.9969 24.192726 346.9969 26.645851L346.9969 28.020851Q346.9969 30.333351 347.96564 31.708351Q348.9344 33.067726 350.66876 33.067726Q352.23126 33.067726 353.0594 32.3646Q353.90314 31.661476 354.16876 29.895851L356.0594 29.895851ZM362.79376 28.067726Q360.3719 27.380226 359.27814 26.380226Q358.1844 25.364601 358.1844 23.880226Q358.1844 22.192726 359.52814 21.098976Q360.8719 19.989601 363.0125 19.989601Q364.48126 19.989601 365.6219 20.567726Q366.77814 21.130226 367.40314 22.130226Q368.02814 23.114601 368.02814 24.302101L366.15314 24.302101Q366.15314 23.020851 365.325 22.286476Q364.5125 21.536476 363.0125 21.536476Q361.6219 21.536476 360.84064 22.145851Q360.075 22.755226 360.075 23.848976Q360.075 24.708351 360.8094 25.317726Q361.54376 25.911476 363.3094 26.411476Q365.09064 26.911476 366.09064 27.520851Q367.09064 28.114601 367.575 28.911476Q368.0594 29.708351 368.0594 30.802101Q368.0594 32.52085 366.71564 33.567726Q365.3719 34.6146 363.10626 34.6146Q361.65314 34.6146 360.3719 34.0521Q359.10626 33.4896 358.41876 32.52085Q357.73126 31.536476 357.73126 30.286476L359.6219 30.286476Q359.6219 31.583351 360.575 32.33335Q361.52814 33.067726 363.10626 33.067726Q364.59064 33.067726 365.3875 32.473976Q366.1844 31.864601 366.1844 30.817726Q366.1844 29.770851 365.45 29.208351Q364.71564 28.630226 362.79376 28.067726ZM372.48126 28.848976L372.48126 34.411476L370.60626 34.411476L370.60626 20.192726L375.84064 20.192726Q378.1844 20.192726 379.4969 21.380226Q380.825 22.567726 380.825 24.536476Q380.825 26.614601 379.52814 27.739601Q378.23126 28.848976 375.825 28.848976L372.48126 28.848976ZM372.48126 27.317726L375.84064 27.317726Q377.35626 27.317726 378.15314 26.614601Q378.95 25.895851 378.95 24.552101Q378.95 23.286476 378.15314 22.536476Q377.35626 21.770851 375.95 21.739601L372.48126 21.739601L372.48126 27.317726ZM392.79376 28.067726Q390.3719 27.380226 389.27814 26.380226Q388.1844 25.364601 388.1844 23.880226Q388.1844 22.192726 389.52814 21.098976Q390.8719 19.989601 393.0125 19.989601Q394.48126 19.989601 395.6219 20.567726Q396.77814 21.130226 397.40314 22.130226Q398.02814 23.114601 398.02814 24.302101L396.15314 24.302101Q396.15314 23.020851 395.325 22.286476Q394.5125 21.536476 393.0125 21.536476Q391.6219 21.536476 390.84064 22.145851Q390.075 22.755226 390.075 23.848976Q390.075 24.708351 390.8094 25.317726Q391.54376 25.911476 393.3094 26.411476Q395.09064 26.911476 396.09064 27.520851Q397.09064 28.114601 397.575 28.911476Q398.0594 29.708351 398.0594 30.802101Q398.0594 32.52085 396.71564 33.567726Q395.3719 34.6146 393.10626 34.6146Q391.65314 34.6146 390.3719 34.0521Q389.10626 33.4896 388.41876 32.52085Q387.73126 31.536476 387.73126 30.286476L389.6219 30.286476Q389.6219 31.583351 390.575 32.33335Q391.52814 33.067726 393.10626 33.067726Q394.59064 33.067726 395.3875 32.473976Q396.1844 31.864601 396.1844 30.817726Q396.1844 29.770851 395.45 29.208351Q394.71564 28.630226 392.79376 28.067726ZM402.7625 21.286476L402.7625 23.848976L404.7469 23.848976L404.7469 25.239601L402.7625 25.239601L402.7625 31.786476Q402.7625 32.4271 403.02814 32.755226Q403.29376 33.067726 403.9344 33.067726Q404.2469 33.067726 404.79376 32.942726L404.79376 34.411476Q404.075 34.6146 403.40314 34.6146Q402.2 34.6146 401.575 33.880226Q400.96564 33.14585 400.96564 31.786476L400.96564 25.239601L399.04376 25.239601L399.04376 23.848976L400.96564 23.848976L400.96564 21.286476L402.7625 21.286476ZM413.84064 34.411476Q413.6844 34.098976 413.59064 33.3021Q412.325 34.6146 410.575 34.6146Q409.0125 34.6146 408.0125 33.723976Q407.0125 32.83335 407.0125 31.473976Q407.0125 29.833351 408.2625 28.927101Q409.52814 28.005226 411.79376 28.005226L413.5594 28.005226L413.5594 27.177101Q413.5594 26.223976 412.98126 25.661476Q412.41876 25.098976 411.325 25.098976Q410.35626 25.098976 409.7 25.598976Q409.04376 26.083351 409.04376 26.770851L407.23126 26.770851Q407.23126 25.989601 407.79376 25.255226Q408.35626 24.505226 409.3094 24.083351Q410.27814 23.645851 411.4344 23.645851Q413.2625 23.645851 414.29376 24.567726Q415.325 25.473976 415.3719 27.083351L415.3719 31.942726Q415.3719 33.39585 415.73126 34.255226L415.73126 34.411476L413.84064 34.411476ZM410.84064 33.036476Q411.7 33.036476 412.45 32.598976Q413.21564 32.161476 413.5594 31.458351L413.5594 29.286476L412.1375 29.286476Q408.825 29.286476 408.825 31.223976Q408.825 32.08335 409.3875 32.567726Q409.95 33.036476 410.84064 33.036476ZM427.2469 29.239601Q427.2469 31.661476 426.1375 33.14585Q425.04376 34.6146 423.15314 34.6146Q421.23126 34.6146 420.1219 33.380226L420.1219 38.473976L418.325 38.473976L418.325 23.848976L419.96564 23.848976L420.0594 25.020851Q421.15314 23.645851 423.1219 23.645851Q425.02814 23.645851 426.1375 25.083351Q427.2469 26.520851 427.2469 29.083351L427.2469 29.239601ZM425.4344 29.036476Q425.4344 27.255226 424.66876 26.223976Q423.91876 25.177101 422.59064 25.177101Q420.95 25.177101 420.1219 26.630226L420.1219 31.692726Q420.9344 33.130226 422.60626 33.130226Q423.90314 33.130226 424.66876 32.098976Q425.4344 31.067726 425.4344 29.036476ZM431.27814 34.411476L429.48126 34.411476L429.48126 19.411476L431.27814 19.411476L431.27814 34.411476ZM438.7 34.6146Q436.5594 34.6146 435.2 33.20835Q433.85626 31.786476 433.85626 29.427101L433.85626 29.083351Q433.85626 27.520851 434.45 26.286476Q435.0594 25.052101 436.1375 24.348976Q437.21564 23.645851 438.48126 23.645851Q440.54376 23.645851 441.6844 25.005226Q442.825 26.364601 442.825 28.895851L442.825 29.645851L435.66876 29.645851Q435.7 31.208351 436.575 32.1771Q437.45 33.130226 438.79376 33.130226Q439.7625 33.130226 440.41876 32.7396Q441.09064 32.348976 441.59064 31.708351L442.6844 32.567726Q441.35626 34.6146 438.7 34.6146ZM438.48126 25.130226Q437.3875 25.130226 436.6375 25.927101Q435.90314 26.723976 435.73126 28.161476L441.0125 28.161476L441.0125 28.020851Q440.9344 26.645851 440.2625 25.895851Q439.60626 25.130226 438.48126 25.130226ZM444.8719 29.036476Q444.8719 26.614601 446.02814 25.130226Q447.1844 23.645851 449.04376 23.645851Q450.90314 23.645851 451.98126 24.911476L451.98126 19.411476L453.79376 19.411476L453.79376 34.411476L452.1375 34.411476L452.04376 33.27085Q450.96564 34.6146 449.02814 34.6146Q447.2 34.6146 446.02814 33.1146Q444.8719 31.598976 444.8719 29.177101L444.8719 29.036476ZM446.6844 29.239601Q446.6844 31.036476 447.41876 32.0521Q448.16876 33.067726 449.48126 33.067726Q451.2 33.067726 451.98126 31.536476L451.98126 26.677101Q451.1844 25.177101 449.4969 25.177101Q448.16876 25.177101 447.41876 26.208351Q446.6844 27.239601 446.6844 29.239601Z" fill-rule="nonzero"/></svg>