<svg fill="none" height="339" stroke-linecap="square" stroke-miterlimit="10" viewBox="0 0 548 339" width="548" xmlns="http://www.w3.org/2000/svg" xmlns:xlink="http://www.w3.org/1999/xlink"><clipPath id="a"><path d="m147.23132 69.78353h383.81738v231.64872h-383.81738z"/></clipPath><path d="m0 0h548v339h-548z" fill="#fff"/><g stroke-linecap="butt"><path d="m147.5 69.5v232" stroke="#333"/><g stroke="#ccc"><path d="m223.5 69.5v232"/><path d="m300.5 69.5v232"/><path d="m377.5 69.5v232"/><path d="m454.5 69.5v232"/><path d="m531.5 69.5v232"/></g></g><path clip-path="url(#a)" d="m147 168v-64h139c1.10458 0 2 .89543 2 2v60c0 1.10457-.89542 2-2 2z"/><path clip-path="url(#a)" d="m147 168v-64h139c1.10458 0 2 .89543 2 2v60c0 1.10457-.89542 2-2 2z" fill="#e64a19"/><path clip-path="url(#a)" d="m147 267v-64h241c1.10458 0 2 .89543 2 2v60c0 1.10458-.89542 2-2 2z"/><path clip-path="url(#a)" d="m147 267v-64h241c1.10458 0 2 .89543 2 2v60c0 1.10458-.89542 2-2 2z" fill="#e64a19"/><path d="m263.8605 140.5h-1.26562v-8.42188l-2.5625.92188v-1.14062l3.625-1.35938h.20312zm9.875-7.35938q0 .75-.39062 1.32813-.39063.57813-1.0625.90625.78125.34375 1.23437.98438.45313.64062.45313 1.45312 0 1.29688-.875 2.0625-.85938.76562-2.28125.76562-1.4375 0-2.3125-.76562-.85938-.78125-.85938-2.0625 0-.8125.4375-1.45312.4375-.65626 1.21875-.98438-.65625-.32812-1.04687-.90625-.375-.59375-.375-1.32813 0-1.25.79687-1.98437.8125-.75 2.14063-.75 1.3125 0 2.10937.75.8125.73437.8125 1.98437zm-1.03125 4.64063q0-.82813-.53125-1.34375-.53125-.53125-1.39062-.53125-.84375 0-1.35938.51563-.51562.51562-.51562 1.375 0 .84374.5 1.32812.5.48438 1.40625.48438.875 0 1.375-.48438.51562-.5.51562-1.34375zm-1.89062-6.32813q-.75 0-1.21875.46876-.45313.45312-.45313 1.25 0 .75.45313 1.21874.45312.46876 1.20312.46876.76563 0 1.21875-.46876.45313-.46874.45313-1.21874 0-.76563-.46875-1.23438-.46875-.48438-1.1875-.48438zm10.23437 5.70313h1.375v1.03125h-1.375v2.3125h-1.28125v-2.3125h-4.53125v-.75l4.45313-6.89062h1.35937zm-4.375 0h3.09375v-4.875l-.14062.26563z" stroke="#e64a19" stroke-linecap="round" stroke-linejoin="round" stroke-width="3"/><path d="m263.8605 140.5h-1.26562v-8.42188l-2.5625.92188v-1.14062l3.625-1.35938h.20312zm9.875-7.35938q0 .75-.39062 1.32813-.39063.57813-1.0625.90625.78125.34375 1.23437.98438.45313.64062.45313 1.45312 0 1.29688-.875 2.0625-.85938.76562-2.28125.76562-1.4375 0-2.3125-.76562-.85938-.78125-.85938-2.0625 0-.8125.4375-1.45312.4375-.65626 1.21875-.98438-.65625-.32812-1.04687-.90625-.375-.59375-.375-1.32813 0-1.25.79687-1.98437.8125-.75 2.14063-.75 1.3125 0 2.10937.75.8125.73437.8125 1.98437zm-1.03125 4.64063q0-.82813-.53125-1.34375-.53125-.53125-1.39062-.53125-.84375 0-1.35938.51563-.51562.51562-.51562 1.375 0 .84374.5 1.32812.5.48438 1.40625.48438.875 0 1.375-.48438.51562-.5.51562-1.34375zm-1.89062-6.32813q-.75 0-1.21875.46876-.45313.45312-.45313 1.25 0 .75.45313 1.21874.45312.46876 1.20312.46876.76563 0 1.21875-.46876.45313-.46874.45313-1.21874 0-.76563-.46875-1.23438-.46875-.48438-1.1875-.48438zm10.23437 5.70313h1.375v1.03125h-1.375v2.3125h-1.28125v-2.3125h-4.53125v-.75l4.45313-6.89062h1.35937zm-4.375 0h3.09375v-4.875l-.14062.26563z" fill="#fff"/><path d="m362.87576 233.90625h.9375q.90624-.01563 1.40624-.46875.51564-.45312.51564-1.23438 0-1.75-1.73438-1.75-.82812 0-1.3125.46876-.48436.46874-.48436 1.23437h-1.26564q0-1.1875.85938-1.96875.875-.78125 2.20312-.78125 1.40624 0 2.20314.75.79686.75.79686 2.0625 0 .65625-.42186 1.26563-.40626.60937-1.14064.90624.82814.26563 1.26564.875.4531.59376.4531 1.45313 0 1.34375-.875 2.14063-.875.78124-2.28124.78124-1.39062 0-2.28126-.75-.875-.76562-.875-2.01562h1.28126q0 .78125.5 1.26562.51564.46876 1.375.46876.92188 0 1.40624-.48438.4844-.48438.4844-1.375 0-.85938-.53126-1.32812-.53124-.46876-1.54688-.48438h-.9375zm10.3125 5.59375h-1.26562v-8.42188l-2.5625.92188v-1.14062l3.625-1.35938h.20312zm8.8125-9.95312v1.0625h-.23436q-1.4844.03124-2.3594.875-.875.84374-1.0156 2.39062.79686-.90625 2.15624-.90625 1.29686 0 2.0625.92187.78126.90626.78126 2.35938 0 1.54688-.84376 2.46875-.82814.92187-2.23438.92187-1.42186 0-2.3125-1.09374-.89062-1.10938-.89062-2.82813v-.48437q0-2.75 1.17186-4.20313 1.1719-1.45313 3.4844-1.48437zm-1.67186 4.48437q-.64064 0-1.1875.39063-.5469.375-.76564.96874v.46876q0 1.23437.54688 1.98437.5625.75 1.39062.75.85938 0 1.34374-.625.4844-.64063.4844-1.65625 0-1.03125-.5-1.65625-.4844-.625-1.3125-.625z" stroke="#e64a19" stroke-linecap="round" stroke-linejoin="round" stroke-width="3"/><path d="m362.87576 233.90625h.9375q.90624-.01563 1.40624-.46875.51564-.45312.51564-1.23438 0-1.75-1.73438-1.75-.82812 0-1.3125.46876-.48436.46874-.48436 1.23437h-1.26564q0-1.1875.85938-1.96875.875-.78125 2.20312-.78125 1.40624 0 2.20314.75.79686.75.79686 2.0625 0 .65625-.42186 1.26563-.40626.60937-1.14064.90624.82814.26563 1.26564.875.4531.59376.4531 1.45313 0 1.34375-.875 2.14063-.875.78124-2.28124.78124-1.39062 0-2.28126-.75-.875-.76562-.875-2.01562h1.28126q0 .78125.5 1.26562.51564.46876 1.375.46876.92188 0 1.40624-.48438.4844-.48438.4844-1.375 0-.85938-.53126-1.32812-.53124-.46876-1.54688-.48438h-.9375zm10.3125 5.59375h-1.26562v-8.42188l-2.5625.92188v-1.14062l3.625-1.35938h.20312zm8.8125-9.95312v1.0625h-.23436q-1.4844.03124-2.3594.875-.875.84374-1.0156 2.39062.79686-.90625 2.15624-.90625 1.29686 0 2.0625.92187.78126.90626.78126 2.35938 0 1.54688-.84376 2.46875-.82814.92187-2.23438.92187-1.42186 0-2.3125-1.09374-.89062-1.10938-.89062-2.82813v-.48437q0-2.75 1.17186-4.20313 1.1719-1.45313 3.4844-1.48437zm-1.67186 4.48437q-.64064 0-1.1875.39063-.5469.375-.76564.96874v.46876q0 1.23437.54688 1.98437.5625.75 1.39062.75.85938 0 1.34374-.625.4844-.64063.4844-1.65625 0-1.03125-.5-1.65625-.4844-.625-1.3125-.625z" fill="#fff"/><g fill="#666"><path d="m27.731329 122.50843q-.5.734375-1.40625 1.09375-.90625.359375-2.109375.359375-1.21875 0-2.171875-.5625-.9375-.578125-1.453125-1.625-.515625-1.0625-.53125-2.453125v-.859375q0-2.25 1.046875-3.484375 1.0625-1.25 2.953125-1.25 1.5625 0 2.515625.796875.953125.796875 1.15625 2.265625h-1.3125q-.359375-1.984375-2.34375-1.984375-1.328125 0-2.015625.9375-.671875.921875-.671875 2.671875v.8125q0 1.6875.765625 2.671875.765625.984375 2.0625.984375.75 0 1.296875-.15625.5625-.171875.921875-.5625v-2.234375h-2.3125v-1.0625h3.609375zm2.125-2.453125q0-1.09375.421875-1.953125.4375-.875 1.1875-1.34375.765626-.46875 1.750002-.46875 1.5 0 2.4375 1.046875.9375 1.046875.9375 2.78125v.09375q0 1.078125-.421876 1.9375-.40625.84375-1.1875 1.328125-.765624.484375-1.75.484375-1.515626 0-2.453126-1.046875-.921875-1.046875-.921875-2.765625zm1.265625.15625q0 1.21875.5625 1.96875.578126.75 1.546876.75.953126 0 1.515626-.75.578124-.765625.578124-2.125 0-1.21875-.578124-1.96875-.578126-.765625-1.53125-.765625-.9375 0-1.515627.75-.578125.75-.578125 2.140625zm6.734376-.15625q0-1.09375.421876-1.953125.4375-.875 1.1875-1.34375.765624-.46875 1.75-.46875 1.5 0 2.4375 1.046875.9375 1.046875.9375 2.78125v.09375q0 1.078125-.421876 1.9375-.40625.84375-1.1875 1.328125-.765624.484375-1.75.484375-1.515624 0-2.453124-1.046875-.921876-1.046875-.921876-2.765625zm1.265626.15625q0 1.21875.5625 1.96875.578124.75 1.546874.75.953126 0 1.515626-.75.578124-.765625.578124-2.125 0-1.21875-.578124-1.96875-.578126-.765625-1.53125-.765625-.9375 0-1.515626.75-.578124.75-.578124 2.140625zm6.765624-.15625q0-1.703125.796876-2.734375.8125-1.03125 2.109374-1.03125 1.3125 0 2.0625.890625v-3.859375h1.265626v10.5h-1.15625l-.0625-.796875q-.765626.9375-2.109376.9375-1.296874 0-2.109374-1.046875-.796876-1.0625-.796876-2.765625zm1.265626.15625q0 1.25.515624 1.96875.515626.703125 1.4375.703125 1.203126 0 1.75-1.078125v-3.40625q-.5625-1.03125-1.734374-1.03125-.9375 0-1.453126.71875-.515624.703125-.515624 2.125zm11.546874-.28125v3.890625h-1.3125v-9.953125h3.671876q1.625 0 2.546874.84375.9375.828125.9375 2.203125 0 1.4375-.90625 2.234375-.90625.78125-2.59375.78125zm0-1.078125h2.359376q1.046874 0 1.609374-.5.5625-.5.5625-1.421875 0-.890625-.5625-1.421875-.5625-.546875-1.53125-.5625h-2.4375zm10.5625 5.109375q-1.515624 0-2.453124-.984375-.9375-1-.9375-2.65625v-.21875q0-1.109375.421874-1.96875.421876-.875 1.171876-1.359375.75-.484375 1.640624-.484375 1.4375 0 2.234376.953125.796874.9375.796874 2.71875v.515625h-5q.015626 1.09375.625 1.78125.625.671875 1.5625.671875.671876 0 1.125-.265625.46875-.28125.828126-.734375l.765624.59375q-.921874 1.4375-2.78125 1.4375zm-.15625-6.640625q-.765624 0-1.296874.5625-.515626.5625-.640626 1.5625h3.703126v-.09375q-.046876-.96875-.515626-1.5-.46875-.53125-1.25-.53125zm7.65625.234375q-.28125-.046875-.625-.046875-1.234374 0-1.6875 1.0625v5.25h-1.265624v-7.390625h1.234374l.015626.84375q.625-.984375 1.765624-.984375.375 0 .5625.09375zm2.046876 6.265625v-6.421875h-1.171876v-.96875h1.171876v-.765625q0-1.1875.625-1.828125.640624-.65625 1.8125-.65625.4375 0 .859374.109375l-.0625 1.03125q-.328124-.0625-.6875-.0625-.609374 0-.953124.359375-.328126.359375-.328126 1.03125v.78125h1.578126v.96875h-1.578126v6.421875zm4.046874-3.765625q0-1.09375.421876-1.953125.4375-.875 1.1875-1.34375.765624-.46875 1.75-.46875 1.5 0 2.4375 1.046875.9375 1.046875.9375 2.78125v.09375q0 1.078125-.421876 1.9375-.40625.84375-1.1875 1.328125-.765624.484375-1.75.484375-1.515624 0-2.453124-1.046875-.921876-1.046875-.921876-2.765625zm1.265626.15625q0 1.21875.5625 1.96875.578124.75 1.546874.75.953126 0 1.515626-.75.578124-.765625.578124-2.125 0-1.21875-.578124-1.96875-.578126-.765625-1.53125-.765625-.9375 0-1.515626.75-.578124.75-.578124 2.140625zm10.640624-2.65625q-.28125-.046875-.625-.046875-1.234374 0-1.6875 1.0625v5.25h-1.265624v-7.390625h1.234374l.015626.84375q.625-.984375 1.765624-.984375.375 0 .5625.09375zm2.609376-1.125.046874.8125q.8125-.953125 2.1875-.953125 1.546876 0 2.109376 1.1875.375-.53125.96875-.859375.59375-.328125 1.390624-.328125 2.4375 0 2.484376 2.578125v4.953125h-1.265626v-4.875q0-.796875-.375-1.1875-.359374-.390625-1.203124-.390625-.71875 0-1.1875.421875-.453126.40625-.53125 1.125v4.90625h-1.265626v-4.84375q0-1.609375-1.578124-1.609375-1.25 0-1.703126 1.046875v5.40625h-1.265624v-7.390625zm15.390624 7.390625q-.109374-.21875-.1875-.78125-.875.921875-2.109374.921875-1.09375 0-1.796876-.609375-.6875-.625-.6875-1.578125 0-1.15625.875-1.796875.875-.640625 2.46875-.640625h1.234376v-.578125q0-.671875-.40625-1.0625-.390626-.390625-1.15625-.390625-.6875 0-1.140626.34375-.453124.34375-.453124.828125h-1.28125q0-.5625.390624-1.078125.40625-.515625 1.078126-.8125.671874-.296875 1.46875-.296875 1.28125 0 2 .640625.734374.640625.765624 1.75v3.40625q0 1.015625.25 1.625v.109375zm-2.109374-.96875q.59375 0 1.125-.296875.546874-.3125.78125-.8125v-1.515625h-1q-2.3125 0-2.3125 1.359375 0 .59375.390624.9375.390626.328125 1.015626.328125zm6.734374-6.421875.03125.921875q.859376-1.0625 2.21875-1.0625 2.34375 0 2.375 2.640625v4.890625h-1.265624v-4.890625q-.015626-.796875-.375-1.171875-.359376-.390625-1.109376-.390625-.625 0-1.09375.328125-.453124.328125-.71875.859375v5.265625h-1.265624v-7.390625zm9.765626 6.5q.671874 0 1.171864-.40625.51563-.421875.57813-1.03125h1.1875q-.03125.625-.4375 1.203125-.40625.578125-1.07813.921875-.671864.34375-1.421864.34375-1.515626 0-2.40625-1-.890626-1.015625-.890626-2.765625v-.21875q0-1.078125.390626-1.921875.40625-.84375 1.140624-1.296875.75-.46875 1.765626-.46875 1.234364 0 2.062494.75.82812.734375.875 1.921875h-1.1875q-.0625-.71875-.54688-1.171875-.484364-.46875-1.203114-.46875-.96875 0-1.5.703125-.53125.6875-.53125 2v.234375q0 1.28125.53125 1.984375.53125.6875 1.5.6875zm7.109364 1.03125q-1.51562 0-2.45312-.984375-.9375-1-.9375-2.65625v-.21875q0-1.109375.42187-1.96875.42188-.875 1.17188-1.359375.75-.484375 1.64062-.484375 1.4375 0 2.23438.953125.79687.9375.79687 2.71875v.515625h-5q.01563 1.09375.625 1.78125.625.671875 1.5625.671875.67188 0 1.125-.265625.46875-.28125.82813-.734375l.76562.59375q-.92187 1.4375-2.78125 1.4375zm-.15625-6.640625q-.76562 0-1.29687.5625-.51563.5625-.64063 1.5625h3.70313v-.09375q-.04688-.96875-.51563-1.5-.46875-.53125-1.25-.53125zm4.10938 5.84375q0-.328125.1875-.546875.20312-.21875.59375-.21875.39062 0 .59375.21875.20312.21875.20312.546875 0 .3125-.20312.53125-.20313.203125-.59375.203125-.39063 0-.59375-.203125-.1875-.21875-.1875-.53125zm0-6q0-.328125.1875-.546875.20312-.21875.59375-.21875.39062 0 .59375.21875.20312.21875.20312.546875 0 .3125-.20312.53125-.20313.203125-.59375.203125-.39063 0-.59375-.203125-.1875-.21875-.1875-.53125z"/><path d="m41.38758 140.82094v-9.95313h2.8125q1.296876 0 2.296876.57813 1 .5625 1.53125 1.625.546874 1.0625.5625 2.4375v.64062q0 1.40625-.546876 2.46875-.546874 1.04688-1.5625 1.625-1 .5625-2.34375.57813zm1.3125-8.875v7.79687h1.375q1.515626 0 2.359376-.9375.859374-.9375.859374-2.6875v-.57812q0-1.70313-.796874-2.64063-.796876-.9375-2.265626-.95312zm10.984376 7.125 2.84375-8.20313h1.4375l-3.703126 9.95313h-1.15625l-3.6875-9.95313h1.4375zm5.75 2.60937h-1.078126l4.15625-10.8125h1.078126zm13.609374-5.51562q0 1.46875-.5 2.5625-.484374 1.07812-1.390624 1.65625-.90625.57812-2.109376.57812-1.171874 0-2.078124-.57812-.90625-.57813-1.40625-1.64063-.5-1.07812-.515626-2.48437v-.71875q0-1.4375.5-2.53125.5-1.10938 1.40625-1.6875.90625-.59375 2.09375-.59375 1.1875 0 2.09375.57812.921876.57813 1.40625 1.6875.5 1.09375.5 2.54688zm-1.3125-.64063q0-1.76562-.71875-2.71875-.703124-.95312-1.96875-.95312-1.25 0-1.96875.95312-.703124.95313-.734374 2.625v.73438q0 1.71875.71875 2.70312.734374.96875 1.984374.96875 1.28125 0 1.96875-.92187.703126-.92188.71875-2.65625zm6.953126 3.54688 2.84375-8.20313h1.4375l-3.703126 9.95313h-1.15625l-3.6875-9.95313h1.4375zm11.46875.85937q.671874 0 1.171874-.40625.515626-.42187.578126-1.03125h1.1875q-.03125.625-.4375 1.20313-.40625.57812-1.078126.92187-.671874.34375-1.421874.34375-1.515626 0-2.40625-1-.890626-1.01562-.890626-2.76562v-.21875q0-1.07813.390626-1.92188.40625-.84375 1.140624-1.29687.75-.46875 1.765626-.46875 1.234374 0 2.0625.75.828124.73437.875 1.92187h-1.1875q-.0625-.71875-.546876-1.17187-.484374-.46875-1.203124-.46875-.96875 0-1.5.70312-.53125.6875-.53125 2v.23438q0 1.28125.53125 1.98437.53125.6875 1.5.6875zm7.109374 1.03125q-1.515624 0-2.453124-.98437-.9375-1-.9375-2.65625v-.21875q0-1.10938.421874-1.96875.421876-.875 1.171876-1.35938.75-.48437 1.640624-.48437 1.4375 0 2.234376.95312.796874.9375.796874 2.71875v.51563h-5q.015626 1.09375.625 1.78125.625.67187 1.5625.67187.671876 0 1.125-.26562.46875-.28125.828126-.73438l.765624.59375q-.921874 1.4375-2.78125 1.4375zm-.15625-6.64062q-.765624 0-1.296874.5625-.515626.5625-.640626 1.5625h3.703126v-.09375q-.046876-.96875-.515626-1.5-.46875-.53125-1.25-.53125zm7.65625.23437q-.28125-.04687-.625-.04687-1.234374 0-1.6875 1.0625v5.25h-1.265624v-7.39063h1.234374l.015626.84375q.625-.98437 1.765624-.98437.375 0 .5625.09375zm3.140626-2.92187v1.79687h1.375v.96875h-1.375v4.59375q0 .4375.1875.67188.1875.21875.625.21875.21875 0 .609374-.09375v1.03125q-.5.14062-.96875.14062-.859374 0-1.296874-.51562-.421876-.51563-.421876-1.45313v-4.59375h-1.34375v-.96875h1.34375v-1.79687zm12.828124 7.4375 1.421876-5.64063h1.265624l-2.140624 7.39063h-1.03125l-1.796876-5.60938-1.75 5.60938h-1.03125l-2.140624-7.39063h1.25l1.46875 5.53125 1.71875-5.53125h1.015624zm5.828126 1.75h-1.265626v-7.39063h1.265626zm-1.359376-9.35938q0-.3125.1875-.51562.1875-.21875.546876-.21875.375 0 .5625.21875.203124.20312.203124.51562 0 .3125-.203124.51563-.1875.20312-.5625.20312-.359376 0-.546876-.20312-.1875-.20313-.1875-.51563zm4.70312.17188v1.79687h1.375v.96875h-1.375v4.59375q0 .4375.1875.67188.1875.21875.625.21875.21875 0 .60937-.09375v1.03125q-.5.14062-.96875.14062-.85937 0-1.29687-.51562-.42188-.51563-.42188-1.45313v-4.59375h-1.34374v-.96875h1.34374v-1.79687zm4.54687 2.6875q.84375-1.03125 2.1875-1.03125 2.34375 0 2.375 2.64062v4.89063h-1.26562v-4.89063q-.01563-.79687-.375-1.17187-.35938-.39063-1.10938-.39063-.625 0-1.09375.32813-.45312.32812-.71875.85937v5.26563h-1.26562v-10.5h1.26562z"/><path d="m59.04383 153.16469q0 1.46875-.5 2.5625-.484374 1.07812-1.390624 1.65625-.90625.57812-2.109376.57812-1.171874 0-2.078124-.57812-.90625-.57813-1.40625-1.64063-.5-1.07812-.515626-2.48437v-.71875q0-1.4375.5-2.53125.5-1.10938 1.40625-1.6875.90625-.59375 2.09375-.59375 1.1875 0 2.09375.57812.921876.57813 1.40625 1.6875.5 1.09375.5 2.54688zm-1.3125-.64063q0-1.76562-.71875-2.71875-.703124-.95312-1.96875-.95312-1.25 0-1.96875.95312-.703124.95313-.734374 2.625v.73438q0 1.71875.71875 2.70312.734374.96875 1.984374.96875 1.28125 0 1.96875-.92187.703126-.92188.71875-2.65625zm10.984376 2.14063q-.1875 1.57812-1.171876 2.4375-.984374.85937-2.609374.85937-1.765626 0-2.828126-1.26562-1.0625-1.26563-1.0625-3.39063v-.95312q0-1.39063.5-2.4375.5-1.0625 1.40625-1.625.90625-.5625 2.09375-.5625 1.59375 0 2.546876.89062.953124.89063 1.125 2.45313h-1.328126q-.171874-1.1875-.75-1.71875-.5625-.54688-1.59375-.54688-1.25 0-1.96875.9375-.703124.92188-.703124 2.64063v.96875q0 1.625.671874 2.57812.671876.95313 1.890626.95313 1.09375 0 1.671874-.48438.59375-.5.78125-1.73437zm4.609374-1.28125q-1.6875-.48438-2.46875-1.1875-.765624-.71875-.765624-1.75 0-1.17188.9375-1.9375.9375-.78125 2.453124-.78125 1.015626 0 1.8125.40625.8125.39062 1.25 1.09375.453126.6875.453126 1.51562h-1.328126q0-.90625-.578124-1.42187-.5625-.51563-1.609376-.51563-.96875 0-1.515624.4375-.546876.42188-.546876 1.1875 0 .60938.515626 1.03125.515624.40625 1.75.76563 1.25.34375 1.953124.76562.703126.42188 1.03125.98438.34375.5625.34375 1.3125 0 1.21875-.953124 1.95312-.9375.71875-2.515626.71875-1.03125 0-1.921874-.39062-.875-.40625-1.359376-1.07813-.484374-.6875-.484374-1.5625h1.3125q0 .90625.671874 1.4375.671876.51563 1.78125.51563 1.046876 0 1.59375-.42188.546876-.42187.546876-1.15625 0-.73437-.515626-1.125-.5-.40625-1.84375-.79687zm6.375.54687v3.89063h-1.3125v-9.95313h3.671876q1.625 0 2.546874.84375.9375.82813.9375 2.20313 0 1.4375-.90625 2.23437-.90625.78125-2.59375.78125zm0-1.07812h2.359376q1.046874 0 1.609374-.5.5625-.5.5625-1.42188 0-.89062-.5625-1.42187-.5625-.54688-1.53125-.5625h-2.4375zm13.625.53125q-1.6875-.48438-2.46875-1.1875-.765624-.71875-.765624-1.75 0-1.17188.9375-1.9375.9375-.78125 2.453124-.78125 1.015626 0 1.8125.40625.8125.39062 1.25 1.09375.453126.6875.453126 1.51562h-1.328126q0-.90625-.578124-1.42187-.5625-.51563-1.609376-.51563-.96875 0-1.515624.4375-.546876.42188-.546876 1.1875 0 .60938.515626 1.03125.515624.40625 1.75.76563 1.25.34375 1.953124.76562.703126.42188 1.03125.98438.34375.5625.34375 1.3125 0 1.21875-.953124 1.95312-.9375.71875-2.515626.71875-1.03125 0-1.921874-.39062-.875-.40625-1.359376-1.07813-.484374-.6875-.484374-1.5625h1.3125q0 .90625.671874 1.4375.671876.51563 1.78125.51563 1.046876 0 1.59375-.42188.546876-.42187.546876-1.15625 0-.73437-.515626-1.125-.5-.40625-1.84375-.79687zm6.578126-4.75v1.79687h1.375v.96875h-1.375v4.59375q0 .4375.1875.67188.1875.21875.625.21875.21875 0 .609374-.09375v1.03125q-.5.14062-.96875.14062-.859374 0-1.296874-.51562-.421876-.51563-.421876-1.45313v-4.59375h-1.34375v-.96875h1.34375v-1.79687zm7.859374 9.1875q-.109374-.21875-.1875-.78125-.875.92187-2.109374.92187-1.09375 0-1.796876-.60937-.6875-.625-.6875-1.57813 0-1.15625.875-1.79687.875-.64063 2.46875-.64063h1.234376v-.57812q0-.67188-.40625-1.0625-.390626-.39063-1.15625-.39063-.6875 0-1.140626.34375-.453124.34375-.453124.82813h-1.28125q0-.5625.390624-1.07813.40625-.51562 1.078126-.8125.671874-.29687 1.46875-.29687 1.28125 0 2 .64062.734374.64063.765624 1.75v3.40625q0 1.01563.25 1.625v.10938zm-2.109374-.96875q.59375 0 1.125-.29688.546874-.3125.78125-.8125v-1.51562h-1q-2.3125 0-2.3125 1.35937 0 .59375.390624.9375.390626.32813 1.015626.32813zm11.78125-2.64063q0 1.6875-.78125 2.71875-.765626 1.03125-2.078126 1.03125-1.34375 0-2.125-.85937v3.5625h-1.265624v-10.23438h1.15625l.0625.8125q.78125-.95312 2.15625-.95312 1.328124 0 2.09375 1 .78125 1 .78125 2.79687zm-1.265626-.15625q0-1.25-.53125-1.96875-.53125-.71875-1.46875-.71875-1.140624 0-1.71875 1.01563v3.53125q.578126 1.01562 1.734376 1.01562.921874 0 1.453124-.71875.53125-.73437.53125-2.15625zm4.390626 3.76563h-1.265626v-10.5h1.265626zm3 0h-1.265626v-7.39063h1.265626zm-1.359376-9.35938q0-.3125.1875-.51562.1875-.21875.546876-.21875.375 0 .5625.21875.203124.20312.203124.51562 0 .3125-.203124.51563-.1875.20312-.5625.20312-.359376 0-.546876-.20312-.1875-.20313-.1875-.51563zm4.1875 1.96875.03125.92188q.859376-1.0625 2.21874-1.0625 2.34375 0 2.375 2.64062v4.89063h-1.26562v-4.89063q-.01563-.79687-.375-1.17187-.35938-.39063-1.10938-.39063-.62499 0-1.09374.32813-.453124.32812-.71875.85937v5.26563h-1.265624v-7.39063zm6.49999 3.625q0-1.71875.79688-2.73437.79687-1.03125 2.125-1.03125 1.34375 0 2.10937.95312l.0625-.8125h1.15625v7.21875q0 1.4375-.85937 2.25-.84375.82813-2.28125.82813-.79688 0-1.5625-.34375-.76563-.32813-1.17188-.92188l.65625-.76562q.8125 1 1.98438 1 .92187 0 1.4375-.51563.53125-.51562.53125-1.46875v-.625q-.76563.875-2.07813.875-1.29687 0-2.10937-1.04687-.79688-1.04688-.79688-2.85938zm1.26563.15625q0 1.25.51562 1.96875.51563.70313 1.4375.70313 1.20313 0 1.76563-1.09375v-3.375q-.59375-1.04688-1.75-1.04688-.92188 0-1.45313.71875-.51562.70313-.51562 2.125z"/><path d="m29.387579 213.89485v-9.95312h3.250001q1.625 0 2.4375.67187.8125.67188.8125 1.98438 0 .6875-.390624 1.23437-.390626.53125-1.078126.82813.8125.21875 1.28125.85937.46875.625.46875 1.5 0 1.34375-.875 2.10938-.875.76562-2.453124.76562zm1.3125-4.65625v3.57813h2.171877q.90625 0 1.4375-.46875.53125-.48438.53125-1.3125 0-1.79688-1.953126-1.79688zm0-1.04687h1.984377q.859374 0 1.375-.42188.515624-.4375.515624-1.1875 0-.8125-.484374-1.1875-.46875-.375-1.453126-.375h-1.937501zm12.062501 5.70312q-.109374-.21875-.1875-.78125-.875.92188-2.109374.92188-1.09375 0-1.796876-.60938-.6875-.625-.6875-1.57812 0-1.15625.875-1.79688.875-.64062 2.46875-.64062h1.234376v-.57813q0-.67187-.40625-1.0625-.390626-.39062-1.15625-.39062-.6875 0-1.140626.34375-.453124.34375-.453124.82812h-1.28125q0-.5625.390624-1.07812.40625-.51563 1.078126-.8125.671874-.29688 1.46875-.29688 1.28125 0 2 .64063.734374.64062.765624 1.75v3.40625q0 1.01562.25 1.625v.10937zm-2.109374-.96875q.59375 0 1.125-.29687.546874-.3125.78125-.8125v-1.51563h-1q-2.3125 0-2.3125 1.35938 0 .59375.390624.9375.390626.32812 1.015626.32812zm5.234374-2.79687q0-1.70313.796876-2.73438.8125-1.03125 2.109374-1.03125 1.3125 0 2.0625.89063v-3.85938h1.265626v10.5h-1.15625l-.0625-.79687q-.765626.9375-2.109376.9375-1.296874 0-2.109374-1.04688-.796876-1.0625-.796876-2.76562zm1.265626.15625q0 1.25.515624 1.96875.515626.70312 1.4375.70312 1.203126 0 1.75-1.07812v-3.40625q-.5625-1.03125-1.734374-1.03125-.9375 0-1.453126.71875-.515624.70312-.515624 2.125zm11.546874-.28125v3.89062h-1.3125v-9.95312h3.671876q1.625 0 2.546874.84375.9375.82812.9375 2.20312 0 1.4375-.90625 2.23438-.90625.78125-2.59375.78125zm0-1.07813h2.359376q1.046874 0 1.609374-.5.5625-.5.5625-1.42187 0-.89063-.5625-1.42188-.5625-.54687-1.53125-.5625h-2.4375zm10.5625 5.10938q-1.515624 0-2.453124-.98438-.9375-1-.9375-2.65625v-.21875q0-1.10937.421874-1.96875.421876-.875 1.171876-1.35937.75-.48438 1.640624-.48438 1.4375 0 2.234376.95313.796874.9375.796874 2.71875v.51562h-5q.015626 1.09375.625 1.78125.625.67188 1.5625.67188.671876 0 1.125-.26563.46875-.28125.828126-.73437l.765624.59375q-.921874 1.4375-2.78125 1.4375zm-.15625-6.64063q-.765624 0-1.296874.5625-.515626.5625-.640626 1.5625h3.703126v-.09375q-.046876-.96875-.515626-1.5-.46875-.53125-1.25-.53125zm7.65625.23438q-.28125-.04688-.625-.04688-1.234374 0-1.6875 1.0625v5.25h-1.265624v-7.39062h1.234374l.015626.84375q.625-.98438 1.765624-.98438.375 0 .5625.09375zm2.046876 6.26562v-6.42187h-1.171876v-.96875h1.171876v-.76563q0-1.1875.625-1.82812.640624-.65625 1.8125-.65625.4375 0 .859374.10937l-.0625 1.03125q-.328124-.0625-.6875-.0625-.609374 0-.953124.35938-.328126.35937-.328126 1.03125v.78125h1.578126v.96875h-1.578126v6.42187zm4.046874-3.76562q0-1.09375.421876-1.95313.4375-.875 1.1875-1.34375.765624-.46875 1.75-.46875 1.5 0 2.4375 1.04688.9375 1.04687.9375 2.78125v.09375q0 1.07812-.421876 1.9375-.40625.84375-1.1875 1.32812-.765624.48438-1.75.48438-1.515624 0-2.453124-1.04688-.921876-1.04687-.921876-2.76562zm1.265626.15625q0 1.21875.5625 1.96875.578124.75 1.546874.75.953126 0 1.515626-.75.578124-.76563.578124-2.125 0-1.21875-.578124-1.96875-.578126-.76563-1.53125-.76563-.9375 0-1.515626.75-.578124.75-.578124 2.14063zm10.640624-2.65625q-.28125-.04688-.625-.04688-1.234374 0-1.6875 1.0625v5.25h-1.265624v-7.39062h1.234374l.015626.84375q.625-.98438 1.765624-.98438.375 0 .5625.09375zm2.609376-1.125.046874.8125q.8125-.95313 2.1875-.95313 1.546876 0 2.109376 1.1875.375-.53125.96875-.85937.59375-.32813 1.390624-.32813 2.4375 0 2.484376 2.57813v4.95312h-1.265626v-4.875q0-.79687-.375-1.1875-.359374-.39062-1.203124-.39062-.71875 0-1.1875.42187-.453126.40625-.53125 1.125v4.90625h-1.265626v-4.84375q0-1.60937-1.578124-1.60937-1.25 0-1.703126 1.04687v5.40625h-1.265624v-7.39062zm15.390624 7.39062q-.109374-.21875-.1875-.78125-.875.92188-2.109374.92188-1.09375 0-1.796876-.60938-.6875-.625-.6875-1.57812 0-1.15625.875-1.79688.875-.64062 2.46875-.64062h1.234376v-.57813q0-.67187-.40625-1.0625-.390626-.39062-1.15625-.39062-.6875 0-1.140626.34375-.453124.34375-.453124.82812h-1.28125q0-.5625.390624-1.07812.40625-.51563 1.078126-.8125.671874-.29688 1.46875-.29688 1.28125 0 2 .64063.734374.64062.765624 1.75v3.40625q0 1.01562.25 1.625v.10937zm-2.109374-.96875q.59375 0 1.125-.29687.546874-.3125.78125-.8125v-1.51563h-1q-2.3125 0-2.3125 1.35938 0 .59375.390624.9375.390626.32812 1.015626.32812zm6.734374-6.42187.03125.92187q.859376-1.0625 2.21875-1.0625 2.34375 0 2.375 2.64063v4.89062h-1.265624v-4.89062q-.015626-.79688-.375-1.17188-.359376-.39062-1.109376-.39062-.625 0-1.09375.32812-.453124.32813-.71875.85938v5.26562h-1.265624v-7.39062zm9.765626 6.5q.671874 0 1.171864-.40625.51563-.42188.57813-1.03125h1.1875q-.03125.625-.4375 1.20312-.40625.57813-1.07813.92188-.671864.34375-1.421864.34375-1.515626 0-2.40625-1-.890626-1.01563-.890626-2.76563v-.21875q0-1.07812.390626-1.92187.40625-.84375 1.140624-1.29688.75-.46875 1.765626-.46875 1.234364 0 2.062494.75.82812.73438.875 1.92188h-1.1875q-.0625-.71875-.54688-1.17188-.484364-.46875-1.203114-.46875-.96875 0-1.5.70313-.53125.6875-.53125 2v.23437q0 1.28125.53125 1.98438.53125.6875 1.5.6875zm7.109364 1.03125q-1.51562 0-2.45312-.98438-.9375-1-.9375-2.65625v-.21875q0-1.10937.42187-1.96875.42188-.875 1.17188-1.35937.75-.48438 1.64062-.48438 1.4375 0 2.23438.95313.79687.9375.79687 2.71875v.51562h-5q.01563 1.09375.625 1.78125.625.67188 1.5625.67188.67188 0 1.125-.26563.46875-.28125.82813-.73437l.76562.59375q-.92187 1.4375-2.78125 1.4375zm-.15625-6.64063q-.76562 0-1.29687.5625-.51563.5625-.64063 1.5625h3.70313v-.09375q-.04688-.96875-.51563-1.5-.46875-.53125-1.25-.53125zm4.10938 5.84375q0-.32812.1875-.54687.20312-.21875.59375-.21875.39062 0 .59375.21875.20312.21875.20312.54687 0 .3125-.20312.53125-.20313.20313-.59375.20313-.39063 0-.59375-.20313-.1875-.21875-.1875-.53125zm0-6q0-.32812.1875-.54687.20312-.21875.59375-.21875.39062 0 .59375.21875.20312.21875.20312.54687 0 .3125-.20312.53125-.20313.20313-.59375.20313-.39063 0-.59375-.20313-.1875-.21875-.1875-.53125z"/><path d="m41.01258 226.3011h-4.3125v3.51563h5.015626v1.07812h-6.328126v-9.95312h6.25v1.07812h-4.9375v3.20313h4.3125zm5.671876 2.84375 2.84375-8.20312h1.4375l-3.703126 9.95312h-1.15625l-3.6875-9.95312h1.4375zm11.46875.85938q.671874 0 1.171874-.40625.515626-.42188.578126-1.03125h1.1875q-.03125.625-.4375 1.20312-.40625.57813-1.078126.92188-.671874.34375-1.421874.34375-1.515626 0-2.40625-1-.890626-1.01563-.890626-2.76563v-.21875q0-1.07812.390626-1.92187.40625-.84375 1.140624-1.29688.75-.46875 1.765626-.46875 1.234374 0 2.0625.75.828124.73438.875 1.92188h-1.1875q-.0625-.71875-.546876-1.17188-.484374-.46875-1.203124-.46875-.96875 0-1.5.70313-.53125.6875-.53125 2v.23437q0 1.28125.53125 1.98438.53125.6875 1.5.6875zm7.109374 1.03125q-1.515624 0-2.453124-.98438-.9375-1-.9375-2.65625v-.21875q0-1.10937.421874-1.96875.421876-.875 1.171876-1.35937.75-.48438 1.640624-.48438 1.4375 0 2.234376.95313.796874.9375.796874 2.71875v.51562h-5q.015626 1.09375.625 1.78125.625.67188 1.5625.67188.671876 0 1.125-.26563.46875-.28125.828126-.73437l.765624.59375q-.921874 1.4375-2.78125 1.4375zm-.15625-6.64063q-.765624 0-1.296874.5625-.515626.5625-.640626 1.5625h3.703126v-.09375q-.046876-.96875-.515626-1.5-.46875-.53125-1.25-.53125zm7.65625.23438q-.28125-.04688-.625-.04688-1.234374 0-1.6875 1.0625v5.25h-1.265624v-7.39062h1.234374l.015626.84375q.625-.98438 1.765624-.98438.375 0 .5625.09375zm3.140626-2.92188v1.79688h1.375v.96875h-1.375v4.59375q0 .4375.1875.67187.1875.21875.625.21875.21875 0 .609374-.09375v1.03125q-.5.14063-.96875.14063-.859374 0-1.296874-.51563-.421876-.51562-.421876-1.45312v-4.59375h-1.34375v-.96875h1.34375v-1.79688zm5.953124 5.42188q0-1.09375.421876-1.95313.4375-.875 1.1875-1.34375.765624-.46875 1.75-.46875 1.5 0 2.4375 1.04688.9375 1.04687.9375 2.78125v.09375q0 1.07812-.421876 1.9375-.40625.84375-1.1875 1.32812-.765624.48438-1.75.48438-1.515624 0-2.453124-1.04688-.921876-1.04687-.921876-2.76562zm1.265626.15625q0 1.21875.5625 1.96875.578124.75 1.546874.75.953126 0 1.515626-.75.578124-.76563.578124-2.125 0-1.21875-.578124-1.96875-.578126-.76563-1.53125-.76563-.9375 0-1.515626.75-.578124.75-.578124 2.14063zm10.640624-2.65625q-.28125-.04688-.625-.04688-1.234374 0-1.6875 1.0625v5.25h-1.265624v-7.39062h1.234374l.015626.84375q.625-.98438 1.765624-.98438.375 0 .5625.09375zm4.625 6.26562v-9.95312h2.8125q1.296876 0 2.296876.57812 1 .5625 1.53125 1.625.546874 1.0625.5625 2.4375v.64063q0 1.40625-.546876 2.46875-.546874 1.04687-1.5625 1.625-1 .5625-2.34375.57812zm1.3125-8.875v7.79688h1.375q1.515626 0 2.359376-.9375.859374-.9375.859374-2.6875v-.57813q0-1.70312-.796874-2.64062-.796876-.9375-2.265626-.95313zm10.984376 7.125 2.84375-8.20312h1.4375l-3.703126 9.95312h-1.15625l-3.6875-9.95312h1.4375zm5.75 2.60938h-1.078126l4.15625-10.8125h1.078126zm13.609364-5.51563q0 1.46875-.5 2.5625-.48437 1.07813-1.39062 1.65625-.906244.57813-2.10937.57813-1.171874 0-2.078124-.57813-.90625-.57812-1.40625-1.64062-.5-1.07813-.515626-2.48438v-.71875q0-1.4375.5-2.53125.5-1.10937 1.40625-1.6875.90625-.59375 2.09375-.59375 1.1875 0 2.09374.57813.92188.57812 1.40625 1.6875.5 1.09375.5 2.54687zm-1.3125-.64062q0-1.76563-.71875-2.71875-.703114-.95313-1.96874-.95313-1.25 0-1.96875.95313-.703124.95312-.734374 2.625v.73437q0 1.71875.71875 2.70313.734374.96875 1.984374.96875 1.28125 0 1.96874-.92188.70313-.92187.71875-2.65625zm6.95313 3.54687 2.84375-8.20312h1.4375l-3.70313 9.95312h-1.15625l-3.6875-9.95312h1.4375z"/><path d="m30.153204 247.00423q.671875 0 1.171875-.40625.515625-.42188.578125-1.03125h1.187502q-.03125.625-.4375 1.20312-.40625.57813-1.078127.92188-.671875.34375-1.421875.34375-1.515625 0-2.40625-1-.890625-1.01563-.890625-2.76563v-.21875q0-1.07812.390625-1.92187.40625-.84375 1.140625-1.29688.75-.46875 1.765625-.46875 1.234375 0 2.062502.75.828124.73438.875 1.92188h-1.187502q-.0625-.71875-.546875-1.17188-.484375-.46875-1.203125-.46875-.96875 0-1.5.70313-.53125.6875-.53125 2v.23437q0 1.28125.53125 1.98438.53125.6875 1.5.6875zm7.109376 1.03125q-1.515624 0-2.453124-.98438-.9375-1-.9375-2.65625v-.21875q0-1.10937.421874-1.96875.421876-.875 1.171876-1.35937.75-.48438 1.640624-.48438 1.4375 0 2.234376.95313.796874.9375.796874 2.71875v.51562h-5q.015626 1.09375.625 1.78125.625.67188 1.5625.67188.671876 0 1.125-.26563.46875-.28125.828126-.73437l.765624.59375q-.921874 1.4375-2.78125 1.4375zm-.15625-6.64063q-.765624 0-1.296874.5625-.515626.5625-.640626 1.5625h3.703126v-.09375q-.046876-.96875-.515626-1.5-.46875-.53125-1.25-.53125zm7.65625.23438q-.28125-.04688-.625-.04688-1.234374 0-1.6875 1.0625v5.25h-1.265624v-7.39062h1.234374l.015626.84375q.625-.98438 1.765624-.98438.375 0 .5625.09375zm3.140626-2.92188v1.79688h1.375v.96875h-1.375v4.59375q0 .4375.1875.67187.1875.21875.625.21875.21875 0 .609374-.09375v1.03125q-.5.14063-.96875.14063-.859374 0-1.296874-.51563-.421876-.51562-.421876-1.45312v-4.59375h-1.34375v-.96875h1.34375v-1.79688zm12.828124 7.4375 1.421876-5.64062h1.265624l-2.140624 7.39062h-1.03125l-1.796876-5.60937-1.75 5.60937h-1.03125l-2.140624-7.39062h1.25l1.46875 5.53125 1.71875-5.53125h1.015624zm5.828126 1.75h-1.265626v-7.39062h1.265626zm-1.359376-9.35937q0-.3125.1875-.51563.1875-.21875.546876-.21875.375 0 .5625.21875.203124.20313.203124.51563 0 .3125-.203124.51562-.1875.20313-.5625.20313-.359376 0-.546876-.20313-.1875-.20312-.1875-.51562zm4.703126.17187v1.79688h1.375v.96875h-1.375v4.59375q0 .4375.1875.67187.1875.21875.625.21875.21875 0 .609374-.09375v1.03125q-.5.14063-.96875.14063-.859374 0-1.296874-.51563-.421876-.51562-.421876-1.45312v-4.59375h-1.34375v-.96875h1.34375v-1.79688zm4.546874 2.6875q.84375-1.03125 2.1875-1.03125 2.34375 0 2.375 2.64063v4.89062h-1.265624v-4.89062q-.015626-.79688-.375-1.17188-.359376-.39062-1.109376-.39062-.625 0-1.09375.32812-.453124.32813-.71875.85938v5.26562h-1.265624v-10.5h1.265624zm6.40625 2.73438q0-1.09375.421876-1.95313.4375-.875 1.1875-1.34375.765624-.46875 1.75-.46875 1.5 0 2.4375 1.04688.9375 1.04687.9375 2.78125v.09375q0 1.07812-.421876 1.9375-.40625.84375-1.1875 1.32812-.765624.48438-1.75.48438-1.515624 0-2.453124-1.04688-.921876-1.04687-.921876-2.76562zm1.265626.15625q0 1.21875.5625 1.96875.578124.75 1.546874.75.953126 0 1.515626-.75.578124-.76563.578124-2.125 0-1.21875-.578124-1.96875-.578126-.76563-1.53125-.76563-.9375 0-1.515626.75-.578124.75-.578124 2.14063zm11.640624 2.875q-.75.875-2.171874.875-1.1875 0-1.8125-.6875-.609376-.6875-.609376-2.03125v-4.8125h1.25v4.76562q0 1.6875 1.375 1.6875 1.453126 0 1.921876-1.07812v-5.375h1.265624v7.39062h-1.203124zm5.140626-8.45313v1.79688h1.375v.96875h-1.375v4.59375q0 .4375.1875.67187.1875.21875.625.21875.21875 0 .609374-.09375v1.03125q-.5.14063-.96875.14063-.859374 0-1.296874-.51563-.421876-.51562-.421876-1.45312v-4.59375h-1.34375v-.96875h1.34375v-1.79688zm14.140624 4.53125q0 1.46875-.5 2.5625-.484374 1.07813-1.390624 1.65625-.90625.57813-2.109376.57813-1.171874 0-2.078124-.57813-.90625-.57812-1.40625-1.64062-.5-1.07813-.515626-2.48438v-.71875q0-1.4375.5-2.53125.5-1.10937 1.40625-1.6875.90625-.59375 2.09375-.59375 1.1875 0 2.09375.57813.921876.57812 1.40625 1.6875.5 1.09375.5 2.54687zm-1.3125-.64062q0-1.76563-.71875-2.71875-.703124-.95313-1.96875-.95313-1.25 0-1.96875.95313-.703124.95312-.734374 2.625v.73437q0 1.71875.71875 2.70313.734374.96875 1.984374.96875 1.28125 0 1.96875-.92188.703126-.92187.71875-2.65625zm10.984376 2.14062q-.1875 1.57813-1.171876 2.4375-.984374.85938-2.609374.85938-1.765626 0-2.828126-1.26563-1.0625-1.26562-1.0625-3.39062v-.95313q0-1.39062.5-2.4375.5-1.0625 1.40625-1.625.90625-.5625 2.09375-.5625 1.59375 0 2.546876.89063.953124.89062 1.125 2.45312h-1.328126q-.171874-1.1875-.75-1.71875-.5625-.54687-1.59375-.54687-1.25 0-1.96875.9375-.703124.92187-.703124 2.64062v.96875q0 1.625.671874 2.57813.671876.95312 1.890626.95312 1.09375 0 1.671874-.48437.59375-.5.78125-1.73438zm4.609374-1.28125q-1.6875-.48437-2.46875-1.1875-.765624-.71875-.765624-1.75 0-1.17187.9375-1.9375.9375-.78125 2.453124-.78125 1.01562 0 1.81249.40625.8125.39063 1.25 1.09375.45313.6875.45313 1.51563h-1.32813q0-.90625-.57812-1.42188-.5625-.51562-1.60937-.51562-.96875 0-1.515624.4375-.546876.42187-.546876 1.1875 0 .60937.515626 1.03125.515624.40625 1.75.76562 1.249994.34375 1.953114.76563.70313.42187 1.03125.98437.34375.5625.34375 1.3125 0 1.21875-.95312 1.95313-.9375.71875-2.51562.71875-1.03125 0-1.921874-.39063-.875-.40625-1.359376-1.07812-.484374-.6875-.484374-1.5625h1.3125q0 .90625.671874 1.4375.671876.51562 1.78125.51562 1.04687 0 1.59374-.42187.54688-.42188.54688-1.15625 0-.73438-.51563-1.125-.5-.40625-1.84374-.79688zm6.37499.54688v3.89062h-1.3125v-9.95312h3.67188q1.625 0 2.54687.84375.9375.82812.9375 2.20312 0 1.4375-.90625 2.23438-.90625.78125-2.59375.78125zm0-1.07813h2.35938q1.04687 0 1.60937-.5.5625-.5.5625-1.42187 0-.89063-.5625-1.42188-.5625-.54687-1.53125-.5625h-2.4375z"/><path d="m93.32508 260.45737q-1.6875-.48437-2.46875-1.1875-.765624-.71875-.765624-1.75 0-1.17187.9375-1.9375.9375-.78125 2.453124-.78125 1.015626 0 1.8125.40625.8125.39062 1.25 1.09375.453126.6875.453126 1.51562h-1.328126q0-.90624-.578124-1.42187-.5625-.51563-1.609376-.51563-.96875 0-1.515624.4375-.546876.42188-.546876 1.1875 0 .60938.515626 1.03126.515624.40624 1.75.76562 1.25.34375 1.953124.76562.703126.42188 1.03125.98438.34375.5625.34375 1.3125 0 1.21875-.953124 1.95312-.9375.71876-2.515626.71876-1.03125 0-1.921874-.39063-.875-.40625-1.359376-1.07813-.484374-.6875-.484374-1.5625h1.3125q0 .90626.671874 1.4375.671876.51563 1.78125.51563 1.046876 0 1.59375-.42187.546876-.42188.546876-1.15626 0-.73437-.515626-1.125-.5-.40624-1.84375-.79687zm6.578126-4.75v1.79687h1.375v.96876h-1.375v4.59374q0 .4375.1875.67188.1875.21875.625.21875.21875 0 .609374-.09375v1.03125q-.5.14063-.96875.14063-.859374 0-1.296874-.51563-.421876-.51563-.421876-1.45313v-4.59374h-1.34375v-.96876h1.34375v-1.79687zm7.859374 9.1875q-.109374-.21875-.1875-.78125-.875.92188-2.109374.92188-1.09375 0-1.796876-.60938-.6875-.625-.6875-1.57812 0-1.15626.875-1.79688.875-.64062 2.46875-.64062h1.234376v-.57813q0-.67187-.40625-1.0625-.390626-.39063-1.15625-.39063-.6875 0-1.140626.34376-.453124.34374-.453124.82812h-1.28125q0-.5625.390624-1.07812.40625-.51563 1.078126-.8125.671874-.29688 1.46875-.29688 1.28125 0 2 .64062.734374.64063.765624 1.75v3.40626q0 1.01562.25 1.625v.10937zm-2.109374-.96875q.59375 0 1.125-.29688.546874-.3125.78125-.8125v-1.51562h-1q-2.3125 0-2.3125 1.35938 0 .59374.390624.9375.390626.32812 1.015626.32812zm11.78125-2.64062q0 1.6875-.78125 2.71874-.765626 1.03126-2.078126 1.03126-1.34375 0-2.125-.85938v3.5625h-1.265624v-10.23438h1.15625l.0625.8125q.78125-.95312 2.15625-.95312 1.328124 0 2.09375 1 .78125 1 .78125 2.79688zm-1.265626-.15626q0-1.25-.53125-1.96874-.53125-.71876-1.46875-.71876-1.140624 0-1.71875 1.01563v3.53125q.578126 1.01562 1.734376 1.01562.921874 0 1.453124-.71874.53125-.73438.53125-2.15626zm4.390626 3.76563h-1.265626v-10.5h1.265626zm3 0h-1.265626v-7.39063h1.265626zm-1.359376-9.35938q0-.3125.1875-.51562.1875-.21875.546876-.21875.375 0 .5625.21875.203124.20312.203124.51562 0 .3125-.203124.51563-.1875.20312-.5625.20312-.359376 0-.546876-.20312-.1875-.20313-.1875-.51563zm4.1875 1.96875.03125.92188q.859376-1.0625 2.21874-1.0625 2.34375 0 2.375 2.64062v4.89063h-1.26562v-4.89063q-.01563-.79687-.375-1.17187-.35938-.39063-1.10938-.39063-.62499 0-1.09374.32813-.453124.32813-.71875.85937v5.26563h-1.265624v-7.39063zm6.49999 3.625q0-1.71874.79688-2.73437.79687-1.03125 2.125-1.03125 1.34375 0 2.10937.95312l.0625-.8125h1.15625v7.21876q0 1.4375-.85937 2.25-.84375.82812-2.28125.82812-.79688 0-1.5625-.34375-.76563-.32813-1.17188-.92187l.65625-.76563q.8125 1 1.98438 1 .92187 0 1.4375-.51563.53125-.51562.53125-1.46874v-.625q-.76563.875-2.07813.875-1.29687 0-2.10937-1.04688-.79688-1.04688-.79688-2.85938zm1.26563.15626q0 1.25.51562 1.96874.51563.70313 1.4375.70313 1.20313 0 1.76563-1.09375v-3.375q-.59375-1.04688-1.75-1.04688-.92188 0-1.45313.71876-.51562.70312-.51562 2.125z"/><path d="m150.29382 317.18225q0 2.21875-.76562 3.3125-.75 1.07813-2.35938 1.07813-1.59375 0-2.35937-1.04688-.76563-1.0625-.79688-3.17187v-1.6875q0-2.1875.75-3.25.76563-1.07813 2.39063-1.07813 1.60937 0 2.35937 1.03125.76563 1.03125.78125 3.17188zm-1.26562-1.71875q0-1.60937-.45313-2.34375-.4375-.73437-1.42187-.73437-.96875 0-1.42188.73437-.4375.71875-.45312 2.23438v2.03125q0 1.60937.46875 2.39062.46875.76563 1.42187.76563.9375 0 1.39063-.71875.45312-.73438.46875-2.29688z"/><path d="m216.97917 321.43225h-1.26562v-8.42187l-2.5625.92187v-1.14062l3.625-1.35938h.20312zm10.07813-4.25q0 2.21875-.76563 3.3125-.75 1.07813-2.35937 1.07813-1.59375 0-2.35938-1.04688-.76562-1.0625-.79687-3.17187v-1.6875q0-2.1875.75-3.25.76562-1.07813 2.39062-1.07813 1.60938 0 2.35938 1.03125.76562 1.03125.78125 3.17188zm-1.26563-1.71875q0-1.60937-.45312-2.34375-.4375-.73437-1.42188-.73437-.96875 0-1.42187.73437-.4375.71875-.45313 2.23438v2.03125q0 1.60937.46875 2.39062.46875.76563 1.42188.76563.9375 0 1.39062-.71875.45313-.73438.46875-2.29688zm9.26563 1.71875q0 2.21875-.76563 3.3125-.75 1.07813-2.35937 1.07813-1.59375 0-2.35938-1.04688-.76562-1.0625-.79687-3.17187v-1.6875q0-2.1875.75-3.25.76562-1.07813 2.39062-1.07813 1.60938 0 2.35938 1.03125.76562 1.03125.78125 3.17188zm-1.26563-1.71875q0-1.60937-.45312-2.34375-.4375-.73437-1.42188-.73437-.96875 0-1.42187.73437-.4375.71875-.45313 2.23438v2.03125q0 1.60937.46875 2.39062.46875.76563 1.42188.76563.9375 0 1.39062-.71875.45313-.73438.46875-2.29688z"/><path d="m296.10202 321.43225h-6.51562v-.90625l3.4375-3.82812q.76562-.875 1.0625-1.40625.29687-.54688.29687-1.14063 0-.76562-.48437-1.26562-.46875-.5-1.25-.5-.9375 0-1.46875.53125-.51563.53125-.51563 1.5h-1.26562q0-1.375.875-2.21875.89062-.85938 2.375-.85938 1.39062 0 2.1875.73438.8125.71875.8125 1.9375 0 1.46875-1.875 3.5l-2.65625 2.89062h4.98437zm7.71875-4.25q0 2.21875-.76562 3.3125-.75 1.07813-2.35938 1.07813-1.59375 0-2.35937-1.04688-.76563-1.0625-.79688-3.17187v-1.6875q0-2.1875.75-3.25.76563-1.07813 2.39063-1.07813 1.60937 0 2.35937 1.03125.76563 1.03125.78125 3.17188zm-1.26562-1.71875q0-1.60937-.45313-2.34375-.4375-.73437-1.42187-.73437-.96875 0-1.42188.73437-.4375.71875-.45312 2.23438v2.03125q0 1.60937.46875 2.39062.46875.76563 1.42187.76563.9375 0 1.39063-.71875.45312-.73438.46875-2.29688zm9.26562 1.71875q0 2.21875-.76562 3.3125-.75 1.07813-2.35938 1.07813-1.59375 0-2.35937-1.04688-.76563-1.0625-.79688-3.17187v-1.6875q0-2.1875.75-3.25.76563-1.07813 2.39063-1.07813 1.60937 0 2.35937 1.03125.76563 1.03125.78125 3.17188zm-1.26562-1.71875q0-1.60937-.45313-2.34375-.4375-.73437-1.42187-.73437-.96875 0-1.42188.73437-.4375.71875-.45312 2.23438v2.03125q0 1.60937.46875 2.39062.46875.76563 1.42187.76563.9375 0 1.39063-.71875.45312-.73438.46875-2.29688z"/><path d="m368.1936 315.8385h.9375q.90625-.01562 1.40625-.46875.51563-.45312.51563-1.23437 0-1.75-1.73438-1.75-.82812 0-1.3125.46875-.48437.46875-.48437 1.23437h-1.26563q0-1.1875.85938-1.96875.875-.78125 2.20312-.78125 1.40625 0 2.20313.75.79687.75.79687 2.0625 0 .65625-.42187 1.26563-.40625.60937-1.14063.90625.82813.26562 1.26563.875.45312.59375.45312 1.45312 0 1.34375-.875 2.14063-.875.78125-2.28125.78125-1.39062 0-2.28125-.75-.875-.76563-.875-2.01563h1.28125q0 .78125.5 1.26563.51563.46875 1.375.46875.92188 0 1.40625-.48438.48438-.48437.48438-1.375 0-.85937-.53125-1.32812-.53125-.46875-1.54688-.48438h-.9375zm12.39063 1.34375q0 2.21875-.76563 3.3125-.75 1.07813-2.35937 1.07813-1.59375 0-2.35938-1.04688-.76562-1.0625-.79687-3.17187v-1.6875q0-2.1875.75-3.25.76562-1.07813 2.39062-1.07813 1.60938 0 2.35938 1.03125.76562 1.03125.78125 3.17188zm-1.26563-1.71875q0-1.60937-.45312-2.34375-.4375-.73437-1.42188-.73437-.96875 0-1.42187.73437-.4375.71875-.45313 2.23438v2.03125q0 1.60937.46875 2.39062.46875.76563 1.42188.76563.9375 0 1.39062-.71875.45313-.73438.46875-2.29688zm9.26563 1.71875q0 2.21875-.76563 3.3125-.75 1.07813-2.35937 1.07813-1.59375 0-2.35938-1.04688-.76562-1.0625-.79687-3.17187v-1.6875q0-2.1875.75-3.25.76562-1.07813 2.39062-1.07813 1.60938 0 2.35938 1.03125.76562 1.03125.78125 3.17188zm-1.26563-1.71875q0-1.60937-.45312-2.34375-.4375-.73437-1.42188-.73437-.96875 0-1.42187.73437-.4375.71875-.45313 2.23438v2.03125q0 1.60937.46875 2.39062.46875.76563 1.42188.76563.9375 0 1.39062-.71875.45313-.73438.46875-2.29688z"/><path d="m448.4571 318.0885h1.375v1.03125h-1.375v2.3125h-1.28126v-2.3125h-4.53124v-.75l4.45312-6.89062h1.35938zm-4.375 0h3.09374v-4.875l-.14062.26563zm13.26562-.90625q0 2.21875-.76562 3.3125-.75 1.07813-2.35938 1.07813-1.59375 0-2.35938-1.04688-.76562-1.0625-.79687-3.17187v-1.6875q0-2.1875.75-3.25.76563-1.07813 2.39063-1.07813 1.60937 0 2.35937 1.03125.76563 1.03125.78125 3.17188zm-1.26562-1.71875q0-1.60937-.45313-2.34375-.4375-.73437-1.42187-.73437-.96876 0-1.42188.73437-.4375.71875-.45312 2.23438v2.03125q0 1.60937.46874 2.39062.46876.76563 1.42188.76563.9375 0 1.39062-.71875.45313-.73438.46876-2.29688zm9.26562 1.71875q0 2.21875-.76562 3.3125-.75 1.07813-2.35938 1.07813-1.59375 0-2.35938-1.04688-.76562-1.0625-.79687-3.17187v-1.6875q0-2.1875.75-3.25.76563-1.07813 2.39063-1.07813 1.60937 0 2.35937 1.03125.76563 1.03125.78125 3.17188zm-1.26562-1.71875q0-1.60937-.45313-2.34375-.4375-.73437-1.42187-.73437-.96876 0-1.42188.73437-.4375.71875-.45312 2.23438v2.03125q0 1.60937.46874 2.39062.46876.76563 1.42188.76563.9375 0 1.39062-.71875.45313-.73438.46876-2.29688z"/><path d="m520.45496 316.44788.51564-4.96875h5.09373v1.17187h-4.03123l-.2969 2.70313q.7344-.42188 1.65626-.42188 1.35937 0 2.15624.90625.8125.89063.8125 2.42188 0 1.53125-.84374 2.42187-.82813.89063-2.3125.89063-1.3125 0-2.15626-.73438-.8281-.73437-.9531-2.03125h1.2031q.1094.85938.59376 1.29688.5.4375 1.3125.4375.875 0 1.375-.59375.51564-.60938.51564-1.67188 0-1-.5469-1.59375-.54687-.60937-1.4531-.60937-.8125 0-1.2969.35937l-.3281.26563zm13.65624.73437q0 2.21875-.7656 3.3125-.75 1.07813-2.3594 1.07813-1.59374 0-2.35937-1.04688-.76563-1.0625-.79687-3.17187v-1.6875q0-2.1875.75-3.25.76564-1.07813 2.39064-1.07813 1.60936 0 2.35936 1.03125.76564 1.03125.78124 3.17188zm-1.2656-1.71875q0-1.60937-.45314-2.34375-.4375-.73437-1.42186-.73437-.96877 0-1.4219.73437-.4375.71875-.4531 2.23438v2.03125q0 1.60937.46873 2.39062.46877.76563 1.42187.76563.9375 0 1.39063-.71875.45313-.73438.46877-2.29688zm9.2656 1.71875q0 2.21875-.7656 3.3125-.75 1.07813-2.3594 1.07813-1.59374 0-2.35937-1.04688-.76563-1.0625-.79687-3.17187v-1.6875q0-2.1875.75-3.25.76564-1.07813 2.39064-1.07813 1.60936 0 2.35936 1.03125.76564 1.03125.78124 3.17188zm-1.2656-1.71875q0-1.60937-.45314-2.34375-.4375-.73437-1.42186-.73437-.96877 0-1.4219.73437-.4375.71875-.4531 2.23438v2.03125q0 1.60937.46873 2.39062.46877.76563 1.42187.76563.9375 0 1.39063-.71875.45313-.73438.46877-2.29688z"/></g><path d="m23.60625 57.317726h-4.171874l-.9375 2.59375h-1.359376l3.8125-9.953126h1.140626l3.8125 9.953126h-1.34375zm-3.78125-1.078126h3.390626l-1.703126-4.65625zm8.28125-3.71875.03125.921876q.859376-1.0625 2.21875-1.0625 2.34375 0 2.375 2.640624v4.890626h-1.265624v-4.890626q-.015626-.796874-.375-1.171874-.359376-.390626-1.109376-.390626-.625 0-1.09375.328126-.453124.328124-.71875.859374v5.265626h-1.265624v-7.390626zm11.375 7.390626q-.109374-.21875-.1875-.78125-.875.921874-2.109374.921874-1.09375 0-1.796876-.609374-.6875-.625-.6875-1.578126 0-1.15625.875-1.796874.875-.640626 2.46875-.640626h1.234376v-.578124q0-.671876-.40625-1.0625-.390626-.390626-1.15625-.390626-.6875 0-1.140626.34375-.453124.34375-.453124.828126h-1.28125q0-.5625.390624-1.078126.40625-.515624 1.078126-.8125.671874-.296874 1.46875-.296874 1.28125 0 2 .640624.734374.640626.765624 1.75v3.40625q0 1.015626.25 1.625v.109376zm-2.109374-.96875q.59375 0 1.125-.296876.546874-.3125.78125-.8125v-1.515624h-1q-2.3125 0-2.3125 1.359374 0 .59375.390624.9375.390626.328126 1.015626.328126zm6.90625.96875h-1.265626v-10.5h1.265626zm4.046874-1.859376 1.71875-5.53125h1.359376l-2.96875 8.53125q-.6875 1.84375-2.203126 1.84375l-.234374-.015624-.46875-.09375v-1.015626l.34375.015626q.640624 0 1-.265626.359374-.25.59375-.9375l.28125-.75-2.640626-7.3125h1.375zm8.890626-.109374q0-.5-.390626-.78125-.390624-.296876-1.34375-.5-.953124-.203126-1.53125-.484376-.5625-.296874-.828124-.6875-.265626-.390624-.265626-.9375 0-.921874.765626-1.546874.765624-.625 1.96875-.625 1.25 0 2.03125.65625.78125.640624.78125 1.65625h-1.265626q0-.53125-.4375-.90625-.4375-.375-1.109374-.375-.6875 0-1.078126.3125-.390624.296874-.390624.78125 0 .453124.359374.6875.359376.234374 1.296876.453124.953124.203126 1.546874.5.59375.296876.875.71875.28125.40625.28125 1 0 .984376-.796874 1.59375-.796876.59375-2.0625.59375-.875 0-1.5625-.3125-.6875-.328124-1.078126-.890624-.375-.5625-.375-1.21875h1.265626q.03125.640624.5 1.015624.484374.375 1.25.375.71875 0 1.15625-.296874.4375-.296876.4375-.78125zm4.0625 1.96875h-1.265626v-7.390626h1.265626zm-1.359376-9.359376q0-.3125.1875-.515624.1875-.21875.546876-.21875.375 0 .5625.21875.203124.203124.203124.515624 0 .3125-.203124.515626-.1875.203124-.5625.203124-.359376 0-.546876-.203124-.1875-.203126-.1875-.515626zm7.29687 7.390626q0-.5-.39062-.78125-.39063-.296876-1.34375-.5-.95313-.203126-1.53125-.484376-.5625-.296874-.828124-.6875-.265626-.390624-.265626-.9375 0-.921874.765626-1.546874.765624-.625 1.968744-.625 1.25 0 2.03125.65625.78125.640624.78125 1.65625h-1.26562q0-.53125-.4375-.90625-.4375-.375-1.10938-.375-.6875 0-1.07812.3125-.39063.296874-.39063.78125 0 .453124.35938.6875.35937.234374 1.29687.453124.95313.203126 1.54688.5.59375.296876.875.71875.28125.40625.28125 1 0 .984376-.79688 1.59375-.79687.59375-2.0625.59375-.875 0-1.5625-.3125-.687494-.328124-1.07812-.890624-.375-.5625-.375-1.21875h1.265626q.03125.640624.499994 1.015624.48438.375 1.25.375.71875 0 1.15625-.296874.4375-.296876.4375-.78125zm5.35938-1.796876q0-1.09375.42187-1.953124.4375-.875 1.1875-1.34375.76563-.46875 1.75-.46875 1.5 0 2.4375 1.046874.9375 1.046876.9375 2.78125v.09375q0 1.078126-.42187 1.9375-.40625.84375-1.1875 1.328126-.76563.484374-1.75.484374-1.51563 0-2.45313-1.046874-.92187-1.046876-.92187-2.765626zm1.26562.15625q0 1.21875.5625 1.96875.57813.75 1.54688.75.95312 0 1.51562-.75.57813-.765624.57813-2.125 0-1.21875-.57813-1.96875-.57812-.765624-1.53125-.765624-.9375 0-1.51562.75-.57813.75-.57813 2.140624zm7.6875 3.609376v-6.421876h-1.17187v-.96875h1.17187v-.765624q0-1.1875.625-1.828126.64063-.65625 1.8125-.65625.4375 0 .85938.109376l-.0625 1.03125q-.32813-.0625-.6875-.0625-.60938 0-.95313.359374-.32812.359376-.32812 1.03125v.78125h1.57812v.96875h-1.57812v6.421876zm7.82813-4.984376.51562-4.96875h5.09375v1.171876h-4.03125l-.29687 2.703124q.73437-.421874 1.65625-.421874 1.35937 0 2.15625.90625.8125.890624.8125 2.421874 0 1.53125-.84375 2.421876-.82813.890624-2.3125.890624-1.3125 0-2.15625-.734374-.82813-.734376-.95313-2.03125h1.20313q.10937.859374.59375 1.296874.5.4375 1.3125.4375.875 0 1.375-.59375.51562-.609374.51562-1.671874 0-1-.54687-1.59375-.54688-.609376-1.45313-.609376-.8125 0-1.29687.359376l-.32813.265624zm13.65625.734376q0 2.21875-.76563 3.3125-.75 1.078124-2.35937 1.078124-1.59375 0-2.35938-1.046874-.76562-1.0625-.79687-3.171876v-1.6875q0-2.1875.75-3.25.76562-1.078124 2.39062-1.078124 1.60938 0 2.35938 1.03125.76562 1.03125.78125 3.171874zm-1.26563-1.71875q0-1.609376-.45312-2.34375-.4375-.734376-1.42188-.734376-.96875 0-1.42187.734376-.4375.71875-.45313 2.234374v2.03125q0 1.609376.46875 2.390626.46875.765624 1.42188.765624.9375 0 1.39062-.71875.45313-.734374.46875-2.296874zm9.26563 1.71875q0 2.21875-.76563 3.3125-.75 1.078124-2.35937 1.078124-1.59375 0-2.35938-1.046874-.76562-1.0625-.79687-3.171876v-1.6875q0-2.1875.75-3.25.76562-1.078124 2.39062-1.078124 1.60938 0 2.35938 1.03125.76562 1.03125.78125 3.171874zm-1.26563-1.71875q0-1.609376-.45312-2.34375-.4375-.734376-1.42188-.734376-.96875 0-1.42187.734376-.4375.71875-.45313 2.234374v2.03125q0 1.609376.46875 2.390626.46875.765624 1.42188.765624.9375 0 1.39062-.71875.45313-.734374.46875-2.296874zm7.42188-.53125q.84375-1.03125 2.1875-1.03125 2.34375 0 2.375 2.640624v4.890626h-1.26563v-4.890626q-.01562-.796874-.375-1.171874-.35937-.390626-1.10937-.390626-.625 0-1.09375.328126-.45313.328124-.71875.859374v5.265626h-1.26563v-10.5h1.26563zm8.10937 6.5h-1.26562v-7.390626h1.26562zm-1.35937-9.359376q0-.3125.1875-.515624.1875-.21875.54687-.21875.375 0 .5625.21875.20313.203124.20313.515624 0 .3125-.20313.515626-.1875.203124-.5625.203124-.35937 0-.54687-.203124-.1875-.203126-.1875-.515626zm2.6875 5.59375q0-1.71875.79687-2.734374.79688-1.03125 2.125-1.03125 1.34375 0 2.10938.953124l.0625-.8125h1.15625v7.21875q0 1.4375-.85938 2.25-.84375.828126-2.28125.828126-.79687 0-1.5625-.34375-.76562-.328126-1.17187-.921876l.65625-.765624q.8125 1 1.98437 1 .92188 0 1.4375-.515626.53125-.515624.53125-1.46875v-.625q-.76562.875-2.07812.875-1.29688 0-2.10938-1.046874-.79687-1.046876-.79687-2.859376zm1.26562.15625q0 1.25.51563 1.96875.51562.703126 1.4375.703126 1.20312 0 1.76562-1.09375v-3.375q-.59375-1.046876-1.75-1.046876-.92187 0-1.45312.71875-.51563.703126-.51563 2.125zm8.29688-2.890624q.84375-1.03125 2.1875-1.03125 2.34375 0 2.375 2.640624v4.890626h-1.26563v-4.890626q-.01562-.796874-.375-1.171874-.35937-.390626-1.10937-.390626-.625 0-1.09375.328126-.45313.328124-.71875.859374v5.265626h-1.26563v-10.5h1.26563zm9.375 2.78125h-3.34375v-1.03125h3.34375zm3.07812-5.46875v1.796874h1.375v.96875h-1.375v4.59375q0 .4375.1875.671876.1875.21875.625.21875.21875 0 .60938-.09375v1.03125q-.5.140624-.96875.140624-.85938 0-1.29688-.515624-.42187-.515626-.42187-1.453126v-4.59375h-1.34375v-.96875h1.34375v-1.796874zm6.85938 2.921874q-.28125-.046874-.625-.046874-1.23438 0-1.6875 1.0625v5.25h-1.26563v-7.390626h1.23438l.01562.84375q.625-.984374 1.76563-.984374.375 0 .5625.09375zm6 6.265626q-.10938-.21875-.1875-.78125-.875.921874-2.10938.921874-1.09375 0-1.79687-.609374-.6875-.625-.6875-1.578126 0-1.15625.875-1.796874.875-.640626 2.46875-.640626h1.23437v-.578124q0-.671876-.40625-1.0625-.39062-.390626-1.15625-.390626-.6875 0-1.14062.34375-.45313.34375-.45313.828126h-1.28125q0-.5625.39063-1.078126.40625-.515624 1.07812-.8125.67188-.296874 1.46875-.296874 1.28125 0 2 .640624.73438.640626.76563 1.75v3.40625q0 1.015626.25 1.625v.109376zm-2.10938-.96875q.59375 0 1.125-.296876.54688-.3125.78125-.8125v-1.515624h-1q-2.3125 0-2.3125 1.359374 0 .59375.39063.9375.39062.328126 1.01562.328126zm6.15625.96875v-6.421876h-1.17187v-.96875h1.17187v-.765624q0-1.1875.625-1.828126.64063-.65625 1.8125-.65625.4375 0 .85938.109376l-.0625 1.03125q-.32813-.0625-.6875-.0625-.60938 0-.95313.359374-.32812.359376-.32812 1.03125v.78125h1.57812v.96875h-1.57812v6.421876zm5 0v-6.421876h-1.17187v-.96875h1.17187v-.765624q0-1.1875.625-1.828126.64063-.65625 1.8125-.65625.4375 0 .85938.109376l-.0625 1.03125q-.32813-.0625-.6875-.0625-.60938 0-.95313.359374-.32812.359376-.32812 1.03125v.78125h1.57812v.96875h-1.57812v6.421876zm5.75 0h-1.26562v-7.390626h1.26562zm-1.35937-9.359376q0-.3125.1875-.515624.1875-.21875.54687-.21875.375 0 .5625.21875.20313.203124.20313.515624 0 .3125-.20313.515626-.1875.203124-.5625.203124-.35937 0-.54687-.203124-.1875-.203126-.1875-.515626zm5.95312 8.46875q.67188 0 1.17188-.40625.51562-.421874.57812-1.03125h1.1875q-.03125.625-.4375 1.203126-.40625.578124-1.07812.921874-.67188.34375-1.42188.34375-1.51562 0-2.40625-1-.89062-1.015624-.89062-2.765624v-.21875q0-1.078126.39062-1.921876.40625-.84375 1.14063-1.296874.75-.46875 1.76562-.46875 1.23438 0 2.0625.75.82813.734374.875 1.921874h-1.1875q-.0625-.71875-.54687-1.171874-.48438-.46875-1.20313-.46875-.96875 0-1.5.703124-.53125.6875-.53125 2v.234376q0 1.28125.53125 1.984374.53125.6875 1.5.6875zm4.28125 1.75h-1.07812l4.15625-10.8125h1.07812zm12-4.46875q0 1.6875-.78125 2.71875-.76562 1.03125-2.07812 1.03125-1.34375 0-2.125-.859374v3.5625h-1.26563v-10.234376h1.15625l.0625.8125q.78125-.953124 2.15625-.953124 1.32813 0 2.09375 1 .78125 1 .78125 2.796874zm-1.26562-.15625q0-1.25-.53125-1.96875-.53125-.71875-1.46875-.71875-1.14063 0-1.71875 1.015626v3.53125q.57812 1.015624 1.73437 1.015624.92188 0 1.45313-.71875.53125-.734374.53125-2.15625zm6.59375-2.5q-.28125-.046874-.625-.046874-1.23438 0-1.6875 1.0625v5.25h-1.26563v-7.390626h1.23438l.01562.84375q.625-.984374 1.76563-.984374.375 0 .5625.09375zm4.5 6.40625q-1.51563 0-2.45313-.984374-.9375-1-.9375-2.65625v-.21875q0-1.109376.42188-1.96875.42187-.875 1.17187-1.359376.75-.484374 1.64063-.484374 1.4375 0 2.23437.953124.79688.9375.79688 2.71875v.515626h-5q.01562 1.09375.625 1.78125.625.671874 1.5625.671874.67187 0 1.125-.265624.46875-.28125.82812-.734376l.76563.59375q-.92188 1.4375-2.78125 1.4375zm-.15625-6.640624q-.76563 0-1.29688.5625-.51562.5625-.64062 1.5625h3.70312v-.09375q-.04687-.96875-.51562-1.5-.46875-.53125-1.25-.53125zm5.26562-.890626.04688.8125q.8125-.953124 2.1875-.953124 1.54687 0 2.10937 1.1875.375-.53125.96875-.859376.59375-.328124 1.39063-.328124 2.4375 0 2.48437 2.578124v4.953126h-1.26562v-4.875q0-.796876-.375-1.1875-.35938-.390626-1.20313-.390626-.71875 0-1.1875.421876-.45312.40625-.53125 1.125v4.90625h-1.26562v-4.84375q0-1.609376-1.57813-1.609376-1.25 0-1.70312 1.046876v5.40625h-1.26563v-7.390626zm12.1875 7.390626h-1.26562v-7.390626h1.26562zm-1.35937-9.359376q0-.3125.1875-.515624.1875-.21875.54687-.21875.375 0 .5625.21875.20313.203124.20313.515624 0 .3125-.20313.515626-.1875.203124-.5625.203124-.35937 0-.54687-.203124-.1875-.203126-.1875-.515626zm7.5625 8.625q-.75.875-2.17188.875-1.1875 0-1.8125-.6875-.60937-.6875-.60937-2.03125v-4.8125h1.25v4.765626q0 1.6875 1.375 1.6875 1.45312 0 1.92187-1.078126v-5.375h1.26563v7.390626h-1.20313zm4.60937-6.65625.04688.8125q.8125-.953124 2.1875-.953124 1.54687 0 2.10937 1.1875.375-.53125.96875-.859376.59375-.328124 1.39063-.328124 2.4375 0 2.48437 2.578124v4.953126h-1.26562v-4.875q0-.796876-.375-1.1875-.35938-.390626-1.20313-.390626-.71875 0-1.1875.421876-.45312.40625-.53125 1.125v4.90625h-1.26562v-4.84375q0-1.609376-1.57813-1.609376-1.25 0-1.70312 1.046876v5.40625h-1.26563v-7.390626zm20.07813 3.78125q0 1.6875-.78125 2.71875-.78125 1.03125-2.09375 1.03125-1.39063 0-2.15625-1l-.0625.859376h-1.17188v-10.5h1.26563v3.921874q.76562-.953124 2.10937-.953124 1.35938 0 2.125 1.015624.76563 1.015626.76563 2.796876zm-1.26563-.15625q0-1.28125-.5-1.984374-.5-.703126-1.4375-.703126-1.25 0-1.79687 1.15625v3.203126q.57812 1.15625 1.8125 1.15625.90625 0 1.40625-.703126.51562-.703124.51562-2.125zm6.57814-2.5q-.28126-.046874-.625-.046874-1.23436 0-1.6875 1.0625v5.25h-1.26562v-7.390626h1.23436l.01564.84375q.625-.984374 1.76562-.984374.375 0 .5625.09375zm6 6.265626q-.10936-.21875-.1875-.78125-.875.921874-2.10936.921874-1.09376 0-1.7969-.609374-.6875-.625-.6875-1.578126 0-1.15625.875-1.796874.875-.640626 2.46876-.640626h1.23438v-.578124q0-.671876-.40624-1.0625-.39064-.390626-1.15626-.390626-.6875 0-1.14064.34375-.4531.34375-.4531.828126h-1.28126q0-.5625.39062-1.078126.40624-.515624 1.07814-.8125.67186-.296874 1.46874-.296874 1.28126 0 2 .640624.73436.640626.76562 1.75v3.40625q0 1.015626.25 1.625v.109376zm-2.10936-.96875q.59374 0 1.125-.296876.54686-.3125.78124-.8125v-1.515624h-1q-2.3125 0-2.3125 1.359374 0 .59375.39062.9375.39064.328126 1.01564.328126zm6.73436-6.421876.03124.921876q.8594-1.0625 2.21876-1.0625 2.34374 0 2.375 2.640624v4.890626h-1.26562v-4.890626q-.01564-.796874-.375-1.171874-.35938-.390626-1.10938-.390626-.625 0-1.09376.328126-.4531.328124-.71874.859374v5.265626h-1.26562v-7.390626zm6.5 3.625q0-1.703124.79688-2.734374.8125-1.03125 2.10936-1.03125 1.3125 0 2.0625.890624v-3.859374h1.26564v10.5h-1.15624l-.0625-.796876q-.76564.9375-2.1094.9375-1.29686 0-2.10936-1.046874-.79688-1.0625-.79688-2.765626zm1.26564.15625q0 1.25.5156 1.96875.51564.703126 1.4375.703126 1.20314 0 1.75-1.078126v-3.40625q-.5625-1.03125-1.73436-1.03125-.9375 0-1.45314.71875-.5156.703126-.5156 2.125zm14.34374 1.640626q0-.5-.39064-.78125-.3906-.296876-1.34374-.5-.95312-.203126-1.53126-.484376-.5625-.296874-.8281-.6875-.26564-.390624-.26564-.9375 0-.921874.76564-1.546874.7656-.625 1.96874-.625 1.25 0 2.03126.65625.78124.640624.78124 1.65625h-1.26564q0-.53125-.4375-.90625-.4375-.375-1.10936-.375-.6875 0-1.07814.3125-.3906.296874-.3906.78125 0 .453124.35936.6875.35938.234374 1.29688.453124.95312.203126 1.54686.5.59376.296876.875.71875.28126.40625.28126 1 0 .984376-.79686 1.59375-.7969.59375-2.0625.59375-.875 0-1.5625-.3125-.6875-.328124-1.07814-.890624-.375-.5625-.375-1.21875h1.26564q.03124.640624.5 1.015624.48436.375 1.25.375.71874 0 1.15624-.296874.4375-.296876.4375-.78125zm4.0625 1.96875h-1.26564v-7.390626h1.26564zm-1.35938-9.359376q0-.3125.1875-.515624.1875-.21875.54688-.21875.375 0 .5625.21875.20312.203124.20312.515624 0 .3125-.20312.515626-.1875.203124-.5625.203124-.35938 0-.54688-.203124-.1875-.203126-.1875-.515626zm4.70314.171876v1.796874h1.375v.96875h-1.375v4.59375q0 .4375.1875.671876.1875.21875.625.21875.21874 0 .60936-.09375v1.03125q-.5.140624-.96876.140624-.85936 0-1.29686-.515624-.42188-.515626-.42188-1.453126v-4.59375h-1.34376v-.96875h1.34376v-1.796874zm6.35936 9.328124q-1.51562 0-2.45312-.984374-.9375-1-.9375-2.65625v-.21875q0-1.109376.42186-1.96875.4219-.875 1.1719-1.359376.75-.484374 1.6406-.484374 1.4375 0 2.2344.953124.79686.9375.79686 2.71875v.515626h-5q.01564 1.09375.625 1.78125.625.671874 1.5625.671874.67188 0 1.125-.265624.46874-.28125.82814-.734376l.7656.59375q-.92186 1.4375-2.78124 1.4375zm-.15626-6.640624q-.7656 0-1.29686.5625-.51564.5625-.64064 1.5625h3.70314v-.09375q-.04688-.96875-.51564-1.5-.46874-.53125-1.25-.53125zm8.39064 4.53125q0-.5-.39064-.78125-.3906-.296876-1.34374-.5-.95312-.203126-1.53126-.484376-.5625-.296874-.8281-.6875-.26564-.390624-.26564-.9375 0-.921874.76564-1.546874.7656-.625 1.96874-.625 1.25 0 2.03126.65625.78124.640624.78124 1.65625h-1.26564q0-.53125-.4375-.90625-.4375-.375-1.10936-.375-.6875 0-1.07814.3125-.3906.296874-.3906.78125 0 .453124.35936.6875.35938.234374 1.29688.453124.95312.203126 1.54686.5.59376.296876.875.71875.28126.40625.28126 1 0 .984376-.79686 1.59375-.7969.59375-2.0625.59375-.875 0-1.5625-.3125-.6875-.328124-1.07814-.890624-.375-.5625-.375-1.21875h1.26564q.03124.640624.5 1.015624.48436.375 1.25.375.71874 0 1.15624-.296874.4375-.296876.4375-.78125zm7.0625 1.96875h-1.26564v-7.390626h1.26564zm-1.35938-9.359376q0-.3125.1875-.515624.1875-.21875.54688-.21875.375 0 .5625.21875.20312.203124.20312.515624 0 .3125-.20312.515626-.1875.203124-.5625.203124-.35938 0-.54688-.203124-.1875-.203126-.1875-.515626zm4.1875 1.96875.03124.921876q.8594-1.0625 2.21876-1.0625 2.34374 0 2.375 2.640624v4.890626h-1.26562v-4.890626q-.01564-.796874-.375-1.171874-.35938-.390626-1.10938-.390626-.625 0-1.09376.328126-.4531.328124-.71874.859374v5.265626h-1.26562v-7.390626zm17.65624 7.390626h-1.3281l-5.01564-7.671876v7.671876h-1.3125v-9.953126h1.3125l5.03124 7.703126v-7.703126h1.3125zm3.65626-1.078126h4.71874v1.078126h-6.03124v-9.953126h1.3125z" fill="#999"/><path d="m25.215626 20.177101v1.53125h-.328126q-2.109374.046875-3.359374 1.265625-1.25 1.203125-1.4375 3.40625 1.125-1.296875 3.0625-1.296875 1.859374 0 2.96875 1.3125 1.109374 1.3125 1.109374 3.375 0 2.203125-1.203124 3.531249-1.203126 1.3125-3.203126 1.3125-2.046874 0-3.3125-1.5625-1.265624-1.578124-1.265624-4.046874v-.703125q0-3.921875 1.671874-6 1.671876-2.078125 4.984376-2.125zm-2.359376 6.40625q-.9375 0-1.71875.5625-.78125.5625-1.078124 1.390625v.671875q0 1.75.78125 2.828125.796874 1.078124 1.984374 1.078124 1.21875 0 1.90625-.890624.703126-.90625.703126-2.359375 0-1.46875-.703126-2.375-.703124-.90625-1.875-.90625zm8.90625-.15625h1.359376q1.28125-.03125 2-.671875.734374-.65625.734374-1.78125 0-2.5-2.484374-2.5-1.171876 0-1.875.671875-.6875.671875-.6875 1.78125h-1.8125q0-1.6875 1.234374-2.8125 1.234376-1.125 3.140626-1.125 2.015624 0 3.15625 1.078125 1.140624 1.0625 1.140624 2.953125 0 .921875-.609374 1.796875-.59375.875-1.625 1.296875 1.171874.375 1.8125 1.234375.640624.859375.640624 2.09375 0 1.921874-1.25 3.046874-1.25 1.125-3.265624 1.125-2 0-3.25-1.078124-1.25-1.09375-1.25-2.875h1.8125q0 1.125.734374 1.796874.734376.671876 1.96875.671876 1.296876 0 1.984376-.671876.703124-.687499.703124-1.968749 0-1.25-.765624-1.90625-.75-.671875-2.1875-.6875h-1.359376zm8.21875-3.5q0-1.28125.8125-2.109375.8125-.828125 2.09375-.828125 1.296876 0 2.09375.84375.8125.828125.8125 2.15625v.6875q0 1.296875-.8125 2.109375-.8125.8125-2.078124.8125-1.265626 0-2.09375-.8125-.828126-.8125-.828126-2.171875zm1.34375.75q0 .765625.421876 1.265625.4375.484375 1.15625.484375.703124 0 1.125-.46875.421874-.484375.421874-1.3125v-.71875q0-.765625-.421874-1.265625-.421876-.5-1.140626-.5-.71875 0-1.140624.5-.421876.5-.421876 1.296875zm5.578126 7.25q0-1.28125.8125-2.109375.8125-.828125 2.09375-.828125 1.28125 0 2.09375.828125.828124.8125.828124 2.171875v.703125q0 1.265624-.8125 2.09375-.8125.828124-2.09375.828124-1.265624 0-2.09375-.8125-.828124-.8125-.828124-2.171874zm1.34375.765625q0 .765624.421874 1.265624.4375.484376 1.15625.484376.703126 0 1.125-.484376.421876-.484374.421876-1.312499v-.71875q0-.78125-.421876-1.265625-.421874-.484375-1.140624-.484375-.6875 0-1.125.484375-.4375.484375-.4375 1.296875zm-4.9375 1.640624-1.015626-.640624 6.9375-11.109375 1.03125.640625zm16.53125-4.296874q0-1.5625.609374-2.796875.609376-1.25 1.6875-1.921875 1.09375-.671875 2.5-.671875 2.15625 0 3.48437 1.5 1.34375 1.484375 1.34375 3.96875v.125q0 1.546875-.59375 2.781249-.59375 1.21875-1.70312 1.90625-1.09375.6875-2.51563.6875-2.14062 0-3.48437-1.5-1.328124-1.499999-1.328124-3.953124zm1.8125.203125q0 1.765625.8125 2.828125.828124 1.0625 2.187494 1.0625 1.375 0 2.1875-1.078126.8125-1.078124.8125-3.015624 0-1.75-.82812-2.828125-.82813-1.078125-2.1875-1.078125-1.34375 0-2.171874 1.0625-.8125 1.0625-.8125 3.046875zm10.546874 5.171875v-9.171875h-1.65625v-1.390625h1.65625v-1.09375q0-1.6875.90625-2.609375.92187-.9375 2.57812-.9375.625 0 1.23438.15625l-.09375 1.46875q-.45313-.078125-.96875-.078125-.89063 0-1.375.515625-.46875.5-.46875 1.453125v1.125h2.25v1.390625h-2.25v9.171875zm14.46875-4.484375.26562 1.875.40625-1.6875 2.8125-9.921875h1.57813l2.75 9.921875.39062 1.71875.29688-1.921875 2.21875-9.71875h1.875l-3.4375 14.21875h-1.71875l-2.92188-10.359375-.23437-1.09375-.21875 1.09375-3.03125 10.359375h-1.71875l-3.4375-14.21875h1.875zm19.03125 4.687499q-2.14063 0-3.5-1.40625-1.34375-1.421874-1.34375-3.781249v-.34375q0-1.5625.59375-2.796875.60937-1.234375 1.6875-1.9375 1.07812-.703125 2.34375-.703125 2.0625 0 3.20312 1.359375 1.14063 1.359375 1.14063 3.890625v.75h-7.15625q.03125 1.5625.90625 2.531249.875.953126 2.21875.953126.96875 0 1.625-.390626.67187-.390624 1.17187-1.031249l1.09375.859375q-1.32812 2.046874-3.98437 2.046874zm-.21875-9.484374q-1.09375 0-1.84375.796875-.73438.796875-.90625 2.234375h5.28125v-.140625q-.07813-1.375-.75-2.125-.65625-.765625-1.78125-.765625zm15.78125 4.109375q0 2.421875-1.10938 3.906249-1.10937 1.46875-2.98437 1.46875-2.01563 0-3.10938-1.421874l-.07812 1.21875h-1.65625v-15h1.79687v5.59375q1.09375-1.359375 3.01563-1.359375 1.92187 0 3.01562 1.453125 1.10938 1.453125 1.10938 3.984375zm-1.8125-.203125q0-1.84375-.71875-2.84375-.70313-1.015625-2.03125-1.015625-1.79688 0-2.57813 1.671875v4.5625q.82813 1.65625 2.59375 1.65625 1.29688 0 2.01563-1 .71875-1 .71875-3.03125zm10.01562 2.578125q0-.734375-.54687-1.140625-.54688-.40625-1.92188-.703125-1.375-.296875-2.1875-.703125-.79687-.40625-1.1875-.96875-.375-.578125-.375-1.359375 0-1.296875 1.09375-2.1875 1.09375-.90625 2.8125-.90625 1.79688 0 2.90625.9375 1.125.921875 1.125 2.359375h-1.82812q0-.734375-.625-1.265625-.625-.546875-1.57813-.546875-1 0-1.5625.4375-.54687.421875-.54687 1.125 0 .640625.51562.984375.51563.328125 1.875.640625 1.35938.296875 2.1875.71875.84375.40625 1.25 1 .40625.59375.40625 1.4375 0 1.421874-1.14062 2.28125-1.125.859374-2.9375.859374-1.26563 0-2.25-.453124-.96875-.453126-1.53125-1.25-.54688-.8125-.54688-1.75h1.8125q.04688.90625.71875 1.4375.6875.53125 1.79688.53125 1.03125 0 1.64062-.40625.625-.421876.625-1.109375zm5.8125 2.796875h-1.79687v-10.5625h1.79687zm-1.95312-13.375q0-.4375.26562-.734375.28125-.3125.79688-.3125.53125 0 .79687.3125.28125.296875.28125.734375 0 .4375-.28125.734375-.26562.296875-.79687.296875-.51563 0-.79688-.296875-.26562-.296875-.26562-.734375zm7.4375.25v2.5625h1.98437v1.390625h-1.98437v6.546875q0 .640624.26562.96875.26563.3125.90625.3125.3125 0 .85938-.125v1.46875q-.71875.203124-1.39063.203124-1.20312 0-1.82812-.734374-.60938-.734376-.60938-2.09375v-6.546875h-1.92187v-1.390625h1.92187v-2.5625zm8.9375 13.328124q-2.14063 0-3.5-1.40625-1.34375-1.421874-1.34375-3.781249v-.34375q0-1.5625.59375-2.796875.60937-1.234375 1.6875-1.9375 1.07812-.703125 2.34375-.703125 2.0625 0 3.20312 1.359375 1.14063 1.359375 1.14063 3.890625v.75h-7.15625q.03125 1.5625.90625 2.531249.875.953126 2.21875.953126.96875 0 1.625-.390626.67187-.390624 1.17187-1.031249l1.09375.859375q-1.32812 2.046874-3.98437 2.046874zm-.21875-9.484374q-1.09375 0-1.84375.796875-.73438.796875-.90625 2.234375h5.28125v-.140625q-.07813-1.375-.75-2.125-.65625-.765625-1.78125-.765625zm12.98437 6.484375q0-.734375-.54687-1.140625-.54688-.40625-1.92188-.703125-1.375-.296875-2.1875-.703125-.79687-.40625-1.1875-.96875-.375-.578125-.375-1.359375 0-1.296875 1.09375-2.1875 1.09375-.90625 2.8125-.90625 1.79688 0 2.90625.9375 1.125.921875 1.125 2.359375h-1.82812q0-.734375-.625-1.265625-.625-.546875-1.57813-.546875-1 0-1.5625.4375-.54687.421875-.54687 1.125 0 .640625.51562.984375.51563.328125 1.875.640625 1.35938.296875 2.1875.71875.84375.40625 1.25 1 .40625.59375.40625 1.4375 0 1.421874-1.14062 2.28125-1.125.859374-2.9375.859374-1.26563 0-2.25-.453124-.96875-.453126-1.53125-1.25-.54688-.8125-.54688-1.75h1.8125q.04688.90625.71875 1.4375.6875.53125 1.79688.53125 1.03125 0 1.64062-.40625.625-.421876.625-1.109375zm20.0625 2.796875h-1.89062v-6.578125h-7.15625v6.578125h-1.875v-14.21875h1.875v6.109375h7.15625v-6.109375h1.89062zm9.3125 0q-.15625-.3125-.25-1.109376-1.26562 1.3125-3.01562 1.3125-1.5625 0-2.5625-.890624-1-.890626-1-2.25 0-1.640625 1.25-2.546875 1.26562-.921875 3.53125-.921875h1.76562v-.828125q0-.953125-.57812-1.515625-.5625-.5625-1.65625-.5625-.96875 0-1.625.5-.65625.484375-.65625 1.171875h-1.8125q0-.78125.5625-1.515625.5625-.75 1.51562-1.171875.96875-.4375 2.125-.4375 1.82813 0 2.85938.921875 1.03125.90625 1.07812 2.515625v4.859375q0 1.453124.35938 2.3125v.15625zm-3-1.375q.85938 0 1.60938-.4375.76562-.4375 1.10937-1.140625v-2.171875h-1.42187q-3.3125 0-3.3125 1.9375 0 .859374.5625 1.34375.5625.46875 1.45312.46875zm10.96875-1.078125 2.60938-8.109375h1.84375l-3.78125 10.5625h-1.375l-3.82813-10.5625h1.84375zm10.89063 2.656249q-2.14063 0-3.5-1.40625-1.34375-1.421874-1.34375-3.781249v-.34375q0-1.5625.59375-2.796875.60937-1.234375 1.6875-1.9375 1.07812-.703125 2.34375-.703125 2.0625 0 3.20312 1.359375 1.14063 1.359375 1.14063 3.890625v.75h-7.15625q.03125 1.5625.90625 2.531249.875.953126 2.21875.953126.96875 0 1.625-.390626.67187-.390624 1.17187-1.031249l1.09375.859375q-1.32812 2.046874-3.98437 2.046874zm-.21875-9.484374q-1.09375 0-1.84375.796875-.73438.796875-.90625 2.234375h5.28125v-.140625q-.07813-1.375-.75-2.125-.65625-.765625-1.78125-.765625zm18.35937 9.28125q-.15625-.3125-.25-1.109376-1.26562 1.3125-3.01562 1.3125-1.5625 0-2.5625-.890624-1-.890626-1-2.25 0-1.640625 1.25-2.546875 1.26562-.921875 3.53125-.921875h1.76562v-.828125q0-.953125-.57812-1.515625-.5625-.5625-1.65625-.5625-.96875 0-1.625.5-.65625.484375-.65625 1.171875h-1.8125q0-.78125.5625-1.515625.5625-.75 1.51562-1.171875.96875-.4375 2.125-.4375 1.82813 0 2.85938.921875 1.03125.90625 1.07812 2.515625v4.859375q0 1.453124.35938 2.3125v.15625zm-3-1.375q.85938 0 1.60938-.4375.76562-.4375 1.10937-1.140625v-2.171875h-1.42187q-3.3125 0-3.3125 1.9375 0 .859374.5625 1.34375.5625.46875 1.45312.46875zm13.57813-12.546875-.20313 3.59375h-1.26562l.01562-4.671875h1.45313zm2.1875 13.921875v-14.21875h4.64062q2.3125 0 3.48438.953125 1.17187.953125 1.17187 2.828125 0 1-.57812 1.765625-.5625.765625-1.53125 1.1875 1.14062.328125 1.8125 1.234375.67187.890625.67187 2.140625 0 1.921875-1.25 3.015625-1.23437 1.09375-3.5 1.09375zm1.875-6.65625v5.125h3.09375q1.3125 0 2.0625-.671876.75-.687499.75-1.874999 0-2.578125-2.78125-2.578125zm0-1.5h2.82812q1.23438 0 1.96875-.609375.73438-.625.73438-1.671875 0-1.171875-.6875-1.703125-.67188-.53125-2.07813-.53125h-2.76562zm16.35939 8.15625q-.15624-.3125-.25-1.109376-1.26564 1.3125-3.01564 1.3125-1.5625 0-2.5625-.890624-1-.890626-1-2.25 0-1.640625 1.25-2.546875 1.26562-.921875 3.53126-.921875h1.76564v-.828125q0-.953125-.57814-1.515625-.5625-.5625-1.65626-.5625-.96874 0-1.625.5-.65625.484375-.65625 1.171875h-1.8125q0-.78125.5625-1.515625.5625-.75 1.51562-1.171875.96877-.4375 2.12503-.4375 1.8281 0 2.85936.921875 1.03124.90625 1.07814 2.515625v4.859375q0 1.453124.35936 2.3125v.15625zm-3-1.375q.85936 0 1.60936-.4375.76564-.4375 1.1094-1.140625v-2.171875h-1.4219q-3.3125 0-3.3125 1.9375 0 .859374.5625 1.34375.5625.46875 1.45314.46875zm7.03126-4q0-2.421875 1.15624-3.90625 1.15626-1.484375 3.01562-1.484375 1.85938 0 2.9375 1.265625v-5.5h1.8125v15h-1.65626l-.09374-1.140626q-1.07812 1.34375-3.01562 1.34375-1.82814 0-3-1.5-1.15624-1.515624-1.15624-3.937499zm1.8125.203125q0 1.796875.73436 2.812499.75 1.015626 2.0625 1.015626 1.71874 0 2.5-1.53125v-4.859375q-.79686-1.5-2.48436-1.5-1.32814 0-2.07814 1.03125-.73436 1.03125-.73436 3.03125zm16.79686-.390625v5.5625h-1.875v-14.21875h5.23438q2.34376 0 3.65626 1.1875 1.3281 1.1875 1.3281 3.15625 0 2.078125-1.29686 3.203125-1.29688 1.109375-3.70314 1.109375zm0-1.53125h3.35938q1.51562 0 2.3125-.703125.79686-.71875.79686-2.0625 0-1.265625-.79686-2.015625-.79688-.765625-2.20314-.796875h-3.46874zm15.21874 7.296874q-2.1406 0-3.5-1.40625-1.34374-1.421874-1.34374-3.781249v-.34375q0-1.5625.59374-2.796875.6094-1.234375 1.6875-1.9375 1.07814-.703125 2.34376-.703125 2.0625 0 3.20314 1.359375 1.1406 1.359375 1.1406 3.890625v.75h-7.15624q.03124 1.5625.90624 2.531249.875.953126 2.21876.953126.96874 0 1.625-.390626.67188-.390624 1.17188-1.031249l1.09376.859375q-1.32814 2.046874-3.9844 2.046874zm-.21874-9.484374q-1.09376 0-1.84376.796875-.73436.796875-.90624 2.234375h5.28124v-.140625q-.0781-1.375-.75-2.125-.65624-.765625-1.78124-.765625zm11.9375.328125q-.40626-.0625-.875-.0625-1.78126 0-2.42186 1.515625v7.5h-1.7969v-10.5625h1.75l.03126 1.21875q.89064-1.421875 2.51564-1.421875.53124 0 .79686.140625zm2.78124 8.953125v-9.171875h-1.65624v-1.390625h1.65624v-1.09375q0-1.6875.90626-2.609375.92188-.9375 2.57814-.9375.625 0 1.23436.15625l-.09376 1.46875q-.4531-.078125-.96874-.078125-.89062 0-1.375.515625-.46876.5-.46876 1.453125v1.125h2.25v1.390625h-2.25v9.171875zm5.64064-5.375q0-1.5625.60936-2.796875.6094-1.25 1.6875-1.921875 1.09376-.671875 2.5-.671875 2.15626 0 3.4844 1.5 1.34374 1.484375 1.34374 3.96875v.125q0 1.546875-.59374 2.781249-.59376 1.21875-1.70314 1.90625-1.09376.6875-2.51562.6875-2.14064 0-3.48438-1.5-1.32812-1.499999-1.32812-3.953124zm1.8125.203125q0 1.765625.8125 2.828125.82812 1.0625 2.1875 1.0625 1.375 0 2.1875-1.078126.8125-1.078124.8125-3.015624 0-1.75-.82814-2.828125-.8281-1.078125-2.1875-1.078125-1.34374 0-2.17186 1.0625-.8125 1.0625-.8125 3.046875zm14.76562-3.78125q-.40626-.0625-.875-.0625-1.78126 0-2.42186 1.515625v7.5h-1.7969v-10.5625h1.75l.03126 1.21875q.89064-1.421875 2.51564-1.421875.53124 0 .79686.140625zm3.59374-1.609375.0469 1.171875q1.17186-1.375 3.1406-1.375 2.21876 0 3.01564 1.703125.53126-.765625 1.375-1.234375.84376-.46875 2-.46875 3.46876 0 3.53126 3.6875v7.078125h-1.8125v-6.96875q0-1.140625-.51564-1.703125-.51562-.5625-1.73436-.5625-1 0-1.6719.609375-.65624.59375-.7656 1.609375v7.015625h-1.8125v-6.921875q0-2.3125-2.26564-2.3125-1.78126 0-2.42186 1.515625v7.71875h-1.8125v-10.5625zm22.82814 10.5625q-.15624-.3125-.25-1.109376-1.26564 1.3125-3.01564 1.3125-1.5625 0-2.5625-.890624-1-.890626-1-2.25 0-1.640625 1.25-2.546875 1.26564-.921875 3.53126-.921875h1.76564v-.828125q0-.953125-.57814-1.515625-.5625-.5625-1.65626-.5625-.96874 0-1.625.5-.65624.484375-.65624 1.171875h-1.8125q0-.78125.5625-1.515625.5625-.75 1.51564-1.171875.96874-.4375 2.125-.4375 1.8281 0 2.85936.921875 1.03124.90625 1.07814 2.515625v4.859375q0 1.453124.35936 2.3125v.15625zm-3-1.375q.85936 0 1.60936-.4375.76564-.4375 1.1094-1.140625v-2.171875h-1.4219q-3.3125 0-3.3125 1.9375 0 .859374.5625 1.34375.5625.46875 1.45314.46875zm9.1875-9.1875.0625 1.328125q1.20312-1.53125 3.15626-1.53125 3.35936 0 3.375 3.78125v6.984375h-1.7969v-7q-.0156-1.140625-.53124-1.6875-.5-.546875-1.59376-.546875-.875 0-1.54686.46875-.65624.46875-1.03124 1.234375v7.53125h-1.7969v-10.5625zm13.53126 9.28125q.96874 0 1.6875-.578126.71874-.593749.79686-1.468749h1.71874q-.0625.90625-.6406 1.734375-.5625.8125-1.53126 1.3125-.95314.484374-2.03124.484374-2.15626 0-3.4375-1.4375-1.26564-1.453124-1.26564-3.953124v-.296875q0-1.546875.5625-2.75.5625-1.203125 1.625-1.859375 1.0625-.671875 2.5-.671875 1.78124 0 2.95314 1.0625 1.1875 1.0625 1.2656 2.765625h-1.71874q-.07812-1.015625-.78126-1.671875-.6875-.671875-1.71874-.671875-1.375 0-2.14062 1-.75.984375-.75 2.859375v.34375q0 1.828125.75 2.812499.75.984376 2.15626.984376zm10.1406 1.484374q-2.1406 0-3.5-1.40625-1.34374-1.421874-1.34374-3.781249v-.34375q0-1.5625.59374-2.796875.6094-1.234375 1.6875-1.9375 1.07814-.703125 2.34376-.703125 2.0625 0 3.20314 1.359375 1.1406 1.359375 1.1406 3.890625v.75h-7.15624q.03124 1.5625.90624 2.531249.875.953126 2.21876.953126.96874 0 1.625-.390626.67188-.390624 1.17188-1.031249l1.09376.859375q-1.32814 2.046874-3.9844 2.046874zm-.21874-9.484374q-1.09376 0-1.84376.796875-.73436.796875-.90624 2.234375h5.28124v-.140625q-.0781-1.375-.75-2.125-.65624-.765625-1.78124-.765625zm7.9375-4.640625-.20312 3.59375h-1.26564l.01564-4.671875h1.45312zm17.64064 9.40625q-.26564 2.265625-1.6719 3.499999-1.3906 1.21875-3.71874 1.21875-2.51562 0-4.04686-1.8125-1.51564-1.812499-1.51564-4.843749v-1.359375q0-1.984375.70314-3.484375.71874-1.5 2.0156-2.3125 1.2969-.8125 3.01564-.8125 2.26562 0 3.625 1.265625 1.375 1.265625 1.59376 3.5h-1.89064q-.23436-1.6875-1.0625-2.453125-.8125-.765625-2.26562-.765625-1.79688 0-2.82814 1.328125-1.0156 1.328125-1.0156 3.78125v1.375q0 2.3125.96874 3.6875.96876 1.359375 2.70312 1.359375 1.5625 0 2.39064-.703126.84374-.703124 1.10936-2.468749zm6.6406 4.718749q-2.1406 0-3.5-1.40625-1.34374-1.421874-1.34374-3.781249v-.34375q0-1.5625.59374-2.796875.6094-1.234375 1.6875-1.9375 1.07814-.703125 2.34376-.703125 2.0625 0 3.20314 1.359375 1.1406 1.359375 1.1406 3.890625v.75h-7.15624q.03124 1.5625.90624 2.531249.875.953126 2.21876.953126.96874 0 1.625-.390626.67188-.390624 1.17188-1.031249l1.09376.859375q-1.32814 2.046874-3.9844 2.046874zm-.21874-9.484374q-1.09376 0-1.84376.796875-.73436.796875-.90624 2.234375h5.28124v-.140625q-.0781-1.375-.75-2.125-.65624-.765625-1.78124-.765625zm11.9375.328125q-.40626-.0625-.875-.0625-1.78126 0-2.42186 1.515625v7.5h-1.7969v-10.5625h1.75l.03126 1.21875q.89064-1.421875 2.51564-1.421875.53124 0 .79686.140625zm4.34374-4.171875v2.5625h1.9844v1.390625h-1.9844v6.546875q0 .640624.26564.96875.26562.3125.90626.3125.3125 0 .85936-.125v1.46875q-.71876.203124-1.39062.203124-1.20314 0-1.82814-.734374-.60936-.734376-.60936-2.09375v-6.546875h-1.92188v-1.390625h1.92188v-2.5625zm6.51564 13.125h-1.79688v-10.5625h1.79688zm-1.95314-13.375q0-.4375.26564-.734375.28126-.3125.79686-.3125.53126 0 .7969.3125.28124.296875.28124.734375 0 .4375-.28124.734375-.26564.296875-.7969.296875-.5156 0-.79686-.296875-.26564-.296875-.26564-.734375zm5.875 13.375v-9.171875h-1.65624v-1.390625h1.65624v-1.09375q0-1.6875.90626-2.609375.92188-.9375 2.57814-.9375.625 0 1.23436.15625l-.09376 1.46875q-.4531-.078125-.96874-.078125-.89062 0-1.375.515625-.46876.5-.46876 1.453125v1.125h2.25v1.390625h-2.25v9.171875zm8.07814 0h-1.79688v-10.5625h1.79688zm-1.95314-13.375q0-.4375.26564-.734375.28126-.3125.79686-.3125.53126 0 .7969.3125.28124.296875.28124.734375 0 .4375-.28124.734375-.26564.296875-.7969.296875-.5156 0-.79686-.296875-.26564-.296875-.26564-.734375zm9.2344 12.09375q.96874 0 1.6875-.578126.71874-.593749.79686-1.468749h1.71874q-.0625.90625-.6406 1.734375-.5625.8125-1.53126 1.3125-.95314.484374-2.03124.484374-2.15626 0-3.4375-1.4375-1.26564-1.453124-1.26564-3.953124v-.296875q0-1.546875.5625-2.75.5625-1.203125 1.625-1.859375 1.0625-.671875 2.5-.671875 1.78124 0 2.95314 1.0625 1.1875 1.0625 1.2656 2.765625h-1.71874q-.07812-1.015625-.78126-1.671875-.6875-.671875-1.71874-.671875-1.375 0-2.14062 1-.75.984375-.75 2.859375v.34375q0 1.828125.75 2.812499.75.984376 2.15626.984376zm12.28124 1.28125q-.15624-.3125-.25-1.109376-1.26564 1.3125-3.01564 1.3125-1.5625 0-2.5625-.890624-1-.890626-1-2.25 0-1.640625 1.25-2.546875 1.26564-.921875 3.53126-.921875h1.76564v-.828125q0-.953125-.57814-1.515625-.5625-.5625-1.65626-.5625-.96874 0-1.625.5-.65624.484375-.65624 1.171875h-1.8125q0-.78125.5625-1.515625.5625-.75 1.51564-1.171875.96874-.4375 2.125-.4375 1.8281 0 2.85936.921875 1.03124.90625 1.07814 2.515625v4.859375q0 1.453124.35936 2.3125v.15625zm-3-1.375q.85936 0 1.60936-.4375.76564-.4375 1.1094-1.140625v-2.171875h-1.4219q-3.3125 0-3.3125 1.9375 0 .859374.5625 1.34375.5625.46875 1.45314.46875zm9.92186-11.75v2.5625h1.9844v1.390625h-1.9844v6.546875q0 .640624.26564.96875.26562.3125.90626.3125.3125 0 .85936-.125v1.46875q-.71876.203124-1.39062.203124-1.20314 0-1.82814-.734374-.60936-.734376-.60936-2.09375v-6.546875h-1.92188v-1.390625h1.92188v-2.5625zm8.9375 13.328124q-2.1406 0-3.5-1.40625-1.34374-1.421874-1.34374-3.781249v-.34375q0-1.5625.59374-2.796875.6094-1.234375 1.6875-1.9375 1.07814-.703125 2.34376-.703125 2.0625 0 3.20314 1.359375 1.1406 1.359375 1.1406 3.890625v.75h-7.15624q.03124 1.5625.90624 2.531249.875.953126 2.21876.953126.96874 0 1.625-.390626.67188-.390624 1.17188-1.031249l1.09376.859375q-1.32814 2.046874-3.9844 2.046874zm-.21874-9.484374q-1.09376 0-1.84376.796875-.73436.796875-.90624 2.234375h5.28124v-.140625q-.0781-1.375-.75-2.125-.65624-.765625-1.78124-.765625z" fill="#434343"/></svg>