<svg fill="none" height="339" stroke-linecap="square" stroke-miterlimit="10" viewBox="0 0 548 339" width="548" xmlns="http://www.w3.org/2000/svg" xmlns:xlink="http://www.w3.org/1999/xlink"><clipPath id="a"><path d="m147.23132 69.78353h383.81738v231.64872h-383.81738z"/></clipPath><path d="m0 0h548v339h-548z" fill="#fff"/><path d="m147.5 69.5v232" stroke="#333" stroke-linecap="butt"/><path d="m243.5 69.5v232" stroke="#ccc" stroke-linecap="butt"/><path d="m339.5 69.5v232" stroke="#ccc" stroke-linecap="butt"/><path d="m435.5 69.5v232" stroke="#ccc" stroke-linecap="butt"/><path d="m531.5 69.5v232" stroke="#ccc" stroke-linecap="butt"/><path clip-path="url(#a)" d="m147 267v-64h142c1.10458 0 2 .89543 2 2v60c0 1.10458-.89542 2-2 2z"/><path clip-path="url(#a)" d="m147 267v-64h142c1.10458 0 2 .89543 2 2v60c0 1.10458-.89542 2-2 2z" fill="#e64a19"/><path clip-path="url(#a)" d="m147 168v-64h334c1.10458 0 2 .89543 2 2v60c0 1.10457-.89542 2-2 2z"/><path clip-path="url(#a)" d="m147 168v-64h334c1.10458 0 2 .89543 2 2v60c0 1.10457-.89542 2-2 2z" fill="#e64a19"/><path d="m266.5472 239.5h-1.2656v-8.42188l-2.5625.92188v-1.14062l3.625-1.35938h.2031zm4.4219-4.98438.5156-4.96874h5.09376v1.17187h-4.03126l-.29686 2.70313q.73436-.42188 1.65626-.42188 1.35936 0 2.15624.90625.8125.89063.8125 2.42187 0 1.53126-.84374 2.42188-.82814.89062-2.3125.89062-1.3125 0-2.15626-.73437-.82814-.73437-.95314-2.03125h1.20314q.10936.85938.59376 1.29688.5.4375 1.3125.4375.875 0 1.375-.59376.5156-.60937.5156-1.67187 0-1-.54686-1.59375-.54688-.60938-1.45314-.60938-.8125 0-1.29686.35938l-.32814.26562zm13.65624.73438q0 2.21875-.76564 3.3125-.75 1.07812-2.35936 1.07812-1.59374 0-2.35938-1.04687-.76562-1.0625-.79686-3.17187v-1.6875q0-2.1875.75-3.25.7656-1.07813 2.3906-1.07813 1.6094 0 2.3594 1.03125.7656 1.03125.78124 3.17188zm-1.26564-1.71875q0-1.60937-.4531-2.34375-.4375-.73438-1.4219-.73438-.96874 0-1.42186.73438-.4375.71875-.45314 2.23438v2.03124q0 1.60938.46876 2.39063.46874.76563 1.42188.76563.9375 0 1.39062-.71876.45314-.73437.46874-2.29687z" stroke="#e64a19" stroke-linecap="round" stroke-linejoin="round" stroke-width="3"/><path d="m266.5472 239.5h-1.2656v-8.42188l-2.5625.92188v-1.14062l3.625-1.35938h.2031zm4.4219-4.98438.5156-4.96874h5.09376v1.17187h-4.03126l-.29686 2.70313q.73436-.42188 1.65626-.42188 1.35936 0 2.15624.90625.8125.89063.8125 2.42187 0 1.53126-.84374 2.42188-.82814.89062-2.3125.89062-1.3125 0-2.15626-.73437-.82814-.73437-.95314-2.03125h1.20314q.10936.85938.59376 1.29688.5.4375 1.3125.4375.875 0 1.375-.59376.5156-.60937.5156-1.67187 0-1-.54686-1.59375-.54688-.60938-1.45314-.60938-.8125 0-1.29686.35938l-.32814.26562zm13.65624.73438q0 2.21875-.76564 3.3125-.75 1.07812-2.35936 1.07812-1.59374 0-2.35938-1.04687-.76562-1.0625-.79686-3.17187v-1.6875q0-2.1875.75-3.25.7656-1.07813 2.3906-1.07813 1.6094 0 2.3594 1.03125.7656 1.03125.78124 3.17188zm-1.26564-1.71875q0-1.60937-.4531-2.34375-.4375-.73438-1.4219-.73438-.96874 0-1.42186.73438-.4375.71875-.45314 2.23438v2.03124q0 1.60938.46876 2.39063.46874.76563 1.42188.76563.9375 0 1.39062-.71876.45314-.73437.46874-2.29687z" fill="#fff"/><path d="m456.1434 134.90625h.9375q.90625-.01563 1.40625-.46875.51563-.45312.51563-1.23438 0-1.75-1.73438-1.75-.82812 0-1.3125.46876-.48437.46874-.48437 1.23437h-1.26563q0-1.1875.85938-1.96875.875-.78125 2.20312-.78125 1.40625 0 2.20313.75.79687.75.79687 2.0625 0 .65625-.42187 1.26563-.40625.60937-1.14063.90624.82813.26563 1.26563.875.45312.59376.45312 1.45313 0 1.34375-.875 2.14063-.875.78124-2.28125.78124-1.39062 0-2.28125-.75-.875-.76562-.875-2.01562h1.28125q0 .78125.5 1.26562.51563.46876 1.375.46876.92188 0 1.40625-.48438.48438-.48438.48438-1.375 0-.85938-.53125-1.32812-.53125-.46876-1.54688-.48438h-.9375zm6.73438.60937.51562-4.96874h5.09375v1.17187h-4.03125l-.29687 2.70313q.73437-.42188 1.65625-.42188 1.35937 0 2.15625.90625.8125.89063.8125 2.42187 0 1.53126-.84375 2.42188-.82813.89062-2.3125.89062-1.3125 0-2.15625-.73437-.82813-.73437-.95313-2.03125h1.20313q.10937.85938.59375 1.29688.5.4375 1.3125.4375.875 0 1.375-.59376.51562-.60937.51562-1.67187 0-1-.54687-1.59375-.54688-.60938-1.45313-.60938-.8125 0-1.29687.35938l-.32813.26562zm13.65625.73438q0 2.21875-.76563 3.3125-.75 1.07812-2.35937 1.07812-1.59375 0-2.35938-1.04687-.76562-1.0625-.79687-3.17187v-1.6875q0-2.1875.75-3.25.76562-1.07813 2.39062-1.07813 1.60938 0 2.35938 1.03125.76562 1.03125.78125 3.17188zm-1.26563-1.71875q0-1.60937-.45312-2.34375-.4375-.73438-1.42188-.73438-.96875 0-1.42187.73438-.4375.71875-.45313 2.23438v2.03124q0 1.60938.46875 2.39063.46875.76563 1.42188.76563.9375 0 1.39062-.71876.45313-.73437.46875-2.29687z" stroke="#e64a19" stroke-linecap="round" stroke-linejoin="round" stroke-width="3"/><path d="m456.1434 134.90625h.9375q.90625-.01563 1.40625-.46875.51563-.45312.51563-1.23438 0-1.75-1.73438-1.75-.82812 0-1.3125.46876-.48437.46874-.48437 1.23437h-1.26563q0-1.1875.85938-1.96875.875-.78125 2.20312-.78125 1.40625 0 2.20313.75.79687.75.79687 2.0625 0 .65625-.42187 1.26563-.40625.60937-1.14063.90624.82813.26563 1.26563.875.45312.59376.45312 1.45313 0 1.34375-.875 2.14063-.875.78124-2.28125.78124-1.39062 0-2.28125-.75-.875-.76562-.875-2.01562h1.28125q0 .78125.5 1.26562.51563.46876 1.375.46876.92188 0 1.40625-.48438.48438-.48438.48438-1.375 0-.85938-.53125-1.32812-.53125-.46876-1.54688-.48438h-.9375zm6.73438.60937.51562-4.96874h5.09375v1.17187h-4.03125l-.29687 2.70313q.73437-.42188 1.65625-.42188 1.35937 0 2.15625.90625.8125.89063.8125 2.42187 0 1.53126-.84375 2.42188-.82813.89062-2.3125.89062-1.3125 0-2.15625-.73437-.82813-.73437-.95313-2.03125h1.20313q.10937.85938.59375 1.29688.5.4375 1.3125.4375.875 0 1.375-.59376.51562-.60937.51562-1.67187 0-1-.54687-1.59375-.54688-.60938-1.45313-.60938-.8125 0-1.29687.35938l-.32813.26562zm13.65625.73438q0 2.21875-.76563 3.3125-.75 1.07812-2.35937 1.07812-1.59375 0-2.35938-1.04687-.76562-1.0625-.79687-3.17187v-1.6875q0-2.1875.75-3.25.76562-1.07813 2.39062-1.07813 1.60938 0 2.35938 1.03125.76562 1.03125.78125 3.17188zm-1.26563-1.71875q0-1.60937-.45312-2.34375-.4375-.73438-1.42188-.73438-.96875 0-1.42187.73438-.4375.71875-.45313 2.23438v2.03124q0 1.60938.46875 2.39063.46875.76563 1.42188.76563.9375 0 1.39062-.71876.45313-.73437.46875-2.29687z" fill="#fff"/><g fill="#666"><path d="m20.996956 218.95735v-1.17187h4.25v3.71875q-.984376.78125-2.03125 1.17187-1.03125.39063-2.125.39063-1.46875 0-2.6875-.625-1.203126-.64063-1.8125-1.82813-.609376-1.20312-.609376-2.6875 0-1.45312.609376-2.71875.609374-1.28125 1.75-1.89062 1.15625-.60938 2.65625-.60938 1.078124 0 1.953124.35938.890626.34375 1.390626.96875.5.625.75 1.64062l-1.1875.32813q-.234376-.76563-.578126-1.20313-.328124-.4375-.953124-.70312-.609376-.26563-1.375-.26563-.90625 0-1.578126.28125-.65625.28125-1.0625.73438-.40625.4375-.625.98437-.390624.9375-.390624 2.01563 0 1.34375.453124 2.25.46875.89062 1.34375 1.32812.890626.4375 1.890626.4375.859374 0 1.671874-.32812.828126-.32813 1.25-.70313v-1.875zm5.703124.3125q0-2.01562 1.125-3 .921876-.79687 2.28125-.79687 1.484376 0 2.4375.98437.953126.96875.953126 2.70313 0 1.40625-.421876 2.21875-.421874.79687-1.234374 1.25-.796876.4375-1.734376.4375-1.53125 0-2.46875-.98438-.9375-.98437-.9375-2.8125zm1.265626 0q0 1.39063.609374 2.09375.609376.6875 1.53125.6875.90625 0 1.515626-.70312.609374-.70313.609374-2.125 0-1.34375-.609374-2.03125-.609376-.70313-1.515626-.70313-.921874 0-1.53125.6875-.609374.6875-.609374 2.09375zm6.734374 0q0-2.01562 1.125-3 .921876-.79687 2.28125-.79687 1.484376 0 2.4375.98437.953126.96875.953126 2.70313 0 1.40625-.421876 2.21875-.421874.79687-1.234374 1.25-.796876.4375-1.734376.4375-1.53125 0-2.46875-.98438-.9375-.98437-.9375-2.8125zm1.265626 0q0 1.39063.609374 2.09375.609376.6875 1.53125.6875.90625 0 1.515626-.70312.609374-.70313.609374-2.125 0-1.34375-.609374-2.03125-.609376-.70313-1.515626-.70313-.921874 0-1.53125.6875-.609374.6875-.609374 2.09375zm11.90625 3.625v-.92187q-.703126 1.09375-2.03125 1.09375-.875 0-1.609376-.48438-.71875-.48437-1.125-1.34375-.390624-.85937-.390624-1.96875 0-1.07812.359374-1.96875.359376-.89062 1.078126-1.35937.734374-.46875 1.625-.46875.65625 0 1.171874.28125.515626.26562.828126.71875v-3.59375h1.234374v10.01562zm-3.890626-3.625q0 1.39063.578126 2.09375.59375.6875 1.390624.6875.8125 0 1.375-.65625.5625-.67187.5625-2.01562 0-1.5-.578124-2.1875-.578126-.70313-1.40625-.70313-.828126 0-1.375.67188-.546876.67187-.546876 2.10937zm11.328126 3.625v-10.01562h3.78125q1 0 1.53125.09375.734374.125 1.234374.46875.5.34375.796876.96875.3125.60937.3125 1.35937 0 1.28125-.8125 2.17188-.8125.875-2.9375.875h-2.578126v4.07812zm1.328124-5.25h2.59375q1.28125 0 1.8125-.48437.546876-.48438.546876-1.34375 0-.64063-.3125-1.07813-.3125-.45312-.84375-.59375-.328126-.09375-1.234376-.09375h-2.5625zm12.484376 2.90625 1.28125.15625q-.3125 1.125-1.125 1.75-.8125.60938-2.078126.60938-1.59375 0-2.53125-.98438-.921874-.98437-.921874-2.75 0-1.84375.9375-2.84375.953124-1.01562 2.453124-1.01562 1.453126 0 2.375 1 .921876.98437.921876 2.78125 0 .10937 0 .32812h-5.421876q.078126 1.1875.671876 1.82813.609374.64062 1.53125.64062.671874 0 1.140624-.35937.484376-.35938.765626-1.14063zm-4.03125-1.98437h4.046874q-.078124-.92188-.46875-1.375-.578124-.70313-1.515624-.70313-.859376 0-1.4375.5625-.5625.5625-.625 1.51563zm7.046874 4.32812v-7.26562h1.109376v1.10937q.421874-.78125.78125-1.01562.359374-.25.796874-.25.625 0 1.265626.39062l-.421876 1.14063q-.453124-.26563-.90625-.26563-.40625 0-.734374.25-.3125.23438-.453126.67188-.203124.65625-.203124 1.4375v3.79687zm5.3125 0v-6.29687h-1.09375v-.96875h1.09375v-.76563q0-.73437.125-1.09375.1875-.46875.625-.76562.453126-.29688 1.265626-.29688.515624 0 1.140624.125l-.1875 1.0625q-.375-.0625-.71875-.0625-.5625 0-.796874.23438-.234376.23437-.234376.89062v.67188h1.421876v.96875h-1.421876v6.29687zm3.25-3.625q0-2.01562 1.125-3 .921876-.79687 2.28125-.79687 1.484376 0 2.4375.98437.953126.96875.953126 2.70313 0 1.40625-.421876 2.21875-.421874.79687-1.234374 1.25-.796876.4375-1.734376.4375-1.53125 0-2.46875-.98438-.9375-.98437-.9375-2.8125zm1.265626 0q0 1.39063.609374 2.09375.609376.6875 1.53125.6875.90625 0 1.515626-.70312.609374-.70313.609374-2.125 0-1.34375-.609374-2.03125-.609376-.70313-1.515626-.70313-.921874 0-1.53125.6875-.609374.6875-.609374 2.09375zm7.171874 3.625v-7.26562h1.109376v1.10937q.421874-.78125.78125-1.01562.359374-.25.796874-.25.625 0 1.265626.39062l-.421876 1.14063q-.453124-.26563-.90625-.26563-.40625 0-.734374.25-.3125.23438-.453126.67188-.203124.65625-.203124 1.4375v3.79687zm5.015626 0v-7.26562h1.109374v1.03125q.328126-.54688.890626-.85938.578124-.32812 1.296874-.32812.8125 0 1.328126.34375.515624.32812.734374.92187.859376-1.26562 2.234376-1.26562 1.078124 0 1.65625.59375.59375.59375.59375 1.84375v4.98437h-1.234376v-4.57812q0-.73438-.125-1.0625-.109374-.32813-.421874-.51563-.3125-.20312-.734376-.20312-.765624 0-1.28125.51562-.5.5-.5 1.625v4.21875h-1.234374v-4.71875q0-.8125-.296876-1.21875-.296874-.42187-.984374-.42187-.515626 0-.96875.28125-.4375.26562-.640626.79687-.1875.51563-.1875 1.51563v3.76562zm16.734374-.89062q-.671874.57812-1.3125.82812-.625.23438-1.359374.23438-1.1875 0-1.84375-.57813-.640626-.59375-.640626-1.51562 0-.53125.234376-.96875.25-.4375.640624-.70313.40625-.26562.890626-.40625.359374-.09375 1.09375-.1875 1.5-.17187 2.203124-.42187 0-.25 0-.3125 0-.76563-.34375-1.0625-.46875-.42188-1.40625-.42188-.859374 0-1.28125.3125-.40625.29688-.609374 1.0625l-1.203126-.15625q.15625-.78125.53125-1.25.390626-.46875 1.09375-.71875.71875-.26562 1.65625-.26562.921876 0 1.5.21875.578126.21875.84375.54687.28125.32813.390626.84375.0625.3125.0625 1.125v1.64063q0 1.71875.078124 2.17187.078126.45313.3125.875h-1.28125q-.1875-.39062-.25-.89062zm-.09375-2.75q-.671874.26562-2.015624.46875-.75.10937-1.078126.25-.3125.125-.484374.39062-.171876.26563-.171876.57813 0 .5.375.82812.375.32813 1.09375.32813.71875 0 1.265626-.3125.546874-.3125.8125-.85938.203124-.40625.203124-1.21875zm3.359376 3.64062v-7.26562h1.109374v1.03125q.796876-1.1875 2.3125-1.1875.65625 0 1.203126.23437.546874.23438.8125.625.28125.375.390624.90625.078126.34375.078126 1.1875v4.46875h-1.234376v-4.42187q0-.75-.140624-1.10938-.140626-.375-.515626-.59375-.359374-.23437-.859374-.23437-.78125 0-1.359376.5-.5625.5-.5625 1.89062v3.96875zm12.734374-2.65625 1.21874.15625q-.203114 1.25-1.03124 1.96875-.8125.70313-2 .70313-1.484374 0-2.390624-.96875-.90625-.98438-.90625-2.8125 0-1.17188.390624-2.04688.390626-.89062 1.1875-1.32812.796876-.4375 1.734376-.4375 1.171874 0 1.921874.59375.765626.59375.96875 1.70312l-1.1875.1875q-.171874-.73437-.609374-1.09375-.4375-.375-1.046876-.375-.9375 0-1.515624.67188-.578126.65625-.578126 2.09375 0 1.46875.5625 2.14062.5625.65625 1.453126.65625.734374 0 1.21875-.4375.484374-.45312.609374-1.375zm7.23437.3125 1.28125.15625q-.3125 1.125-1.125 1.75-.8125.60938-2.07813.60938-1.59375 0-2.53125-.98438-.92187-.98437-.92187-2.75 0-1.84375.9375-2.84375.95312-1.01562 2.45312-1.01562 1.45313 0 2.375 1 .92188.98437.92188 2.78125 0 .10937 0 .32812h-5.42188q.07813 1.1875.67188 1.82813.60937.64062 1.53125.64062.67187 0 1.14062-.35937.48438-.35938.76563-1.14063zm-4.03125-1.98437h4.04687q-.07812-.92188-.46875-1.375-.57812-.70313-1.51562-.70313-.85938 0-1.4375.5625-.5625.5625-.625 1.51563zm7.40625-1.53125v-1.40625h1.40625v1.40625zm0 5.85937v-1.40625h1.40625v1.40625z"/><path d="m41.309456 239.89485v-10.01562h3.453124q1.171876 0 1.78125.14062.859376.1875 1.46875.71875.796876.67188 1.1875 1.71875.390626 1.03125.390626 2.375 0 1.14063-.265626 2.03125-.265624.875-.6875 1.45313-.40625.57812-.90625.90625-.5.32812-1.203124.5-.6875.17187-1.59375.17187zm1.328124-1.1875h2.140626q.984374 0 1.546874-.17187.578126-.1875.90625-.53125.46875-.46875.734376-1.26563.265624-.79687.265624-1.9375 0-1.5625-.515624-2.40625-.515626-.84375-1.25-1.14062-.546876-.20313-1.71875-.20313h-2.109376zm11.53125 1.1875-3.875-10.01562h1.4375l2.609376 7.28125q.3125.875.515624 1.64062.234376-.82812.546876-1.64062l2.703124-7.28125h1.359376l-3.921876 10.01562zm5.0625.17188 2.90625-10.35938h.984376l-2.90625 10.35938zm4.671876-5.04688q0-2.5 1.34375-3.90625 1.34375-1.42187 3.453124-1.42187 1.390626 0 2.5.67187 1.125.65625 1.703126 1.84375.59375 1.1875.59375 2.6875 0 1.53125-.625 2.73438-.609376 1.20312-1.734376 1.82812-1.125.60938-2.4375.60938-1.421874 0-2.53125-.6875-1.109374-.6875-1.6875-1.85938-.578124-1.1875-.578124-2.5zm1.375.01563q0 1.8125.96875 2.85937.984374 1.03125 2.453124 1.03125 1.484376 0 2.453126-1.04687.96875-1.04688.96875-2.98438 0-1.23437-.421876-2.14062-.40625-.90625-1.203124-1.40625-.796876-.51563-1.78125-.51563-1.40625 0-2.421876.96875-1.015624.96875-1.015624 3.23438zm12.890624 4.85937-3.875-10.01562h1.4375l2.609376 7.28125q.3125.875.515624 1.64062.234376-.82812.546876-1.64062l2.703124-7.28125h1.359376l-3.921876 10.01562zm14.71875-2.65625 1.21875.15625q-.203124 1.25-1.03125 1.96875-.8125.70313-2 .70313-1.484374 0-2.390624-.96875-.90625-.98438-.90625-2.8125 0-1.17188.390624-2.04688.390626-.89062 1.1875-1.32812.796876-.4375 1.734376-.4375 1.171874 0 1.921874.59375.765626.59375.96875 1.70312l-1.1875.1875q-.171874-.73437-.609374-1.09375-.4375-.375-1.046876-.375-.9375 0-1.515624.67188-.578126.65625-.578126 2.09375 0 1.46875.5625 2.14062.5625.65625 1.453126.65625.734374 0 1.21875-.4375.484374-.45312.609374-1.375zm7.234376.3125 1.28125.15625q-.3125 1.125-1.125 1.75-.8125.60938-2.078126.60938-1.59375 0-2.53125-.98438-.921874-.98437-.921874-2.75 0-1.84375.9375-2.84375.953124-1.01562 2.453124-1.01562 1.453126 0 2.375 1 .921876.98437.921876 2.78125 0 .10937 0 .32812h-5.421876q.078126 1.1875.671876 1.82813.609374.64062 1.53125.64062.671874 0 1.140624-.35937.484376-.35938.765626-1.14063zm-4.03125-1.98437h4.046874q-.078124-.92188-.46875-1.375-.578124-.70313-1.515624-.70313-.859376 0-1.4375.5625-.5625.5625-.625 1.51563zm7.046874 4.32812v-7.26562h1.109376v1.10937q.421874-.78125.78125-1.01562.359374-.25.796874-.25.625 0 1.265626.39062l-.421876 1.14063q-.453124-.26563-.90625-.26563-.40625 0-.734374.25-.3125.23438-.453126.67188-.203124.65625-.203124 1.4375v3.79687zm7.703126-1.09375.171874 1.07813q-.515624.10937-.921874.10937-.671876 0-1.046876-.20312-.359374-.21875-.515624-.5625-.140626-.34375-.140626-1.45313v-4.17187h-.90625v-.96875h.90625v-1.79688l1.21875-.73437v2.53125h1.234376v.96875h-1.234376v4.23437q0 .53125.0625.6875.0625.14063.203126.23438.15625.09375.421874.09375.21875 0 .546876-.04688zm6.65625 1.09375-2.21875-7.26562h1.265624l1.15625 4.20312.4375 1.54688q.015626-.10938.375-1.5l1.15625-4.25h1.25l1.09375 4.21875.359376 1.39062.421874-1.40625 1.25-4.20312h1.1875l-2.265624 7.26562h-1.28125l-1.15625-4.34375-.28125-1.23437-1.46875 5.57812zm8.671874-8.60937v-1.40625h1.21875v1.40625zm0 8.60937v-7.26562h1.21875v7.26562zm5.67187-1.09375.17187 1.07813q-.51562.10937-.92187.10937-.67188 0-1.04688-.20312-.35937-.21875-.51562-.5625-.14063-.34375-.14063-1.45313v-4.17187h-.90625v-.96875h.90625v-1.79688l1.21875-.73437v2.53125h1.23438v.96875h-1.23438v4.23437q0 .53125.0625.6875.0625.14063.20313.23438.15625.09375.42187.09375.21875 0 .54688-.04688zm1.3125 1.09375v-10.01562h1.23437v3.59375q.85938-1 2.17188-1 .8125 0 1.40625.32812.59375.3125.84375.875.26562.54688.26562 1.625v4.59375h-1.23437v-4.59375q0-.9375-.40625-1.34375-.39063-.42187-1.125-.42187-.54688 0-1.03125.28125-.48438.28125-.6875.76562-.20313.48438-.20313 1.34375v3.96875z"/><path d="m46.903206 252.01987q0-2.5 1.34375-3.90625 1.34375-1.42188 3.453124-1.42188 1.390626 0 2.5.67188 1.125.65625 1.703126 1.84375.59375 1.1875.59375 2.6875 0 1.53125-.625 2.73437-.609376 1.20313-1.734376 1.82813-1.125.60937-2.4375.60937-1.421874 0-2.53125-.6875-1.109374-.6875-1.6875-1.85937-.578124-1.1875-.578124-2.5zm1.375.01562q0 1.8125.96875 2.85938.984374 1.03125 2.453124 1.03125 1.484376 0 2.453126-1.04688.96875-1.04687.96875-2.98437 0-1.23438-.421876-2.14063-.40625-.90625-1.203124-1.40625-.796876-.51562-1.78125-.51562-1.40625 0-2.421876.96875-1.015624.96875-1.015624 3.23437zm17.1875 1.34375 1.328124.34375q-.421874 1.625-1.515624 2.48438-1.078126.85937-2.640626.85937-1.625 0-2.640624-.65624-1.015626-.67188-1.546876-1.92188-.515624-1.25-.515624-2.6875 0-1.5625.59375-2.71875.59375-1.17188 1.703124-1.76563 1.109376-.60937 2.421876-.60937 1.515624 0 2.53125.76562 1.03125.76563 1.4375 2.14063l-1.3125.3125q-.34375-1.09375-1.015626-1.59375-.65625-.5-1.65625-.5-1.15625 0-1.9375.5625-.78125.54687-1.09375 1.48437-.3125.9375-.3125 1.92188 0 1.28125.375 2.23437.375.95313 1.15625 1.42188.78125.46875 1.703126.46875 1.109374 0 1.875-.64063.78125-.64062 1.0625-1.90625zm2.390624.29688 1.25-.10938q.09375.75.421876 1.23438.328124.48437 1 .78125.6875.29687 1.546874.29687.75 0 1.328126-.21875.59375-.23437.875-.625.28125-.39062.28125-.85937 0-.46875-.28125-.8125-.265626-.35938-.890626-.60938-.40625-.15625-1.796874-.48437-1.375-.32813-1.921876-.625-.71875-.375-1.078124-.92188-.34375-.5625-.34375-1.26562 0-.75.421874-1.40625.4375-.67188 1.265626-1 .828124-.34375 1.84375-.34375 1.109374 0 1.953124.35937.859376.35938 1.3125 1.0625.453126.6875.5 1.5625l-1.28125.09375q-.09375-.9375-.6875-1.42187-.59375-.5-1.75-.5-1.203124 0-1.75.45312-.546874.4375-.546874 1.0625 0 .53125.390624.89063.375.34375 1.984376.71875 1.625.35937 2.21875.625.875.40625 1.296874 1.03125.421876.60937.421876 1.42187 0 .79688-.46875 1.51563-.453126.70313-1.3125 1.09375-.859376.39062-1.921876.39062-1.359374 0-2.28125-.39062-.921874-.40625-1.453124-1.20313-.515626-.79687-.546876-1.79687zm9.453126 3.21875v-10.01563h3.78125q1 0 1.53125.09375.734374.125 1.234374.46875.5.34375.796876.96875.3125.60938.3125 1.35938 0 1.28125-.8125 2.17187-.8125.875-2.9375.875h-2.578126v4.07813zm1.328124-5.25h2.59375q1.28125 0 1.8125-.48438.546876-.48437.546876-1.34375 0-.64062-.3125-1.07812-.3125-.45313-.84375-.59375-.328126-.09375-1.234376-.09375h-2.5625zm11.21875 2.03125 1.25-.10938q.09375.75.421876 1.23438.328124.48437 1 .78125.6875.29687 1.546874.29687.75 0 1.328126-.21875.59375-.23437.875-.625.28125-.39062.28125-.85937 0-.46875-.28125-.8125-.265626-.35938-.890626-.60938-.40625-.15625-1.796874-.48437-1.375-.32813-1.921876-.625-.71875-.375-1.078124-.92188-.34375-.5625-.34375-1.26562 0-.75.421874-1.40625.4375-.67188 1.265626-1 .828124-.34375 1.84375-.34375 1.109374 0 1.953124.35937.859376.35938 1.3125 1.0625.453126.6875.5 1.5625l-1.28125.09375q-.09375-.9375-.6875-1.42187-.59375-.5-1.75-.5-1.203124 0-1.75.45312-.546874.4375-.546874 1.0625 0 .53125.390624.89063.375.34375 1.984376.71875 1.625.35937 2.21875.625.875.40625 1.296874 1.03125.421876.60937.421876 1.42187 0 .79688-.46875 1.51563-.453126.70313-1.3125 1.09375-.859376.39062-1.921876.39062-1.359374 0-2.28125-.39062-.921874-.40625-1.453124-1.20313-.515626-.79687-.546876-1.79687zm11.984376 2.125.171874 1.07812q-.515624.10938-.921874.10938-.671876 0-1.046876-.20312-.359374-.21876-.515624-.5625-.140626-.34376-.140626-1.45313v-4.17188h-.90625v-.96875h.90625v-1.79687l1.21875-.73438v2.53125h1.234376v.96875h-1.234376v4.23438q0 .53125.0625.6875.0625.14062.203126.23437.15625.09375.421874.09375.21875 0 .546876-.04687zm6.046874.20312q-.671874.57813-1.3125.82813-.625.23437-1.359374.23437-1.1875 0-1.84375-.57812-.640626-.59375-.640626-1.51563 0-.53125.234376-.96875.25-.4375.640624-.70312.40625-.26563.890626-.40625.359374-.09375 1.09375-.1875 1.5-.17188 2.203124-.42188 0-.25 0-.3125 0-.76562-.34375-1.0625-.46875-.42187-1.40625-.42187-.859374 0-1.28125.3125-.40625.29687-.609374 1.0625l-1.203126-.15625q.15625-.78125.53125-1.25.390626-.46875 1.09375-.71875.71875-.26563 1.65625-.26563.921876 0 1.5.21875.578126.21875.84375.54688.28125.32812.390626.84375.0625.3125.0625 1.125v1.64062q0 1.71875.078124 2.17188.078126.45313.3125.875h-1.28125q-.1875-.39063-.25-.89063zm-.09375-2.75q-.671874.26563-2.015624.46875-.75.10938-1.078126.25-.3125.125-.484374.39063-.171876.26562-.171876.57812 0 .5.375.82813.375.32813 1.09375.32813.71875 0 1.265626-.31251.546874-.3125.8125-.85937.203124-.40625.203124-1.21875zm3.359376 6.42188v-10.04688h1.125v.95313q.390624-.5625.890624-.82813.5-.28125 1.21875-.28125.921876 0 1.625.48438.71875.46875 1.078126 1.34375.359374.875.359374 1.90625 0 1.10937-.40625 2.01562-.390624.89063-1.15625 1.37501-.75.46874-1.59375.46874-.609374 0-1.109374-.26562-.484376-.26562-.796876-.65625v3.53125zm1.109374-6.375q0 1.40625.5625 2.07812.578126.67188 1.390626.67188.8125 0 1.390624-.6875.59375-.70313.59375-2.15625 0-1.39063-.578124-2.07813-.5625-.6875-1.359376-.6875-.78125 0-1.390624.73438-.609376.73437-.609376 2.125zm6.859376 3.59375v-10.01563h1.234374v10.01563zm3.046874-8.60938v-1.40625h1.21875v1.40625zm0 8.60938v-7.26563h1.21875v7.26563zm2.984376 0v-7.26563h1.109374v1.03125q.796876-1.1875 2.31249-1.1875.65625 0 1.20313.23438.54687.23437.8125.625.28125.375.39062.90625.07813.34375.07813 1.1875v4.46875h-1.23438v-4.42188q0-.75-.14062-1.10937-.14063-.375-.51563-.59375-.35937-.23438-.85937-.23438-.781244 0-1.35937.5-.5625.5-.5625 1.89063v3.96875zm7.781244.60937 1.1875.17188q.07812.54688.42187.8125.45313.32812 1.25.32812.85938 0 1.3125-.34374.46875-.32813.64063-.95313.09375-.375.07812-1.57813-.79687.95313-2 .95313-1.5 0-2.32812-1.07813-.8125-1.07812-.8125-2.59375 0-1.03125.375-1.90625.375-.89062 1.07812-1.35937.71875-.48438 1.6875-.48438 1.28125 0 2.125 1.03125v-.875h1.125v6.28125q0 1.70313-.34375 2.40625-.34375.70313-1.09375 1.10938-.75.42188-1.84375.42188-1.29687 0-2.09375-.59376-.79687-.57812-.76562-1.75zm1.01562-4.375q0 1.4375.5625 2.09375.5625.65625 1.42188.65625.84375 0 1.42187-.65625.57813-.65625.57813-2.04687 0-1.32813-.59375-2-.59375-.6875-1.42188-.6875-.82812 0-1.40625.67187-.5625.65625-.5625 1.96875z"/><path d="m26.262579 115.82093v-10.015625h3.75q1.15625 0 1.84375.3125.703127.296875 1.093751.921875.390626.625.390626 1.328125 0 .640625-.359376 1.203125-.34375.5625-1.046876.921875.906252.265625 1.390626.90625.5.640625.5 1.515625 0 .703125-.296874 1.3125-.296876.609375-.734376.9375-.4375.328125-1.109376.5-.65625.15625-1.609375.15625zm1.328125-5.8125h2.15625q.890625 0 1.265625-.109375.515625-.15625.765625-.5.250002-.359375.250002-.875 0-.5-.234377-.875-.234375-.390625-.6875-.53125-.4375-.140625-1.515625-.140625h-2zm0 4.625h2.484375q.640625 0 .90625-.046875.453125-.078125.765625-.265625.312502-.203125.500002-.5625.203124-.359375.203124-.84375 0-.5625-.296874-.96875-.281252-.421875-.796877-.578125-.5-.171875-1.453125-.171875h-2.3125zm12.296876.296875q-.671874.578125-1.3125.828125-.625.234375-1.359374.234375-1.1875 0-1.84375-.578125-.640626-.59375-.640626-1.515625 0-.53125.234376-.96875.25-.4375.640624-.703125.40625-.265625.890626-.40625.359374-.09375 1.09375-.1875 1.5-.171875 2.203124-.421875 0-.25 0-.3125 0-.765625-.34375-1.0625-.46875-.421875-1.40625-.421875-.859374 0-1.28125.3125-.40625.296875-.609374 1.0625l-1.203126-.15625q.15625-.78125.53125-1.25.390626-.46875 1.09375-.71875.71875-.265625 1.65625-.265625.921876 0 1.5.21875.578126.21875.84375.546875.28125.328125.390626.84375.0625.3125.0625 1.125v1.640625q0 1.71875.078124 2.171875.078126.453125.3125.875h-1.28125q-.1875-.390625-.25-.890625zm-.09375-2.75q-.671874.265625-2.015624.46875-.75.109375-1.078126.25-.3125.125-.484374.390625-.171876.265625-.171876.578125 0 .5.375.828125.375.328125 1.09375.328125.71875 0 1.265626-.3125.546874-.3125.8125-.859375.203124-.40625.203124-1.21875zm8.078126 3.640625v-.921875q-.703126 1.09375-2.03125 1.09375-.875 0-1.609376-.484375-.71875-.484375-1.125-1.34375-.390624-.859375-.390624-1.96875 0-1.078125.359374-1.96875.359376-.890625 1.078126-1.359375.734374-.46875 1.625-.46875.65625 0 1.171874.28125.515626.265625.828126.71875v-3.59375h1.234374v10.015625zm-3.890626-3.625q0 1.390625.578126 2.09375.59375.6875 1.390624.6875.8125 0 1.375-.65625.5625-.671875.5625-2.015625 0-1.5-.578124-2.1875-.578126-.703125-1.40625-.703125-.828126 0-1.375.671875-.546876.671875-.546876 2.109375zm11.328126 3.625v-10.015625h3.78125q1 0 1.53125.09375.734374.125 1.234374.46875.5.34375.796876.96875.3125.609375.3125 1.359375 0 1.28125-.8125 2.171875-.8125.875-2.9375.875h-2.578126v4.078125zm1.328124-5.25h2.59375q1.28125 0 1.8125-.484375.546876-.484375.546876-1.34375 0-.640625-.3125-1.078125-.3125-.453125-.84375-.59375-.328126-.09375-1.234376-.09375h-2.5625zm12.484376 2.90625 1.28125.15625q-.3125 1.125-1.125 1.75-.8125.609375-2.078126.609375-1.59375 0-2.53125-.984375-.921874-.984375-.921874-2.75 0-1.84375.9375-2.84375.953124-1.015625 2.453124-1.015625 1.453126 0 2.375 1 .921876.984375.921876 2.78125 0 .109375 0 .328125h-5.421876q.078126 1.1875.671876 1.828125.609374.640625 1.53125.640625.671874 0 1.140624-.359375.484376-.359375.765626-1.140625zm-4.03125-1.984375h4.046874q-.078124-.921875-.46875-1.375-.578124-.703125-1.515624-.703125-.859376 0-1.4375.5625-.5625.5625-.625 1.515625zm7.046874 4.328125v-7.265625h1.109376v1.109375q.421874-.78125.78125-1.015625.359374-.25.796874-.25.625 0 1.265626.390625l-.421876 1.140625q-.453124-.265625-.90625-.265625-.40625 0-.734374.25-.3125.234375-.453126.671875-.203124.65625-.203124 1.4375v3.796875zm5.3125 0v-6.296875h-1.09375v-.96875h1.09375v-.765625q0-.734375.125-1.09375.1875-.46875.625-.765625.453126-.296875 1.265626-.296875.515624 0 1.140624.125l-.1875 1.0625q-.375-.0625-.71875-.0625-.5625 0-.796874.234375-.234376.234375-.234376.890625v.671875h1.421876v.96875h-1.421876v6.296875zm3.25-3.625q0-2.015625 1.125-3 .921876-.796875 2.28125-.796875 1.484376 0 2.4375.984375.953126.96875.953126 2.703125 0 1.40625-.421876 2.21875-.421874.796875-1.234374 1.25-.796876.4375-1.734376.4375-1.53125 0-2.46875-.984375-.9375-.984375-.9375-2.8125zm1.265626 0q0 1.390625.609374 2.09375.609376.6875 1.53125.6875.90625 0 1.515626-.703125.609374-.703125.609374-2.125 0-1.34375-.609374-2.03125-.609376-.703125-1.515626-.703125-.921874 0-1.53125.6875-.609374.6875-.609374 2.09375zm7.171874 3.625v-7.265625h1.109376v1.109375q.421874-.78125.78125-1.015625.359374-.25.796874-.25.625 0 1.265626.390625l-.421876 1.140625q-.453124-.265625-.90625-.265625-.40625 0-.734374.25-.3125.234375-.453126.671875-.203124.65625-.203124 1.4375v3.796875zm5.015626 0v-7.265625h1.109374v1.03125q.328126-.546875.890626-.859375.578124-.328125 1.296874-.328125.8125 0 1.328126.34375.515624.328125.734374.921875.859376-1.265625 2.234376-1.265625 1.078124 0 1.65625.59375.59375.59375.59375 1.84375v4.984375h-1.234376v-4.578125q0-.734375-.125-1.0625-.109374-.328125-.421874-.515625-.3125-.203125-.734376-.203125-.765624 0-1.28125.515625-.5.5-.5 1.625v4.21875h-1.234374v-4.71875q0-.8125-.296876-1.21875-.296874-.421875-.984374-.421875-.515626 0-.96875.28125-.4375.265625-.640626.796875-.1875.515625-.1875 1.515625v3.765625zm16.734374-.890625q-.671874.578125-1.3125.828125-.625.234375-1.359374.234375-1.1875 0-1.84375-.578125-.640626-.59375-.640626-1.515625 0-.53125.234376-.96875.25-.4375.640624-.703125.40625-.265625.890626-.40625.359374-.09375 1.09375-.1875 1.5-.171875 2.203124-.421875 0-.25 0-.3125 0-.765625-.34375-1.0625-.46875-.421875-1.40625-.421875-.859374 0-1.28125.3125-.40625.296875-.609374 1.0625l-1.203126-.15625q.15625-.78125.53125-1.25.390626-.46875 1.09375-.71875.71875-.265625 1.65625-.265625.921876 0 1.5.21875.578126.21875.84375.546875.28125.328125.390626.84375.0625.3125.0625 1.125v1.640625q0 1.71875.078124 2.171875.078126.453125.3125.875h-1.28125q-.1875-.390625-.25-.890625zm-.09375-2.75q-.671874.265625-2.015624.46875-.75.109375-1.078126.25-.3125.125-.484374.390625-.171876.265625-.171876.578125 0 .5.375.828125.375.328125 1.09375.328125.71875 0 1.265626-.3125.546874-.3125.8125-.859375.203124-.40625.203124-1.21875zm3.359376 3.640625v-7.265625h1.109374v1.03125q.796876-1.1875 2.3125-1.1875.65625 0 1.203126.234375.546874.234375.8125.625.28125.375.390624.90625.078126.34375.078126 1.1875v4.46875h-1.234376v-4.421875q0-.75-.140624-1.109375-.140626-.375-.515626-.59375-.359374-.234375-.859374-.234375-.78125 0-1.359376.5-.5625.5-.5625 1.890625v3.96875zm12.734374-2.65625 1.21874.15625q-.203114 1.25-1.03124 1.96875-.8125.703125-2 .703125-1.484374 0-2.390624-.96875-.90625-.984375-.90625-2.8125 0-1.171875.390624-2.046875.390626-.890625 1.1875-1.328125.796876-.4375 1.734376-.4375 1.171874 0 1.921874.59375.765626.59375.96875 1.703125l-1.1875.1875q-.171874-.734375-.609374-1.09375-.4375-.375-1.046876-.375-.9375 0-1.515624.671875-.578126.65625-.578126 2.09375 0 1.46875.5625 2.140625.5625.65625 1.453126.65625.734374 0 1.21875-.4375.484374-.453125.609374-1.375zm7.23437.3125 1.28125.15625q-.3125 1.125-1.125 1.75-.8125.609375-2.07813.609375-1.59375 0-2.53125-.984375-.92187-.984375-.92187-2.75 0-1.84375.9375-2.84375.95312-1.015625 2.45312-1.015625 1.45313 0 2.375 1 .92188.984375.92188 2.78125 0 .109375 0 .328125h-5.42188q.07813 1.1875.67188 1.828125.60937.640625 1.53125.640625.67187 0 1.14062-.359375.48438-.359375.76563-1.140625zm-4.03125-1.984375h4.04687q-.07812-.921875-.46875-1.375-.57812-.703125-1.51562-.703125-.85938 0-1.4375.5625-.5625.5625-.625 1.515625zm7.40625-1.53125v-1.40625h1.40625v1.40625zm0 5.859375v-1.40625h1.40625v1.40625z"/><path d="m31.340704 132.82094v-10.01563h7.250002v1.17188h-5.921876v3.07812h5.546876v1.17188h-5.546876v3.40625h6.15625v1.1875zm11.828126 0-3.875-10.01563h1.4375l2.609376 7.28125q.3125.875.515624 1.64063.234376-.82813.546876-1.64063l2.703124-7.28125h1.359376l-3.921876 10.01563zm14.71875-2.65625 1.21875.15625q-.203124 1.25-1.03125 1.96875-.8125.70312-2 .70312-1.484374 0-2.390624-.96875-.90625-.98437-.90625-2.8125 0-1.17187.390624-2.04687.390626-.89063 1.1875-1.32813.796876-.4375 1.734376-.4375 1.171874 0 1.921874.59375.765626.59375.96875 1.70313l-1.1875.1875q-.171874-.73438-.609374-1.09375-.4375-.375-1.046876-.375-.9375 0-1.515624.67187-.578126.65625-.578126 2.09375 0 1.46875.5625 2.14063.5625.65625 1.453126.65625.734374 0 1.21875-.4375.484374-.45313.609374-1.375zm7.234376.3125 1.28125.15625q-.3125 1.125-1.125 1.75-.8125.60937-2.078126.60937-1.59375 0-2.53125-.98437-.921874-.98438-.921874-2.75 0-1.84375.9375-2.84375.953124-1.01563 2.453124-1.01563 1.453126 0 2.375 1 .921876.98438.921876 2.78125 0 .10938 0 .32813h-5.421876q.078126 1.1875.671876 1.82812.609374.64063 1.53125.64063.671874 0 1.140624-.35938.484376-.35937.765626-1.14062zm-4.03125-1.98438h4.046874q-.078124-.92187-.46875-1.375-.578124-.70312-1.515624-.70312-.859376 0-1.4375.5625-.5625.5625-.625 1.51562zm7.046874 4.32813v-7.26563h1.109376v1.10938q.421874-.78125.78125-1.01563.359374-.25.796874-.25.625 0 1.265626.39063l-.421876 1.14062q-.453124-.26562-.90625-.26562-.40625 0-.734374.25-.3125.23437-.453126.67187-.203124.65625-.203124 1.4375v3.79688zm7.703126-1.09375.171874 1.07812q-.515624.10938-.921874.10938-.671876 0-1.046876-.20313-.359374-.21875-.515624-.5625-.140626-.34375-.140626-1.45312v-4.17188h-.90625v-.96875h.90625v-1.79687l1.21875-.73438v2.53125h1.234376v.96875h-1.234376v4.23438q0 .53125.0625.6875.0625.14062.203126.23437.15625.09375.421874.09375.21875 0 .546876-.04687zm4.859374-2.53125q0-2.01563 1.125-3 .921876-.79688 2.28125-.79688 1.484376 0 2.4375.98438.953126.96875.953126 2.70312 0 1.40625-.421876 2.21875-.421874.79688-1.234374 1.25-.796876.4375-1.734376.4375-1.53125 0-2.46875-.98437-.9375-.98438-.9375-2.8125zm1.265626 0q0 1.39062.609374 2.09375.609376.6875 1.53125.6875.90625 0 1.515626-.70313.609374-.70312.609374-2.125 0-1.34375-.609374-2.03125-.609376-.70312-1.515626-.70312-.921874 0-1.53125.6875-.609374.6875-.609374 2.09375zm7.171874 3.625v-7.26563h1.109376v1.10938q.421874-.78125.78125-1.01563.359374-.25.796874-.25.625 0 1.265626.39063l-.421876 1.14062q-.453124-.26562-.90625-.26562-.40625 0-.734374.25-.3125.23437-.453126.67187-.203124.65625-.203124 1.4375v3.79688zm9.171876 0v-10.01563h3.453124q1.171876 0 1.78125.14063.859376.1875 1.46875.71875.796876.67187 1.1875 1.71875.390626 1.03125.390626 2.375 0 1.14062-.265626 2.03125-.265624.875-.6875 1.45312-.40625.57813-.90625.90625-.5.32813-1.203124.5-.6875.17188-1.59375.17188zm1.328124-1.1875h2.140626q.984374 0 1.546874-.17188.578126-.1875.90625-.53125.46875-.46875.734376-1.26562.265624-.79688.265624-1.9375 0-1.5625-.515624-2.40625-.515626-.84375-1.25-1.14063-.546876-.20312-1.71875-.20312h-2.109376zm11.53125 1.1875-3.875-10.01563h1.4375l2.609376 7.28125q.3125.875.515624 1.64063.234376-.82813.546876-1.64063l2.703124-7.28125h1.359376l-3.921876 10.01563zm5.0625.17187 2.90625-10.35937h.984376l-2.90625 10.35937zm4.671876-5.04687q0-2.5 1.34375-3.90625 1.34375-1.42188 3.453124-1.42188 1.390626 0 2.49999.67188 1.125.65625 1.70313 1.84375.59375 1.1875.59375 2.6875 0 1.53125-.625 2.73437-.60938 1.20313-1.73438 1.82813-1.12499.60937-2.43749.60937-1.421874 0-2.53125-.6875-1.109374-.6875-1.6875-1.85937-.578124-1.1875-.578124-2.5zm1.375.01562q0 1.8125.96875 2.85938.984374 1.03125 2.453124 1.03125 1.484376 0 2.45312-1.04688.96875-1.04687.96875-2.98437 0-1.23438-.42188-2.14063-.40625-.90625-1.203114-1.40625-.796876-.51562-1.78125-.51562-1.40625 0-2.421876.96875-1.015624.96875-1.015624 3.23437zm12.890614 4.85938-3.875-10.01563h1.4375l2.60938 7.28125q.3125.875.51562 1.64063.23438-.82813.54688-1.64063l2.70312-7.28125h1.35938l-3.92188 10.01563z"/><path d="m29.887579 147.16469 1.21875.15625q-.203125 1.25-1.03125 1.96875-.8125.70312-2 .70312-1.484375 0-2.390625-.96875-.90625-.98437-.90625-2.8125 0-1.17187.390625-2.04687.390625-.89063 1.1875-1.32813.796875-.4375 1.734375-.4375 1.171875 0 1.921875.59375.765625.59375.96875 1.70313l-1.1875.1875q-.171875-.73438-.609375-1.09375-.4375-.375-1.046875-.375-.9375 0-1.515625.67187-.578125.65625-.578125 2.09375 0 1.46875.5625 2.14063.5625.65625 1.453125.65625.734375 0 1.21875-.4375.484375-.45313.609375-1.375zm7.234377.3125 1.28125.15625q-.3125 1.125-1.125 1.75-.8125.60937-2.078126.60937-1.59375 0-2.53125-.98437-.921876-.98438-.921876-2.75 0-1.84375.937502-2.84375.953124-1.01563 2.453124-1.01563 1.453126 0 2.375 1 .921876.98438.921876 2.78125 0 .10938 0 .32813h-5.421876q.078126 1.1875.671876 1.82812.609374.64063 1.53125.64063.671874 0 1.140624-.35938.484376-.35937.765626-1.14062zm-4.03125-1.98438h4.046874q-.078124-.92187-.46875-1.375-.578124-.70312-1.515624-.70312-.859376 0-1.4375.5625-.5625.5625-.625 1.51562zm7.046874 4.32813v-7.26563h1.109376v1.10938q.421874-.78125.78125-1.01563.359374-.25.796874-.25.625 0 1.265626.39063l-.421876 1.14062q-.453124-.26562-.90625-.26562-.40625 0-.734374.25-.3125.23437-.453126.67187-.203124.65625-.203124 1.4375v3.79688zm7.703126-1.09375.171874 1.07812q-.515624.10938-.921874.10938-.671876 0-1.046876-.20313-.359374-.21875-.515624-.5625-.140626-.34375-.140626-1.45312v-4.17188h-.90625v-.96875h.90625v-1.79687l1.21875-.73438v2.53125h1.234376v.96875h-1.234376v4.23438q0 .53125.0625.6875.0625.14062.203126.23437.15625.09375.421874.09375.21875 0 .546876-.04687zm6.65625 1.09375-2.21875-7.26563h1.265624l1.15625 4.20313.4375 1.54687q.015626-.10937.375-1.5l1.15625-4.25h1.25l1.09375 4.21875.359376 1.39063.421874-1.40625 1.25-4.20313h1.1875l-2.265624 7.26563h-1.28125l-1.15625-4.34375-.28125-1.23438-1.46875 5.57813zm8.671874-8.60938v-1.40625h1.21875v1.40625zm0 8.60938v-7.26563h1.21875v7.26563zm5.671876-1.09375.171874 1.07812q-.515624.10938-.921874.10938-.671876 0-1.046876-.20313-.359374-.21875-.515624-.5625-.140626-.34375-.140626-1.45312v-4.17188h-.90625v-.96875h.90625v-1.79687l1.21875-.73438v2.53125h1.234376v.96875h-1.234376v4.23438q0 .53125.0625.6875.0625.14062.203126.23437.15625.09375.421874.09375.21875 0 .546876-.04687zm1.3125 1.09375v-10.01563h1.234374v3.59375q.859376-1 2.171876-1 .8125 0 1.40625.32813.59375.3125.84375.875.265624.54687.265624 1.625v4.59375h-1.234374v-4.59375q0-.9375-.40625-1.34375-.390626-.42188-1.125-.42188-.546876 0-1.03125.28125-.484376.28125-.6875.76563-.203126.48437-.203126 1.34375v3.96875zm7.546874-3.625q0-2.01563 1.125-3 .921876-.79688 2.28125-.79688 1.484376 0 2.4375.98438.953126.96875.953126 2.70312 0 1.40625-.421876 2.21875-.421874.79688-1.234374 1.25-.796876.4375-1.734376.4375-1.53125 0-2.46875-.98437-.9375-.98438-.9375-2.8125zm1.265626 0q0 1.39062.609374 2.09375.609376.6875 1.53125.6875.90625 0 1.515626-.70313.609374-.70312.609374-2.125 0-1.34375-.609374-2.03125-.609376-.70312-1.515626-.70312-.921874 0-1.53125.6875-.609374.6875-.609374 2.09375zm11.953124 3.625v-1.0625q-.859374 1.23437-2.3125 1.23437-.640624 0-1.203124-.25-.546876-.25-.828126-.625-.265624-.375-.375-.90625-.078124-.35937-.078124-1.15625v-4.5h1.234374v4.03125q0 .96875.078126 1.29688.109374.48437.484374.76562.375.28125.9375.28125.546876 0 1.03125-.28125.484376-.29687.6875-.78125.203126-.48437.203126-1.42187v-3.89063h1.234374v7.26563zm5.921876-1.09375.171874 1.07812q-.515624.10938-.921874.10938-.671876 0-1.046876-.20313-.359374-.21875-.515624-.5625-.140626-.34375-.140626-1.45312v-4.17188h-.90625v-.96875h.90625v-1.79687l1.21875-.73438v2.53125h1.234376v.96875h-1.234376v4.23438q0 .53125.0625.6875.0625.14062.203126.23437.15625.09375.421874.09375.21875 0 .546876-.04687zm5.0625-3.78125q0-2.5 1.34375-3.90625 1.34375-1.42188 3.453124-1.42188 1.390626 0 2.5.67188 1.125.65625 1.703126 1.84375.59375 1.1875.59375 2.6875 0 1.53125-.625 2.73437-.609376 1.20313-1.734376 1.82813-1.125.60937-2.4375.60937-1.421874 0-2.53125-.6875-1.109374-.6875-1.6875-1.85937-.578124-1.1875-.578124-2.5zm1.375.01562q0 1.8125.96875 2.85938.984374 1.03125 2.453124 1.03125 1.484376 0 2.453126-1.04688.96875-1.04687.96875-2.98437 0-1.23438-.421876-2.14063-.40625-.90625-1.203124-1.40625-.796876-.51562-1.78125-.51562-1.40625 0-2.421876.96875-1.015624.96875-1.015624 3.23437zm17.1875 1.34375 1.328124.34375q-.421874 1.625-1.515624 2.48438-1.078126.85937-2.640626.85937-1.625 0-2.640624-.65625-1.015626-.67187-1.546876-1.92187-.515624-1.25-.515624-2.6875 0-1.5625.59375-2.71875.59375-1.17188 1.703124-1.76563 1.109376-.60937 2.421876-.60937 1.515624 0 2.53125.76562 1.03125.76563 1.4375 2.14063l-1.3125.3125q-.34375-1.09375-1.015626-1.59375-.65625-.5-1.65625-.5-1.15625 0-1.9375.5625-.78125.54687-1.09375 1.48437-.3125.9375-.3125 1.92188 0 1.28125.375 2.23437.375.95313 1.15625 1.42188.78125.46875 1.703126.46875 1.109374 0 1.875-.64063.78125-.64062 1.0625-1.90625zm2.390624.29688 1.25-.10938q.09375.75.421876 1.23438.328124.48437 1 .78125.6875.29687 1.546874.29687.75 0 1.32812-.21875.59375-.23437.875-.625.28125-.39062.28125-.85937 0-.46875-.28125-.8125-.26563-.35938-.89063-.60938-.40624-.15625-1.796864-.48437-1.375-.32813-1.921876-.625-.71875-.375-1.078124-.92188-.34375-.5625-.34375-1.26562 0-.75.421874-1.40625.4375-.67188 1.265626-1 .828124-.34375 1.84375-.34375 1.109374 0 1.953114.35937.85938.35938 1.3125 1.0625.45313.6875.5 1.5625l-1.28125.09375q-.09375-.9375-.6875-1.42187-.59374-.5-1.74999-.5-1.203124 0-1.75.45312-.546874.4375-.546874 1.0625 0 .53125.390624.89063.375.34375 1.984376.71875 1.624994.35937 2.218744.625.875.40625 1.29687 1.03125.42188.60937.42188 1.42187 0 .79688-.46875 1.51563-.45313.70312-1.3125 1.09375-.85938.39062-1.92187.39062-1.359374 0-2.28125-.39062-.921874-.40625-1.453124-1.20313-.515626-.79687-.546876-1.79687zm9.45312 3.21875v-10.01563h3.78125q1 0 1.53125.09375.73437.125 1.23437.46875.5.34375.79688.96875.3125.60938.3125 1.35938 0 1.28125-.8125 2.17187-.8125.875-2.9375.875h-2.57813v4.07813zm1.32812-5.25h2.59375q1.28125 0 1.8125-.48438.54688-.48437.54688-1.34375 0-.64062-.3125-1.07812-.3125-.45313-.84375-.59375-.32813-.09375-1.23438-.09375h-2.5625z"/><path d="m89.85633 163.60219 1.25-.10938q.09375.75.421876 1.23438.328124.48437 1 .78125.6875.29687 1.546874.29687.75 0 1.328126-.21875.59375-.23437.875-.625.28125-.39062.28125-.85937 0-.46875-.28125-.8125-.265626-.35938-.890626-.60938-.40625-.15625-1.796874-.48437-1.375-.32813-1.921876-.625-.71875-.375-1.078124-.92188-.34375-.5625-.34375-1.26562 0-.75.421874-1.40625.4375-.67188 1.265626-1 .828124-.34375 1.84375-.34375 1.109374 0 1.953124.35937.859376.35938 1.3125 1.0625.453126.6875.5 1.5625l-1.28125.09375q-.09375-.9375-.6875-1.42187-.59375-.5-1.75-.5-1.203124 0-1.75.45312-.546874.4375-.546874 1.0625 0 .53125.390624.89063.375.34375 1.984376.71875 1.625.35937 2.21875.625.875.40625 1.296874 1.03125.421876.60937.421876 1.42187 0 .79688-.46875 1.51563-.453126.70312-1.3125 1.09375-.859376.39062-1.921876.39062-1.359374 0-2.28125-.39062-.921874-.40625-1.453124-1.20313-.515626-.79687-.546876-1.79687zm11.984376 2.125.171874 1.07812q-.515624.10938-.921874.10938-.671876 0-1.046876-.20313-.359374-.21875-.515624-.5625-.140626-.34375-.140626-1.45312v-4.17188h-.90625v-.96875h.90625v-1.79687l1.21875-.73438v2.53125h1.234376v.96875h-1.234376v4.23438q0 .53125.0625.6875.0625.14062.203126.23437.15625.09375.421874.09375.21875 0 .546876-.04687zm6.046874.20312q-.671874.57813-1.3125.82813-.625.23437-1.359374.23437-1.1875 0-1.84375-.57812-.640626-.59375-.640626-1.51563 0-.53125.234376-.96875.25-.4375.640624-.70312.40625-.26563.890626-.40625.359374-.09375 1.09375-.1875 1.5-.17188 2.203124-.42188 0-.25 0-.3125 0-.76562-.34375-1.0625-.46875-.42187-1.40625-.42187-.859374 0-1.28125.3125-.40625.29687-.609374 1.0625l-1.203126-.15625q.15625-.78125.53125-1.25.390626-.46875 1.09375-.71875.71875-.26563 1.65625-.26563.921876 0 1.5.21875.578126.21875.84375.54688.28125.32812.390626.84375.0625.3125.0625 1.125v1.64062q0 1.71875.078124 2.17188.078126.45312.3125.875h-1.28125q-.1875-.39063-.25-.89063zm-.09375-2.75q-.671874.26563-2.015624.46875-.75.10938-1.078126.25-.3125.125-.484374.39063-.171876.26562-.171876.57812 0 .5.375.82813.375.32812 1.09375.32812.71875 0 1.265626-.3125.546874-.3125.8125-.85937.203124-.40625.203124-1.21875zm3.359376 6.42188v-10.04688h1.125v.95313q.390624-.5625.890624-.82813.5-.28125 1.21875-.28125.921876 0 1.625.48438.71875.46875 1.078126 1.34375.359374.875.359374 1.90625 0 1.10937-.40625 2.01562-.390624.89063-1.15625 1.375-.75.46875-1.59375.46875-.609374 0-1.109374-.26562-.484376-.26563-.796876-.65625v3.53125zm1.109374-6.375q0 1.40625.5625 2.07812.578126.67188 1.390626.67188.8125 0 1.390624-.6875.59375-.70313.59375-2.15625 0-1.39063-.578124-2.07813-.5625-.6875-1.359376-.6875-.78125 0-1.390624.73438-.609376.73437-.609376 2.125zm6.859376 3.59375v-10.01563h1.234374v10.01563zm3.046874-8.60938v-1.40625h1.21875v1.40625zm0 8.60938v-7.26563h1.21875v7.26563zm2.984376 0v-7.26563h1.109374v1.03125q.796876-1.1875 2.31249-1.1875.65625 0 1.20313.23438.54687.23437.8125.625.28125.375.39062.90625.07813.34375.07813 1.1875v4.46875h-1.23438v-4.42188q0-.75-.14062-1.10937-.14063-.375-.51563-.59375-.35937-.23438-.85937-.23438-.781244 0-1.35937.5-.5625.5-.5625 1.89063v3.96875zm7.781244.60937 1.1875.17188q.07812.54687.42187.8125.45313.32812 1.25.32812.85938 0 1.3125-.34375.46875-.32812.64063-.95312.09375-.375.07812-1.57813-.79687.95313-2 .95313-1.5 0-2.32812-1.07813-.8125-1.07812-.8125-2.59375 0-1.03125.375-1.90625.375-.89062 1.07812-1.35937.71875-.48438 1.6875-.48438 1.28125 0 2.125 1.03125v-.875h1.125v6.28125q0 1.70313-.34375 2.40625-.34375.70313-1.09375 1.10938-.75.42187-1.84375.42187-1.29687 0-2.09375-.59375-.79687-.57812-.76562-1.75zm1.01562-4.375q0 1.4375.5625 2.09375.5625.65625 1.42188.65625.84375 0 1.42187-.65625.57813-.65625.57813-2.04687 0-1.32813-.59375-2-.59375-.6875-1.42188-.6875-.82812 0-1.40625.67187-.5625.65625-.5625 1.96875z"/><path d="m143.80945 316.49475q0-1.78125.35937-2.85937.375-1.09375 1.09375-1.67188.71875-.59375 1.8125-.59375.8125 0 1.42188.32813.60937.32812 1 .9375.40625.60937.625 1.48437.21875.875.21875 2.375 0 1.76563-.35938 2.84375-.35937 1.07813-1.07812 1.67188-.71875.59375-1.82813.59375-1.4375 0-2.26562-1.04688-1-1.25-1-4.0625zm1.26562 0q0 2.46875.57813 3.28125.57812.8125 1.42187.8125.85938 0 1.4375-.8125.57813-.82812.57813-3.28125 0-2.48437-.57813-3.29687-.57812-.8125-1.45312-.8125-.84375 0-1.34375.71875-.64063.92187-.64063 3.39062z"/><path d="m236.40442 321.43225h-1.23438v-7.84375q-.4375.42188-1.17187.85938-.71875.42187-1.28125.625v-1.1875q1.03125-.48438 1.79688-1.17188.78124-.6875 1.09374-1.34375h.79688zm3.35938-4.9375q0-1.78125.35937-2.85937.375-1.09375 1.09375-1.67188.71875-.59375 1.8125-.59375.8125 0 1.42188.32813.60937.32812 1 .9375.40624.60937.625 1.48437.21874.875.21874 2.375 0 1.76563-.35937 2.84375-.35937 1.07813-1.07813 1.67188-.71874.59375-1.82812.59375-1.4375 0-2.26562-1.04688-1-1.25-1-4.0625zm1.26562 0q0 2.46875.57812 3.28125.57813.8125 1.42188.8125.85938 0 1.4375-.8125.57812-.82812.57812-3.28125 0-2.48437-.57812-3.29687-.57812-.8125-1.45312-.8125-.84376 0-1.34376.71875-.64062.92187-.64062 3.39062zm6.73438 0q0-1.78125.35937-2.85937.375-1.09375 1.09375-1.67188.71875-.59375 1.8125-.59375.8125 0 1.42188.32813.60937.32812 1 .9375.40624.60937.625 1.48437.21874.875.21874 2.375 0 1.76563-.35937 2.84375-.35937 1.07813-1.07813 1.67188-.71874.59375-1.82812.59375-1.4375 0-2.26562-1.04688-1-1.25-1-4.0625zm1.26562 0q0 2.46875.57812 3.28125.57813.8125 1.42188.8125.85938 0 1.4375-.8125.57812-.82812.57812-3.28125 0-2.48437-.57812-3.29687-.57812-.8125-1.45312-.8125-.84376 0-1.34376.71875-.64062.92187-.64062 3.39062z"/><path d="m334.1869 320.24475v1.1875h-6.625q-.01564-.4375.1406-.85937.26564-.67188.8125-1.32813.5625-.65625 1.6094-1.51562 1.6406-1.34375 2.2031-2.125.57814-.78125.57814-1.48438 0-.73437-.53124-1.23437-.51564-.5-1.34376-.5-.89064 0-1.4375.53125-.53124.53125-.53124 1.48437l-1.26564-.14062q.125-1.40625.96874-2.14063.8594-.75 2.28126-.75 1.45314 0 2.28124.79688.84376.79687.84376 1.98437 0 .60938-.25 1.1875-.23436.57813-.8125 1.21875-.5625.64063-1.89062 1.76563-1.10938.92187-1.42188 1.26562-.3125.32813-.51562.65625zm1.53124-3.75q0-1.78125.35936-2.85937.375-1.09375 1.09376-1.67188.71874-.59375 1.8125-.59375.8125 0 1.42188.32813.60936.32812 1 .9375.40626.60937.625 1.48437.21876.875.21876 2.375 0 1.76563-.3594 2.84375-.35936 1.07813-1.0781 1.67188-.71876.59375-1.82814.59375-1.4375 0-2.26562-1.04688-1-1.25-1-4.0625zm1.26562 0q0 2.46875.57814 3.28125.5781.8125 1.42186.8125.85938 0 1.4375-.8125.57814-.82812.57814-3.28125 0-2.48437-.57814-3.29687-.57812-.8125-1.45312-.8125-.84374 0-1.34374.71875-.64064.92187-.64064 3.39062zm6.73438 0q0-1.78125.35936-2.85937.375-1.09375 1.09376-1.67188.71874-.59375 1.8125-.59375.8125 0 1.42188.32813.60936.32812 1 .9375.40626.60937.625 1.48437.21876.875.21876 2.375 0 1.76563-.3594 2.84375-.35936 1.07813-1.0781 1.67188-.71876.59375-1.82814.59375-1.4375 0-2.26562-1.04688-1-1.25-1-4.0625zm1.26562 0q0 2.46875.57814 3.28125.5781.8125 1.42186.8125.85938 0 1.4375-.8125.57814-.82812.57814-3.28125 0-2.48437-.57814-3.29687-.57812-.8125-1.45312-.8125-.84374 0-1.34374.71875-.64064.92187-.64064 3.39062z"/><path d="m423.6881 318.79163 1.21876-.17188q.21874 1.04688.71874 1.51563.51564.45312 1.25.45312.875 0 1.46876-.59375.59374-.60937.59374-1.5 0-.84375-.5625-1.39062-.54686-.54688-1.3906-.54688-.3594 0-.875.125l.1406-1.07812q.125.01562.1875.01562.7969 0 1.4219-.40625.625-.40625.625-1.26562 0-.67188-.45314-1.10938-.45312-.45312-1.1875-.45312-.71876 0-1.20312.45312-.46874.4375-.60938 1.34375l-1.21876-.21875q.21876-1.23437 1.01564-1.90625.79686-.6875 1.98436-.6875.82814 0 1.51564.35938.6875.34375 1.04686.95312.375.60938.375 1.29688 0 .64062-.34374 1.17187-.34376.53125-1.03126.85938.89064.20312 1.375.84375.5.64062.5 1.625 0 1.3125-.96874 2.21875-.95312.90625-2.40626.90625-1.3281 0-2.2031-.78125-.8594-.78125-.9844-2.03125zm7.9844-2.29688q0-1.78125.35936-2.85937.375-1.09375 1.09374-1.67188.71876-.59375 1.8125-.59375.8125 0 1.4219.32813.60936.32812 1 .9375.40624.60937.625 1.48437.21874.875.21874 2.375 0 1.76563-.35938 2.84375-.35936 1.07813-1.07812 1.67188-.71874.59375-1.82814.59375-1.4375 0-2.2656-1.04688-1-1.25-1-4.0625zm1.2656 0q0 2.46875.57814 3.28125.57812.8125 1.42186.8125.8594 0 1.4375-.8125.57814-.82812.57814-3.28125 0-2.48437-.57814-3.29687-.5781-.8125-1.4531-.8125-.84376 0-1.34376.71875-.64064.92187-.64064 3.39062zm6.7344 0q0-1.78125.35936-2.85937.375-1.09375 1.09374-1.67188.71876-.59375 1.8125-.59375.8125 0 1.4219.32813.60936.32812 1 .9375.40624.60937.625 1.48437.21874.875.21874 2.375 0 1.76563-.35938 2.84375-.35936 1.07813-1.07812 1.67188-.71874.59375-1.82814.59375-1.4375 0-2.2656-1.04688-1-1.25-1-4.0625zm1.2656 0q0 2.46875.57814 3.28125.57812.8125 1.42186.8125.8594 0 1.4375-.8125.57814-.82812.57814-3.28125 0-2.48437-.57814-3.29687-.5781-.8125-1.4531-.8125-.84376 0-1.34376.71875-.64064.92187-.64064 3.39062z"/><path d="m523.57996 321.43225v-2.40625h-4.35936v-1.125l4.5781-6.48437h1v6.48437h1.3594v1.125h-1.3594v2.40625zm0-3.53125v-4.51562l-3.14063 4.51562zm4.04687-1.40625q0-1.78125.35937-2.85937.375-1.09375 1.09376-1.67188.71874-.59375 1.8125-.59375.8125 0 1.42187.32813.60937.32812 1 .9375.40627.60937.625 1.48437.21877.875.21877 2.375 0 1.76563-.3594 2.84375-.35937 1.07813-1.0781 1.67188-.71877.59375-1.82814.59375-1.4375 0-2.26563-1.04688-1-1.25-1-4.0625zm1.26563 0q0 2.46875.57814 3.28125.5781.8125 1.42186.8125.85937 0 1.4375-.8125.57814-.82812.57814-3.28125 0-2.48437-.57814-3.29687-.57813-.8125-1.45313-.8125-.84373 0-1.34373.71875-.64064.92187-.64064 3.39062zm6.73437 0q0-1.78125.35937-2.85937.375-1.09375 1.09376-1.67188.71874-.59375 1.8125-.59375.8125 0 1.42187.32813.60937.32812 1 .9375.40627.60937.625 1.48437.21877.875.21877 2.375 0 1.76563-.3594 2.84375-.35937 1.07813-1.0781 1.67188-.71877.59375-1.82814.59375-1.4375 0-2.26563-1.04688-1-1.25-1-4.0625zm1.26563 0q0 2.46875.57814 3.28125.5781.8125 1.42186.8125.85937 0 1.4375-.8125.57814-.82812.57814-3.28125 0-2.48437-.57814-3.29687-.57813-.8125-1.45313-.8125-.84373 0-1.34373.71875-.64064.92187-.64064 3.39062z"/></g><path d="m16.934376 60.11493 3.84375-10.015626h1.421874l4.109376 10.015626h-1.515626l-1.171874-3.03125h-4.1875l-1.09375 3.03125zm2.890624-4.109376h3.390626l-1.046876-2.78125q-.46875-1.265624-.703124-2.078124-.1875.96875-.546876 1.90625zm7.046876 4.109376v-7.265626h1.109374v1.03125q.796876-1.1875 2.3125-1.1875.65625 0 1.203126.234376.546874.234374.8125.625.28125.375.390624.90625.078126.34375.078126 1.1875v4.46875h-1.234376v-4.421876q0-.75-.140624-1.109374-.140626-.375-.515626-.59375-.359374-.234376-.859374-.234376-.78125 0-1.359376.5-.5625.5-.5625 1.890626v3.96875zm12.734374-.890626q-.671874.578126-1.3125.828126-.625.234374-1.359374.234374-1.1875 0-1.84375-.578124-.640626-.59375-.640626-1.515626 0-.53125.234376-.96875.25-.4375.640624-.703124.40625-.265626.890626-.40625.359374-.09375 1.09375-.1875 1.5-.171876 2.203124-.421876 0-.25 0-.3125 0-.765624-.34375-1.0625-.46875-.421874-1.40625-.421874-.859374 0-1.28125.3125-.40625.296874-.609374 1.0625l-1.203126-.15625q.15625-.78125.53125-1.25.390626-.46875 1.09375-.71875.71875-.265626 1.65625-.265626.921876 0 1.5.21875.578126.21875.84375.546876.28125.328124.390626.84375.0625.3125.0625 1.125v1.640624q0 1.71875.078124 2.171876.078126.453124.3125.875h-1.28125q-.1875-.390626-.25-.890626zm-.09375-2.75q-.671874.265626-2.015624.46875-.75.109376-1.078126.25-.3125.125-.484374.390626-.171876.265624-.171876.578124 0 .5.375.828126.375.328124 1.09375.328124.71875 0 1.265626-.3125.546874-.3125.8125-.859374.203124-.40625.203124-1.21875zm3.328126 3.640626v-10.015626h1.234374v10.015626zm2.984374 2.796874-.140624-1.15625q.40625.109376.703124.109376.40625 0 .65625-.140626.25-.125.40625-.375.109376-.1875.375-.921874.03125-.09375.109376-.296876l-2.765626-7.28125h1.328126l1.515624 4.203126q.296876.8125.53125 1.6875.203126-.84375.5-1.65625l1.546876-4.234376h1.234374l-2.765624 7.390626q-.4375 1.1875-.6875 1.640624-.328126.609376-.75.890626-.421876.296874-1.015626.296874-.34375 0-.78125-.15625zm6.5625-4.96875 1.203126-.1875q.109374.734376.578124 1.125.46875.390626 1.3125.390626.84375 0 1.25-.34375.421876-.34375.421876-.8125 0-.421876-.375-.65625-.25-.171876-1.25-.421876-1.359376-.34375-1.890626-.59375-.515624-.25-.78125-.6875-.265624-.4375-.265624-.96875 0-.484374.21875-.890624.21875-.421876.609374-.703126.28125-.203124.765626-.34375.5-.15625 1.078124-.15625.84375 0 1.484376.25.65625.234376.96875.65625.3125.421876.421874 1.125l-1.203124.171876q-.078126-.5625-.484376-.875-.390624-.3125-1.109374-.3125-.84375 0-1.203126.28125-.359374.265624-.359374.65625 0 .234374.140624.421874.15625.203126.484376.328126.171874.0625 1.078124.3125 1.3125.359374 1.828126.578124.515624.21875.796874.640626.296876.421874.296876 1.046874 0 .625-.359376 1.171876-.34375.53125-1.03125.84375-.671874.296874-1.53125.296874-1.40625 0-2.15625-.59375-.734374-.59375-.9375-1.75zm7.5-6.4375v-1.40625h1.21875v1.40625zm0 8.609376v-7.265626h1.21875v7.265626zm2.5-2.171876 1.203126-.1875q.109374.734376.578124 1.125.46875.390626 1.3125.390626.84375 0 1.25-.34375.42187-.34375.42187-.8125 0-.421876-.375-.65625-.25-.171876-1.25-.421876-1.35937-.34375-1.89062-.59375-.515624-.25-.78125-.6875-.265624-.4375-.265624-.96875 0-.484374.21875-.890624.21875-.421876.609374-.703126.28125-.203124.76562-.34375.5-.15625 1.07813-.15625.84375 0 1.48437.25.65625.234376.96875.65625.3125.421876.42188 1.125l-1.20313.171876q-.07812-.5625-.48437-.875-.39063-.3125-1.10938-.3125-.84375 0-1.20312.28125-.359374.265624-.359374.65625 0 .234374.140624.421874.15625.203126.48437.328126.17188.0625 1.07813.3125 1.3125.359374 1.82812.578124.51563.21875.79688.640626.29687.421874.29687 1.046874 0 .625-.35937 1.171876-.34375.53125-1.03125.84375-.67188.296874-1.53125.296874-1.40625 0-2.15625-.59375-.734374-.59375-.9375-1.75zm11.03125-1.453124q0-2.015626 1.125-3 .92187-.796876 2.28125-.796876 1.48437 0 2.4375.984376.95312.96875.95312 2.703124 0 1.40625-.42187 2.21875-.42188.796876-1.23438 1.25-.79687.4375-1.73437.4375-1.53125 0-2.46875-.984374-.9375-.984376-.9375-2.8125zm1.26562 0q0 1.390624.60938 2.09375.60937.6875 1.53125.6875.90625 0 1.51562-.703126.60938-.703124.60938-2.125 0-1.34375-.60938-2.03125-.60937-.703124-1.51562-.703124-.92188 0-1.53125.6875-.60938.6875-.60938 2.09375zm7.48438 3.625v-6.296876h-1.09375v-.96875h1.09375v-.765624q0-.734376.125-1.09375.1875-.46875.625-.765626.45312-.296874 1.26562-.296874.51563 0 1.14063.125l-.1875 1.0625q-.375-.0625-.71875-.0625-.5625 0-.79688.234374-.23437.234376-.23437.890626v.671874h1.42187v.96875h-1.42187v6.296876zm7.35937-2.625 1.29688-.109376q.14062.9375.65625 1.421876.53125.46875 1.26562.46875.89063 0 1.5-.671876.625-.671874.625-1.765624 0-1.0625-.59375-1.671876-.59375-.609374-1.54687-.609374-.59375 0-1.07813.28125-.46875.265624-.75.6875l-1.15625-.140626.96875-5.15625h4.98438v1.1875h-4l-.53125 2.6875q.90625-.625 1.89062-.625 1.3125 0 2.20313.90625.90625.90625.90625 2.34375 0 1.359376-.78125 2.34375-.96875 1.21875-2.64063 1.21875-1.35937 0-2.23437-.765624-.85938-.765626-.98438-2.03125zm8-2.3125q0-1.78125.35938-2.859376.375-1.09375 1.09375-1.671874.71875-.59375 1.8125-.59375.8125 0 1.42187.328124.60938.328126 1 .9375.40625.609376.625 1.484376.21875.875.21875 2.375 0 1.765624-.35937 2.84375-.35938 1.078124-1.07813 1.671874-.71875.59375-1.82812.59375-1.4375 0-2.26563-1.046874-1-1.25-1-4.0625zm1.26563 0q0 2.46875.57812 3.28125.57813.8125 1.42188.8125.85937 0 1.4375-.8125.57812-.828126.57812-3.28125 0-2.484376-.57812-3.296876-.57813-.8125-1.45313-.8125-.84375 0-1.34375.71875-.64062.921876-.64062 3.390626zm6.73437 0q0-1.78125.35938-2.859376.375-1.09375 1.09375-1.671874.71875-.59375 1.8125-.59375.8125 0 1.42187.328124.60938.328126 1 .9375.40625.609376.625 1.484376.21875.875.21875 2.375 0 1.765624-.35937 2.84375-.35938 1.078124-1.07813 1.671874-.71875.59375-1.82812.59375-1.4375 0-2.26563-1.046874-1-1.25-1-4.0625zm1.26563 0q0 2.46875.57812 3.28125.57813.8125 1.42188.8125.85937 0 1.4375-.8125.57812-.828126.57812-3.28125 0-2.484376-.57812-3.296876-.57813-.8125-1.45313-.8125-.84375 0-1.34375.71875-.64062.921876-.64062 3.390626zm11.07812 4.9375v-10.015626h1.23438v3.59375q.85937-1 2.17187-1 .8125 0 1.40625.328126.59375.3125.84375.875.26563.546874.26563 1.625v4.59375h-1.23438v-4.59375q0-.9375-.40625-1.34375-.39062-.421876-1.125-.421876-.54687 0-1.03125.28125-.48437.28125-.6875.765626-.20312.484374-.20312 1.34375v3.96875zm8.01563-8.609376v-1.40625h1.21875v1.40625zm0 8.609376v-7.265626h1.21875v7.265626zm2.76562.609374 1.1875.171876q.07813.546874.42188.8125.45312.328124 1.25.328124.85937 0 1.3125-.34375.46875-.328124.64062-.953124.09375-.375.07813-1.578126-.79688.953126-2 .953126-1.5 0-2.32813-1.078126-.8125-1.078124-.8125-2.59375 0-1.03125.375-1.90625.375-.890624 1.07813-1.359374.71875-.484376 1.6875-.484376 1.28125 0 2.125 1.03125v-.875h1.125v6.28125q0 1.703126-.34375 2.40625-.34375.703126-1.09375 1.109376-.75.421874-1.84375.421874-1.29688 0-2.09375-.59375-.79688-.578124-.76563-1.75zm1.01563-4.375q0 1.4375.5625 2.09375.5625.65625 1.42187.65625.84375 0 1.42188-.65625.57812-.65625.57812-2.046874 0-1.328126-.59375-2-.59375-.6875-1.42187-.6875-.82813 0-1.40625.671874-.5625.65625-.5625 1.96875zm7.20312 3.765626v-10.015626h1.23438v3.59375q.85937-1 2.17187-1 .8125 0 1.40625.328126.59375.3125.84375.875.26563.546874.26563 1.625v4.59375h-1.23438v-4.59375q0-.9375-.40625-1.34375-.39062-.421876-1.125-.421876-.54687 0-1.03125.28125-.48437.28125-.6875.765626-.20312.484374-.20312 1.34375v3.96875zm7.51563-3.015626v-1.234374h3.78125v1.234374zm8.17187 1.921876.17188 1.078124q-.51563.109376-.92188.109376-.67187 0-1.04687-.203126-.35938-.21875-.51563-.5625-.14062-.34375-.14062-1.453124v-4.171876h-.90625v-.96875h.90625v-1.796874l1.21875-.734376v2.53125h1.23437v.96875h-1.23437v4.234376q0 .53125.0625.6875.0625.140624.20312.234374.15625.09375.42188.09375.21875 0 .54687-.046874zm1.29688 1.09375v-7.265626h1.10937v1.109376q.42188-.78125.78125-1.015626.35938-.25.79688-.25.625 0 1.26562.390626l-.42187 1.140624q-.45313-.265624-.90625-.265624-.40625 0-.73438.25-.3125.234374-.45312.671874-.20313.65625-.20313 1.4375v3.796876zm9.75-.890626q-.67188.578126-1.3125.828126-.625.234374-1.35938.234374-1.1875 0-1.84375-.578124-.64062-.59375-.64062-1.515626 0-.53125.23437-.96875.25-.4375.64063-.703124.40625-.265626.89062-.40625.35938-.09375 1.09375-.1875 1.5-.171876 2.20313-.421876 0-.25 0-.3125 0-.765624-.34375-1.0625-.46875-.421874-1.40625-.421874-.85938 0-1.28125.3125-.40625.296874-.60938 1.0625l-1.20312-.15625q.15625-.78125.53125-1.25.39062-.46875 1.09375-.71875.71875-.265626 1.65625-.265626.92187 0 1.5.21875.57812.21875.84375.546876.28125.328124.39062.84375.0625.3125.0625 1.125v1.640624q0 1.71875.07813 2.171876.07812.453124.3125.875h-1.28125q-.1875-.390626-.25-.890626zm-.09375-2.75q-.67188.265626-2.01563.46875-.75.109376-1.07812.25-.3125.125-.48438.390626-.17187.265624-.17187.578124 0 .5.375.828126.375.328124 1.09375.328124.71875 0 1.26562-.3125.54688-.3125.8125-.859374.20313-.40625.20313-1.21875zm3.65625 3.640626v-6.296876h-1.09375v-.96875h1.09375v-.765624q0-.734376.125-1.09375.1875-.46875.625-.765626.45312-.296874 1.26562-.296874.51563 0 1.14063.125l-.1875 1.0625q-.375-.0625-.71875-.0625-.5625 0-.79688.234374-.23437.234376-.23437.890626v.671874h1.42187v.96875h-1.42187v6.296876zm4 0v-6.296876h-1.09375v-.96875h1.09375v-.765624q0-.734376.125-1.09375.1875-.46875.625-.765626.45312-.296874 1.26562-.296874.51563 0 1.14063.125l-.1875 1.0625q-.375-.0625-.71875-.0625-.5625 0-.79688.234374-.23437.234376-.23437.890626v.671874h1.42187v.96875h-1.42187v6.296876zm3.71875-8.609376v-1.40625h1.21875v1.40625zm0 8.609376v-7.265626h1.21875v7.265626zm7.71875-2.65625 1.21875.15625q-.20313 1.25-1.03125 1.96875-.8125.703124-2 .703124-1.48438 0-2.39063-.96875-.90625-.984374-.90625-2.8125 0-1.171874.39063-2.046874.39062-.890626 1.1875-1.328126.79687-.4375 1.73437-.4375 1.17188 0 1.92188.59375.76562.59375.96875 1.703126l-1.1875.1875q-.17188-.734376-.60938-1.09375-.4375-.375-1.04687-.375-.9375 0-1.51563.671874-.57812.65625-.57812 2.09375 0 1.46875.5625 2.140626.5625.65625 1.45312.65625.73438 0 1.21875-.4375.48438-.453126.60938-1.375zm1.34375 2.828124 2.90625-10.359374h.98437l-2.90625 10.359374zm4.92187 2.609376v-10.046876h1.125v.953126q.39063-.5625.89063-.828126.5-.28125 1.21875-.28125.92187 0 1.625.484376.71875.46875 1.07812 1.34375.35938.875.35938 1.90625 0 1.109374-.40625 2.015624-.39063.890626-1.15625 1.375-.75.46875-1.59375.46875-.60938 0-1.10938-.265624-.48437-.265626-.79687-.65625v3.53125zm1.10938-6.375q0 1.40625.5625 2.078124.57812.671876 1.39062.671876.8125 0 1.39063-.6875.59375-.703126.59375-2.15625 0-1.390626-.57813-2.078126-.5625-.6875-1.35937-.6875-.78125 0-1.39063.734376-.60937.734374-.60937 2.125zm6.875 3.59375v-7.265626h1.10937v1.109376q.42188-.78125.78125-1.015626.35938-.25.79688-.25.625 0 1.26562.390626l-.42187 1.140624q-.45313-.265624-.90625-.265624-.40625 0-.73438.25-.3125.234374-.45312.671874-.20313.65625-.20313 1.4375v3.796876zm9.98437-2.34375 1.28125.15625q-.3125 1.125-1.125 1.75-.8125.609374-2.07812.609374-1.59375 0-2.53125-.984374-.92188-.984376-.92188-2.75 0-1.84375.9375-2.84375.95313-1.015626 2.45313-1.015626 1.45312 0 2.375 1 .92187.984376.92187 2.78125 0 .109376 0 .328126h-5.42187q.07812 1.1875.67187 1.828124.60938.640626 1.53125.640626.67188 0 1.14063-.359376.48437-.359374.76562-1.140624zm-4.03125-1.984376h4.04688q-.07813-.921874-.46875-1.375-.57813-.703124-1.51563-.703124-.85937 0-1.4375.5625-.5625.5625-.625 1.515624zm7.0625 4.328126v-7.265626h1.10938v1.03125q.32812-.546874.89062-.859374.57813-.328126 1.29688-.328126.8125 0 1.32812.34375.51563.328126.73438.921876.85937-1.265626 2.23437-1.265626 1.07813 0 1.65625.59375.59375.59375.59375 1.84375v4.984376h-1.23437v-4.578126q0-.734374-.125-1.0625-.10938-.328124-.42188-.515624-.3125-.203126-.73437-.203126-.76563 0-1.28125.515626-.5.5-.5 1.625v4.21875h-1.23438v-4.71875q0-.8125-.29687-1.21875-.29688-.421876-.98438-.421876-.51562 0-.96875.28125-.4375.265626-.64062.796876-.1875.515624-.1875 1.515624v3.765626zm12.01563-8.609376v-1.40625h1.21875v1.40625zm0 8.609376v-7.265626h1.21875v7.265626zm7.75 0v-1.0625q-.85938 1.234374-2.3125 1.234374-.64063 0-1.20313-.25-.54687-.25-.82812-.625-.26563-.375-.375-.90625-.07813-.359374-.07813-1.15625v-4.5h1.23438v4.03125q0 .96875.07812 1.296876.10938.484374.48438.765624.375.28125.9375.28125.54687 0 1.03125-.28125.48437-.296874.6875-.78125.20312-.484374.20312-1.421874v-3.890626h1.23438v7.265626zm3.23437 0v-7.265626h1.10938v1.03125q.32812-.546874.89062-.859374.57813-.328126 1.29688-.328126.8125 0 1.32812.34375.51563.328126.73438.921876.85937-1.265626 2.23437-1.265626 1.07813 0 1.65625.59375.59375.59375.59375 1.84375v4.984376h-1.23437v-4.578126q0-.734374-.125-1.0625-.10938-.328124-.42188-.515624-.3125-.203126-.73437-.203126-.76563 0-1.28125.515626-.5.5-.5 1.625v4.21875h-1.23438v-4.71875q0-.8125-.29687-1.21875-.29688-.421876-.98438-.421876-.51562 0-.96875.28125-.4375.265626-.64062.796876-.1875.515624-.1875 1.515624v3.765626zm17.14063 0h-1.14063v-10.015626h1.21875v3.5625q.78125-.96875 2-.96875.67188 0 1.26563.265626.59375.265624.98437.765624.39063.484376.60938 1.171876.21875.6875.21875 1.484374 0 1.859376-.9375 2.890626-.92188 1.015624-2.20313 1.015624-1.28125 0-2.01562-1.078124zm-.01563-3.6875q0 1.3125.35938 1.890624.57812.953126 1.5625.953126.8125 0 1.39062-.703126.59375-.703124.59375-2.09375 0-1.421874-.5625-2.09375-.5625-.671874-1.35937-.671874-.8125 0-1.40625.703124-.57813.6875-.57813 2.015626zm6.85939 3.6875v-7.265626h1.10938v1.109376q.42186-.78125.78126-1.015626.35936-.25.79686-.25.625 0 1.26564.390626l-.4219 1.140624q-.4531-.265624-.90624-.265624-.40626 0-.73436.25-.3125.234374-.45314.671874-.20312.65625-.20312 1.4375v3.796876zm9.75-.890626q-.67186.578126-1.3125.828126-.625.234374-1.35936.234374-1.1875 0-1.84376-.578124-.64064-.59375-.64064-1.515626 0-.53125.2344-.96875.25-.4375.6406-.703124.40626-.265626.89064-.40625.35936-.09375 1.09376-.1875 1.5-.171876 2.2031-.421876 0-.25 0-.3125 0-.765624-.34374-1.0625-.46876-.421874-1.40626-.421874-.85936 0-1.28124.3125-.40626.296874-.60936 1.0625l-1.20314-.15625q.15624-.78125.53124-1.25.39064-.46875 1.09376-.71875.71874-.265626 1.65624-.265626.9219 0 1.5.21875.57814.21875.84376.546876.28124.328124.39064.84375.0625.3125.0625 1.125v1.640624q0 1.71875.0781 2.171876.07814.453124.3125.875h-1.28124q-.1875-.390626-.25-.890626zm-.09376-2.75q-.67186.265626-2.0156.46875-.75.109376-1.07814.25-.3125.125-.48436.390626-.1719.265624-.1719.578124 0 .5.375.828126.375.328124 1.09376.328124.71874 0 1.26564-.3125.54686-.3125.8125-.859374.2031-.40625.2031-1.21875zm3.3594 3.640626v-7.265626h1.10936v1.03125q.79688-1.1875 2.3125-1.1875.65624 0 1.20314.234376.54686.234374.8125.625.28124.375.3906.90625.07814.34375.07814 1.1875v4.46875h-1.23438v-4.421876q0-.75-.14062-1.109374-.14064-.375-.51564-.59375-.35936-.234376-.85936-.234376-.78124 0-1.35938.5-.5625.5-.5625 1.890626v3.96875zm12.71874 0v-.921876q-.70314 1.09375-2.03124 1.09375-.875 0-1.6094-.484374-.71874-.484376-1.125-1.34375-.3906-.859376-.3906-1.96875 0-1.078126.35936-1.96875.35938-.890626 1.07814-1.359376.73436-.46875 1.625-.46875.65624 0 1.17186.28125.51564.265626.82814.71875v-3.59375h1.23436v10.015626zm-3.89064-3.625q0 1.390624.57814 2.09375.59376.6875 1.39062.6875.8125 0 1.375-.65625.5625-.671876.5625-2.015626 0-1.5-.57812-2.1875-.57814-.703124-1.40624-.703124-.82814 0-1.375.671874-.5469.671876-.5469 2.109376zm10.6875 1.453124 1.20314-.1875q.10936.734376.57812 1.125.46874.390626 1.3125.390626.84374 0 1.25-.34375.42188-.34375.42188-.8125 0-.421876-.375-.65625-.25-.171876-1.25-.421876-1.35938-.34375-1.89064-.59375-.5156-.25-.78124-.6875-.26562-.4375-.26562-.96875 0-.484374.21876-.890624.21874-.421876.60936-.703126.28124-.203124.76564-.34375.5-.15625 1.0781-.15625.84376 0 1.4844.25.65624.234376.96874.65625.3125.421876.42186 1.125l-1.2031.171876q-.07814-.5625-.4844-.875-.3906-.3125-1.10936-.3125-.84374 0-1.20314.28125-.35936.265624-.35936.65625 0 .234374.14062.421874.15624.203126.48438.328126.17186.0625 1.07812.3125 1.3125.359374 1.82814.578124.5156.21875.79686.640626.29688.421874.29688 1.046874 0 .625-.35938 1.171876-.34376.53125-1.03126.84375-.67186.296874-1.53124.296874-1.40626 0-2.15626-.59375-.73436-.59375-.9375-1.75zm7.5-6.4375v-1.40625h1.21876v1.40625zm0 8.609376v-7.265626h1.21876v7.265626zm5.6719-1.09375.17186 1.078124q-.51562.109376-.92186.109376-.6719 0-1.0469-.203126-.35936-.21875-.5156-.5625-.14064-.34375-.14064-1.453124v-4.171876h-.90626v-.96875h.90626v-1.796874l1.21874-.734376v2.53125h1.2344v.96875h-1.2344v4.234376q0 .53125.0625.6875.0625.140624.20314.234374.15626.09375.42186.09375.21876 0 .5469-.046874zm6.28124-1.25 1.28126.15625q-.3125 1.125-1.125 1.75-.8125.609374-2.07814.609374-1.59376 0-2.53126-.984374-.92186-.984376-.92186-2.75 0-1.84375.9375-2.84375.95312-1.015626 2.45312-1.015626 1.45314 0 2.375 1 .92188.984376.92188 2.78125 0 .109376 0 .328126h-5.42188q.07814 1.1875.67188 1.828124.60936.640626 1.53126.640626.67186 0 1.1406-.359376.4844-.359374.76564-1.140624zm-4.03124-1.984376h4.04686q-.07812-.921874-.46876-1.375-.5781-.703124-1.5156-.703124-.8594 0-1.4375.5625-.5625.5625-.625 1.515624zm6.5781 2.15625 1.20314-.1875q.10936.734376.57812 1.125.46874.390626 1.3125.390626.84374 0 1.25-.34375.42188-.34375.42188-.8125 0-.421876-.375-.65625-.25-.171876-1.25-.421876-1.35938-.34375-1.89064-.59375-.5156-.25-.78124-.6875-.26562-.4375-.26562-.96875 0-.484374.21876-.890624.21874-.421876.60936-.703126.28124-.203124.76564-.34375.5-.15625 1.0781-.15625.84376 0 1.4844.25.65624.234376.96874.65625.3125.421876.42186 1.125l-1.2031.171876q-.07814-.5625-.4844-.875-.3906-.3125-1.10936-.3125-.84374 0-1.20314.28125-.35936.265624-.35936.65625 0 .234374.14062.421874.15624.203126.48438.328126.17186.0625 1.07812.3125 1.3125.359374 1.82814.578124.5156.21875.79686.640626.29688.421874.29688 1.046874 0 .625-.35938 1.171876-.34376.53125-1.03126.84375-.67186.296874-1.53124.296874-1.40626 0-2.15626-.59375-.73436-.59375-.9375-1.75zm11.5-6.4375v-1.40625h1.21876v1.40625zm0 8.609376v-7.265626h1.21876v7.265626zm2.9844 0v-7.265626h1.10936v1.03125q.79688-1.1875 2.3125-1.1875.65624 0 1.20314.234376.54686.234374.8125.625.28124.375.3906.90625.07814.34375.07814 1.1875v4.46875h-1.23438v-4.421876q0-.75-.14062-1.109374-.14064-.375-.51564-.59375-.35936-.234376-.85936-.234376-.78124 0-1.35938.5-.5625.5-.5625 1.890626v3.96875zm12.1406 0v-10.015626h1.3594l5.2656 7.859376v-7.859376h1.28126v10.015626h-1.35936l-5.26564-7.875v7.875zm9.96876 0v-10.015626h1.32814v8.828126h4.92186v1.1875z" fill="#999"/><path d="m17.903126 22.17743v-1.6875h9.265624v1.359374q-1.375 1.453126-2.71875 3.875-1.34375 2.40625-2.0625 4.953126-.53125 1.796874-.6875 3.9375h-1.796874q.03125-1.6875.65625-4.078126.640624-2.390624 1.828124-4.609374 1.1875-2.234376 2.515626-3.75zm10.875 5.375q0-2.53125.515624-4.078126.53125-1.5625 1.5625-2.390624 1.03125-.84375 2.59375-.84375 1.15625 0 2.015626.46875.875.453124 1.4375 1.328124.5625.875.890624 2.140626.328126 1.25.328126 3.375 0 2.515624-.53125 4.0625-.515626 1.546874-1.546876 2.40625-1.015624.84375-2.59375.84375-2.078124 0-3.25-1.484376-1.421874-1.796874-1.421874-5.828124zm1.8125 0q0 3.53125.8125 4.703124.828124 1.15625 2.046874 1.15625 1.203126 0 2.03125-1.171874.828126-1.171876.828126-4.6875 0-3.53125-.828126-4.6875-.828124-1.171876-2.046874-1.171876-1.21875 0-1.9375 1.03125-.90625 1.296876-.90625 4.828126zm9.515624-3.8125q0-1.53125.765626-2.609376.78125-1.078124 2.25-1.078124 1.34375 0 2.21875.96875.890624.953124.890624 2.828124 0 1.8125-.890624 2.796876-.890626.96875-2.203126.96875-1.296874 0-2.171874-.953126-.859376-.96875-.859376-2.921874zm3.0625-2.46875q-.65625 0-1.09375.5625-.421874.5625-.421874 2.078124 0 1.375.4375 1.9375.4375.5625 1.078124.5625.671876 0 1.09375-.5625.4375-.578124.4375-2.078124 0-1.390626-.4375-1.9375-.4375-.5625-1.09375-.5625zm.015626 13.875 7.828124-15.09375h1.421876l-7.796876 15.09375zm6.1875-3.890626q0-1.546874.765624-2.609374.78125-1.078126 2.25-1.078126 1.34375 0 2.21875.96875.890626.953126.890626 2.828126 0 1.8125-.890626 2.796874-.890624.984376-2.203124.984376-1.296876 0-2.171876-.96875-.859374-.984376-.859374-2.921876zm3.0625-2.46875q-.65625 0-1.09375.5625-.4375.5625-.4375 2.078126 0 1.375.4375 1.9375.4375.5625 1.09375.5625.671874 0 1.09375-.5625.4375-.5625.4375-2.078126 0-1.375-.4375-1.9375-.4375-.5625-1.09375-.5625zm11.1875.640626q0-2.875 1.593744-4.265626 1.34375-1.15625 3.26563-1.15625 2.14062 0 3.48437 1.40625 1.35938 1.40625 1.35938 3.875 0 2-.59375 3.15625-.59375 1.140626-1.75 1.78125-1.14063.625-2.5.625-2.1875 0-3.53125-1.390624-1.328124-1.40625-1.328124-4.03125zm1.796874 0q0 2 .85937 2.984374.875.984376 2.20313.984376 1.3125 0 2.17187-.984376.875-1 .875-3.046874 0-1.921876-.875-2.90625-.875-1-2.17187-1-1.32813 0-2.20313 1-.85937.984374-.85937 2.96875zm10.26562 5.1875v-9h-1.54687v-1.375h1.54687v-1.09375q0-1.046876.1875-1.5625.25-.6875.89063-1.109376.64062-.421874 1.79687-.421874.75 0 1.64063.171874l-.26563 1.53125q-.54687-.09375-1.03125-.09375-.79687 0-1.14062.34375-.32813.34375-.32813 1.28125v.953126h2.03125v1.375h-2.03125v9zm14.3125 0-3.79687-14.3125h1.9375l2.17187 9.375q.35938 1.484374.60938 2.9375.54687-2.296876.64062-2.65625l2.73438-9.65625h2.28125l2.04687 7.234374q.78125 2.703126 1.125 5.078126.26563-1.359376.70313-3.125l2.25-9.1875h1.90625l-3.92188 14.3125h-1.82812l-3.01563-10.90625q-.39062-1.375-.45312-1.6875-.23438.984374-.42188 1.6875l-3.03125 10.90625zm23.375-3.34375 1.8125.234374q-.42187 1.578126-1.59375 2.46875-1.15625.875-2.96875.875-2.26562 0-3.60937-1.390624-1.32813-1.40625-1.32813-3.9375 0-2.625 1.34375-4.0625 1.34375-1.453126 3.5-1.453126 2.07813 0 3.39063 1.421876 1.32812 1.40625 1.32812 3.984374 0 .15625-.01562.46875h-7.73438q.09375 1.703126.96875 2.609376.875.90625 2.17188.90625.96875 0 1.64062-.5.6875-.515626 1.09375-1.625zm-5.78125-2.84375h5.79688q-.10938-1.296876-.65625-1.953126-.84375-1.015624-2.1875-1.015624-1.20313 0-2.03125.8125-.82813.796874-.92188 2.15625zm11.29688 6.1875h-1.625v-14.3125h1.75v5.109374q1.125-1.40625 2.84375-1.40625.95312 0 1.8125.390626.85937.390624 1.40625 1.09375.54687.6875.85937 1.671874.3125.984376.3125 2.109376 0 2.671874-1.3125 4.125-1.3125 1.453124-3.15625 1.453124-1.84375 0-2.89062-1.53125zm-.01563-5.265626q0 1.859376.5 2.703126.84375 1.34375 2.25 1.34375 1.15625 0 1.98438-1 .84375-1 .84375-2.984376 0-2.03125-.8125-2.984374-.79688-.96875-1.9375-.96875-1.15625 0-2 1-.82813 1-.82813 2.890624zm8.6875 2.171876 1.75-.28125q.14063 1.046874.8125 1.609374.67188.546876 1.875.546876 1.20313 0 1.78125-.484376.59375-.5.59375-1.15625 0-.59375-.51562-.9375-.35938-.234374-1.79688-.59375-1.9375-.5-2.6875-.84375-.73437-.359374-1.125-.984374-.39062-.640626-.39062-1.40625 0-.6875.3125-1.28125.32812-.59375.875-.984376.40625-.296874 1.10937-.5.71875-.21875 1.53125-.21875 1.21875 0 2.14063.359376.92187.34375 1.35937.953124.4375.59375.60938 1.59375l-1.71875.234376q-.125-.796876-.6875-1.234376-.5625-.453124-1.57813-.453124-1.21875 0-1.73437.40625-.51563.390624-.51563.921874 0 .34375.21875.625.20313.28125.67188.46875.26562.09375 1.54687.4375 1.875.5 2.60938.828126.73437.3125 1.15625.921874.42187.59375.42187 1.5 0 .875-.51562 1.65625-.51563.78125-1.48438 1.203126-.96875.421874-2.1875.421874-2.01562 0-3.07812-.84375-1.0625-.84375-1.35938-2.484374zm10.71875-9.203126v-2.015624h1.76563v2.015624zm0 12.296876v-10.375h1.76563v10.375zm7.82813-1.578126.25 1.5625q-.73438.15625-1.32813.15625-.95312 0-1.48437-.296874-.51563-.3125-.73438-.796876-.21875-.5-.21875-2.078124v-5.96875h-1.28125v-1.375h1.28125v-2.5625l1.75-1.0625v3.625h1.76563v1.375h-1.76563v6.0625q0 .75.09375.96875.09375.203124.29688.34375.21875.125.60937.125.28125 0 .76563-.078126zm9.26562-1.765624 1.8125.234374q-.42187 1.578126-1.59375 2.46875-1.15625.875-2.96875.875-2.26562 0-3.60937-1.390624-1.32813-1.40625-1.32813-3.9375 0-2.625 1.34375-4.0625 1.34375-1.453126 3.5-1.453126 2.07813 0 3.39063 1.421876 1.32812 1.40625 1.32812 3.984374 0 .15625-.01562.46875h-7.73438q.09375 1.703126.96875 2.609376.875.90625 2.17188.90625.96875 0 1.64062-.5.6875-.515626 1.09375-1.625zm-5.78125-2.84375h5.79688q-.10938-1.296876-.65625-1.953126-.84375-1.015624-2.1875-1.015624-1.20313 0-2.03125.8125-.82813.796874-.92188 2.15625zm8.96875 3.09375 1.75-.28125q.14063 1.046874.8125 1.609374.67188.546876 1.875.546876 1.20313 0 1.78125-.484376.59375-.5.59375-1.15625 0-.59375-.51562-.9375-.35938-.234374-1.79688-.59375-1.9375-.5-2.6875-.84375-.73437-.359374-1.125-.984374-.39062-.640626-.39062-1.40625 0-.6875.3125-1.28125.32812-.59375.875-.984376.40625-.296874 1.10937-.5.71875-.21875 1.53125-.21875 1.21875 0 2.14063.359376.92187.34375 1.35937.953124.4375.59375.60938 1.59375l-1.71875.234376q-.125-.796876-.6875-1.234376-.5625-.453124-1.57813-.453124-1.21875 0-1.73437.40625-.51563.390624-.51563.921874 0 .34375.21875.625.20313.28125.67188.46875.26562.09375 1.54687.4375 1.875.5 2.60938.828126.73437.3125 1.15625.921874.42187.59375.42187 1.5 0 .875-.51562 1.65625-.51563.78125-1.48438 1.203126-.96875.421874-2.1875.421874-2.01562 0-3.07812-.84375-1.0625-.84375-1.35938-2.484374zm17 3.09375v-14.3125h1.89063v5.875h7.4375v-5.875h1.89062v14.3125h-1.89062v-6.75h-7.4375v6.75zm20.48438-1.28125q-.98438.828124-1.89063 1.171874-.90625.34375-1.9375.34375-1.70312 0-2.625-.828124-.92187-.84375-.92187-2.140626 0-.765624.34375-1.390624.35937-.625.92187-1 .5625-.390626 1.26563-.59375.51562-.125 1.5625-.265626 2.125-.25 3.125-.59375.01562-.359374.01562-.46875 0-1.0625-.5-1.515624-.67187-.59375-2-.59375-1.25 0-1.84375.4375-.57812.4375-.85937 1.546874l-1.71875-.234374q.23437-1.109376.76562-1.78125.53125-.6875 1.54688-1.046876 1.01562-.375 2.35937-.375 1.32813 0 2.15625.3125.82813.3125 1.21875.796876.39063.46875.54688 1.1875.09375.453124.09375 1.625v2.34375q0 2.453124.10937 3.109374.10938.640626.45313 1.234376h-1.84375q-.26563-.546876-.34375-1.28125zm-.15625-3.921876q-.95313.390626-2.875.65625-1.07813.15625-1.53125.359376-.4375.1875-.6875.5625-.25.375-.25.84375 0 .703124.53125 1.171874.53125.46875 1.5625.46875 1.01562 0 1.79687-.4375.79688-.453124 1.17188-1.21875.28125-.609374.28125-1.765624zm7.26562 5.203126-3.95312-10.375h1.85937l2.23438 6.21875q.35937 1 .65625 2.078124.23437-.8125.65625-1.96875l2.29687-6.328124h1.8125l-3.92187 10.375zm14.21875-3.34375 1.8125.234374q-.42187 1.578126-1.59375 2.46875-1.15625.875-2.96875.875-2.26562 0-3.60937-1.390624-1.32813-1.40625-1.32813-3.9375 0-2.625 1.34375-4.0625 1.34375-1.453126 3.5-1.453126 2.07813 0 3.39063 1.421876 1.32812 1.40625 1.32812 3.984374 0 .15625-.01562.46875h-7.73438q.09375 1.703126.96875 2.609376.875.90625 2.17188.90625.96875 0 1.64062-.5.6875-.515626 1.09375-1.625zm-5.78125-2.84375h5.79688q-.10938-1.296876-.65625-1.953126-.84375-1.015624-2.1875-1.015624-1.20313 0-2.03125.8125-.82813.796874-.92188 2.15625zm22.45313 4.90625q-.98438.828124-1.89063 1.171874-.90625.34375-1.9375.34375-1.70312 0-2.625-.828124-.92187-.84375-.92187-2.140626 0-.765624.34375-1.390624.35937-.625.92187-1 .5625-.390626 1.26563-.59375.51562-.125 1.5625-.265626 2.125-.25 3.125-.59375.01562-.359374.01562-.46875 0-1.0625-.5-1.515624-.67187-.59375-2-.59375-1.25 0-1.84375.4375-.57812.4375-.85937 1.546874l-1.71875-.234374q.23437-1.109376.76562-1.78125.53125-.6875 1.54688-1.046876 1.01562-.375 2.35937-.375 1.32813 0 2.15625.3125.82813.3125 1.21875.796876.39063.46875.54688 1.1875.09375.453124.09375 1.625v2.34375q0 2.453124.10937 3.109374.10938.640626.45313 1.234376h-1.84375q-.26563-.546876-.34375-1.28125zm-.15625-3.921876q-.95313.390626-2.875.65625-1.07813.15625-1.53125.359376-.4375.1875-.6875.5625-.25.375-.25.84375 0 .703124.53125 1.171874.53125.46875 1.5625.46875 1.01562 0 1.79687-.4375.79688-.453124 1.17188-1.21875.28125-.609374.28125-1.765624zm10.39062-4.046874-.45312-2.671876v-2.390624h2v2.390624l-.46875 2.671876zm4.14063 9.25v-14.3125h5.375q1.64062 0 2.62501.4375.98438.421874 1.54688 1.328124.5625.90625.5625 1.890626 0 .921874-.5 1.734374-.48438.8125-1.5 1.296876 1.29686.390624 2 1.3125.70312.90625.70312 2.15625 0 1.015624-.4375 1.875-.42186.859374-1.04686 1.328124-.625.46875-1.5625.71875-.93753.234376-2.31253.234376zm1.89062-8.296876h3.09375q1.26563 0 1.8125-.171874.71875-.21875 1.07814-.703126.375-.5.375-1.265624 0-.703126-.34376-1.25-.34375-.546876-.98438-.734376-.625-.203124-2.17187-.203124h-2.85938zm0 6.609376h3.5625q.92188 0 1.29688-.078126.65625-.109374 1.09375-.375.4375-.28125.71876-.796874.28124-.53125.28124-1.21875 0-.796876-.40624-1.390626-.40626-.59375-1.14064-.828124-.73437-.234376-2.09375-.234376h-3.3125zm17.73439.40625q-.98436.828124-1.89062 1.171874-.90624.34375-1.9375.34375-1.70314 0-2.625-.828124-.92188-.84375-.92188-2.140626 0-.765624.34374-1.390624.3594-.625.9219-1 .5625-.390626 1.2656-.59375.51564-.125 1.5625-.265626 2.125-.25 3.125-.59375.01564-.359374.01564-.46875 0-1.0625-.5-1.515624-.67188-.59375-2-.59375-1.25 0-1.84374.4375-.57814.4375-.8594 1.546874l-1.71874-.234374q.23438-1.109376.76564-1.78125.53124-.6875 1.54686-1.046876 1.01564-.375 2.35938-.375 1.32812 0 2.15626.3125.8281.3125 1.21874.796876.39062.46875.54686 1.1875.09376.453124.09376 1.625v2.34375q0 2.453124.10938 3.109374.10936.640626.45312 1.234376h-1.84376q-.2656-.546876-.34374-1.28125zm-.15626-3.921876q-.9531.390626-2.875.65625-1.0781.15625-1.53124.359376-.4375.1875-.6875.5625-.25.375-.25.84375 0 .703124.53124 1.171874.53126.46875 1.5625.46875 1.01564 0 1.7969-.4375.79686-.453124 1.17186-1.21875.28124-.609374.28124-1.765624zm11.1094 5.203126v-1.3125q-.9844 1.546874-2.90626 1.546874-1.23438 0-2.28124-.6875-1.03126-.6875-1.6094-1.90625-.5625-1.21875-.5625-2.8125 0-1.5625.51564-2.828124.51562-1.265626 1.54686-1.9375 1.0469-.671876 2.3125-.671876.9375 0 1.6719.40625.73436.390626 1.2031 1.015626v-5.125h1.7344v14.3125zm-5.5625-5.171876q0 1.984376.84374 2.96875.84376.984376 1.98436.984376 1.15626 0 1.95314-.9375.8125-.9375.8125-2.875 0-2.125-.82814-3.125-.8125-1-2.0156-1-1.1719 0-1.96876.96875-.78124.953124-.78124 3.015624zm16.0625 5.171876v-14.3125h5.3906q1.4375 0 2.1875.125 1.0469.1875 1.76564.6875.71876.484374 1.14062 1.375.4375.890624.4375 1.953124 0 1.828126-1.17186 3.09375-1.15626 1.25-4.1875 1.25h-3.6719v5.828126zm1.8906-7.515626h3.70314q1.82812 0 2.59376-.671874.78124-.6875.78124-1.9375 0-.890626-.45314-1.53125-.4531-.640626-1.1875-.84375-.48436-.125-1.78124-.125h-3.65626zm17.9844 4.171876 1.8125.234374q-.4219 1.578126-1.59376 2.46875-1.15624.875-2.96874.875-2.26564 0-3.6094-1.390624-1.3281-1.40625-1.3281-3.9375 0-2.625 1.34374-4.0625 1.34376-1.453126 3.5-1.453126 2.07812 0 3.39062 1.421876 1.32814 1.40625 1.32814 3.984374 0 .15625-.01564.46875h-7.73436q.09374 1.703126.96874 2.609376.875.90625 2.17186.90625.96876 0 1.64064-.5.6875-.515626 1.09376-1.625zm-5.78126-2.84375h5.79686q-.10936-1.296876-.65624-1.953126-.84376-1.015624-2.1875-1.015624-1.20312 0-2.03126.8125-.8281.796874-.92186 2.15625zm9.65626 6.1875v-10.375h1.5781v1.578124q.6094-1.109374 1.125-1.453124.51564-.359376 1.125-.359376.89064 0 1.8125.5625l-.60936 1.640626q-.64064-.390626-1.28124-.390626-.57814 0-1.0469.359376-.4531.34375-.65624.953124-.28126.9375-.28126 2.046876v5.4375zm7.4375 0v-9h-1.5469v-1.375h1.5469v-1.09375q0-1.046876.1875-1.5625.25-.6875.8906-1.109376.64064-.421874 1.7969-.421874.75 0 1.6406.171874l-.2656 1.53125q-.5469-.09375-1.03126-.09375-.79688 0-1.14064.34375-.3281.34375-.3281 1.28125v.953126h2.03124v1.375h-2.03124v9zm4.9375-5.1875q0-2.875 1.59374-4.265626 1.34376-1.15625 3.26562-1.15625 2.14064 0 3.48438 1.40625 1.35936 1.40625 1.35936 3.875 0 2-.59374 3.15625-.59376 1.140626-1.75 1.78125-1.14062.625-2.5.625-2.1875 0-3.53126-1.390624-1.3281-1.40625-1.3281-4.03125zm1.79686 0q0 2 .85938 2.984374.875.984376 2.20312.984376 1.3125 0 2.17188-.984376.875-1 .875-3.046874 0-1.921876-.875-2.90625-.875-1-2.17188-1-1.32812 0-2.20312 1-.85938.984374-.85938 2.96875zm9.82814 5.1875v-10.375h1.5781v1.578124q.6094-1.109374 1.125-1.453124.51564-.359376 1.125-.359376.89064 0 1.8125.5625l-.60936 1.640626q-.64064-.390626-1.28124-.390626-.57814 0-1.0469.359376-.4531.34375-.65624.953124-.28126.9375-.28126 2.046876v5.4375zm7.0156 0v-10.375h1.57814v1.453124q.48436-.75 1.29686-1.21875.8125-.46875 1.84376-.46875 1.15624 0 1.89064.484376.73436.46875 1.04686 1.328124 1.23438-1.8125 3.20314-1.8125 1.54686 0 2.375.859376.8281.859374.8281 2.625v7.125h-1.75v-6.53125q0-1.0625-.17186-1.515626-.17188-.46875-.625-.75-.4375-.28125-1.04688-.28125-1.09376 0-1.82812.734376-.71874.71875-.71874 2.3125v6.03125h-1.75v-6.734376q0-1.171874-.4375-1.75-.4219-.59375-1.40626-.59375-.73438 0-1.375.390626-.625.390624-.90624 1.140624-.28126.75-.28126 2.171876v5.375zm23.78126-1.28125q-.98436.828124-1.89062 1.171874-.90624.34375-1.9375.34375-1.70314 0-2.625-.828124-.92188-.84375-.92188-2.140626 0-.765624.34374-1.390624.3594-.625.9219-1 .5625-.390626 1.2656-.59375.51564-.125 1.5625-.265626 2.125-.25 3.125-.59375.01564-.359374.01564-.46875 0-1.0625-.5-1.515624-.67188-.59375-2-.59375-1.25 0-1.84374.4375-.57814.4375-.8594 1.546874l-1.71874-.234374q.23438-1.109376.76564-1.78125.53124-.6875 1.54686-1.046876 1.01564-.375 2.35938-.375 1.32812 0 2.15626.3125.8281.3125 1.21874.796876.39062.46875.54686 1.1875.09376.453124.09376 1.625v2.34375q0 2.453124.10938 3.109374.10936.640626.45312 1.234376h-1.84376q-.2656-.546876-.34374-1.28125zm-.15626-3.921876q-.9531.390626-2.875.65625-1.0781.15625-1.53124.359376-.4375.1875-.6875.5625-.25.375-.25.84375 0 .703124.53124 1.171874.53126.46875 1.5625.46875 1.01564 0 1.7969-.4375.79686-.453124 1.17186-1.21875.28124-.609374.28124-1.765624zm4.375 5.203126v-10.375h1.59376v1.484374q1.14064-1.71875 3.29688-1.71875.9375 0 1.71876.34375.79686.328126 1.1875.875.3906.546876.54686 1.296876.09374.5.09374 1.71875v6.375h-1.7656v-6.3125q0-1.078126-.20314-1.609376-.20312-.53125-.73436-.84375-.51564-.3125-1.21876-.3125-1.125 0-1.9375.71875-.8125.703126-.8125 2.6875v5.671876zm17.78126-3.796876 1.71874.21875q-.28124 1.796876-1.4531 2.8125-1.15626 1-2.8594 1-2.125 0-3.42186-1.390624-1.29688-1.390626-1.29688-3.984376 0-1.6875.54688-2.9375.5625-1.265624 1.70312-1.890624 1.14064-.640626 2.48438-.640626 1.6875 0 2.75.859376 1.07812.859374 1.39062 2.421874l-1.71876.265626q-.23436-1.046876-.85936-1.5625-.625-.53125-1.5-.53125-1.32814 0-2.15624.953124-.82814.953126-.82814 3 0 2.09375.79688 3.046876.79686.9375 2.09376.9375 1.03124 0 1.71874-.625.70312-.640626.89062-1.953126zm10.32814.453126 1.8125.234374q-.4219 1.578126-1.59376 2.46875-1.15624.875-2.96874.875-2.26564 0-3.6094-1.390624-1.3281-1.40625-1.3281-3.9375 0-2.625 1.34374-4.0625 1.34376-1.453126 3.5-1.453126 2.07812 0 3.39062 1.421876 1.32814 1.40625 1.32814 3.984374 0 .15625-.01564.46875h-7.73436q.09374 1.703126.96874 2.609376.875.90625 2.17186.90625.96876 0 1.64064-.5.6875-.515626 1.09376-1.625zm-5.78126-2.84375h5.79686q-.10936-1.296876-.65624-1.953126-.84376-1.015624-2.1875-1.015624-1.20312 0-2.03126.8125-.8281.796874-.92186 2.15625zm9.6875-3.0625-.45314-2.671876v-2.390624h2v2.390624l-.46874 2.671876zm20.4375 4.234374 1.89062.46875q-.59376 2.34375-2.14062 3.578126-1.54688 1.21875-3.79688 1.21875-2.3125 0-3.76562-.9375-1.4375-.953126-2.20314-2.734376-.75-1.796874-.75-3.84375 0-2.234374.84376-3.890624.85938-1.671876 2.4375-2.53125 1.57814-.875 3.46874-.875 2.15626 0 3.6094 1.09375 1.46874 1.09375 2.04686 3.078124l-1.85936.4375q-.5-1.5625-1.45314-2.265624-.9375-.71875-2.375-.71875-1.65626 0-2.76562.796874-1.10938.78125-1.5625 2.125-.4375 1.328126-.4375 2.734376 0 1.828124.53126 3.203124.53124 1.359376 1.65624 2.03125 1.125.671876 2.42186.671876 1.59376 0 2.70314-.921876 1.10936-.921874 1.5-2.71875zm10.65626 1.671876 1.8125.234374q-.4219 1.578126-1.59376 2.46875-1.15624.875-2.96874.875-2.26564 0-3.6094-1.390624-1.3281-1.40625-1.3281-3.9375 0-2.625 1.34374-4.0625 1.34376-1.453126 3.5-1.453126 2.07812 0 3.39062 1.421876 1.32814 1.40625 1.32814 3.984374 0 .15625-.01564.46875h-7.73436q.09374 1.703126.96874 2.609376.875.90625 2.17186.90625.96876 0 1.64064-.5.6875-.515626 1.09376-1.625zm-5.78126-2.84375h5.79686q-.10936-1.296876-.65624-1.953126-.84376-1.015624-2.1875-1.015624-1.20312 0-2.03126.8125-.8281.796874-.92186 2.15625zm9.65626 6.1875v-10.375h1.5781v1.578124q.6094-1.109374 1.125-1.453124.51564-.359376 1.125-.359376.89064 0 1.8125.5625l-.60936 1.640626q-.64064-.390626-1.28124-.390626-.57814 0-1.0469.359376-.4531.34375-.65624.953124-.28126.9375-.28126 2.046876v5.4375zm10.85936-1.578126.25 1.5625q-.73436.15625-1.32812.15625-.95314 0-1.48438-.296874-.51562-.3125-.73436-.796876-.21876-.5-.21876-2.078124v-5.96875h-1.28124v-1.375h1.28124v-2.5625l1.75-1.0625v3.625h1.76562v1.375h-1.76562v6.0625q0 .75.09376.96875.09374.203124.29686.34375.21874.125.60938.125.28126 0 .76562-.078126zm2.17188-10.71875v-2.015624h1.76562v2.015624zm0 12.296876v-10.375h1.76562v10.375zm4.40626 0v-9h-1.5469v-1.375h1.5469v-1.09375q0-1.046876.1875-1.5625.25-.6875.8906-1.109376.64064-.421874 1.7969-.421874.75 0 1.6406.171874l-.2656 1.53125q-.5469-.09375-1.03126-.09375-.79688 0-1.14064.34375-.3281.34375-.3281 1.28125v.953126h2.03124v1.375h-2.03124v9zm5.59374-12.296876v-2.015624h1.76562v2.015624zm0 12.296876v-10.375h1.76562v10.375zm10.76562-3.796876 1.71874.21875q-.28124 1.796876-1.4531 2.8125-1.15626 1-2.8594 1-2.125 0-3.42186-1.390624-1.29688-1.390626-1.29688-3.984376 0-1.6875.54688-2.9375.5625-1.265624 1.70312-1.890624 1.14064-.640626 2.48438-.640626 1.6875 0 2.75.859376 1.07812.859374 1.39062 2.421874l-1.71876.265626q-.23436-1.046876-.85936-1.5625-.625-.53125-1.5-.53125-1.32814 0-2.15624.953124-.82814.953126-.82814 3 0 2.09375.79688 3.046876.79686.9375 2.09376.9375 1.03124 0 1.71874-.625.70312-.640626.89062-1.953126zm10 2.515626q-.98436.828124-1.89062 1.171874-.90624.34375-1.9375.34375-1.70314 0-2.625-.828124-.92188-.84375-.92188-2.140626 0-.765624.34374-1.390624.3594-.625.9219-1 .5625-.390626 1.2656-.59375.51564-.125 1.5625-.265626 2.125-.25 3.125-.59375.01564-.359374.01564-.46875 0-1.0625-.5-1.515624-.67188-.59375-2-.59375-1.25 0-1.84374.4375-.57814.4375-.8594 1.546874l-1.71874-.234374q.23438-1.109376.76564-1.78125.53124-.6875 1.54686-1.046876 1.01564-.375 2.35938-.375 1.32812 0 2.15626.3125.8281.3125 1.21874.796876.39062.46875.54686 1.1875.09376.453124.09376 1.625v2.34375q0 2.453124.10938 3.109374.10936.640626.45312 1.234376h-1.84376q-.2656-.546876-.34374-1.28125zm-.15626-3.921876q-.9531.390626-2.875.65625-1.0781.15625-1.53124.359376-.4375.1875-.6875.5625-.25.375-.25.84375 0 .703124.53124 1.171874.53126.46875 1.5625.46875 1.01564 0 1.7969-.4375.79686-.453124 1.17186-1.21875.28124-.609374.28124-1.765624zm8.21876 3.625.25 1.5625q-.73436.15625-1.32812.15625-.95314 0-1.48438-.296874-.51562-.3125-.73436-.796876-.21876-.5-.21876-2.078124v-5.96875h-1.28124v-1.375h1.28124v-2.5625l1.75-1.0625v3.625h1.76562v1.375h-1.76562v6.0625q0 .75.09376.96875.09374.203124.29686.34375.21874.125.60938.125.28126 0 .76562-.078126zm9.26564-1.765624 1.8125.234374q-.4219 1.578126-1.59376 2.46875-1.15624.875-2.96874.875-2.26564 0-3.6094-1.390624-1.3281-1.40625-1.3281-3.9375 0-2.625 1.34374-4.0625 1.34376-1.453126 3.5-1.453126 2.07812 0 3.39062 1.421876 1.32814 1.40625 1.32814 3.984374 0 .15625-.01564.46875h-7.73436q.09374 1.703126.96874 2.609376.875.90625 2.17186.90625.96876 0 1.64064-.5.6875-.515626 1.09376-1.625zm-5.78126-2.84375h5.79686q-.10936-1.296876-.65624-1.953126-.84376-1.015624-2.1875-1.015624-1.20312 0-2.03126.8125-.8281.796874-.92186 2.15625z" fill="#434343"/></svg>