<svg id="icon-cmgcorp-logo" viewBox="0 0 161 47.97"><title>cmgcorp-logo</title><path d="M161 15.57h-.4v-2.1l-.8 2.1h-.5l-.7-2.1v2.1h-.5v-2.9h.6l.8 2.3.8-2.3h.6v2.9m-3.1-2.9v.4h-.8v2.5h-.4v-2.5h-.8v-.4zM29.9 12.07a11.35 11.35 0 1 1-11.4 11.4 11.33 11.33 0 0 1 11.4-11.4m0 18.9a7.55 7.55 0 0 0 0-15.1 7.41 7.41 0 0 0-7.3 7.6A7.45 7.45 0 0 0 29.9 31"></path><path d="M17.1 28.17a8.14 8.14 0 0 1-5.8 2.7 7.56 7.56 0 0 1-.1-15.1 7.54 7.54 0 0 1 5.9 2.9 13.3 13.3 0 0 1 2-3.5 11.45 11.45 0 0 0-7.8-3.1A11.33 11.33 0 0 0 0 23.27a11.51 11.51 0 0 0 11.3 11.4 11.25 11.25 0 0 0 7.7-3.1 12.46 12.46 0 0 1-1.9-3.4M86.6 12.67h14v3.7h-9.9v5h9.6v3.8h-9.6v5.5h9.9v3.7h-14v-21.7M103.4 12.67h4.9c5.3 0 7.7 1.4 8.9 2.5a11.33 11.33 0 0 1 3.6 8.4 10.67 10.67 0 0 1-5.2 9.4 15.72 15.72 0 0 1-7.2 1.4h-5v-21.7m4.1 18h.9a10.1 10.1 0 0 0 5.3-1.1 7 7 0 0 0 3.3-6 7.47 7.47 0 0 0-2.3-5.4c-1.7-1.5-3.8-1.8-6.3-1.8h-.8v14.3zM43.1 34.27a29.81 29.81 0 0 1 2-4 41.64 41.64 0 0 1 7.1-8l6.8-9.8h-5l-5.2 7.6-5.1-7.6h-5.2l7.5 11-7.5 10.8h4.6M78 12.67l-5.7 16.5h-.1l-5.5-15.7-2.2 1.4c-1.4.8-3.7 2.5-3.7 2.5v17.2h4v-16.5h.1l5.6 16.3h3.4l5.6-16.3h.1v16.3h4v-21.7H78M146.2 30L139 12.67h-3.1l-9.1 21.8h4.4l2.3-5.6h7.8l2 4.9c1.1-1.3 2-2.6 2.9-3.8m-11.3-5l2.5-6.7h.1L140 25z"></path><path d="M154.2 16.07c-3.8-15.3-33.5-20-63.7-12.7a109.66 109.66 0 0 0-17.3 5.7c-.3.2-.3.4.1.3a97.25 97.25 0 0 1 13.2-4c30.2-7.3 60-2.3 63.8 13.3 1.3 5.4-1.2 11.8-6.8 17.9-.4.4 0 .8.4.4 8-6.9 11.8-14.6 10.3-20.9M50.8 26.37a9.1 9.1 0 0 0-.3 2.7l3.8 5.3h5l-7.4-10.2a13.17 13.17 0 0 0-1.1 2.2"></path><path d="M126.5 29.07v-16.4h-4v21.7h1.8l2.2-5.3M96.4 39.17a2.88 2.88 0 0 1 1.6 2.4h-1.2a1.94 1.94 0 0 0-.9-1.4 2.86 2.86 0 0 0-1.7-.4 2.52 2.52 0 0 0-2 .9 4.14 4.14 0 0 0-.8 2.7 3.9 3.9 0 0 0 .7 2.5 2.58 2.58 0 0 0 2.2 1 2.49 2.49 0 0 0 1.9-.7A3 3 0 0 0 97 44h-2.7v-1h3.8v4.7h-.8l-.3-1.1a7.3 7.3 0 0 1-1 .9 3.81 3.81 0 0 1-1.9.4 3.54 3.54 0 0 1-2.6-1 4.7 4.7 0 0 1-1.2-3.4 5 5 0 0 1 1.2-3.5 3.7 3.7 0 0 1 2.9-1.2 4 4 0 0 1 2 .4M101.4 39h4a3.51 3.51 0 0 1 1.6.3 2.1 2.1 0 0 1 1.2 2 2.5 2.5 0 0 1-.3 1.3 2.36 2.36 0 0 1-.9.8 2.18 2.18 0 0 1 .8.5 1.61 1.61 0 0 1 .3 1.1v1.2c0 .3 0 .6.1.7.1.3.2.5.4.5v.2h-1.4c0-.1-.1-.2-.1-.3a2.25 2.25 0 0 0-.1-.7l-.1-1.5a1.06 1.06 0 0 0-.6-1.1 2.51 2.51 0 0 0-1-.2h-2.7v3.7h-1.2V39m3.9 4a2.5 2.5 0 0 0 1.3-.3 1.62 1.62 0 0 0-.2-2.5 2 2 0 0 0-.9-.2h-2.9v3zM118.2 40.17a4.86 4.86 0 0 1 .9 3 5.18 5.18 0 0 1-1 3.3 4 4 0 0 1-3.3 1.5 4.08 4.08 0 0 1-3.2-1.3 5.54 5.54 0 0 1-.1-6.2 3.7 3.7 0 0 1 3.3-1.6 3.59 3.59 0 0 1 3.4 1.3m-1 5.6a4.62 4.62 0 0 0 .7-2.6 3.94 3.94 0 0 0-.8-2.5 2.79 2.79 0 0 0-2.2-.9 2.94 2.94 0 0 0-2.2.9 3.65 3.65 0 0 0-.8 2.7 3.61 3.61 0 0 0 .7 2.4 2.72 2.72 0 0 0 2.4 1 2.35 2.35 0 0 0 2.2-1zM122.5 39v5.4a2.73 2.73 0 0 0 .4 1.6 1.81 1.81 0 0 0 1.8.9 2.18 2.18 0 0 0 2.1-1 3.34 3.34 0 0 0 .3-1.5V39h1.2v4.9a5.67 5.67 0 0 1-.4 2.5 3.08 3.08 0 0 1-3 1.6 2.93 2.93 0 0 1-3-1.6 5.67 5.67 0 0 1-.4-2.5V39h1M131.3 39h3.9a2.88 2.88 0 0 1 1.9.6 2.27 2.27 0 0 1 .7 1.8 2.79 2.79 0 0 1-.6 1.8 2.41 2.41 0 0 1-1.9.8h-2.7v3.7h-1.2V39m4.5 1.2a3.09 3.09 0 0 0-1.1-.2h-2.3v3h2.3a2.5 2.5 0 0 0 1.3-.3 1.36 1.36 0 0 0 .5-1.2 1.33 1.33 0 0 0-.7-1.33z"></path></svg>