<svg fill="none" stroke-linecap="square" stroke-miterlimit="10" width="548" height="339" xmlns="http://www.w3.org/2000/svg">
  <path fill="#fff" d="M0 0h548v339H0V0z"/>
  <path stroke="#333" stroke-linecap="butt" d="M147.5 69.5v232"/>
  <path stroke="#ccc" stroke-linecap="butt" d="M223.5 69.5v232M300.5 69.5v232M377.5 69.5v232M454.5 69.5v232M531.5 69.5v232"/>
  <clipPath id="a">
    <path d="M147.231 69.784H531.05v231.648H147.23V69.784z"/>
  </clipPath>
  <path clip-path="url(#a)" d="M147 93V78h348a2 2 0 012 2v11a2 2 0 01-2 2z"/>
  <path fill="#e64a19" clip-path="url(#a)" d="M147 93V78h348a2 2 0 012 2v11a2 2 0 01-2 2z"/>
  <path clip-path="url(#a)" d="M147 115v-15h219a2 2 0 012 2v11a2 2 0 01-2 2z"/>
  <path fill="#e64a19" clip-path="url(#a)" d="M147 115v-15h219a2 2 0 012 2v11a2 2 0 01-2 2z"/>
  <path clip-path="url(#a)" d="M147 138v-15h182a2 2 0 012 2v11a2 2 0 01-2 2z"/>
  <path fill="#e64a19" clip-path="url(#a)" d="M147 138v-15h182a2 2 0 012 2v11a2 2 0 01-2 2z"/>
  <path clip-path="url(#a)" d="M147 160v-15h158a2 2 0 012 2v11a2 2 0 01-2 2z"/>
  <path fill="#e64a19" clip-path="url(#a)" d="M147 160v-15h158a2 2 0 012 2v11a2 2 0 01-2 2z"/>
  <path clip-path="url(#a)" d="M147 182v-15h143a2 2 0 012 2v11a2 2 0 01-2 2z"/>
  <path fill="#e64a19" clip-path="url(#a)" d="M147 182v-15h143a2 2 0 012 2v11a2 2 0 01-2 2z"/>
  <path clip-path="url(#a)" d="M147 205v-15h103a2 2 0 012 2v11a2 2 0 01-2 2z"/>
  <path fill="#e64a19" clip-path="url(#a)" d="M147 205v-15h103a2 2 0 012 2v11a2 2 0 01-2 2z"/>
  <path clip-path="url(#a)" d="M147 227v-15h84a2 2 0 012 2v11a2 2 0 01-2 2z"/>
  <path fill="#e64a19" clip-path="url(#a)" d="M147 227v-15h84a2 2 0 012 2v11a2 2 0 01-2 2z"/>
  <path clip-path="url(#a)" d="M147 250v-15h81a2 2 0 012 2v11a2 2 0 01-2 2z"/>
  <path fill="#e64a19" clip-path="url(#a)" d="M147 250v-15h81a2 2 0 012 2v11a2 2 0 01-2 2z"/>
  <path clip-path="url(#a)" d="M147 272v-15h41a2 2 0 012 2v11a2 2 0 01-2 2z"/>
  <path fill="#e64a19" clip-path="url(#a)" d="M147 272v-15h41a2 2 0 012 2v11a2 2 0 01-2 2z"/>
  <path clip-path="url(#a)" d="M147 294v-15h158a2 2 0 012 2v11a2 2 0 01-2 2z"/>
  <path fill="#e64a19" clip-path="url(#a)" d="M147 294v-15h158a2 2 0 012 2v11a2 2 0 01-2 2z"/>
  <path stroke="#fff" stroke-width="3" stroke-linejoin="round" stroke-linecap="round" d="M515.57 89.5h-5.594v-.781l2.953-3.281q.656-.75.906-1.204.25-.468.25-.968 0-.672-.406-1.094-.39-.438-1.078-.438-.797 0-1.25.47-.453.452-.453 1.28h-1.078q0-1.187.75-1.906.765-.734 2.03-.734 1.204 0 1.891.625.688.625.688 1.672 0 1.25-1.61 3l-2.28 2.468h4.28v.891zm2.984-4.797h.813q.78-.016 1.218-.406.438-.39.438-1.063 0-1.5-1.5-1.5-.703 0-1.125.407-.407.406-.407 1.062h-1.093q0-1.016.734-1.687.75-.672 1.89-.672 1.204 0 1.891.64.688.641.688 1.782 0 .562-.36 1.078-.359.515-.984.781.703.219 1.078.734.39.516.39 1.266 0 1.14-.75 1.828-.75.672-1.952.672-1.188 0-1.953-.656-.75-.656-.75-1.719h1.093q0 .672.438 1.078.437.406 1.187.406.782 0 1.188-.406.422-.422.422-1.187 0-.735-.453-1.125-.454-.407-1.329-.422h-.812v-.89zm5.328-2.094q0-.765.485-1.265.5-.5 1.265-.5.781 0 1.266.5.484.5.484 1.297v.421q0 .766-.5 1.266-.484.484-1.234.484-.766 0-1.266-.484-.5-.5-.5-1.312v-.407zm.813.454q0 .453.25.75.265.296.703.296.422 0 .672-.28.25-.298.25-.798v-.422q0-.453-.25-.75-.25-.312-.688-.312-.437 0-.687.312-.25.297-.25.766v.438zm3.343 4.343q0-.765.485-1.25.5-.5 1.265-.5.766 0 1.25.5.5.485.5 1.297v.406q0 .766-.484 1.266t-1.25.5q-.766 0-1.266-.484-.5-.5-.5-1.313v-.422zm.813.453q0 .47.25.766.265.297.703.297.422 0 .672-.281.25-.297.25-.797v-.438q0-.469-.266-.75-.25-.297-.672-.297-.422 0-.687.297-.25.281-.25.781v.422zm-2.953 1l-.625-.39 4.172-6.672.609.39-4.156 6.672z"/>
  <path fill="#e64a19" d="M515.57 89.5h-5.594v-.781l2.953-3.281q.656-.75.906-1.204.25-.468.25-.968 0-.672-.406-1.094-.39-.438-1.078-.438-.797 0-1.25.47-.453.452-.453 1.28h-1.078q0-1.187.75-1.906.765-.734 2.03-.734 1.204 0 1.891.625.688.625.688 1.672 0 1.25-1.61 3l-2.28 2.468h4.28v.891zm2.984-4.797h.813q.78-.016 1.218-.406.438-.39.438-1.063 0-1.5-1.5-1.5-.703 0-1.125.407-.407.406-.407 1.062h-1.093q0-1.016.734-1.687.75-.672 1.89-.672 1.204 0 1.891.64.688.641.688 1.782 0 .562-.36 1.078-.359.515-.984.781.703.219 1.078.734.39.516.39 1.266 0 1.14-.75 1.828-.75.672-1.952.672-1.188 0-1.953-.656-.75-.656-.75-1.719h1.093q0 .672.438 1.078.437.406 1.187.406.782 0 1.188-.406.422-.422.422-1.187 0-.735-.453-1.125-.454-.407-1.329-.422h-.812v-.89zm5.328-2.094q0-.765.485-1.265.5-.5 1.265-.5.781 0 1.266.5.484.5.484 1.297v.421q0 .766-.5 1.266-.484.484-1.234.484-.766 0-1.266-.484-.5-.5-.5-1.312v-.407zm.813.454q0 .453.25.75.265.296.703.296.422 0 .672-.28.25-.298.25-.798v-.422q0-.453-.25-.75-.25-.312-.688-.312-.437 0-.687.312-.25.297-.25.766v.438zm3.343 4.343q0-.765.485-1.25.5-.5 1.265-.5.766 0 1.25.5.5.485.5 1.297v.406q0 .766-.484 1.266t-1.25.5q-.766 0-1.266-.484-.5-.5-.5-1.313v-.422zm.813.453q0 .47.25.766.265.297.703.297.422 0 .672-.281.25-.297.25-.797v-.438q0-.469-.266-.75-.25-.297-.672-.297-.422 0-.687.297-.25.281-.25.781v.422zm-2.953 1l-.625-.39 4.172-6.672.609.39-4.156 6.672z"/>
  <path stroke="#fff" stroke-width="3" stroke-linejoin="round" stroke-linecap="round" d="M384.576 111.5h-1.078v-7.219l-2.188.797v-.984l3.11-1.172h.156v8.578zm8.015-2.86h1.188v.876h-1.188v1.984h-1.078v-1.984h-3.89v-.641l3.812-5.906h1.156v5.672zm-3.734 0h2.656v-4.187l-.14.234-2.516 3.954zm6.063-4.03q0-.766.484-1.266.5-.5 1.266-.5.78 0 1.265.5.485.5.485 1.297v.421q0 .766-.5 1.266-.485.484-1.235.484-.765 0-1.265-.484-.5-.5-.5-1.312v-.407zm.812.453q0 .453.25.75.266.296.703.296.422 0 .672-.28.25-.298.25-.798v-.422q0-.453-.25-.75-.25-.312-.688-.312-.437 0-.687.312-.25.297-.25.766v.438zm3.344 4.343q0-.765.484-1.25.5-.5 1.266-.5.765 0 1.25.5.5.485.5 1.297v.406q0 .766-.485 1.266-.484.5-1.25.5-.765 0-1.265-.484-.5-.5-.5-1.313v-.422zm.812.453q0 .47.25.766.266.297.703.297.422 0 .672-.281.25-.297.25-.797v-.438q0-.469-.265-.75-.25-.297-.672-.297-.422 0-.688.297-.25.281-.25.781v.422zm-2.953 1l-.625-.39 4.172-6.672.61.39-4.157 6.672z"/>
  <path fill="#e64a19" d="M384.576 111.5h-1.078v-7.219l-2.188.797v-.984l3.11-1.172h.156v8.578zm8.015-2.86h1.188v.876h-1.188v1.984h-1.078v-1.984h-3.89v-.641l3.812-5.906h1.156v5.672zm-3.734 0h2.656v-4.187l-.14.234-2.516 3.954zm6.063-4.03q0-.766.484-1.266.5-.5 1.266-.5.78 0 1.265.5.485.5.485 1.297v.421q0 .766-.5 1.266-.485.484-1.235.484-.765 0-1.265-.484-.5-.5-.5-1.312v-.407zm.812.453q0 .453.25.75.266.296.703.296.422 0 .672-.28.25-.298.25-.798v-.422q0-.453-.25-.75-.25-.312-.688-.312-.437 0-.687.312-.25.297-.25.766v.438zm3.344 4.343q0-.765.484-1.25.5-.5 1.266-.5.765 0 1.25.5.5.485.5 1.297v.406q0 .766-.485 1.266-.484.5-1.25.5-.765 0-1.265-.484-.5-.5-.5-1.313v-.422zm.812.453q0 .47.25.766.266.297.703.297.422 0 .672-.281.25-.297.25-.797v-.438q0-.469-.265-.75-.25-.297-.672-.297-.422 0-.688.297-.25.281-.25.781v.422zm-2.953 1l-.625-.39 4.172-6.672.61.39-4.157 6.672z"/>
  <path stroke="#fff" stroke-width="3" stroke-linejoin="round" stroke-linecap="round" d="M347.73 134.5h-1.079v-7.219l-2.187.797v-.984l3.109-1.172h.156v8.578zm9.03 0h-5.593v-.781l2.953-3.281q.656-.75.906-1.204.25-.468.25-.968 0-.672-.406-1.094-.39-.438-1.078-.438-.797 0-1.25.47-.453.452-.453 1.28h-1.078q0-1.187.75-1.906.765-.734 2.03-.734 1.204 0 1.891.625.688.625.688 1.672 0 1.25-1.61 3l-2.28 2.468h4.28v.891zm1.313-6.89q0-.766.484-1.266.5-.5 1.266-.5.781 0 1.266.5.484.5.484 1.297v.421q0 .766-.5 1.266-.484.484-1.234.484-.766 0-1.266-.484-.5-.5-.5-1.312v-.407zm.813.453q0 .453.25.75.265.296.703.296.422 0 .672-.28.25-.298.25-.798v-.422q0-.453-.25-.75-.25-.312-.688-.312-.437 0-.687.312-.25.297-.25.766v.438zm3.343 4.343q0-.765.485-1.25.5-.5 1.265-.5.766 0 1.25.5.5.485.5 1.297v.406q0 .766-.484 1.266t-1.25.5q-.766 0-1.266-.484-.5-.5-.5-1.313v-.422zm.813.453q0 .47.25.766.265.297.703.297.422 0 .672-.281.25-.297.25-.797v-.438q0-.469-.266-.75-.25-.297-.672-.297-.422 0-.687.297-.25.281-.25.781v.422zm-2.953 1l-.625-.39 4.172-6.672.609.39-4.156 6.672z"/>
  <path fill="#e64a19" d="M347.73 134.5h-1.079v-7.219l-2.187.797v-.984l3.109-1.172h.156v8.578zm9.03 0h-5.593v-.781l2.953-3.281q.656-.75.906-1.204.25-.468.25-.968 0-.672-.406-1.094-.39-.438-1.078-.438-.797 0-1.25.47-.453.452-.453 1.28h-1.078q0-1.187.75-1.906.765-.734 2.03-.734 1.204 0 1.891.625.688.625.688 1.672 0 1.25-1.61 3l-2.28 2.468h4.28v.891zm1.313-6.89q0-.766.484-1.266.5-.5 1.266-.5.781 0 1.266.5.484.5.484 1.297v.421q0 .766-.5 1.266-.484.484-1.234.484-.766 0-1.266-.484-.5-.5-.5-1.312v-.407zm.813.453q0 .453.25.75.265.296.703.296.422 0 .672-.28.25-.298.25-.798v-.422q0-.453-.25-.75-.25-.312-.688-.312-.437 0-.687.312-.25.297-.25.766v.438zm3.343 4.343q0-.765.485-1.25.5-.5 1.265-.5.766 0 1.25.5.5.485.5 1.297v.406q0 .766-.484 1.266t-1.25.5q-.766 0-1.266-.484-.5-.5-.5-1.313v-.422zm.813.453q0 .47.25.766.265.297.703.297.422 0 .672-.281.25-.297.25-.797v-.438q0-.469-.266-.75-.25-.297-.672-.297-.422 0-.687.297-.25.281-.25.781v.422zm-2.953 1l-.625-.39 4.172-6.672.609.39-4.156 6.672z"/>
  <path stroke="#fff" stroke-width="3" stroke-linejoin="round" stroke-linecap="round" d="M323.165 156.5h-1.078v-7.219l-2.188.797v-.984l3.11-1.172h.156v8.578zm8.797-3.64q0 1.906-.656 2.843-.641.922-2.032.922-1.359 0-2.015-.906-.657-.906-.688-2.719v-1.438q0-1.89.64-2.796.657-.922 2.048-.922 1.375 0 2.031.89.656.875.672 2.72v1.405zm-1.094-1.485q0-1.375-.39-2-.376-.64-1.22-.64-.827 0-1.218.64-.375.625-.375 1.922v1.734q0 1.375.39 2.047.407.656 1.22.656.796 0 1.187-.625.39-.625.406-1.953v-1.781zm2.64-1.766q0-.765.485-1.265.5-.5 1.266-.5.781 0 1.265.5.485.5.485 1.297v.422q0 .765-.5 1.265-.485.484-1.235.484-.765 0-1.265-.484-.5-.5-.5-1.312v-.407zm.813.453q0 .454.25.75.266.297.703.297.422 0 .672-.28.25-.298.25-.798v-.422q0-.453-.25-.75-.25-.312-.687-.312-.438 0-.688.312-.25.297-.25.766v.438zm3.344 4.344q0-.765.484-1.25.5-.5 1.266-.5t1.25.5q.5.485.5 1.297v.406q0 .766-.484 1.266-.485.5-1.25.5-.766 0-1.266-.484-.5-.5-.5-1.313v-.422zm.812.453q0 .47.25.766.266.297.704.297.421 0 .671-.281.25-.297.25-.797v-.438q0-.469-.265-.75-.25-.297-.672-.297-.422 0-.688.297-.25.281-.25.781v.422zm-2.953 1l-.625-.39 4.172-6.672.61.39-4.157 6.672z"/>
  <path fill="#e64a19" d="M323.165 156.5h-1.078v-7.219l-2.188.797v-.984l3.11-1.172h.156v8.578zm8.797-3.64q0 1.906-.656 2.843-.641.922-2.032.922-1.359 0-2.015-.906-.657-.906-.688-2.719v-1.438q0-1.89.64-2.796.657-.922 2.048-.922 1.375 0 2.031.89.656.875.672 2.72v1.405zm-1.094-1.485q0-1.375-.39-2-.376-.64-1.22-.64-.827 0-1.218.64-.375.625-.375 1.922v1.734q0 1.375.39 2.047.407.656 1.22.656.796 0 1.187-.625.39-.625.406-1.953v-1.781zm2.64-1.766q0-.765.485-1.265.5-.5 1.266-.5.781 0 1.265.5.485.5.485 1.297v.422q0 .765-.5 1.265-.485.484-1.235.484-.765 0-1.265-.484-.5-.5-.5-1.312v-.407zm.813.453q0 .454.25.75.266.297.703.297.422 0 .672-.28.25-.298.25-.798v-.422q0-.453-.25-.75-.25-.312-.687-.312-.438 0-.688.312-.25.297-.25.766v.438zm3.344 4.344q0-.765.484-1.25.5-.5 1.266-.5t1.25.5q.5.485.5 1.297v.406q0 .766-.484 1.266-.485.5-1.25.5-.766 0-1.266-.484-.5-.5-.5-1.313v-.422zm.812.453q0 .47.25.766.266.297.704.297.421 0 .671-.281.25-.297.25-.797v-.438q0-.469-.265-.75-.25-.297-.672-.297-.422 0-.688.297-.25.281-.25.781v.422zm-2.953 1l-.625-.39 4.172-6.672.61.39-4.157 6.672z"/>
  <path stroke="#fff" stroke-width="3" stroke-linejoin="round" stroke-linecap="round" d="M308.406 174.75q-.328.406-.812.656-.47.235-1.032.235-.734 0-1.281-.36-.547-.36-.844-1.015-.297-.672-.297-1.47 0-.843.313-1.53.328-.688.922-1.047.61-.375 1.406-.375 1.266 0 1.984.953.735.953.735 2.578v.313q0 2.5-.985 3.64-.984 1.14-2.968 1.172h-.22v-.906h.235q1.344-.031 2.063-.703.719-.672.781-2.141zm-1.672 0q.547 0 1-.328.469-.344.688-.828v-.438q0-1.062-.47-1.734-.468-.672-1.171-.672-.719 0-1.156.547-.422.547-.422 1.453 0 .875.406 1.438.422.562 1.125.562zm4.422-3.14q0-.766.484-1.266.5-.5 1.266-.5.781 0 1.266.5.484.5.484 1.297v.422q0 .765-.5 1.265-.484.484-1.234.484-.766 0-1.266-.484-.5-.5-.5-1.312v-.407zm.813.452q0 .454.25.75.265.297.703.297.422 0 .672-.28.25-.298.25-.798v-.422q0-.453-.25-.75-.25-.312-.688-.312-.437 0-.687.312-.25.297-.25.766v.438zm3.343 4.344q0-.765.485-1.25.5-.5 1.265-.5.766 0 1.25.5.5.485.5 1.297v.406q0 .766-.484 1.266t-1.25.5q-.766 0-1.266-.484-.5-.5-.5-1.313v-.422zm.813.453q0 .47.25.766.265.297.703.297.422 0 .672-.281.25-.297.25-.797v-.438q0-.469-.266-.75-.25-.297-.672-.297-.422 0-.687.297-.25.281-.25.781v.422zm-2.953 1l-.625-.39 4.172-6.672.609.39-4.156 6.672z"/>
  <path fill="#e64a19" d="M308.406 174.75q-.328.406-.812.656-.47.235-1.032.235-.734 0-1.281-.36-.547-.36-.844-1.015-.297-.672-.297-1.47 0-.843.313-1.53.328-.688.922-1.047.61-.375 1.406-.375 1.266 0 1.984.953.735.953.735 2.578v.313q0 2.5-.985 3.64-.984 1.14-2.968 1.172h-.22v-.906h.235q1.344-.031 2.063-.703.719-.672.781-2.141zm-1.672 0q.547 0 1-.328.469-.344.688-.828v-.438q0-1.062-.47-1.734-.468-.672-1.171-.672-.719 0-1.156.547-.422.547-.422 1.453 0 .875.406 1.438.422.562 1.125.562zm4.422-3.14q0-.766.484-1.266.5-.5 1.266-.5.781 0 1.266.5.484.5.484 1.297v.422q0 .765-.5 1.265-.484.484-1.234.484-.766 0-1.266-.484-.5-.5-.5-1.312v-.407zm.813.452q0 .454.25.75.265.297.703.297.422 0 .672-.28.25-.298.25-.798v-.422q0-.453-.25-.75-.25-.312-.688-.312-.437 0-.687.312-.25.297-.25.766v.438zm3.343 4.344q0-.765.485-1.25.5-.5 1.265-.5.766 0 1.25.5.5.485.5 1.297v.406q0 .766-.484 1.266t-1.25.5q-.766 0-1.266-.484-.5-.5-.5-1.313v-.422zm.813.453q0 .47.25.766.265.297.703.297.422 0 .672-.281.25-.297.25-.797v-.438q0-.469-.266-.75-.25-.297-.672-.297-.422 0-.687.297-.25.281-.25.781v.422zm-2.953 1l-.625-.39 4.172-6.672.609.39-4.156 6.672z"/>
  <path stroke="#fff" stroke-width="3" stroke-linejoin="round" stroke-linecap="round" d="M269.848 193.578l-3.53 7.922h-1.142l3.516-7.64h-4.61v-.891h5.766v.61zm1.391 1.031q0-.765.484-1.265.5-.5 1.266-.5.781 0 1.266.5.484.5.484 1.297v.422q0 .765-.5 1.265-.484.484-1.234.484-.766 0-1.266-.484-.5-.5-.5-1.312v-.407zm.813.453q0 .454.25.75.265.297.703.297.421 0 .671-.28.25-.298.25-.798v-.422q0-.453-.25-.75-.25-.312-.687-.312-.438 0-.688.312-.25.297-.25.766v.438zm3.343 4.344q0-.765.485-1.25.5-.5 1.265-.5.766 0 1.25.5.5.485.5 1.297v.406q0 .766-.484 1.266-.485.5-1.25.5-.766 0-1.266-.484-.5-.5-.5-1.313v-.422zm.813.453q0 .47.25.766.265.297.703.297.422 0 .672-.281.25-.297.25-.797v-.438q0-.469-.266-.75-.25-.297-.672-.297-.422 0-.687.297-.25.281-.25.781v.422zm-2.953 1l-.625-.39 4.171-6.672.61.39-4.156 6.672z"/>
  <path fill="#e64a19" d="M269.848 193.578l-3.53 7.922h-1.142l3.516-7.64h-4.61v-.891h5.766v.61zm1.391 1.031q0-.765.484-1.265.5-.5 1.266-.5.781 0 1.266.5.484.5.484 1.297v.422q0 .765-.5 1.265-.484.484-1.234.484-.766 0-1.266-.484-.5-.5-.5-1.312v-.407zm.813.453q0 .454.25.75.265.297.703.297.421 0 .671-.28.25-.298.25-.798v-.422q0-.453-.25-.75-.25-.312-.687-.312-.438 0-.688.312-.25.297-.25.766v.438zm3.343 4.344q0-.765.485-1.25.5-.5 1.265-.5.766 0 1.25.5.5.485.5 1.297v.406q0 .766-.484 1.266-.485.5-1.25.5-.766 0-1.266-.484-.5-.5-.5-1.313v-.422zm.813.453q0 .47.25.766.265.297.703.297.422 0 .672-.281.25-.297.25-.797v-.438q0-.469-.266-.75-.25-.297-.672-.297-.422 0-.687.297-.25.281-.25.781v.422zm-2.953 1l-.625-.39 4.171-6.672.61.39-4.156 6.672z"/>
  <path stroke="#fff" stroke-width="3" stroke-linejoin="round" stroke-linecap="round" d="M250.175 214.969v.906h-.203q-1.266.031-2.016.766-.75.718-.875 2.03.688-.765 1.844-.765 1.11 0 1.781.781.672.782.672 2.032 0 1.312-.718 2.11-.72.796-1.938.796-1.219 0-1.984-.938-.75-.953-.75-2.437v-.406q0-2.36 1-3.61t2.984-1.265h.203zm-1.422 3.844q-.562 0-1.03.328-.47.328-.657.843v.391q0 1.063.469 1.703.484.64 1.187.64.734 0 1.156-.53.422-.547.422-1.422 0-.875-.422-1.407-.422-.547-1.125-.547zm4.063-2.204q0-.765.484-1.265.5-.5 1.266-.5.781 0 1.265.5.485.5.485 1.297v.422q0 .765-.5 1.265-.485.484-1.235.484-.765 0-1.265-.484-.5-.5-.5-1.312v-.407zm.812.453q0 .454.25.75.266.297.703.297.422 0 .672-.28.25-.298.25-.798v-.422q0-.453-.25-.75-.25-.312-.687-.312-.438 0-.688.312-.25.297-.25.766v.438zm3.344 4.344q0-.765.484-1.25.5-.5 1.266-.5t1.25.5q.5.485.5 1.297v.406q0 .766-.484 1.266-.485.5-1.25.5-.766 0-1.266-.484-.5-.5-.5-1.313v-.422zm.813.453q0 .47.25.766.265.297.703.297.422 0 .672-.281.25-.297.25-.797v-.438q0-.469-.266-.75-.25-.297-.672-.297-.422 0-.687.297-.25.281-.25.781v.422zm-2.954 1l-.625-.39 4.172-6.672.61.39-4.157 6.672z"/>
  <path fill="#e64a19" d="M250.175 214.969v.906h-.203q-1.266.031-2.016.766-.75.718-.875 2.03.688-.765 1.844-.765 1.11 0 1.781.781.672.782.672 2.032 0 1.312-.718 2.11-.72.796-1.938.796-1.219 0-1.984-.938-.75-.953-.75-2.437v-.406q0-2.36 1-3.61t2.984-1.265h.203zm-1.422 3.844q-.562 0-1.03.328-.47.328-.657.843v.391q0 1.063.469 1.703.484.64 1.187.64.734 0 1.156-.53.422-.547.422-1.422 0-.875-.422-1.407-.422-.547-1.125-.547zm4.063-2.204q0-.765.484-1.265.5-.5 1.266-.5.781 0 1.265.5.485.5.485 1.297v.422q0 .765-.5 1.265-.485.484-1.235.484-.765 0-1.265-.484-.5-.5-.5-1.312v-.407zm.812.453q0 .454.25.75.266.297.703.297.422 0 .672-.28.25-.298.25-.798v-.422q0-.453-.25-.75-.25-.312-.687-.312-.438 0-.688.312-.25.297-.25.766v.438zm3.344 4.344q0-.765.484-1.25.5-.5 1.266-.5t1.25.5q.5.485.5 1.297v.406q0 .766-.484 1.266-.485.5-1.25.5-.766 0-1.266-.484-.5-.5-.5-1.313v-.422zm.813.453q0 .47.25.766.265.297.703.297.422 0 .672-.281.25-.297.25-.797v-.438q0-.469-.266-.75-.25-.297-.672-.297-.422 0-.687.297-.25.281-.25.781v.422zm-2.954 1l-.625-.39 4.172-6.672.61.39-4.157 6.672z"/>
  <path stroke="#fff" stroke-width="3" stroke-linejoin="round" stroke-linecap="round" d="M243.339 242.219l.438-4.25h4.375v1h-3.454l-.265 2.328q.64-.375 1.437-.375 1.156 0 1.844.781.688.766.688 2.078 0 1.313-.72 2.078-.702.766-1.984.766-1.125 0-1.843-.625-.72-.64-.813-1.75h1.016q.11.734.531 1.11.422.374 1.11.374.75 0 1.187-.515.437-.516.437-1.422 0-.86-.468-1.375-.47-.516-1.25-.516-.703 0-1.11.297l-.281.234-.875-.218zm6.406-2.61q0-.765.485-1.265.5-.5 1.265-.5.781 0 1.266.5.484.5.484 1.297v.422q0 .765-.5 1.265-.484.484-1.234.484-.766 0-1.266-.484-.5-.5-.5-1.312v-.407zm.813.453q0 .454.25.75.265.297.703.297.422 0 .672-.28.25-.298.25-.798v-.422q0-.453-.25-.75-.25-.312-.688-.312-.437 0-.687.312-.25.297-.25.766v.438zm3.344 4.344q0-.765.484-1.25.5-.5 1.266-.5.765 0 1.25.5.5.485.5 1.297v.406q0 .766-.485 1.266-.484.5-1.25.5t-1.266-.484q-.5-.5-.5-1.313v-.422zm.812.453q0 .47.25.766.266.297.703.297.422 0 .672-.281.25-.297.25-.797v-.438q0-.469-.266-.75-.25-.297-.671-.297-.422 0-.688.297-.25.281-.25.781v.422zm-2.953 1l-.625-.39 4.172-6.672.61.39-4.157 6.672z"/>
  <path fill="#e64a19" d="M243.339 242.219l.438-4.25h4.375v1h-3.454l-.265 2.328q.64-.375 1.437-.375 1.156 0 1.844.781.688.766.688 2.078 0 1.313-.72 2.078-.702.766-1.984.766-1.125 0-1.843-.625-.72-.64-.813-1.75h1.016q.11.734.531 1.11.422.374 1.11.374.75 0 1.187-.515.437-.516.437-1.422 0-.86-.468-1.375-.47-.516-1.25-.516-.703 0-1.11.297l-.281.234-.875-.218zm6.406-2.61q0-.765.485-1.265.5-.5 1.265-.5.781 0 1.266.5.484.5.484 1.297v.422q0 .765-.5 1.265-.484.484-1.234.484-.766 0-1.266-.484-.5-.5-.5-1.312v-.407zm.813.453q0 .454.25.75.265.297.703.297.422 0 .672-.28.25-.298.25-.798v-.422q0-.453-.25-.75-.25-.312-.688-.312-.437 0-.687.312-.25.297-.25.766v.438zm3.344 4.344q0-.765.484-1.25.5-.5 1.266-.5.765 0 1.25.5.5.485.5 1.297v.406q0 .766-.485 1.266-.484.5-1.25.5t-1.266-.484q-.5-.5-.5-1.313v-.422zm.812.453q0 .47.25.766.266.297.703.297.422 0 .672-.281.25-.297.25-.797v-.438q0-.469-.266-.75-.25-.297-.671-.297-.422 0-.688.297-.25.281-.25.781v.422zm-2.953 1l-.625-.39 4.172-6.672.61.39-4.157 6.672z"/>
  <path stroke="#fff" stroke-width="3" stroke-linejoin="round" stroke-linecap="round" d="M204.5 263.703h.813q.78-.015 1.218-.406.438-.39.438-1.063 0-1.5-1.5-1.5-.703 0-1.125.407-.406.406-.406 1.062h-1.094q0-1.015.734-1.687.75-.672 1.89-.672 1.204 0 1.892.64.687.641.687 1.782 0 .562-.36 1.078-.359.515-.984.781.703.219 1.078.734.391.516.391 1.266 0 1.14-.75 1.828-.75.672-1.953.672-1.188 0-1.953-.656-.75-.656-.75-1.719h1.094q0 .672.437 1.078.438.406 1.188.406.78 0 1.187-.406.422-.422.422-1.187 0-.735-.453-1.125-.453-.407-1.328-.422h-.813v-.89zm5.328-2.094q0-.765.485-1.265.5-.5 1.265-.5.781 0 1.266.5.484.5.484 1.297v.421q0 .766-.5 1.266-.484.485-1.234.485-.766 0-1.266-.485-.5-.5-.5-1.312v-.407zm.813.454q0 .453.25.75.265.296.703.296.422 0 .672-.28.25-.298.25-.798v-.422q0-.453-.25-.75-.25-.312-.688-.312-.437 0-.687.312-.25.297-.25.766v.438zm3.344 4.343q0-.765.484-1.25.5-.5 1.266-.5.765 0 1.25.5.5.485.5 1.297v.406q0 .766-.485 1.266-.484.5-1.25.5t-1.266-.484q-.5-.5-.5-1.313v-.422zm.812.453q0 .47.25.766.266.297.703.297.422 0 .672-.281.25-.297.25-.797v-.438q0-.469-.266-.75-.25-.297-.672-.297-.421 0-.687.297-.25.281-.25.781v.422zm-2.953 1l-.625-.39 4.172-6.672.61.39-4.157 6.672z"/>
  <path fill="#e64a19" d="M204.5 263.703h.813q.78-.015 1.218-.406.438-.39.438-1.063 0-1.5-1.5-1.5-.703 0-1.125.407-.406.406-.406 1.062h-1.094q0-1.015.734-1.687.75-.672 1.89-.672 1.204 0 1.892.64.687.641.687 1.782 0 .562-.36 1.078-.359.515-.984.781.703.219 1.078.734.391.516.391 1.266 0 1.14-.75 1.828-.75.672-1.953.672-1.188 0-1.953-.656-.75-.656-.75-1.719h1.094q0 .672.437 1.078.438.406 1.188.406.78 0 1.187-.406.422-.422.422-1.187 0-.735-.453-1.125-.453-.407-1.328-.422h-.813v-.89zm5.328-2.094q0-.765.485-1.265.5-.5 1.265-.5.781 0 1.266.5.484.5.484 1.297v.421q0 .766-.5 1.266-.484.485-1.234.485-.766 0-1.266-.485-.5-.5-.5-1.312v-.407zm.813.454q0 .453.25.75.265.296.703.296.422 0 .672-.28.25-.298.25-.798v-.422q0-.453-.25-.75-.25-.312-.688-.312-.437 0-.687.312-.25.297-.25.766v.438zm3.344 4.343q0-.765.484-1.25.5-.5 1.266-.5.765 0 1.25.5.5.485.5 1.297v.406q0 .766-.485 1.266-.484.5-1.25.5t-1.266-.484q-.5-.5-.5-1.313v-.422zm.812.453q0 .47.25.766.266.297.703.297.422 0 .672-.281.25-.297.25-.797v-.438q0-.469-.266-.75-.25-.297-.672-.297-.421 0-.687.297-.25.281-.25.781v.422zm-2.953 1l-.625-.39 4.172-6.672.61.39-4.157 6.672z"/>
  <path stroke="#fff" stroke-width="3" stroke-linejoin="round" stroke-linecap="round" d="M323.165 290.5h-1.078v-7.219l-2.188.797v-.984l3.11-1.172h.156v8.578zm8.797-3.64q0 1.906-.656 2.843-.641.922-2.032.922-1.359 0-2.015-.906-.657-.906-.688-2.719v-1.438q0-1.89.64-2.796.657-.922 2.048-.922 1.375 0 2.031.89.656.875.672 2.72v1.405zm-1.094-1.485q0-1.375-.39-2-.376-.64-1.22-.64-.827 0-1.218.64-.375.625-.375 1.922v1.734q0 1.375.39 2.047.407.656 1.22.656.796 0 1.187-.625.39-.625.406-1.953v-1.781zm2.64-1.766q0-.765.485-1.265.5-.5 1.266-.5.781 0 1.265.5.485.5.485 1.297v.421q0 .766-.5 1.266-.485.485-1.235.485-.765 0-1.265-.485-.5-.5-.5-1.312v-.407zm.813.454q0 .453.25.75.266.296.703.296.422 0 .672-.28.25-.298.25-.798v-.422q0-.453-.25-.75-.25-.312-.687-.312-.438 0-.688.312-.25.297-.25.766v.438zm3.344 4.343q0-.765.484-1.25.5-.5 1.266-.5t1.25.5q.5.485.5 1.297v.406q0 .766-.484 1.266-.485.5-1.25.5-.766 0-1.266-.484-.5-.5-.5-1.313v-.422zm.812.453q0 .47.25.766.266.297.704.297.421 0 .671-.281.25-.297.25-.797v-.438q0-.469-.265-.75-.25-.297-.672-.297-.422 0-.688.297-.25.281-.25.781v.422zm-2.953 1l-.625-.39 4.172-6.672.61.39-4.157 6.672z"/>
  <path fill="#e64a19" d="M323.165 290.5h-1.078v-7.219l-2.188.797v-.984l3.11-1.172h.156v8.578zm8.797-3.64q0 1.906-.656 2.843-.641.922-2.032.922-1.359 0-2.015-.906-.657-.906-.688-2.719v-1.438q0-1.89.64-2.796.657-.922 2.048-.922 1.375 0 2.031.89.656.875.672 2.72v1.405zm-1.094-1.485q0-1.375-.39-2-.376-.64-1.22-.64-.827 0-1.218.64-.375.625-.375 1.922v1.734q0 1.375.39 2.047.407.656 1.22.656.796 0 1.187-.625.39-.625.406-1.953v-1.781zm2.64-1.766q0-.765.485-1.265.5-.5 1.266-.5.781 0 1.265.5.485.5.485 1.297v.421q0 .766-.5 1.266-.485.485-1.235.485-.765 0-1.265-.485-.5-.5-.5-1.312v-.407zm.813.454q0 .453.25.75.266.296.703.296.422 0 .672-.28.25-.298.25-.798v-.422q0-.453-.25-.75-.25-.312-.687-.312-.438 0-.688.312-.25.297-.25.766v.438zm3.344 4.343q0-.765.484-1.25.5-.5 1.266-.5t1.25.5q.5.485.5 1.297v.406q0 .766-.484 1.266-.485.5-1.25.5-.766 0-1.266-.484-.5-.5-.5-1.313v-.422zm.812.453q0 .47.25.766.266.297.704.297.421 0 .671-.281.25-.297.25-.797v-.438q0-.469-.265-.75-.25-.297-.672-.297-.422 0-.688.297-.25.281-.25.781v.422zm-2.953 1l-.625-.39 4.172-6.672.61.39-4.157 6.672z"/>
  <path fill="#757575" d="M98.325 84.954q-1.687-.485-2.469-1.188-.765-.719-.765-1.75 0-1.172.937-1.937.938-.782 2.453-.782 1.016 0 1.813.407.812.39 1.25 1.093.453.688.453 1.516h-1.328q0-.906-.578-1.422-.563-.516-1.61-.516-.968 0-1.515.438-.547.422-.547 1.187 0 .61.515 1.032.516.406 1.75.765 1.25.344 1.954.766.703.422 1.03.984.345.563.345 1.313 0 1.219-.954 1.953-.937.719-2.515.719-1.031 0-1.922-.39-.875-.407-1.36-1.08-.484-.687-.484-1.562h1.313q0 .907.672 1.438.671.516 1.78.516 1.048 0 1.595-.422.546-.422.546-1.157 0-.734-.515-1.125-.5-.406-1.844-.796zm7.938 4.578q-1.516 0-2.454-.985-.937-1-.937-2.656v-.219q0-1.11.422-1.968.422-.875 1.172-1.36.75-.484 1.64-.484 1.438 0 2.235.953.797.937.797 2.719v.515h-5q.015 1.094.625 1.782.625.671 1.562.671.672 0 1.125-.265.469-.281.828-.735l.766.594q-.922 1.438-2.781 1.438zm-.157-6.64q-.765 0-1.297.562-.515.562-.64 1.562h3.703v-.094q-.047-.968-.516-1.5-.468-.53-1.25-.53zm7.047 5.608q.672 0 1.172-.406.516-.422.578-1.031h1.188q-.032.625-.438 1.203-.406.578-1.078.922-.672.344-1.422.344-1.515 0-2.406-1-.89-1.016-.89-2.766v-.219q0-1.078.39-1.922.406-.843 1.14-1.296.75-.47 1.766-.47 1.235 0 2.063.75.828.735.875 1.923h-1.188q-.062-.72-.547-1.172-.484-.469-1.203-.469-.969 0-1.5.703-.531.688-.531 2v.235q0 1.28.531 1.984.531.687 1.5.687zm5.75-8.296V82h1.375v.97h-1.375v4.593q0 .437.188.672.187.219.625.219.218 0 .61-.094v1.031q-.5.14-.97.14-.859 0-1.297-.515-.421-.516-.421-1.453v-4.594h-1.344V82h1.344v-1.796h1.265zm4.656 9.187h-1.265v-7.39h1.265v7.39zm-1.359-9.36q0-.312.188-.515.187-.219.546-.219.375 0 .563.22.203.202.203.515 0 .312-.203.515-.188.203-.563.203-.359 0-.546-.203-.188-.203-.188-.515zm2.688 5.594q0-1.718.796-2.734.797-1.031 2.125-1.031 1.344 0 2.11.953l.062-.813h1.157v7.22q0 1.437-.86 2.25-.844.827-2.281.827-.797 0-1.563-.343-.765-.329-1.171-.922l.656-.766q.812 1 1.984 1 .922 0 1.438-.516.53-.515.53-1.468v-.625q-.765.875-2.077.875-1.297 0-2.11-1.047-.796-1.047-.796-2.86zm1.265.157q0 1.25.516 1.968.515.704 1.437.704 1.203 0 1.766-1.094v-3.375q-.594-1.047-1.75-1.047-.922 0-1.453.719-.516.703-.516 2.125zm6.703-.157q0-1.093.422-1.953.438-.875 1.188-1.343.765-.47 1.75-.47 1.5 0 2.437 1.048.938 1.047.938 2.78v.095q0 1.078-.422 1.937-.406.844-1.188 1.328-.765.485-1.75.485-1.515 0-2.453-1.047-.922-1.047-.922-2.766v-.094zm1.266.157q0 1.218.562 1.968.579.75 1.547.75.953 0 1.516-.75.578-.765.578-2.125 0-1.218-.578-1.968-.578-.766-1.531-.766-.938 0-1.516.75-.578.75-.578 2.14zM88.716 108.616q-.188 1.578-1.172 2.438-.985.86-2.61.86-1.765 0-2.828-1.266-1.062-1.266-1.062-3.391v-.953q0-1.39.5-2.438.5-1.062 1.406-1.625.906-.562 2.094-.562 1.594 0 2.547.89.953.891 1.125 2.454h-1.328q-.172-1.188-.75-1.72-.563-.546-1.594-.546-1.25 0-1.969.937-.703.922-.703 2.641v.969q0 1.625.672 2.578.672.953 1.89.953 1.094 0 1.672-.484.594-.5.782-1.735h1.328zm9.328-1.5q0 1.47-.5 2.563-.485 1.078-1.39 1.656-.907.578-2.11.578-1.172 0-2.078-.578-.907-.578-1.407-1.64-.5-1.079-.515-2.485v-.719q0-1.437.5-2.53.5-1.11 1.406-1.688.906-.594 2.094-.594 1.187 0 2.094.578.921.578 1.406 1.687.5 1.094.5 2.547v.625zm-1.313-.64q0-1.766-.718-2.719-.704-.953-1.97-.953-1.25 0-1.968.953-.703.953-.734 2.625v.734q0 1.72.718 2.703.735.97 1.985.97 1.281 0 1.969-.923.703-.922.718-2.656v-.734zm5.344-4.657l3.266 8.125 3.25-8.125h1.703v9.954h-1.313v-3.875l.125-4.188-3.265 8.063h-1.016l-3.25-8.047.125 4.172v3.875h-1.312v-9.954h1.687zm17.969 5.297q0 1.47-.5 2.563-.485 1.078-1.39 1.656-.907.578-2.11.578-1.172 0-2.078-.578-.907-.578-1.407-1.64-.5-1.079-.515-2.485v-.719q0-1.437.5-2.53.5-1.11 1.406-1.688.906-.594 2.094-.594 1.187 0 2.094.578.921.578 1.406 1.687.5 1.094.5 2.547v.625zm-1.313-.64q0-1.766-.718-2.719-.704-.953-1.97-.953-1.25 0-1.968.953-.703.953-.734 2.625v.734q0 1.72.718 2.703.735.97 1.985.97 1.281 0 1.969-.923.703-.922.718-2.656v-.734zm3.657 5.297v-9.954h2.812q1.297 0 2.297.579 1 .562 1.531 1.625.547 1.062.563 2.437v.64q0 1.407-.547 2.47-.547 1.046-1.563 1.624-1 .563-2.343.579h-2.75zm1.312-8.875v7.796h1.375q1.516 0 2.36-.937.859-.938.859-2.688v-.578q0-1.703-.797-2.64-.797-.938-2.266-.953h-1.53zm15.344 4.218q0 1.47-.5 2.563-.485 1.078-1.39 1.656-.907.578-2.11.578-1.172 0-2.078-.578-.907-.578-1.407-1.64-.5-1.079-.515-2.485v-.719q0-1.437.5-2.53.5-1.11 1.406-1.688.906-.594 2.094-.594 1.187 0 2.094.578.921.578 1.406 1.687.5 1.094.5 2.547v.625zm-1.313-.64q0-1.766-.718-2.719-.704-.953-1.97-.953-1.25 0-1.968.953-.703.953-.734 2.625v.734q0 1.72.718 2.703.735.97 1.985.97 1.281 0 1.969-.923.703-.922.718-2.656v-.734zM92.388 134.154v-9.953H95.2q1.297 0 2.297.578 1 .563 1.531 1.625.547 1.063.563 2.438v.64q0 1.406-.547 2.469-.547 1.047-1.563 1.625-1 .562-2.343.578h-2.75zm1.312-8.875v7.797h1.375q1.516 0 2.36-.938.859-.937.859-2.687v-.578q0-1.703-.797-2.64-.797-.938-2.266-.954h-1.53zm8.86 8.875h-1.266v-7.39h1.265v7.39zm-1.36-9.36q0-.312.188-.515.187-.219.546-.219.375 0 .563.22.203.202.203.515 0 .312-.203.515-.188.203-.563.203-.359 0-.546-.203-.188-.203-.188-.515zm2.688 5.594q0-1.718.796-2.734.797-1.031 2.125-1.031 1.344 0 2.11.953l.062-.813h1.157v7.22q0 1.437-.86 2.25-.844.827-2.281.827-.797 0-1.563-.343-.765-.329-1.171-.922l.656-.766q.812 1 1.984 1 .922 0 1.438-.516.531-.515.531-1.468v-.625q-.766.875-2.078.875-1.297 0-2.11-1.047-.796-1.047-.796-2.86zm1.265.157q0 1.25.516 1.968.515.704 1.437.704 1.203 0 1.766-1.094v-3.375q-.594-1.047-1.75-1.047-.922 0-1.453.719-.516.703-.516 2.125zm8.406 3.61h-1.265v-7.392h1.265v7.391zm-1.359-9.36q0-.313.188-.516.187-.219.546-.219.375 0 .563.22.203.202.203.515 0 .312-.203.515-.188.203-.563.203-.359 0-.546-.203-.188-.203-.188-.515zm10.516 6.203q-.188 1.578-1.172 2.437-.985.86-2.61.86-1.765 0-2.828-1.266-1.062-1.266-1.062-3.39v-.954q0-1.39.5-2.437.5-1.063 1.406-1.625.906-.563 2.094-.563 1.594 0 2.547.891.953.89 1.125 2.453h-1.328q-.172-1.187-.75-1.719-.563-.547-1.594-.547-1.25 0-1.969.938-.703.922-.703 2.64v.97q0 1.624.672 2.577.672.954 1.89.954 1.094 0 1.672-.485.594-.5.782-1.734h1.328zm4.547 3.297q-1.516 0-2.454-.985-.937-1-.937-2.656v-.219q0-1.109.422-1.968.422-.875 1.172-1.36.75-.484 1.64-.484 1.438 0 2.235.953.797.937.797 2.719v.515h-5q.015 1.094.625 1.782.625.671 1.562.671.672 0 1.125-.265.469-.281.828-.735l.766.594q-.922 1.438-2.781 1.438zm-.157-6.64q-.765 0-1.297.562-.515.562-.64 1.562h3.703v-.094q-.047-.968-.516-1.5-.468-.53-1.25-.53zm7.657.233q-.282-.046-.625-.046-1.235 0-1.688 1.062v5.25h-1.266v-7.39h1.235l.015.843q.625-.984 1.766-.984.375 0 .563.094v1.171zm3.14-2.921v1.796h1.375v.97h-1.375v4.593q0 .437.188.672.187.219.625.219.218 0 .61-.094v1.031q-.5.14-.97.14-.859 0-1.297-.515-.421-.516-.421-1.453v-4.594h-1.344v-.969h1.344v-1.796h1.265zM62.7 155.457h4.719v1.079h-6.031v-9.954H62.7v8.875zm9.563 1.22q-1.516 0-2.454-.985-.937-1-.937-2.656v-.22q0-1.109.422-1.968.422-.875 1.172-1.36.75-.484 1.64-.484 1.438 0 2.235.953.797.938.797 2.72v.515h-5q.015 1.094.625 1.781.625.672 1.562.672.672 0 1.125-.266.469-.28.828-.734l.766.594q-.922 1.437-2.781 1.437zm-.157-6.641q-.765 0-1.297.562-.515.563-.64 1.563h3.703v-.094q-.047-.969-.516-1.5-.468-.531-1.25-.531zm5.797-2.688v1.797h1.375v.969h-1.375v4.593q0 .438.188.672.187.22.625.22.218 0 .61-.095v1.032q-.5.14-.97.14-.859 0-1.297-.515-.421-.516-.421-1.454v-4.593h-1.344v-.969h1.344v-1.797h1.265zm4.063-.547l-.14 2.516h-.892l.016-3.281h1.016v.765zm5.531 7.766q0-.5-.39-.781-.391-.297-1.344-.5-.954-.204-1.532-.485-.562-.297-.828-.687-.265-.39-.265-.938 0-.922.765-1.547.766-.625 1.969-.625 1.25 0 2.031.657.781.64.781 1.656H87.42q0-.531-.438-.906-.437-.375-1.109-.375-.688 0-1.078.312-.39.297-.39.781 0 .453.359.688.359.234 1.296.453.954.203 1.547.5.594.297.875.719.282.406.282 1 0 .984-.797 1.593-.797.594-2.063.594-.875 0-1.562-.312-.688-.328-1.078-.89-.375-.563-.375-1.22h1.265q.031.641.5 1.016.485.375 1.25.375.719 0 1.156-.297.438-.297.438-.781zm11.516-2.625H94.7v3.515h5.016v1.079h-6.328v-9.954h6.25v1.079H94.7v3.203h4.313v1.078zm3.375-2.797l.03.922q.86-1.063 2.22-1.063 2.343 0 2.375 2.641v4.89h-1.266v-4.89q-.016-.797-.375-1.172-.36-.39-1.11-.39-.624 0-1.093.328-.453.328-.719.859v5.266h-1.266v-7.391h1.204zm9.765 6.5q.672 0 1.172-.406.516-.422.578-1.032h1.188q-.032.625-.438 1.204-.406.578-1.078.921-.672.344-1.422.344-1.515 0-2.406-1-.89-1.015-.89-2.765v-.22q0-1.077.39-1.921.406-.844 1.14-1.297.75-.469 1.766-.469 1.235 0 2.063.75.828.735.875 1.922h-1.188q-.062-.719-.547-1.172-.484-.468-1.203-.468-.969 0-1.5.703-.531.687-.531 2v.234q0 1.281.531 1.984.531.688 1.5.688zm7.61-5.375q-.282-.047-.625-.047-1.235 0-1.688 1.063v5.25h-1.266v-7.391h1.235l.015.844q.625-.985 1.766-.985.375 0 .563.094v1.172zm3.843 4.406l1.72-5.531h1.358l-2.968 8.531q-.688 1.844-2.203 1.844l-.235-.016-.469-.093v-1.016l.344.016q.64 0 1-.266.36-.25.594-.938l.281-.75-2.64-7.312h1.375l1.843 5.531zm10.828-1.75q0 1.688-.78 2.719-.766 1.031-2.079 1.031-1.344 0-2.125-.86v3.563h-1.266v-10.234h1.157l.062.812q.781-.953 2.156-.953 1.329 0 2.094 1 .781 1 .781 2.797v.125zm-1.265-.156q0-1.25-.531-1.969-.532-.719-1.47-.719-1.14 0-1.718 1.016v3.531q.578 1.016 1.734 1.016.922 0 1.454-.719.53-.734.53-2.156zm4.734-5.422v1.797h1.375v.969h-1.375v4.593q0 .438.188.672.187.22.625.22.218 0 .61-.095v1.032q-.5.14-.97.14-.859 0-1.297-.515-.421-.516-.421-1.454v-4.593h-1.344v-.969h1.344v-1.797h1.265zM94.888 176.323h-4.172l-.938 2.594h-1.36l3.813-9.953h1.141l3.812 9.953h-1.343l-.953-2.594zm-3.782-1.078h3.391l-1.703-4.656-1.688 4.656zm8.266-3.719l.047.813q.812-.953 2.187-.953 1.547 0 2.11 1.187.375-.53.968-.859.594-.328 1.391-.328 2.438 0 2.484 2.578v4.953h-1.265v-4.875q0-.797-.375-1.187-.36-.391-1.203-.391-.719 0-1.188.422-.453.406-.531 1.125v4.906h-1.266v-4.844q0-1.609-1.578-1.609-1.25 0-1.703 1.047v5.406h-1.266v-7.39h1.188zm15.39 7.391q-.109-.219-.187-.781-.875.922-2.11.922-1.093 0-1.796-.61-.688-.625-.688-1.578 0-1.156.875-1.797.875-.64 2.47-.64h1.233v-.578q0-.672-.406-1.063-.39-.39-1.156-.39-.688 0-1.14.343-.454.344-.454.828h-1.281q0-.562.39-1.078.407-.515 1.079-.812.672-.297 1.468-.297 1.282 0 2 .64.735.641.766 1.75v3.407q0 1.015.25 1.625v.11h-1.312zm-2.109-.969q.594 0 1.125-.297.547-.312.781-.812v-1.516h-1q-2.312 0-2.312 1.36 0 .594.39.937.391.328 1.016.328zm6.719-.062h4.328v1.031h-5.86v-.937l4.079-5.407h-4.031v-1.047h5.609v.891l-4.125 5.469zm5.484-2.734q0-1.094.422-1.954.438-.875 1.188-1.343.765-.47 1.75-.47 1.5 0 2.437 1.048.938 1.047.938 2.781v.094q0 1.078-.422 1.937-.406.844-1.188 1.328-.765.485-1.75.485-1.515 0-2.453-1.047-.922-1.047-.922-2.766v-.094zm1.266.156q0 1.219.562 1.969.579.75 1.547.75.953 0 1.516-.75.578-.766.578-2.125 0-1.22-.578-1.97-.578-.765-1.531-.765-.938 0-1.516.75-.578.75-.578 2.14zm8.266-3.781l.03.921q.86-1.062 2.22-1.062 2.343 0 2.375 2.64v4.891h-1.266v-4.89q-.016-.797-.375-1.172-.36-.391-1.11-.391-.624 0-1.093.328-.453.328-.719.86v5.265h-1.266v-7.39h1.204zM90.731 199.986q-.5.735-1.406 1.094-.906.36-2.11.36-1.218 0-2.171-.563-.938-.578-1.453-1.625-.516-1.063-.532-2.453v-.86q0-2.25 1.047-3.484 1.063-1.25 2.953-1.25 1.563 0 2.516.797.953.797 1.156 2.265H89.42q-.36-1.984-2.344-1.984-1.328 0-2.016.938-.671.921-.671 2.671v.813q0 1.687.765 2.672.766.984 2.063.984.75 0 1.297-.156.562-.172.921-.563v-2.234h-2.312v-1.062h3.61v3.64zm5.532 1.453q-1.516 0-2.454-.984-.937-1-.937-2.656v-.22q0-1.108.422-1.968.422-.875 1.172-1.36.75-.484 1.64-.484 1.438 0 2.235.954.797.937.797 2.718v.516h-5q.015 1.094.625 1.781.625.672 1.562.672.672 0 1.125-.266.469-.28.828-.734l.766.594q-.922 1.437-2.781 1.437zm-.157-6.64q-.765 0-1.297.562-.515.563-.64 1.563h3.703v-.094q-.047-.969-.516-1.5-.468-.531-1.25-.531zm3.75 2.734q0-1.094.422-1.953.438-.875 1.188-1.344.765-.469 1.75-.469 1.5 0 2.437 1.047.938 1.047.938 2.782v.093q0 1.078-.422 1.938-.406.844-1.188 1.328-.765.484-1.75.484-1.515 0-2.453-1.047-.922-1.046-.922-2.765v-.094zm1.266.156q0 1.219.562 1.969.579.75 1.547.75.953 0 1.516-.75.578-.766.578-2.125 0-1.219-.578-1.969-.578-.765-1.531-.765-.938 0-1.516.75-.578.75-.578 2.14zm14.14-5.265h-3.203v8.875h-1.296v-8.875h-3.204v-1.078h7.704v1.078zm4.5 2.609q-.28-.047-.624-.047-1.235 0-1.688 1.063v5.25h-1.266v-7.391h1.235l.015.844q.625-.985 1.766-.985.375 0 .563.094v1.172zm6 5.531q-.75.875-2.171.875-1.188 0-1.813-.687-.61-.688-.61-2.031v-4.813h1.25v4.766q0 1.687 1.376 1.687 1.453 0 1.922-1.078v-5.375h1.265v7.39h-1.203l-.015-.734zm7.735-1.234q0-.5-.39-.781-.391-.297-1.344-.5-.954-.203-1.532-.485-.562-.297-.828-.687-.265-.39-.265-.938 0-.922.765-1.547.766-.625 1.969-.625 1.25 0 2.031.657.781.64.781 1.656h-1.265q0-.531-.438-.906-.437-.375-1.109-.375-.688 0-1.078.312-.39.297-.39.781 0 .454.359.688.359.234 1.296.453.954.203 1.547.5.594.297.875.719.282.406.282 1 0 .984-.797 1.594-.797.593-2.063.593-.875 0-1.562-.312-.688-.328-1.078-.89-.375-.563-.375-1.22h1.265q.031.641.5 1.016.485.375 1.25.375.719 0 1.156-.297.438-.297.438-.781zm4.406-7.219v1.797h1.375v.969h-1.375v4.594q0 .437.188.671.187.22.625.22.218 0 .61-.095v1.032q-.5.14-.97.14-.859 0-1.297-.515-.421-.516-.421-1.453v-4.594h-1.344v-.969h1.344v-1.797h1.265zM84.716 220.524q-.188 1.578-1.172 2.437-.985.86-2.61.86-1.765 0-2.828-1.266-1.062-1.265-1.062-3.39v-.954q0-1.39.5-2.437.5-1.063 1.406-1.625.906-.563 2.094-.563 1.594 0 2.547.891.953.89 1.125 2.453h-1.328q-.172-1.187-.75-1.719-.563-.546-1.594-.546-1.25 0-1.969.937-.703.922-.703 2.64v.97q0 1.624.672 2.578.672.953 1.89.953 1.094 0 1.672-.485.594-.5.782-1.734h1.328zm2.843 3.156h-1.265v-10.5h1.265v10.5zm1.297-3.765q0-1.094.422-1.954.438-.875 1.188-1.343.765-.47 1.75-.47 1.5 0 2.437 1.048.938 1.047.938 2.781v.094q0 1.078-.422 1.937-.406.844-1.188 1.328-.765.485-1.75.485-1.515 0-2.453-1.047-.922-1.047-.922-2.766v-.093zm1.266.156q0 1.219.562 1.969.579.75 1.547.75.953 0 1.516-.75.578-.766.578-2.125 0-1.22-.578-1.97-.578-.765-1.531-.765-.938 0-1.516.75-.578.75-.578 2.14zm11.64 2.875q-.75.875-2.171.875-1.188 0-1.813-.688-.61-.687-.61-2.031v-4.812h1.25v4.765q0 1.688 1.376 1.688 1.453 0 1.922-1.078v-5.375h1.265v7.39h-1.203l-.015-.734zm3.126-3.031q0-1.704.796-2.735.813-1.031 2.11-1.031 1.312 0 2.062.89v-3.859h1.266v10.5h-1.156l-.063-.797q-.765.938-2.11.938-1.296 0-2.109-1.047-.796-1.063-.796-2.766v-.093zm1.265.156q0 1.25.516 1.969.515.703 1.437.703 1.203 0 1.75-1.078v-3.407q-.562-1.031-1.734-1.031-.938 0-1.453.719-.516.703-.516 2.125zm7.656 3.61v-6.423h-1.171v-.968h1.171v-.766q0-1.188.625-1.828.641-.656 1.813-.656.437 0 .86.109l-.063 1.031q-.328-.062-.688-.062-.609 0-.953.359-.328.36-.328 1.031v.782h1.578v.968h-1.578v6.422h-1.266zm5.75 0h-1.265v-10.5h1.265v10.5zm6.204 0q-.11-.22-.188-.782-.875.922-2.11.922-1.093 0-1.796-.61-.688-.625-.688-1.578 0-1.156.875-1.797.875-.64 2.47-.64h1.233v-.578q0-.672-.406-1.063-.39-.39-1.156-.39-.688 0-1.14.343-.454.344-.454.828h-1.281q0-.562.39-1.078.407-.515 1.079-.812.672-.297 1.468-.297 1.282 0 2 .64.735.641.766 1.75v3.407q0 1.015.25 1.625v.11h-1.312zm-2.11-.97q.594 0 1.125-.296.547-.313.781-.813v-1.516h-1q-2.312 0-2.312 1.36 0 .594.39.937.391.328 1.016.328zm9.11-5.296q-.282-.047-.625-.047-1.235 0-1.688 1.062v5.25h-1.266v-7.39h1.235l.015.843q.625-.984 1.766-.984.375 0 .563.094v1.172zm4.5 6.406q-1.516 0-2.454-.985-.937-1-.937-2.656v-.219q0-1.109.422-1.968.422-.875 1.172-1.36.75-.484 1.64-.484 1.438 0 2.235.953.797.938.797 2.719v.515h-5q.015 1.094.625 1.782.625.672 1.562.672.672 0 1.125-.266.469-.281.828-.734l.766.593q-.922 1.438-2.781 1.438zm-.157-6.64q-.765 0-1.297.562-.515.562-.64 1.562h3.703v-.094q-.047-.968-.516-1.5-.468-.53-1.25-.53zM81.731 244.75q-.5.734-1.406 1.093-.906.36-2.11.36-1.218 0-2.171-.563-.938-.578-1.453-1.625-.516-1.063-.532-2.453v-.86q0-2.25 1.047-3.484 1.063-1.25 2.953-1.25 1.563 0 2.516.797.953.797 1.156 2.265H80.42q-.36-1.984-2.344-1.984-1.328 0-2.016.938-.671.921-.671 2.671v.813q0 1.687.765 2.672.766.984 2.063.984.75 0 1.297-.156.562-.172.921-.563v-2.234h-2.312v-1.062h3.61v3.64zm3.828 1.312h-1.265v-10.5h1.265v10.5zm1.297-3.766q0-1.094.422-1.953.438-.875 1.188-1.344.765-.469 1.75-.469 1.5 0 2.437 1.047.938 1.047.938 2.782v.093q0 1.078-.422 1.938-.406.844-1.188 1.328-.765.484-1.75.484-1.515 0-2.453-1.047-.922-1.046-.922-2.765v-.094zm1.266.156q0 1.22.562 1.97.579.75 1.547.75.953 0 1.516-.75.578-.767.578-2.126 0-1.219-.578-1.969-.578-.765-1.531-.765-.938 0-1.516.75-.578.75-.578 2.14zm13.328 0q0 1.688-.781 2.72-.781 1.03-2.094 1.03-1.39 0-2.156-1l-.063.86h-1.172v-10.5h1.266v3.922q.766-.954 2.11-.954 1.359 0 2.124 1.016.766 1.016.766 2.797v.11zm-1.266-.156q0-1.281-.5-1.984-.5-.703-1.437-.703-1.25 0-1.797 1.156v3.203q.578 1.156 1.813 1.156.906 0 1.406-.703.515-.703.515-2.125zm7.579 3.766q-.11-.22-.188-.782-.875.922-2.11.922-1.093 0-1.796-.61-.688-.624-.688-1.577 0-1.156.875-1.797.875-.64 2.47-.64h1.233v-.579q0-.672-.406-1.062-.39-.39-1.156-.39-.688 0-1.14.343-.454.344-.454.828h-1.281q0-.563.39-1.078.407-.516 1.079-.813.672-.297 1.468-.297 1.282 0 2 .641.735.64.766 1.75v3.406q0 1.016.25 1.625v.11h-1.312zm-2.11-.97q.594 0 1.125-.296.547-.312.781-.812v-1.516h-1q-2.312 0-2.312 1.36 0 .593.39.937.391.328 1.016.328zm6.906.97h-1.265v-10.5h1.265v10.5zm4.766-4.438q-1.687-.484-2.469-1.187-.765-.72-.765-1.75 0-1.172.937-1.938.938-.781 2.453-.781 1.016 0 1.813.406.812.39 1.25 1.094.453.687.453 1.516h-1.328q0-.907-.578-1.422-.563-.516-1.61-.516-.968 0-1.515.438-.547.421-.547 1.187 0 .61.515 1.031.516.407 1.75.766 1.25.344 1.954.766.703.421 1.03.984.345.562.345 1.312 0 1.22-.954 1.954-.937.718-2.515.718-1.031 0-1.922-.39-.875-.407-1.36-1.078-.484-.688-.484-1.563h1.313q0 .906.672 1.438.671.515 1.78.515 1.048 0 1.595-.422.546-.422.546-1.156t-.515-1.125q-.5-.406-1.844-.797zm6.234 4.438h-1.265v-7.39h1.265v7.39zm-1.359-9.36q0-.312.188-.515.187-.22.546-.22.375 0 .563.22.203.203.203.515 0 .313-.203.516-.188.203-.563.203-.359 0-.546-.203-.188-.203-.188-.516zm2.688 5.594q0-1.719.796-2.734.797-1.032 2.125-1.032 1.344 0 2.11.954l.062-.813h1.157v7.219q0 1.437-.86 2.25-.844.828-2.281.828-.797 0-1.563-.344-.765-.328-1.171-.922l.656-.765q.812 1 1.984 1 .922 0 1.438-.516.53-.516.53-1.469v-.625q-.765.875-2.077.875-1.297 0-2.11-1.047-.796-1.046-.796-2.859zm1.265.156q0 1.25.516 1.97.515.702 1.437.702 1.203 0 1.766-1.094v-3.375q-.594-1.046-1.75-1.046-.922 0-1.453.718-.516.703-.516 2.125zm8.235-3.78l.03.92q.86-1.062 2.22-1.062 2.343 0 2.375 2.641v4.89h-1.266v-4.89q-.016-.797-.375-1.172-.36-.39-1.11-.39-.624 0-1.093.328-.453.328-.719.86v5.265h-1.266v-7.39h1.204zM87.981 263.787q0 1.437-.453 2.484t-1.281 1.625l1.781 1.407-.906.828-2.094-1.672q-.484.125-1.031.125-1.188 0-2.094-.578-.906-.578-1.406-1.64-.5-1.079-.516-2.485v-.719q0-1.438.5-2.531.5-1.11 1.407-1.688.906-.594 2.093-.594 1.203 0 2.11.594.906.578 1.39 1.672.5 1.078.5 2.531v.641zm-1.312-.64q0-1.766-.703-2.72-.688-.953-1.985-.953-1.25 0-1.968.954-.704.953-.72 2.625v.734q0 1.703.704 2.687.719.985 1.984.985 1.282 0 1.97-.922.702-.922.718-2.656v-.735zm8.094 4.562q-.75.875-2.172.875-1.188 0-1.813-.688-.61-.687-.61-2.03v-4.813h1.25v4.765q0 1.688 1.376 1.688 1.453 0 1.922-1.078v-5.375h1.265v7.39h-1.203l-.015-.734zm3.093-3.031q0-1.094.422-1.954.438-.875 1.188-1.343.765-.469 1.75-.469 1.5 0 2.437 1.047.938 1.047.938 2.781v.094q0 1.078-.422 1.937-.406.844-1.188 1.328-.765.485-1.75.485-1.515 0-2.453-1.047-.922-1.047-.922-2.766v-.093zm1.266.156q0 1.219.562 1.969.579.75 1.547.75.953 0 1.516-.75.578-.766.578-2.125 0-1.22-.578-1.97-.578-.765-1.531-.765-.938 0-1.516.75-.578.75-.578 2.14zm10.562 1.86l2.844-8.204h1.438l-3.703 9.953h-1.157l-3.687-9.953h1.437l2.828 8.203zm10.079 1.75q-.11-.22-.188-.782-.875.922-2.11.922-1.093 0-1.796-.61-.688-.625-.688-1.578 0-1.156.875-1.797.875-.64 2.47-.64h1.233v-.578q0-.672-.406-1.063-.39-.39-1.156-.39-.688 0-1.14.343-.454.344-.454.828h-1.281q0-.562.39-1.078.407-.515 1.079-.812.672-.297 1.468-.297 1.282 0 2 .64.735.641.766 1.75v3.407q0 1.015.25 1.625v.11h-1.312zm-2.11-.97q.594 0 1.125-.296.547-.313.781-.813v-1.516h-1q-2.312 0-2.312 1.36 0 .594.39.937.391.328 1.016.328zm5.235-2.796q0-1.704.796-2.735.813-1.031 2.11-1.031 1.312 0 2.062.89v-3.859h1.266v10.5h-1.156l-.063-.797q-.765.938-2.11.938-1.296 0-2.109-1.047-.796-1.063-.796-2.766v-.093zm1.265.156q0 1.25.516 1.969.515.703 1.437.703 1.203 0 1.75-1.078v-3.407q-.562-1.03-1.734-1.03-.938 0-1.453.718-.516.703-.516 2.125zm8.406 3.61h-1.265v-7.391h1.265v7.39zm-1.359-9.36q0-.313.188-.516.187-.219.546-.219.375 0 .563.22.203.202.203.515 0 .312-.203.515-.188.204-.563.204-.359 0-.546-.204-.188-.203-.188-.515zm7.297 7.39q0-.5-.39-.78-.391-.298-1.344-.5-.954-.204-1.532-.485-.562-.297-.828-.688-.265-.39-.265-.937 0-.922.765-1.547.766-.625 1.969-.625 1.25 0 2.031.656.781.64.781 1.656h-1.265q0-.53-.438-.906-.437-.375-1.109-.375-.688 0-1.078.313-.39.297-.39.781 0 .453.359.687.359.235 1.296.454.954.203 1.547.5.594.296.875.718.282.407.282 1 0 .985-.797 1.594-.797.594-2.063.594-.875 0-1.562-.313-.688-.328-1.078-.89-.375-.563-.375-1.219h1.265q.031.64.5 1.016.485.375 1.25.375.719 0 1.156-.297.438-.297.438-.782zM114.044 286.168q0 1.47-.5 2.563-.485 1.078-1.39 1.656-.907.578-2.11.578-1.172 0-2.078-.578-.907-.578-1.407-1.64-.5-1.079-.515-2.485v-.719q0-1.437.5-2.53.5-1.11 1.406-1.688.906-.594 2.094-.594 1.187 0 2.094.578.921.578 1.406 1.688.5 1.093.5 2.546v.625zm-1.313-.64q0-1.766-.718-2.719-.704-.953-1.97-.953-1.25 0-1.968.953-.703.953-.734 2.625v.734q0 1.72.718 2.704.735.968 1.985.968 1.281 0 1.969-.921.703-.922.718-2.657v-.734zm5.172-3.89v1.796h1.375v.969h-1.375v4.594q0 .437.188.671.187.22.625.22.218 0 .61-.094v1.03q-.5.141-.97.141-.859 0-1.297-.515-.421-.516-.421-1.453v-4.594h-1.344v-.969h1.344v-1.797h1.265zm4.547 2.687q.844-1.031 2.188-1.031 2.343 0 2.375 2.64v4.89h-1.266v-4.89q-.016-.797-.375-1.172-.36-.39-1.11-.39-.624 0-1.093.328-.453.328-.719.86v5.265h-1.266v-10.5h1.266v4zm9.813 6.64q-1.516 0-2.454-.984-.937-1-.937-2.656v-.219q0-1.11.422-1.969.422-.875 1.172-1.36.75-.483 1.64-.483 1.438 0 2.235.953.797.937.797 2.718v.516h-5q.015 1.094.625 1.781.625.672 1.562.672.672 0 1.125-.266.469-.28.828-.734l.766.594q-.922 1.437-2.781 1.437zm-.157-6.64q-.765 0-1.297.562-.515.563-.64 1.563h3.703v-.094q-.047-.969-.516-1.5-.468-.531-1.25-.531zm7.657.234q-.282-.047-.625-.047-1.235 0-1.688 1.063v5.25h-1.266v-7.39h1.235l.015.843q.625-.985 1.766-.985.375 0 .563.094v1.172zM145.294 317.182q0 2.219-.766 3.313-.75 1.078-2.36 1.078-1.593 0-2.359-1.047-.765-1.063-.796-3.172v-1.687q0-2.188.75-3.25.765-1.078 2.39-1.078 1.61 0 2.36 1.03.765 1.032.78 3.173v1.64zm-1.266-1.719q0-1.609-.453-2.343-.437-.735-1.422-.735-.969 0-1.422.735-.437.719-.453 2.234v2.031q0 1.61.469 2.391.469.766 1.422.766.937 0 1.39-.72.454-.733.47-2.296v-2.063zm2.922-2.078q0-.89.563-1.468.578-.578 1.468-.578.922 0 1.485.593.562.578.562 1.5v.485q0 .906-.578 1.484-.562.563-1.453.563-.89 0-1.469-.563-.578-.578-.578-1.531v-.485zm.938.532q0 .53.296.875.313.343.813.343.484 0 .781-.328.297-.328.297-.922v-.5q0-.53-.297-.875-.281-.343-.797-.343-.5 0-.797.343-.296.344-.296.907v.5zm3.906 5.078q0-.906.562-1.469.578-.578 1.47-.578.905 0 1.468.578.578.563.578 1.516v.484q0 .89-.578 1.469-.563.578-1.453.578-.875 0-1.47-.563-.577-.578-.577-1.53v-.485zm.953.531q0 .531.297.89.297.344.797.344t.797-.343q.296-.344.296-.922v-.5q0-.547-.312-.89-.297-.345-.781-.345-.5 0-.797.344-.297.344-.297.922v.5zm-3.453 1.156l-.719-.453 4.86-7.781.718.453-4.86 7.781zM216.401 316.448l.516-4.969h5.093v1.172h-4.03l-.298 2.703q.735-.422 1.657-.422 1.359 0 2.156.906.812.891.812 2.422 0 1.532-.843 2.422-.829.89-2.313.89-1.312 0-2.156-.733-.828-.735-.953-2.032h1.203q.11.86.594 1.297.5.438 1.312.438.875 0 1.375-.594.516-.61.516-1.672 0-1-.547-1.594-.547-.61-1.453-.61-.813 0-1.297.36l-.328.266-1.016-.25zm7.313-3.063q0-.89.562-1.468.578-.578 1.469-.578.922 0 1.484.593.563.578.563 1.5v.485q0 .906-.578 1.484-.563.563-1.454.563-.89 0-1.468-.563-.578-.578-.578-1.531v-.485zm.937.532q0 .53.297.875.312.343.812.343.485 0 .782-.328.297-.328.297-.922v-.5q0-.53-.297-.875-.282-.343-.797-.343-.5 0-.797.343-.297.344-.297.907v.5zm3.906 5.078q0-.906.563-1.469.578-.578 1.469-.578.906 0 1.468.578.578.563.578 1.516v.484q0 .89-.578 1.469-.562.578-1.453.578-.875 0-1.469-.563-.578-.578-.578-1.53v-.485zm.953.531q0 .531.297.89.297.344.797.344t.797-.343q.297-.344.297-.922v-.5q0-.547-.313-.89-.296-.345-.78-.345-.5 0-.798.344-.297.344-.297.922v.5zm-3.453 1.156l-.718-.453 4.859-7.781.719.453-4.86 7.781zM292.743 321.432h-1.266v-8.422l-2.562.922v-1.14l3.625-1.36h.203v10zm10.078-4.25q0 2.219-.766 3.313-.75 1.078-2.36 1.078-1.593 0-2.359-1.047-.765-1.063-.796-3.172v-1.687q0-2.188.75-3.25.765-1.078 2.39-1.078 1.61 0 2.36 1.03.765 1.032.78 3.173v1.64zm-1.266-1.719q0-1.609-.453-2.343-.437-.735-1.422-.735-.969 0-1.422.735-.437.719-.453 2.234v2.031q0 1.61.469 2.391.469.766 1.422.766.937 0 1.39-.72.454-.733.47-2.296v-2.063zm2.922-2.078q0-.89.563-1.468.578-.578 1.468-.578.922 0 1.485.593.562.578.562 1.5v.485q0 .906-.578 1.484-.562.563-1.453.563-.89 0-1.469-.563-.578-.578-.578-1.531v-.485zm.938.532q0 .53.296.875.313.343.813.343.484 0 .781-.328.297-.328.297-.922v-.5q0-.53-.297-.875-.281-.343-.797-.343-.5 0-.797.343-.296.344-.296.907v.5zm3.906 5.078q0-.906.562-1.469.578-.578 1.469-.578.906 0 1.469.578.578.563.578 1.516v.484q0 .89-.578 1.469-.563.578-1.453.578-.875 0-1.47-.563-.577-.578-.577-1.53v-.485zm.953.531q0 .531.297.89.297.344.797.344t.797-.343q.296-.344.296-.922v-.5q0-.547-.312-.89-.297-.345-.781-.345-.5 0-.797.344-.297.344-.297.922v.5zm-3.453 1.156l-.719-.453 4.86-7.781.718.453-4.86 7.781zM369.506 321.432h-1.266v-8.422l-2.562.922v-1.14l3.625-1.36h.203v10zm4.422-4.984l.516-4.969h5.093v1.172h-4.03l-.298 2.703q.735-.422 1.656-.422 1.36 0 2.157.906.812.891.812 2.422 0 1.532-.844 2.422-.828.89-2.312.89-1.313 0-2.156-.733-.828-.735-.953-2.032h1.203q.11.86.593 1.297.5.438 1.313.438.875 0 1.375-.594.516-.61.516-1.672 0-1-.547-1.594-.547-.61-1.453-.61-.813 0-1.297.36l-.328.266-1.016-.25zm7.312-3.063q0-.89.563-1.468.578-.578 1.469-.578.922 0 1.484.593.563.578.563 1.5v.485q0 .906-.579 1.484-.562.563-1.453.563-.89 0-1.468-.563-.579-.578-.579-1.531v-.485zm.938.532q0 .53.297.875.312.343.812.343.485 0 .782-.328.296-.328.296-.922v-.5q0-.53-.296-.875-.282-.343-.797-.343-.5 0-.797.343-.297.344-.297.907v.5zm3.906 5.078q0-.906.563-1.469.578-.578 1.468-.578.907 0 1.47.578.577.563.577 1.516v.484q0 .89-.578 1.469-.562.578-1.453.578-.875 0-1.469-.563-.578-.578-.578-1.53v-.485zm.953.531q0 .531.297.89.297.344.797.344t.797-.343q.297-.344.297-.922v-.5q0-.547-.313-.89-.297-.345-.78-.345-.5 0-.798.344-.297.344-.297.922v.5zm-3.453 1.156l-.719-.453 4.86-7.781.719.453-4.86 7.781zM448.629 321.432h-6.516v-.906l3.438-3.828q.765-.875 1.062-1.406.297-.547.297-1.141 0-.766-.484-1.266-.469-.5-1.25-.5-.938 0-1.469.532-.516.53-.516 1.5h-1.265q0-1.375.875-2.22.89-.858 2.375-.858 1.39 0 2.187.734.813.719.813 1.937 0 1.47-1.875 3.5l-2.656 2.891h4.984v1.031zm7.719-4.25q0 2.219-.766 3.313-.75 1.078-2.36 1.078-1.593 0-2.359-1.047-.765-1.063-.797-3.172v-1.687q0-2.188.75-3.25.766-1.078 2.391-1.078 1.61 0 2.36 1.03.765 1.032.78 3.173v1.64zm-1.266-1.719q0-1.609-.453-2.343-.438-.735-1.422-.735-.969 0-1.422.735-.437.719-.453 2.234v2.031q0 1.61.469 2.391.469.766 1.422.766.937 0 1.39-.72.453-.733.47-2.296v-2.063zm2.922-2.078q0-.89.562-1.468.579-.578 1.47-.578.921 0 1.484.593.562.578.562 1.5v.485q0 .906-.578 1.484-.563.563-1.453.563-.89 0-1.469-.563-.578-.578-.578-1.531v-.485zm.937.532q0 .53.297.875.313.343.813.343.484 0 .781-.328.297-.328.297-.922v-.5q0-.53-.297-.875-.281-.343-.797-.343-.5 0-.797.343-.297.344-.297.907v.5zm3.907 5.078q0-.906.562-1.469.578-.578 1.469-.578.906 0 1.469.578.578.563.578 1.516v.484q0 .89-.578 1.469-.563.578-1.453.578-.875 0-1.47-.563-.577-.578-.577-1.53v-.485zm.953.531q0 .531.297.89.297.344.797.344t.796-.343q.297-.344.297-.922v-.5q0-.547-.312-.89-.297-.345-.781-.345-.5 0-.797.344-.297.344-.297.922v.5zm-3.453 1.156l-.719-.453 4.86-7.781.718.453-4.86 7.781zM525.392 321.432h-6.515v-.906l3.437-3.828q.766-.875 1.063-1.406.297-.547.297-1.141 0-.766-.485-1.266-.468-.5-1.25-.5-.937 0-1.468.532-.516.53-.516 1.5h-1.266q0-1.375.875-2.22.891-.858 2.375-.858 1.391 0 2.188.734.812.719.812 1.937 0 1.47-1.875 3.5l-2.656 2.891h4.984v1.031zm2.063-4.984l.516-4.969h5.093v1.172h-4.03l-.298 2.703q.735-.422 1.656-.422 1.36 0 2.157.906.812.891.812 2.422 0 1.532-.844 2.422-.828.89-2.312.89-1.313 0-2.156-.733-.828-.735-.953-2.032h1.203q.11.86.593 1.297.5.438 1.313.438.875 0 1.375-.594.516-.61.516-1.672 0-1-.547-1.594-.547-.61-1.453-.61-.813 0-1.297.36l-.328.266-1.016-.25zm7.312-3.063q0-.89.563-1.468.578-.578 1.469-.578.922 0 1.484.593.563.578.563 1.5v.485q0 .906-.579 1.484-.562.563-1.453.563-.89 0-1.468-.563-.579-.578-.579-1.531v-.485zm.938.532q0 .53.297.875.312.343.812.343.485 0 .782-.328.296-.328.296-.922v-.5q0-.53-.296-.875-.282-.343-.797-.343-.5 0-.797.343-.297.344-.297.907v.5zm3.906 5.078q0-.906.563-1.469.578-.578 1.468-.578.907 0 1.47.578.577.563.577 1.516v.484q0 .89-.578 1.469-.562.578-1.453.578-.875 0-1.469-.563-.578-.578-.578-1.53v-.485zm.953.531q0 .531.297.89.297.344.797.344t.797-.343q.297-.344.297-.922v-.5q0-.547-.313-.89-.297-.345-.78-.345-.5 0-.798.344-.297.344-.297.922v.5zm-3.453 1.156l-.719-.453 4.86-7.781.719.453-4.86 7.781z"/>
  <path fill="#bdbdbd" d="M23.606 54.856h-4.172l-.937 2.594h-1.36l3.813-9.953h1.14l3.813 9.953H24.56l-.953-2.594zm-3.781-1.078h3.39l-1.703-4.656-1.687 4.656zm8.281-3.719l.031.922q.86-1.062 2.22-1.062 2.343 0 2.374 2.64v4.891h-1.265v-4.89q-.016-.797-.375-1.172-.36-.391-1.11-.391-.625 0-1.094.328-.453.328-.718.86v5.265h-1.266v-7.39h1.203zm11.375 7.391q-.11-.219-.187-.781-.875.922-2.11.922-1.093 0-1.796-.61-.688-.625-.688-1.578 0-1.156.875-1.797.875-.64 2.469-.64h1.234v-.578q0-.672-.406-1.063-.39-.39-1.156-.39-.688 0-1.141.343-.453.344-.453.828H34.84q0-.562.39-1.078.407-.515 1.078-.812.672-.297 1.47-.297 1.28 0 2 .64.733.641.765 1.75v3.407q0 1.015.25 1.625v.109H39.48zm-2.11-.969q.595 0 1.126-.297.547-.312.781-.812v-1.516h-1q-2.312 0-2.312 1.36 0 .593.39.937.39.328 1.016.328zm6.907.969h-1.265v-10.5h1.265v10.5zm4.047-1.86l1.719-5.53h1.36l-2.97 8.53q-.687 1.844-2.203 1.844l-.234-.015-.469-.094v-1.016l.344.016q.64 0 1-.266.36-.25.594-.937l.28-.75-2.64-7.313h1.375l1.844 5.532zm8.89-.109q0-.5-.39-.781-.39-.297-1.344-.5-.953-.203-1.531-.484-.563-.297-.828-.688-.266-.39-.266-.937 0-.922.766-1.547.766-.625 1.969-.625 1.25 0 2.03.656.782.64.782 1.656h-1.265q0-.531-.438-.906t-1.11-.375q-.687 0-1.078.313-.39.296-.39.78 0 .454.36.688.359.235 1.296.453.953.204 1.547.5.594.297.875.72.281.405.281 1 0 .983-.797 1.593-.796.594-2.062.594-.875 0-1.563-.313-.687-.328-1.078-.89-.375-.563-.375-1.22h1.266q.031.641.5 1.016.484.375 1.25.375.719 0 1.156-.296.438-.297.438-.782zm4.063 1.969h-1.265v-7.39h1.265v7.39zm-1.36-9.36q0-.312.188-.515.188-.219.547-.219.375 0 .563.219.203.203.203.516 0 .312-.203.515-.188.203-.563.203-.36 0-.547-.203-.187-.203-.187-.515zm7.298 7.391q0-.5-.391-.781-.39-.297-1.344-.5-.953-.203-1.531-.484-.563-.297-.828-.688-.266-.39-.266-.937 0-.922.766-1.547.766-.625 1.969-.625 1.25 0 2.03.656.782.64.782 1.656h-1.266q0-.531-.437-.906-.438-.375-1.11-.375-.687 0-1.078.313-.39.296-.39.78 0 .454.36.688.359.235 1.296.453.953.204 1.547.5.594.297.875.72.281.405.281 1 0 .983-.797 1.593-.796.594-2.062.594-.875 0-1.563-.313-.687-.328-1.078-.89-.375-.563-.375-1.22h1.266q.031.641.5 1.016.484.375 1.25.375.719 0 1.156-.296.438-.297.438-.782zm5.359-1.797q0-1.093.422-1.953.437-.875 1.187-1.343.766-.47 1.75-.47 1.5 0 2.438 1.048.937 1.047.937 2.78v.095q0 1.078-.421 1.937-.407.844-1.188 1.328-.766.485-1.75.485-1.516 0-2.453-1.047-.922-1.047-.922-2.766v-.094zm1.266.157q0 1.218.562 1.968.578.75 1.547.75.953 0 1.516-.75.578-.765.578-2.125 0-1.218-.578-1.968-.578-.766-1.532-.766-.937 0-1.515.75-.578.75-.578 2.14zm7.687 3.609v-6.422h-1.172v-.969h1.172v-.765q0-1.188.625-1.828.64-.657 1.813-.657.437 0 .859.11l-.063 1.031q-.328-.063-.687-.063-.61 0-.953.36-.328.36-.328 1.031v.781h1.578v.97h-1.578v6.421h-1.266zm7.828-4.984l.516-4.97h5.094v1.173h-4.032l-.296 2.703q.734-.422 1.656-.422 1.36 0 2.156.906.813.89.813 2.422 0 1.531-.844 2.422-.828.89-2.313.89-1.312 0-2.156-.734-.828-.734-.953-2.031H90.2q.11.86.594 1.297.5.437 1.312.437.875 0 1.375-.593.516-.61.516-1.672 0-1-.547-1.594-.547-.61-1.453-.61-.813 0-1.297.36l-.328.266-1.016-.25zm13.657.734q0 2.219-.766 3.313-.75 1.078-2.36 1.078-1.593 0-2.359-1.047-.766-1.063-.797-3.172v-1.688q0-2.187.75-3.25.766-1.078 2.39-1.078 1.61 0 2.36 1.032.766 1.03.782 3.171V53.2zm-1.266-1.719q0-1.61-.453-2.343-.438-.735-1.422-.735-.969 0-1.422.735-.438.718-.453 2.234v2.031q0 1.61.469 2.39.468.766 1.422.766.937 0 1.39-.718.453-.735.469-2.297V51.48zm9.266 1.719q0 2.219-.766 3.313-.75 1.078-2.36 1.078-1.593 0-2.359-1.047-.766-1.063-.797-3.172v-1.688q0-2.187.75-3.25.766-1.078 2.39-1.078 1.61 0 2.36 1.032.766 1.03.782 3.171V53.2zm-1.266-1.719q0-1.61-.453-2.343-.438-.735-1.422-.735-.969 0-1.422.735-.438.718-.453 2.234v2.031q0 1.61.469 2.39.468.766 1.422.766.937 0 1.39-.718.453-.735.469-2.297V51.48zm7.422-.531q.844-1.031 2.187-1.031 2.344 0 2.375 2.64v4.891h-1.265v-4.89q-.016-.797-.375-1.172-.36-.391-1.11-.391-.625 0-1.093.328-.454.328-.72.86v5.265h-1.265v-10.5h1.266v4zm8.11 6.5h-1.266v-7.39h1.265v7.39zm-1.36-9.36q0-.312.187-.515.188-.219.547-.219.375 0 .563.219.203.203.203.516 0 .312-.203.515-.188.203-.563.203-.36 0-.547-.203-.187-.203-.187-.515zm2.687 5.594q0-1.718.797-2.734.797-1.031 2.125-1.031 1.344 0 2.11.953l.062-.813h1.156v7.22q0 1.437-.86 2.25-.843.827-2.28.827-.797 0-1.563-.343-.765-.329-1.172-.922l.657-.766q.812 1 1.984 1 .922 0 1.437-.516.532-.515.532-1.468v-.625q-.766.875-2.079.875-1.296 0-2.109-1.047-.797-1.047-.797-2.86zm1.266.157q0 1.25.515 1.968.516.704 1.438.704 1.203 0 1.766-1.094v-3.375q-.594-1.047-1.75-1.047-.922 0-1.454.719-.515.703-.515 2.125zm8.297-2.891q.843-1.031 2.187-1.031 2.344 0 2.375 2.64v4.891h-1.265v-4.89q-.016-.797-.375-1.172-.36-.391-1.11-.391-.625 0-1.094.328-.453.328-.718.86v5.265h-1.266v-10.5h1.266v4zm11.453-2.688v1.797h1.375v.97h-1.375v4.593q0 .437.187.672.188.219.625.219.22 0 .61-.094v1.031q-.5.14-.969.14-.86 0-1.297-.515-.422-.516-.422-1.453v-4.594h-1.344v-.969h1.344v-1.796h1.266zm6.86 2.922q-.282-.046-.626-.046-1.234 0-1.687 1.062v5.25h-1.266v-7.39h1.234l.016.843q.625-.984 1.766-.984.375 0 .562.094v1.171zm6 6.266q-.11-.219-.188-.781-.875.922-2.11.922-1.093 0-1.797-.61-.687-.625-.687-1.578 0-1.156.875-1.797.875-.64 2.469-.64h1.234v-.578q0-.672-.406-1.063-.39-.39-1.156-.39-.688 0-1.141.343-.453.344-.453.828h-1.281q0-.562.39-1.078.406-.515 1.078-.812.672-.297 1.47-.297 1.28 0 2 .64.733.641.765 1.75v3.407q0 1.015.25 1.625v.109h-1.313zm-2.11-.969q.594 0 1.125-.297.547-.312.781-.812v-1.516h-1q-2.312 0-2.312 1.36 0 .593.39.937.39.328 1.016.328zm6.156.969v-6.422h-1.172v-.969h1.172v-.765q0-1.188.625-1.828.64-.657 1.813-.657.437 0 .859.11l-.063 1.031q-.328-.063-.687-.063-.61 0-.953.36-.328.36-.328 1.031v.781h1.578v.97h-1.578v6.421h-1.266zm5 0v-6.422h-1.172v-.969h1.172v-.765q0-1.188.625-1.828.64-.657 1.813-.657.437 0 .859.11l-.063 1.031q-.328-.063-.687-.063-.61 0-.953.36-.328.36-.328 1.031v.781h1.578v.97h-1.578v6.421h-1.266zm5.75 0h-1.266v-7.39h1.266v7.39zm-1.36-9.36q0-.312.188-.515.188-.219.547-.219.375 0 .563.219.203.203.203.516 0 .312-.203.515-.188.203-.563.203-.36 0-.547-.203-.187-.203-.187-.515zm5.954 8.47q.672 0 1.172-.407.515-.422.578-1.031h1.187q-.03.625-.437 1.203-.406.578-1.078.922-.672.344-1.422.344-1.516 0-2.406-1-.891-1.016-.891-2.766v-.219q0-1.078.39-1.922.407-.843 1.141-1.296.75-.47 1.766-.47 1.234 0 2.062.75.828.735.875 1.923h-1.187q-.063-.72-.547-1.172-.484-.469-1.203-.469-.969 0-1.5.703-.531.688-.531 2v.235q0 1.28.53 1.984.532.687 1.5.687zm7.281 1.75h-1.078l4.156-10.813h1.078l-4.156 10.812zm15-4.47q0 1.688-.781 2.72-.766 1.03-2.078 1.03-1.344 0-2.125-.859v3.563h-1.266V50.059h1.156l.063.813q.781-.953 2.156-.953 1.328 0 2.094 1 .781 1 .781 2.797v.125zm-1.266-.156q0-1.25-.53-1.968-.532-.72-1.47-.72-1.14 0-1.718 1.017v3.53q.578 1.016 1.734 1.016.922 0 1.453-.718.531-.735.531-2.157zm6.594-2.5q-.281-.046-.625-.046-1.234 0-1.687 1.062v5.25h-1.266v-7.39h1.234l.016.843q.625-.984 1.766-.984.375 0 .562.094v1.171zm4.5 6.407q-1.515 0-2.453-.985-.937-1-.937-2.656v-.219q0-1.11.421-1.968.422-.875 1.172-1.36.75-.484 1.641-.484 1.438 0 2.234.953.797.937.797 2.719v.515h-5q.016 1.094.625 1.782.625.671 1.563.671.672 0 1.125-.265.468-.281.828-.735l.765.594q-.921 1.438-2.78 1.438zm-.156-6.641q-.766 0-1.297.563-.516.562-.64 1.562h3.703v-.094q-.047-.968-.516-1.5-.469-.531-1.25-.531zm5.266-.89l.046.812q.813-.953 2.188-.953 1.547 0 2.11 1.187.374-.531.968-.86.594-.327 1.39-.327 2.438 0 2.485 2.578v4.953h-1.266v-4.875q0-.797-.375-1.188-.359-.39-1.203-.39-.718 0-1.187.422-.453.406-.531 1.125v4.906h-1.266v-4.844q0-1.61-1.578-1.61-1.25 0-1.703 1.048v5.406h-1.266v-7.39h1.188zm12.187 7.39h-1.266v-7.39h1.266v7.39zm-1.36-9.36q0-.312.188-.515.188-.219.547-.219.375 0 .563.219.203.203.203.516 0 .312-.203.515-.188.203-.563.203-.36 0-.547-.203-.187-.203-.187-.515zm7.563 8.626q-.75.875-2.172.875-1.187 0-1.812-.688-.61-.687-.61-2.031v-4.813h1.25v4.766q0 1.688 1.375 1.688 1.454 0 1.922-1.079V50.06h1.266v7.391h-1.203l-.016-.734zm4.61-6.657l.046.813q.813-.953 2.188-.953 1.547 0 2.11 1.187.374-.531.968-.86.594-.327 1.39-.327 2.438 0 2.485 2.578v4.953h-1.266v-4.875q0-.797-.375-1.188-.359-.39-1.203-.39-.718 0-1.187.422-.453.406-.531 1.125v4.906h-1.266v-4.844q0-1.61-1.578-1.61-1.25 0-1.703 1.048v5.406h-1.266v-7.39h1.188zm20.078 3.782q0 1.687-.781 2.718-.782 1.032-2.094 1.032-1.39 0-2.156-1l-.063.859h-1.172v-10.5h1.266v3.922q.765-.953 2.11-.953 1.358 0 2.124 1.015.766 1.016.766 2.797v.11zm-1.266-.157q0-1.28-.5-1.984-.5-.703-1.437-.703-1.25 0-1.797 1.156v3.203q.578 1.157 1.812 1.157.906 0 1.406-.704.516-.703.516-2.125zm6.578-2.5q-.281-.046-.625-.046-1.234 0-1.687 1.062v5.25h-1.266v-7.39h1.234l.016.843q.625-.984 1.766-.984.375 0 .562.094v1.171zm6 6.266q-.11-.219-.187-.781-.875.922-2.11.922-1.093 0-1.797-.61-.687-.625-.687-1.578 0-1.156.875-1.797.875-.64 2.469-.64h1.234v-.578q0-.672-.406-1.063-.39-.39-1.156-.39-.688 0-1.141.343-.453.344-.453.828h-1.281q0-.562.39-1.078.406-.515 1.078-.812.672-.297 1.47-.297 1.28 0 2 .64.733.641.765 1.75v3.407q0 1.015.25 1.625v.109h-1.313zm-2.11-.969q.595 0 1.126-.297.547-.312.781-.812v-1.516h-1q-2.312 0-2.312 1.36 0 .593.39.937.39.328 1.016.328zm6.735-6.422l.031.922q.86-1.062 2.22-1.062 2.343 0 2.374 2.64v4.891h-1.265v-4.89q-.016-.797-.375-1.172-.36-.391-1.11-.391-.625 0-1.094.328-.453.328-.718.86v5.265h-1.266v-7.39h1.203zm6.5 3.625q0-1.703.797-2.734.813-1.031 2.11-1.031 1.312 0 2.062.89V46.95h1.266v10.5h-1.157l-.062-.797q-.766.938-2.11.938-1.296 0-2.109-1.047-.797-1.063-.797-2.766v-.094zm1.266.157q0 1.25.515 1.968.516.704 1.438.704 1.203 0 1.75-1.079v-3.406q-.563-1.031-1.734-1.031-.938 0-1.454.719-.515.703-.515 2.125zm14.344 1.64q0-.5-.391-.781-.39-.297-1.344-.5-.953-.203-1.531-.484-.563-.297-.828-.688-.266-.39-.266-.937 0-.922.766-1.547.765-.625 1.969-.625 1.25 0 2.03.656.782.64.782 1.656h-1.266q0-.531-.437-.906-.438-.375-1.11-.375-.687 0-1.077.313-.391.296-.391.78 0 .454.36.688.359.235 1.296.453.953.204 1.547.5.594.297.875.72.281.405.281 1 0 .983-.797 1.593-.797.594-2.062.594-.875 0-1.563-.313-.687-.328-1.078-.89-.375-.563-.375-1.22h1.266q.031.641.5 1.016.484.375 1.25.375.719 0 1.156-.296.438-.297.438-.782zm4.062 1.969h-1.266v-7.39h1.266v7.39zm-1.36-9.36q0-.312.188-.515.188-.219.547-.219.375 0 .563.219.203.203.203.516 0 .312-.203.515-.188.203-.563.203-.36 0-.547-.203-.187-.203-.187-.515zm4.704.172v1.797h1.375v.97h-1.375v4.593q0 .437.187.672.188.219.625.219.22 0 .61-.094v1.031q-.5.14-.969.14-.86 0-1.297-.515-.422-.516-.422-1.453v-4.594h-1.344v-.969h1.344v-1.796h1.266zm6.36 9.329q-1.516 0-2.454-.985-.937-1-.937-2.656v-.219q0-1.11.421-1.968.422-.875 1.172-1.36.75-.484 1.641-.484 1.438 0 2.234.953.797.937.797 2.719v.515h-5q.016 1.094.625 1.782.625.671 1.563.671.672 0 1.125-.265.469-.281.828-.735l.765.594q-.921 1.438-2.78 1.438zm-.157-6.641q-.766 0-1.297.563-.516.562-.64 1.562h3.703v-.094q-.047-.968-.516-1.5-.469-.531-1.25-.531zm8.39 4.531q0-.5-.39-.781-.39-.297-1.344-.5-.953-.203-1.531-.484-.563-.297-.828-.688-.266-.39-.266-.937 0-.922.766-1.547.765-.625 1.969-.625 1.25 0 2.03.656.782.64.782 1.656h-1.266q0-.531-.437-.906-.438-.375-1.11-.375-.687 0-1.077.313-.391.296-.391.78 0 .454.36.688.359.235 1.296.453.953.204 1.547.5.594.297.875.72.281.405.281 1 0 .983-.797 1.593-.797.594-2.062.594-.875 0-1.563-.313-.687-.328-1.078-.89-.375-.563-.375-1.22h1.266q.031.641.5 1.016.484.375 1.25.375.719 0 1.156-.296.438-.297.438-.782zm7.063 1.969h-1.266v-7.39h1.266v7.39zm-1.36-9.36q0-.312.188-.515.188-.219.547-.219.375 0 .563.219.203.203.203.516 0 .312-.203.515-.188.203-.563.203-.36 0-.547-.203-.187-.203-.187-.515zm4.188 1.97l.031.921q.86-1.062 2.22-1.062 2.343 0 2.374 2.64v4.891h-1.265v-4.89q-.016-.797-.375-1.172-.36-.391-1.11-.391-.625 0-1.094.328-.453.328-.718.86v5.265h-1.266v-7.39h1.203zm17.656 7.39h-1.328l-5.015-7.672v7.672h-1.313v-9.953h1.313l5.031 7.703v-7.703h1.313v9.953zm3.657-1.078h4.719v1.078h-6.032v-9.953h1.313v8.875z"/>
  <path fill="#757575" d="M22.794 28.068q-2.422-.688-3.516-1.688-1.094-1.015-1.094-2.5 0-1.687 1.344-2.781 1.344-1.11 3.485-1.11 1.468 0 2.609.579 1.156.562 1.781 1.562.625.985.625 2.172h-1.875q0-1.281-.828-2.016-.813-.75-2.313-.75-1.39 0-2.171.61-.766.61-.766 1.703 0 .86.734 1.469.735.593 2.5 1.093 1.782.5 2.782 1.11 1 .594 1.484 1.39.484.797.484 1.891 0 1.719-1.343 2.766-1.344 1.047-3.61 1.047-1.453 0-2.734-.563-1.266-.562-1.953-1.531-.688-.985-.688-2.235h1.89q0 1.297.954 2.047.953.735 2.531.735 1.485 0 2.281-.594.797-.61.797-1.656 0-1.047-.734-1.61-.734-.578-2.656-1.14zM34.7 34.615q-2.14 0-3.5-1.407-1.344-1.422-1.344-3.78v-.345q0-1.562.594-2.797.61-1.234 1.688-1.937 1.078-.703 2.343-.703 2.063 0 3.203 1.36 1.141 1.359 1.141 3.89v.75h-7.156q.031 1.562.906 2.531.875.953 2.219.953.969 0 1.625-.39.672-.391 1.172-1.032l1.093.86q-1.328 2.047-3.984 2.047zm-.219-9.485q-1.093 0-1.843.797-.735.797-.907 2.234h5.282v-.14q-.079-1.375-.75-2.125-.657-.766-1.782-.766zm11.078 8q.97 0 1.688-.578.719-.594.797-1.469h1.719q-.063.907-.641 1.735-.563.812-1.531 1.312-.953.485-2.032.485-2.156 0-3.437-1.438-1.266-1.453-1.266-3.953v-.297q0-1.547.563-2.75.562-1.203 1.625-1.86 1.062-.671 2.5-.671 1.781 0 2.953 1.062 1.187 1.063 1.266 2.766h-1.72q-.077-1.016-.78-1.672-.688-.672-1.72-.672-1.374 0-2.14 1-.75.985-.75 2.86v.343q0 1.828.75 2.813.75.984 2.156.984zm8.204-11.844v2.563h1.984v1.39h-1.984v6.547q0 .641.265.97.266.312.906.312.313 0 .86-.125v1.468q-.719.204-1.39.204-1.204 0-1.829-.735-.61-.734-.61-2.094V25.24h-1.921v-1.391h1.922v-2.563h1.797zm6.515 13.125h-1.797V23.85h1.797v10.562zm-1.953-13.375q0-.437.266-.734.28-.312.797-.312.53 0 .796.312.282.297.282.734 0 .438-.282.735-.265.297-.796.297-.516 0-.797-.297-.266-.297-.266-.735zm4.563 8q0-2.468 1.14-3.921 1.14-1.47 3.031-1.47 1.938 0 3.016 1.376l.094-1.172h1.64v10.312q0 2.047-1.218 3.22-1.203 1.187-3.266 1.187-1.14 0-2.234-.485-1.094-.484-1.672-1.343l.937-1.079Q65.528 37.1 67.2 37.1q1.328 0 2.063-.75.734-.734.734-2.078v-.922q-1.078 1.266-2.953 1.266-1.86 0-3.016-1.5-1.14-1.5-1.14-4.079zm1.812.204q0 1.796.734 2.812.735 1.016 2.047 1.016 1.719 0 2.516-1.547v-4.828q-.828-1.516-2.484-1.516-1.329 0-2.079 1.031-.734 1.032-.734 3.032zm9.14-.204q0-1.562.61-2.796.61-1.25 1.688-1.922 1.093-.672 2.5-.672 2.156 0 3.484 1.5 1.344 1.484 1.344 3.969v.125q0 1.546-.594 2.78-.594 1.22-1.703 1.907-1.094.688-2.516.688-2.14 0-3.484-1.5-1.328-1.5-1.328-3.954v-.125zm1.813.204q0 1.765.813 2.828.828 1.062 2.187 1.062 1.375 0 2.188-1.078.812-1.078.812-3.016 0-1.75-.828-2.828-.828-1.078-2.188-1.078-1.343 0-2.171 1.063-.813 1.062-.813 3.047zm16.625 5.171h-1.797V23.85h1.797v10.562zm-1.953-13.375q0-.437.266-.734.28-.312.797-.312.53 0 .796.312.282.297.282.734 0 .438-.282.735-.265.297-.796.297-.516 0-.797-.297-.266-.297-.266-.735zm11.14 10.579q0-.735-.546-1.141-.547-.406-1.922-.703-1.375-.297-2.188-.703-.796-.407-1.187-.969-.375-.578-.375-1.36 0-1.296 1.094-2.187 1.093-.906 2.812-.906 1.797 0 2.906.937 1.125.922 1.125 2.36h-1.828q0-.735-.625-1.266-.625-.547-1.578-.547-1 0-1.562.438-.547.422-.547 1.125 0 .64.515.984.516.328 1.875.64 1.36.298 2.188.72.844.406 1.25 1 .406.593.406 1.437 0 1.422-1.14 2.281-1.126.86-2.938.86-1.266 0-2.25-.454-.969-.453-1.531-1.25-.547-.812-.547-1.75h1.812q.047.907.72 1.438.687.531 1.796.531 1.031 0 1.64-.406.626-.422.626-1.11zm11.563-11.422l4.64 11.593 4.657-11.593h2.422V34.41h-1.875v-5.53l.187-5.985-4.671 11.515h-1.438l-4.656-11.484.187 5.953v5.531h-1.875V20.193h2.422zm13.813 8.843q0-1.562.609-2.796.61-1.25 1.687-1.922 1.094-.672 2.5-.672 2.157 0 3.485 1.5 1.344 1.484 1.344 3.969v.125q0 1.546-.594 2.78-.594 1.22-1.703 1.907-1.094.688-2.516.688-2.14 0-3.484-1.5-1.328-1.5-1.328-3.954v-.125zm1.812.204q0 1.765.813 2.828.828 1.062 2.187 1.062 1.375 0 2.188-1.078.812-1.078.812-3.016 0-1.75-.828-2.828-.828-1.078-2.188-1.078-1.343 0-2.171 1.063-.813 1.062-.813 3.047zm15.813 2.375q0-.735-.547-1.141t-1.922-.703q-1.375-.297-2.188-.703-.797-.407-1.187-.969-.375-.578-.375-1.36 0-1.296 1.094-2.187 1.093-.906 2.812-.906 1.797 0 2.906.937 1.125.922 1.125 2.36h-1.828q0-.735-.625-1.266-.625-.547-1.578-.547-1 0-1.562.438-.547.422-.547 1.125 0 .64.515.984.516.328 1.875.64 1.36.298 2.188.72.844.406 1.25 1 .406.593.406 1.437 0 1.422-1.14 2.281-1.126.86-2.938.86-1.266 0-2.25-.454-.969-.453-1.531-1.25-.547-.812-.547-1.75h1.812q.047.907.72 1.438.687.531 1.796.531 1.031 0 1.64-.406.626-.422.626-1.11zm6.296-10.329v2.563h1.985v1.39h-1.985v6.547q0 .641.266.97.266.312.906.312.313 0 .86-.125v1.468q-.719.204-1.39.204-1.204 0-1.829-.735-.61-.734-.61-2.094V25.24h-1.921v-1.391h1.922v-2.563h1.796zm19.844-1.093v9.672q0 2-1.265 3.28-1.25 1.282-3.391 1.438l-.5.032q-2.344 0-3.734-1.266-1.375-1.266-1.391-3.469v-9.687h1.844v9.625q0 1.547.843 2.406.86.844 2.438.844 1.594 0 2.438-.844.843-.844.843-2.39v-9.641h1.875zm8.86 11.422q0-.735-.547-1.141t-1.922-.703q-1.375-.297-2.188-.703-.797-.407-1.187-.969-.375-.578-.375-1.36 0-1.296 1.094-2.187 1.093-.906 2.812-.906 1.797 0 2.906.937 1.125.922 1.125 2.36h-1.828q0-.735-.625-1.266-.625-.547-1.578-.547-1 0-1.562.438-.547.422-.547 1.125 0 .64.515.984.516.328 1.875.64 1.36.298 2.188.72.844.406 1.25 1 .406.593.406 1.437 0 1.422-1.14 2.281-1.126.86-2.938.86-1.266 0-2.25-.454-.969-.453-1.531-1.25-.547-.812-.547-1.75h1.812q.047.907.72 1.438.687.531 1.796.531 1.031 0 1.64-.406.626-.422.626-1.11zm8.234 3q-2.14 0-3.5-1.407-1.344-1.422-1.344-3.78v-.345q0-1.562.594-2.797.61-1.234 1.688-1.937 1.078-.703 2.343-.703 2.063 0 3.203 1.36 1.141 1.359 1.141 3.89v.75h-7.156q.031 1.562.906 2.531.875.953 2.219.953.968 0 1.625-.39.672-.391 1.172-1.032l1.093.86q-1.328 2.047-3.984 2.047zm-.219-9.485q-1.094 0-1.844.797-.734.797-.906 2.234h5.281v-.14q-.078-1.375-.75-2.125-.656-.766-1.78-.766zm6.39 3.906q0-2.421 1.157-3.906 1.156-1.484 3.016-1.484t2.937 1.265v-5.5h1.813v15h-1.657l-.093-1.14q-1.078 1.344-3.016 1.344-1.828 0-3-1.5-1.156-1.516-1.156-3.938v-.14zm1.813.204q0 1.796.735 2.812.75 1.016 2.062 1.016 1.719 0 2.5-1.532v-4.859q-.797-1.5-2.484-1.5-1.328 0-2.078 1.031-.735 1.032-.735 3.032zm25.375.656q-.265 2.265-1.672 3.5-1.39 1.219-3.718 1.219-2.516 0-4.047-1.813-1.516-1.812-1.516-4.844V26.6q0-1.984.703-3.484.72-1.5 2.016-2.313 1.297-.812 3.016-.812 2.265 0 3.625 1.265 1.375 1.266 1.593 3.5h-1.89q-.235-1.687-1.063-2.453-.812-.766-2.265-.766-1.797 0-2.829 1.329-1.015 1.328-1.015 3.78v1.376q0 2.312.969 3.687.968 1.36 2.703 1.36 1.562 0 2.39-.703.844-.704 1.11-2.47h1.89zm6.641 4.719q-2.14 0-3.5-1.407-1.344-1.422-1.344-3.78v-.345q0-1.562.594-2.797.61-1.234 1.688-1.937 1.078-.703 2.343-.703 2.063 0 3.203 1.36 1.141 1.359 1.141 3.89v.75h-7.156q.031 1.562.906 2.531.875.953 2.219.953.968 0 1.625-.39.672-.391 1.172-1.032l1.093.86q-1.328 2.047-3.984 2.047zm-.219-9.485q-1.094 0-1.844.797-.734.797-.906 2.234h5.281v-.14q-.078-1.375-.75-2.125-.656-.766-1.78-.766zm11.938.328q-.407-.062-.875-.062-1.782 0-2.422 1.515v7.5h-1.797V23.85h1.75l.031 1.219q.89-1.422 2.516-1.422.531 0 .797.14v1.672zm4.343-4.172v2.563h1.985v1.39h-1.985v6.547q0 .641.266.97.266.312.906.312.313 0 .86-.125v1.468q-.719.204-1.39.204-1.204 0-1.829-.735-.61-.734-.61-2.094V25.24h-1.921v-1.391h1.922v-2.563h1.796zm6.516 13.125h-1.797V23.85h1.797v10.562zm-1.953-13.375q0-.437.266-.734.28-.312.796-.312.532 0 .797.312.282.297.282.734 0 .438-.282.735-.265.297-.797.297-.515 0-.796-.297-.266-.297-.266-.735zm5.875 13.375V25.24h-1.656v-1.391h1.656v-1.094q0-1.687.906-2.61.922-.937 2.578-.937.625 0 1.235.157l-.094 1.468q-.453-.078-.969-.078-.89 0-1.375.516-.469.5-.469 1.453v1.125h2.25v1.39h-2.25v9.172H254.2zm8.078 0h-1.797V23.85h1.797v10.562zm-1.953-13.375q0-.437.266-.734.28-.312.796-.312.532 0 .797.312.282.297.282.734 0 .438-.282.735-.265.297-.797.297-.515 0-.796-.297-.266-.297-.266-.735zm9.234 12.094q.97 0 1.688-.578.719-.594.797-1.469h1.719q-.063.907-.641 1.735-.563.812-1.531 1.312-.954.485-2.032.485-2.156 0-3.437-1.438-1.266-1.453-1.266-3.953v-.297q0-1.547.563-2.75.562-1.203 1.625-1.86 1.062-.671 2.5-.671 1.781 0 2.953 1.062 1.187 1.063 1.265 2.766h-1.718q-.078-1.016-.781-1.672-.688-.672-1.72-.672-1.374 0-2.14 1-.75.985-.75 2.86v.343q0 1.828.75 2.813.75.984 2.156.984zm12.282 1.281q-.157-.312-.25-1.109-1.266 1.313-3.016 1.313-1.563 0-2.563-.891-1-.89-1-2.25 0-1.64 1.25-2.547 1.266-.922 3.532-.922h1.765v-.828q0-.953-.578-1.516-.562-.562-1.656-.562-.969 0-1.625.5-.656.484-.656 1.172h-1.813q0-.781.563-1.516.562-.75 1.515-1.172.97-.437 2.125-.437 1.828 0 2.86.922 1.031.906 1.078 2.515v4.86q0 1.453.36 2.312v.156h-1.891zm-3-1.375q.859 0 1.609-.437.766-.438 1.11-1.14v-2.173h-1.423q-3.312 0-3.312 1.938 0 .86.563 1.344.562.468 1.453.468zm9.921-11.75v2.563h1.985v1.39h-1.985v6.547q0 .641.266.97.266.312.906.312.313 0 .86-.125v1.468q-.719.204-1.39.204-1.204 0-1.829-.735-.61-.734-.61-2.094V25.24h-1.921v-1.391h1.922v-2.563h1.796zm8.938 13.329q-2.14 0-3.5-1.407-1.344-1.422-1.344-3.78v-.345q0-1.562.594-2.797.61-1.234 1.688-1.937 1.078-.703 2.343-.703 2.063 0 3.203 1.36 1.141 1.359 1.141 3.89v.75h-7.156q.031 1.562.906 2.531.875.953 2.219.953.969 0 1.625-.39.672-.391 1.172-1.032l1.093.86q-1.328 2.047-3.984 2.047zm-.219-9.485q-1.094 0-1.844.797-.734.797-.906 2.234h5.281v-.14q-.078-1.375-.75-2.125-.656-.766-1.78-.766zm19.969 5.563h-5.953l-1.344 3.718h-1.922l5.422-14.218h1.64l5.438 14.218h-1.922l-1.359-3.718zm-5.39-1.532h4.843l-2.422-6.656-2.422 6.656zm16.78 4.204q-1.046 1.25-3.093 1.25-1.688 0-2.578-.985-.875-.984-.89-2.906v-6.875h1.812v6.828q0 2.39 1.953 2.39 2.062 0 2.75-1.53v-7.688h1.812v10.562h-1.719l-.046-1.046zm6.923-12.079v2.563h1.984v1.39h-1.985v6.547q0 .641.266.97.266.312.906.312.313 0 .86-.125v1.468q-.719.204-1.39.204-1.204 0-1.829-.735-.61-.734-.61-2.094V25.24h-1.921v-1.391h1.922v-2.563h1.796zm6.359 3.844q1.203-1.484 3.125-1.484 3.36 0 3.375 3.781v6.984h-1.797v-7q-.016-1.14-.531-1.687-.5-.547-1.594-.547-.875 0-1.547.469-.656.469-1.031 1.234v7.531h-1.797v-15h1.797v5.72zm8.719 3.906q0-1.562.609-2.796.61-1.25 1.688-1.922 1.093-.672 2.5-.672 2.156 0 3.484 1.5 1.344 1.484 1.344 3.969v.125q0 1.546-.594 2.78-.594 1.22-1.703 1.907-1.094.688-2.516.688-2.14 0-3.484-1.5-1.328-1.5-1.328-3.954v-.125zm1.812.204q0 1.765.813 2.828.828 1.062 2.187 1.062 1.375 0 2.188-1.078.812-1.078.812-3.016 0-1.75-.828-2.828-.828-1.078-2.188-1.078-1.343 0-2.171 1.063-.813 1.062-.813 3.047zm14.766-3.782q-.406-.062-.875-.062-1.781 0-2.422 1.515v7.5h-1.797V23.85h1.75l.031 1.219q.89-1.422 2.516-1.422.531 0 .797.14v1.672zm3.86 8.953h-1.798V23.85h1.797v10.562zm-1.954-13.375q0-.437.266-.734.28-.312.796-.312.532 0 .797.312.282.297.282.734 0 .438-.282.735-.265.297-.797.297-.515 0-.796-.297-.266-.297-.266-.735zm7.438.25v2.563h1.984v1.39h-1.985v6.547q0 .641.266.97.266.312.906.312.313 0 .86-.125v1.468q-.719.204-1.39.204-1.204 0-1.829-.735-.61-.734-.61-2.094V25.24h-1.921v-1.391h1.922v-2.563h1.796zm8.015 10.485l2.453-7.922h1.938l-4.25 12.187q-.985 2.641-3.125 2.641l-.344-.031-.672-.125v-1.469l.484.047q.922 0 1.422-.375.516-.375.844-1.36l.406-1.078-3.765-10.437h1.969l2.64 7.922z"/>
</svg>
