<svg xmlns="http://www.w3.org/2000/svg" viewBox="0 0 24 22">
  <g id="compare" transform="translate(0 -1.512)" opacity="0.8">
    <path id="Path_26406" data-name="Path 26406" d="M0,5.175c0-.472.361-.466.361-.466,1.533,0,13.3,0,15.358,0,.669,0,1.1,0,1.1,0V2.046c0-1.031.755-.251.755-.251s5.648,4.463,6.244,5.072a.582.582,0,0,1-.051.86l-6.051,5.231S17,13.734,17,12.893,17,10,17,10s-.484,0-1.228,0C13.645,10,2.005,10,.428,10c0,0-.427.115-.427-.547S0,5.649,0,5.175Z" transform="translate(0)" fill="#fff"/>
    <path id="Path_26407" data-name="Path 26407" d="M24,17.191c0-.476-.361-.466-.361-.466-1.53,0-13.3,0-15.359,0-.668,0-1.1,0-1.1,0V14.061c0-1.027-.753-.253-.753-.253S.776,18.272.178,18.878a.589.589,0,0,0,.051.866l6.049,5.231s.718.775.718-.07S7,22.02,7,22.02s.484,0,1.229-.005c2.127.005,13.769,0,15.343,0,0,0,.431.117.432-.549S24,17.667,24,17.191Z" transform="translate(0 -1.789)" fill="#fff"/>
  </g>
</svg>
