<svg xmlns="http://www.w3.org/2000/svg" viewBox="0 0 28 28">
  <g id="plus" transform="translate(-760 -3583)">
    <circle id="Ellipse_1875" data-name="Ellipse 1875" cx="14" cy="14" r="14" transform="translate(760 3583)" fill="#14b850" opacity="0.04"/>
    <path id="Path_26488" data-name="Path 26488" d="M11.343,5.065H6.937V.667A.663.663,0,0,0,6.282,0H5.719a.664.664,0,0,0-.656.665v4.4H.656A.656.656,0,0,0,0,5.719v.567a.654.654,0,0,0,.656.653H5.063v4.414A.65.65,0,0,0,5.719,12h.564a.65.65,0,0,0,.655-.649V6.939h4.405A.655.655,0,0,0,12,6.286V5.719A.656.656,0,0,0,11.343,5.065Z" transform="translate(768 3590.998)" fill="#14b850" stroke="#14b850" stroke-width="1"/>
  </g>
</svg>
