<svg xmlns="http://www.w3.org/2000/svg" viewBox="0 0 28 28">
  <g id="save" transform="translate(-0.288)" opacity="0.8">
    <g id="Group_327" data-name="Group 327" transform="translate(9.535 0)">
      <g id="Group_326" data-name="Group 326" transform="translate(0)">
        <ellipse id="Ellipse_1867" data-name="Ellipse 1867" cx="4.112" cy="4.07" rx="4.112" ry="4.07" fill="#fff"/>
      </g>
    </g>
    <g id="Group_329" data-name="Group 329" transform="translate(0.288 5.209)">
      <g id="Group_328" data-name="Group 328" transform="translate(0)">
        <path id="Path_26469" data-name="Path 26469" d="M26.246,19.133h0a9.91,9.91,0,0,0-2.565-4.123V10.343a4.281,4.281,0,0,0-3.734,2.17,13.9,13.9,0,0,0-1.3-.493,5.766,5.766,0,0,1-1.381,1.608c.391.078.772.167,1.138.272l-.458,1.564a14.02,14.02,0,0,0-3.829-.51,13.623,13.623,0,0,0-4.39.686L9.187,14.1c.339-.117.694-.221,1.06-.313a5.791,5.791,0,0,1-1.419-1.484,11.954,11.954,0,0,0-5.592,4.338c-.047-.032-.092-.065-.133-.1a1.5,1.5,0,0,1-.388-.468,1.076,1.076,0,0,1-.123-.5H.288a3.342,3.342,0,0,0,.373,1.529,3.923,3.923,0,0,0,1.526,1.575,8.826,8.826,0,0,0-.549,3.056,9.677,9.677,0,0,0,3.949,7.6v3.8H9.864v-1.6a14.927,14.927,0,0,0,8.554,0v1.6h4.277v-3.8a10.152,10.152,0,0,0,3.644-5.316h1.949V19.133H26.246Zm-4.374.326a.814.814,0,1,1,.822-.814A.818.818,0,0,1,21.872,19.46Z" transform="translate(-0.288 -10.343)" fill="#fff"/>
      </g>
    </g>
  </g>
</svg>
