<svg xmlns="http://www.w3.org/2000/svg" viewBox="0 0 24 28">
  <g id="timer" transform="translate(-8)" opacity="0.8">
    <path id="Path_26470" data-name="Path 26470" d="M28.724,8.331l1.724-1.676-1.7-1.65L26.907,6.8A12.136,12.136,0,0,0,21.2,4.723V2.332h2.4V0H16.4V2.332h2.4V4.723A12.136,12.136,0,0,0,13.093,6.8L11.248,5.006l-1.7,1.65,1.724,1.676a11.428,11.428,0,0,0,.32,16.331,12.25,12.25,0,0,0,16.808,0,11.428,11.428,0,0,0,.32-16.331ZM20,25.655a9.468,9.468,0,0,1-9.6-9.329A9.468,9.468,0,0,1,20,7a9.468,9.468,0,0,1,9.6,9.329A9.478,9.478,0,0,1,20,25.655Z" transform="translate(0 0)" fill="#fff"/>
    <path id="Path_26471" data-name="Path 26471" d="M31.2,32v7H24a7.2,7.2,0,1,0,7.2-7Z" transform="translate(-11.2 -22.671)" fill="#fff"/>
  </g>
</svg>
