<svg id="Logo" xmlns="http://www.w3.org/2000/svg" viewBox="0 0 312 50">
  <line id="Line_1" data-name="Line 1" transform="translate(81.073 42.599)" fill="#1e918a"/>
  <g id="Group_1" data-name="Group 1" transform="translate(108.515 20.126)">
    <path id="Path_315" data-name="Path 315" d="M2.15,0A2.156,2.156,0,1,1,0,2.154,2.157,2.157,0,0,1,2.15,0Z" transform="translate(0 4.558) rotate(-66.178)" fill="#fff"/>
    <path id="Path_1" data-name="Path 1" d="M290.239,60.27a1.635,1.635,0,1,0-1.639-1.635A1.664,1.664,0,0,0,290.239,60.27Z" transform="translate(-272.66 -52.6)" fill="#fff" fill-rule="evenodd"/>
    <path id="Path_2" data-name="Path 2" d="M269.627,69.461h0a19.014,19.014,0,0,1-.992-4.647,1.526,1.526,0,0,0,.431-1.076V62.706c-.043-2.281-.086-4.6,1.207-6.067a1.51,1.51,0,0,0-.173-2.151c-.043,0-.043-.043-.086-.043-.043-.043-.086-.086-.129-.086a5.179,5.179,0,0,1-2.5-3.055,10.976,10.976,0,0,0,2.156-2.883c.259-.516.129-1.119-.259-1.248-.259-.129-.561-.215-.819-.344a.9.9,0,0,0-1.078.473,8.783,8.783,0,0,1-7.245,4.69c-.086,0-.216.043-.3.043a1.985,1.985,0,0,0-.776.43,2.028,2.028,0,0,0-.216,2.84c1.682,1.936,1.639,5.034,1.6,8v1.334a1.88,1.88,0,0,0,.6,1.42,24.959,24.959,0,0,1-1.768,7.487.8.8,0,0,0-.086.3L256,75.486h5.822l11.816-6.067h-4.011ZM262.77,54.014a10.591,10.591,0,0,0,3.493-1.721,6.52,6.52,0,0,0,1.725,2.453c-2.156,2.668-1.984,6.11-1.941,8.046v.99a1.5,1.5,0,0,0,.733,1.291,19.824,19.824,0,0,0,.949,4.432l-5.218,2.668a26.459,26.459,0,0,0,.992-5.766,2.025,2.025,0,0,0,.949-1.721V63.394C264.5,61.157,264.711,57.327,262.77,54.014Z" transform="translate(-254.118 -46.774)" fill="#fff" fill-rule="evenodd"/>
  </g>
  <g id="Group_7" data-name="Group 7" transform="translate(102.23)">
    <g id="Group_2" data-name="Group 2" transform="translate(5.05 5.68)">
      <path id="Path_3" data-name="Path 3" d="M270.31,19.4a5.526,5.526,0,0,0-2.367.947,1.685,1.685,0,0,0-.43,1.592h.043a2.376,2.376,0,0,0,.559-.344,1.743,1.743,0,0,1,.559-.344h.043c.129.129-.645,1.2-.43,1.248h.172a1.784,1.784,0,0,0,1.291-.645,6.382,6.382,0,0,0,.559-2.453" transform="translate(-259.396 -16.732)" fill="#fff"/>
      <path id="Path_4" data-name="Path 4" d="M260.372,13.2s-1.463,1.936-1.377,3.141a2.226,2.226,0,0,0,1.076,1.936c.043.043.172.043.344.043a1.78,1.78,0,0,0,.9-.172,2.32,2.32,0,0,0,.775-1.936,7.533,7.533,0,0,0-1.721-3.012" transform="translate(-254.579 -13.2)" fill="#fff"/>
      <path id="Path_5" data-name="Path 5" d="M248.764,20.8a5.093,5.093,0,0,0,.344,2.539,1.694,1.694,0,0,0,1.334.818h.086c.129,0-.473-1.2-.387-1.291h.043a1.38,1.38,0,0,1,.516.387c.215.172.43.387.516.387h.043A1.743,1.743,0,0,0,251,22.091a5.158,5.158,0,0,0-2.238-1.291" transform="translate(-248.736 -17.53)" fill="#fff"/>
      <path id="Path_6" data-name="Path 6" d="M278.779,15.4s-1.721,1.2-1.979,2.194a2.093,2.093,0,0,0,.3,1.807h.043c.086,0,.258-.3.43-.6s.344-.6.473-.6h0c.172.043-.086,1.549.086,1.549h0a1.925,1.925,0,0,0,1.248-1.42,6.32,6.32,0,0,0-.6-2.926" transform="translate(-264.681 -14.453)" fill="#fff"/>
      <path id="Path_7" data-name="Path 7" d="M288.533,16s-2.022.6-2.582,1.463a1.9,1.9,0,0,0-.3,1.807,2.847,2.847,0,0,0,.818.645h.129a2.053,2.053,0,0,0,1.549-.947c.6-.861.387-2.969.387-2.969" transform="translate(-269.701 -14.795)" fill="#fff"/>
    </g>
    <g id="Group_3" data-name="Group 3" transform="translate(4.895 11.962)">
      <path id="Path_8" data-name="Path 8" d="M280.375,28a6.959,6.959,0,0,0-.775.043,5.323,5.323,0,0,0,1.291,2.194,2.11,2.11,0,0,0,1.076.344,1.191,1.191,0,0,0,.559-.129,1.8,1.8,0,0,0,.473-.775,1.645,1.645,0,0,0-.861-1.334A3.332,3.332,0,0,0,280.375,28" transform="translate(-266.164 -27.914)" fill="#fff"/>
      <path id="Path_9" data-name="Path 9" d="M281.7,35.8a5.313,5.313,0,0,0-.9,2.367,1.641,1.641,0,0,0,.861,1.377h0c.129,0,.129-1.291.3-1.291h0c.086,0,.215.3.3.6.129.3.215.6.3.6h0a1.843,1.843,0,0,0,.516-1.506c-.086-.861-1.377-2.151-1.377-2.151" transform="translate(-266.841 -32.358)" fill="#fff"/>
      <path id="Path_10" data-name="Path 10" d="M289.97,40.7a3.537,3.537,0,0,0-1.635.688.819.819,0,0,0,.215,1.506h.086a1.257,1.257,0,0,0,.9-.473,3.856,3.856,0,0,0,.43-1.721" transform="translate(-270.941 -35.149)" fill="#fff"/>
      <path id="Path_11" data-name="Path 11" d="M264.281,43.8a2.723,2.723,0,0,0-1.377.258,1.768,1.768,0,0,0-.9,1.377,1.756,1.756,0,0,0,.516.775,1.191,1.191,0,0,0,.559.129,1.872,1.872,0,0,0,.99-.3c.775-.43,1.377-2.108,1.377-2.108a5.327,5.327,0,0,0-1.162-.129" transform="translate(-256.137 -36.915)" fill="#fff"/>
      <path id="Path_12" data-name="Path 12" d="M257.212,39.6s-1.592.818-1.936,1.635a1.665,1.665,0,0,0,.086,1.635h0c.086,0,.258-.258.43-.516s.344-.516.43-.516h0c.172.086-.215,1.334-.043,1.334h0a1.707,1.707,0,0,0,1.162-1.033,5.422,5.422,0,0,0-.129-2.539" transform="translate(-252.21 -34.523)" fill="#fff"/>
      <path id="Path_13" data-name="Path 13" d="M266.374,51.8h-.129a1.235,1.235,0,0,0-.947.645c-.043.086.9.043.9.172s-.861.387-.775.473a1.012,1.012,0,0,0,.818.3h.258c.6-.086,1.463-1.033,1.463-1.033a4.158,4.158,0,0,0-1.592-.559" transform="translate(-258.016 -41.473)" fill="#fff"/>
      <path id="Path_14" data-name="Path 14" d="M271.5,45.6a5.458,5.458,0,0,0,.99,2.324,2.03,2.03,0,0,0,1.162.473,1.529,1.529,0,0,0,.43-.086,1.95,1.95,0,0,0,.559-.731,1.8,1.8,0,0,0-.688-1.42A5.647,5.647,0,0,0,271.5,45.6" transform="translate(-261.55 -37.941)" fill="#fff"/>
      <path id="Path_15" data-name="Path 15" d="M298.4,41.1a6.331,6.331,0,0,0-2.711,1.2,1.92,1.92,0,0,0-.473,1.764.042.042,0,0,0,.043.043,1.819,1.819,0,0,0,.6-.387c.258-.172.516-.387.645-.387h.043c.129.129-.732,1.42-.559,1.463h.215a2.061,2.061,0,0,0,1.506-.818A6.4,6.4,0,0,0,298.4,41.1" transform="translate(-275.022 -35.377)" fill="#fff"/>
      <path id="Path_16" data-name="Path 16" d="M290.28,48.6a3.9,3.9,0,0,0-.688,1.85,1.253,1.253,0,0,0,.688,1.076h0c.086,0,.086-.99.215-1.033h0c.086,0,.172.215.258.473.086.215.172.473.215.473h0a1.419,1.419,0,0,0,.387-1.162A4.245,4.245,0,0,0,290.28,48.6" transform="translate(-271.853 -39.65)" fill="#fff"/>
      <path id="Path_17" data-name="Path 17" d="M263.852,27.8s-1.807,1.549-2.022,2.668a2.19,2.19,0,0,0,.6,2.108h0c.086,0,.258-.387.387-.775.172-.387.344-.775.43-.775h0c.215.043.129,1.721.344,1.721h0a2.26,2.26,0,0,0,1.162-1.721c.215-1.119-.9-3.227-.9-3.227" transform="translate(-256.01 -27.8)" fill="#fff"/>
      <path id="Path_18" data-name="Path 18" d="M248.386,29.8s-.129,2.367.516,3.313a2.343,2.343,0,0,0,1.764,1.033h.172c.172-.043-.688-1.592-.516-1.678h.043c.129,0,.43.258.732.473.3.258.559.473.688.473a.042.042,0,0,0,.043-.043,2.18,2.18,0,0,0-.43-2.022,7.8,7.8,0,0,0-3.012-1.549" transform="translate(-248.376 -28.939)" fill="#fff"/>
      <path id="Path_19" data-name="Path 19" d="M307.593,42.3a1.092,1.092,0,0,0-.516.086,2.065,2.065,0,0,0-1.377,1.2c0,.043.129.086.344.086h.818c.215,0,.387,0,.387.086.043.172-1.377.775-1.291.9a1.667,1.667,0,0,0,1.162.43,2.387,2.387,0,0,0,.732-.129c.99-.3,2.151-2.022,2.151-2.022a7.125,7.125,0,0,0-2.41-.645" transform="translate(-281.034 -36.061)" fill="#fff"/>
    </g>
    <g id="Group_4" data-name="Group 4" transform="translate(0 9.682)">
      <path id="Path_20" data-name="Path 20" d="M240.873,40.4c-1.506,0-3.873,1.506-3.873,1.506s2.151,2.194,3.657,2.367c.129,0,.3.043.43.043a2.865,2.865,0,0,0,2.238-.947,2.7,2.7,0,0,0,.086-1.549,2.984,2.984,0,0,0-2.324-1.377.322.322,0,0,0-.215-.043" transform="translate(-237 -32.698)" fill="#fff"/>
      <path id="Path_21" data-name="Path 21" d="M300.27,51.4a4.62,4.62,0,0,0-2.108.387A2.288,2.288,0,0,0,297,53.551a2.2,2.2,0,0,0,.6,1.076,1.638,1.638,0,0,0,.818.172,2.462,2.462,0,0,0,1.377-.43c.99-.6,1.807-2.926,1.807-2.926s-.6-.043-1.334-.043" transform="translate(-271.182 -38.965)" fill="#fff"/>
      <path id="Path_22" data-name="Path 22" d="M272.81,26.6a5.526,5.526,0,0,0-2.367.947,1.685,1.685,0,0,0-.43,1.592,1.478,1.478,0,0,0,.688.559h.172a1.784,1.784,0,0,0,1.291-.645,5.477,5.477,0,0,0,.645-2.453" transform="translate(-255.77 -24.836)" fill="#fff"/>
      <path id="Path_23" data-name="Path 23" d="M256.664,24.9a5.393,5.393,0,0,0-.516,2.5,1.7,1.7,0,0,0,1.076,1.248h.043a1.7,1.7,0,0,0,.818-.3,1.7,1.7,0,0,0,.258-1.549c-.215-.818-1.678-1.893-1.678-1.893" transform="translate(-247.886 -23.867)" fill="#fff"/>
      <path id="Path_24" data-name="Path 24" d="M239.579,32a6.8,6.8,0,0,0-1.979.43s.947,1.506,1.807,1.807a1.949,1.949,0,0,0,.688.129,1.552,1.552,0,0,0,.947-.3c.086-.086-1.119-.645-1.076-.818,0-.043.129-.043.258-.043a1.464,1.464,0,0,1,.43.043c.172,0,.3.043.43.043s.215,0,.172-.043a1.819,1.819,0,0,0-1.162-1.076.686.686,0,0,0-.516-.172" transform="translate(-237.342 -27.912)" fill="#fff"/>
      <path id="Path_25" data-name="Path 25" d="M306.65,31.9s-2.108.086-2.84.775a1.893,1.893,0,0,0-.732,1.678,1.776,1.776,0,0,0,.645.818,1.529,1.529,0,0,0,.43.086,2.359,2.359,0,0,0,1.377-.559,6.462,6.462,0,0,0,1.119-2.8" transform="translate(-274.636 -27.855)" fill="#fff"/>
      <path id="Path_26" data-name="Path 26" d="M293.681,22.5s-3.184,1.635-3.873,3.227a3.387,3.387,0,0,0,0,3.1l.043.043c.129,0,.516-.473.861-.947.387-.473.731-.947.9-.947h.043c.258.129-.559,2.625-.258,2.625h0a3.4,3.4,0,0,0,2.5-2.108c.732-1.549-.215-4.991-.215-4.991" transform="translate(-266.874 -22.5)" fill="#fff"/>
    </g>
    <g id="Group_5" data-name="Group 5" transform="translate(1.048)">
      <path id="Path_27" data-name="Path 27" d="M304.546,14.3a6.219,6.219,0,0,0-2.582,1.463,2.028,2.028,0,0,0-.3,1.807,2.519,2.519,0,0,0,.861.645h.129a2.053,2.053,0,0,0,1.549-.947,6.271,6.271,0,0,0,.344-2.969" transform="translate(-274.828 -8.147)" fill="#fff"/>
      <path id="Path_28" data-name="Path 28" d="M239.464,20.8a5.093,5.093,0,0,0,.344,2.539,1.694,1.694,0,0,0,1.334.818h.086a1.761,1.761,0,0,0,.732-.559,1.743,1.743,0,0,0-.258-1.549,5.414,5.414,0,0,0-2.238-1.248" transform="translate(-239.436 -11.85)" fill="#fff"/>
      <path id="Path_29" data-name="Path 29" d="M306.87,24.6a3.537,3.537,0,0,0-1.635.688,1.173,1.173,0,0,0-.3,1.119h0a1.857,1.857,0,0,0,.387-.258,1.857,1.857,0,0,1,.387-.258h0c.086.086-.43.861-.3.861h.086a1.257,1.257,0,0,0,.9-.473c.43-.387.473-1.678.473-1.678" transform="translate(-276.722 -14.015)" fill="#fff"/>
      <path id="Path_30" data-name="Path 30" d="M265.8,7.8s.086,2.108.775,2.84a2.152,2.152,0,0,0,1.463.775h.172c.215-.043-.688-1.291-.516-1.42h.043a3.034,3.034,0,0,1,.645.387,1.859,1.859,0,0,0,.645.387h.043a2.023,2.023,0,0,0-.516-1.85A6.167,6.167,0,0,0,265.8,7.8" transform="translate(-254.456 -4.444)" fill="#fff"/>
      <path id="Path_31" data-name="Path 31" d="M279.031,0s-1.85,2.108-1.936,3.442a2.623,2.623,0,0,0,.9,2.281,2.235,2.235,0,0,0,1.033.172.955.955,0,0,0,.387-.043,2.683,2.683,0,0,0,1.248-2.238C280.71,2.238,279.031,0,279.031,0" transform="translate(-260.889)" fill="#fff"/>
      <path id="Path_32" data-name="Path 32" d="M296.186,12.7a3.7,3.7,0,0,0-.688,1.635,1.155,1.155,0,0,0,.559.99h0c.086,0,.129-.9.215-.9h0c.043,0,.129.215.215.43s.129.43.172.43h0a1.2,1.2,0,0,0,.387-1.033c0-.645-.861-1.549-.861-1.549" transform="translate(-271.374 -7.235)" fill="#fff"/>
      <path id="Path_33" data-name="Path 33" d="M290.016,8.4a3.757,3.757,0,0,0-1.635.731,1.16,1.16,0,0,0-.258,1.119h0a1.856,1.856,0,0,0,.387-.258,1.857,1.857,0,0,1,.387-.258h0c.086.086-.387.861-.258.9h.086a1.178,1.178,0,0,0,.9-.516,3.64,3.64,0,0,0,.387-1.721" transform="translate(-267.14 -4.786)" fill="#fff"/>
    </g>
  </g>
  <path id="Path_34" data-name="Path 34" d="M272.744,36.912a.042.042,0,0,0-.043-.043,2.165,2.165,0,0,1-1.768-.344,1.829,1.829,0,0,0,1.552-1.291v-.043h-.043a.619.619,0,0,1-.3.086,1.751,1.751,0,0,0,.216-1.334.042.042,0,0,0-.043-.043h-.086c-.345.3-1.121.688-2.113,1.377a1.468,1.468,0,0,0-.647,1.076.747.747,0,0,1-.431.043.8.8,0,0,0-.3-.086c-.345,0-.561.215-.733.645V37l.043.043c.862-.043,1.035.344,1.38.516A3.266,3.266,0,0,0,272.744,37Z" transform="translate(-152.428 -19.313)" fill="#ef6f00" fill-rule="evenodd"/>
  <path id="Path_35" data-name="Path 35" d="M682.432,94.663A1.275,1.275,0,0,1,682,95.7a1.4,1.4,0,0,1-1.035.43,1.339,1.339,0,0,1-1.035-.43,1.586,1.586,0,0,1-.432-1.033,1.334,1.334,0,0,1,.432-1.033,1.593,1.593,0,0,1,1.035-.43,1.339,1.339,0,0,1,1.035.43A1.275,1.275,0,0,1,682.432,94.663Z" transform="translate(-386.474 -53.097)" fill="#fff"/>
  <path id="Path_36" data-name="Path 36" d="M694.274,78.986v1.291a2.86,2.86,0,0,1,2.674-1.377,3.352,3.352,0,0,1,2.458.99,3.824,3.824,0,0,1,.949,2.754v5.163H697.68V82.988a1.913,1.913,0,0,0-.431-1.334,1.889,1.889,0,0,0-2.5,0,1.778,1.778,0,0,0-.431,1.334v4.776H691.6V78.986Z" transform="translate(-393.357 -44.95)" fill="#fff"/>
  <path id="Path_37" data-name="Path 37" d="M717.2,84.1V72.4h2.717V84.061H717.2Z" transform="translate(-407.917 -41.247)" fill="#fff"/>
  <path id="Path_38" data-name="Path 38" d="M10,65.9h4.442V80.4H10V78.249a4.755,4.755,0,0,1-4.4,2.281,5.245,5.245,0,0,1-4.054-1.678A6.281,6.281,0,0,1,0,74.377V65.9H4.442v7.874a2.95,2.95,0,0,0,.733,2.151A2.635,2.635,0,0,0,7.2,76.7a2.635,2.635,0,0,0,2.027-.775,3.094,3.094,0,0,0,.733-2.151V65.9Z" transform="translate(0 -37.544)" fill="#fff"/>
  <path id="Path_39" data-name="Path 39" d="M46.085,53.475a2.593,2.593,0,1,1,.776-1.85A2.88,2.88,0,0,1,46.085,53.475Zm-4.054,17.3v-14.5h4.442v14.5H42.031Z" transform="translate(-23.661 -27.916)" fill="#fff"/>
  <path id="Path_40" data-name="Path 40" d="M67.222,71.943h1.6v3.787H66.532a5.858,5.858,0,0,1-3.795-1.076c-.906-.732-1.337-1.936-1.337-3.7V64.929h0v-3.7h0V57.7h4.442v3.528H67.61l1.164,3.7H65.842v6.024C65.885,71.6,66.316,71.943,67.222,71.943Z" transform="translate(-34.922 -32.872)" fill="#fff"/>
  <path id="Path_41" data-name="Path 41" d="M81.4,65.9h4.744l3.321,10.8,3.321-10.8h4.744L92.353,80.4H86.532Z" transform="translate(-46.297 -37.544)" fill="#fff"/>
  <path id="Path_42" data-name="Path 42" d="M122.841,78.28a8.305,8.305,0,0,1,0-10.671,6.233,6.233,0,0,1,4.7-2.108,4.942,4.942,0,0,1,4.269,2.065V65.672h4.442v14.5H131.81V78.065a5.052,5.052,0,0,1-4.312,2.281A6.166,6.166,0,0,1,122.841,78.28Zm8.021-2.711a3.482,3.482,0,0,0,.949-2.668,3.381,3.381,0,0,0-.949-2.625,3.141,3.141,0,0,0-2.2-.9,3.012,3.012,0,0,0-2.2.947,3.482,3.482,0,0,0-.949,2.668,3.381,3.381,0,0,0,.949,2.625,3.141,3.141,0,0,0,2.2.9A3.189,3.189,0,0,0,130.862,75.569Z" transform="translate(-68.763 -37.316)" fill="#fff"/>
  <path id="Path_43" data-name="Path 43" d="M165.041,78.28a8.306,8.306,0,0,1,0-10.671,6.232,6.232,0,0,1,4.7-2.108,4.942,4.942,0,0,1,4.269,2.065V65.672h4.442v14.5H174.01V78.065a5.052,5.052,0,0,1-4.312,2.281A6.1,6.1,0,0,1,165.041,78.28Zm7.978-2.711a3.482,3.482,0,0,0,.949-2.668,3.381,3.381,0,0,0-.949-2.625,3.141,3.141,0,0,0-2.2-.9,3.012,3.012,0,0,0-2.2.947,3.482,3.482,0,0,0-.949,2.668,3.381,3.381,0,0,0,.949,2.625,3.141,3.141,0,0,0,2.2.9A3.189,3.189,0,0,0,173.018,75.569Z" transform="translate(-92.765 -37.316)" fill="#fff"/>
  <path id="Path_44" data-name="Path 44" d="M212.2,65.729V68.44c1.035-1.893,2.415-2.84,4.183-2.84v4.475H215.3a3.162,3.162,0,0,0-2.286.732,3.374,3.374,0,0,0-.776,2.539v6.842H207.8V65.729Z" transform="translate(-118.189 -37.373)" fill="#fff"/>
  <path id="Path_45" data-name="Path 45" d="M239.922,71.943h1.6v3.787h-2.286a5.859,5.859,0,0,1-3.795-1.076c-.906-.732-1.337-1.936-1.337-3.7V64.929h0v-3.7h0V57.7h4.442v3.528h1.768l1.164,3.7h-2.932v6.024C238.585,71.6,239.016,71.943,239.922,71.943Z" transform="translate(-133.147 -32.872)" fill="#fff"/>
  <path id="Path_46" data-name="Path 46" d="M301.3,65.9h4.744l3.278,10.757L312.642,65.9h4.743L312.21,80.4h-5.779Z" transform="translate(-171.368 -37.544)" fill="#fff"/>
  <path id="Path_47" data-name="Path 47" d="M348.145,80.4a7.2,7.2,0,0,1-5.218-2.022,7.467,7.467,0,0,1-2.027-5.422,7.3,7.3,0,0,1,2.027-5.379,7.1,7.1,0,0,1,5.218-1.979,7.3,7.3,0,0,1,5.3,1.979,7.093,7.093,0,0,1,2.113,5.465,13.979,13.979,0,0,1-.086,1.42h-10a2.546,2.546,0,0,0,.862,1.592,2.453,2.453,0,0,0,1.6.6,3.088,3.088,0,0,0,1.25-.172,2.487,2.487,0,0,0,.6-.344c.129-.129.3-.3.517-.559h4.83a6.473,6.473,0,0,1-2.5,3.528A8.186,8.186,0,0,1,348.145,80.4Zm1.9-10.413a2.781,2.781,0,0,0-1.854-.645,2.668,2.668,0,0,0-1.811.645,2.944,2.944,0,0,0-.906,1.635H350.9A2.289,2.289,0,0,0,350.042,69.989Z" transform="translate(-193.891 -37.373)" fill="#fff"/>
  <path id="Path_48" data-name="Path 48" d="M386,65.729V68.44c1.035-1.893,2.415-2.84,4.183-2.84v4.475H389.1a3.162,3.162,0,0,0-2.285.732,3.374,3.374,0,0,0-.776,2.539v6.842H381.6V65.729Z" transform="translate(-217.04 -37.373)" fill="#fff"/>
  <path id="Path_49" data-name="Path 49" d="M416.367,65.843V69.5l-5.606,7.143h5.563V80.3H405.5V76.643l5.563-7.186h-5V65.8h10.307Z" transform="translate(-230.634 -37.487)" fill="#fff"/>
  <path id="Path_50" data-name="Path 50" d="M442.945,80.4a7.2,7.2,0,0,1-5.218-2.022,7.467,7.467,0,0,1-2.027-5.422,7.3,7.3,0,0,1,2.027-5.379,7.1,7.1,0,0,1,5.218-1.979,7.371,7.371,0,0,1,5.3,1.979,7.093,7.093,0,0,1,2.113,5.465,13.951,13.951,0,0,1-.086,1.42h-10a2.545,2.545,0,0,0,.862,1.592,2.453,2.453,0,0,0,1.6.6,2.959,2.959,0,0,0,1.251-.172,2.488,2.488,0,0,0,.6-.344c.129-.129.3-.3.518-.559h4.83a6.473,6.473,0,0,1-2.5,3.528A8.185,8.185,0,0,1,442.945,80.4Zm1.9-10.413a2.78,2.78,0,0,0-1.854-.645,2.668,2.668,0,0,0-1.811.645,2.944,2.944,0,0,0-.905,1.635h5.477A2.509,2.509,0,0,0,444.842,69.989Z" transform="translate(-247.81 -37.373)" fill="#fff"/>
  <path id="Path_51" data-name="Path 51" d="M480.842,75.274H476.4V56.9h4.442v9.9l4.485-6.024h5.994l-6.21,7.4,6.21,7.1h-5.908l-4.571-5.809Z" transform="translate(-270.959 -32.416)" fill="#fff"/>
  <path id="Path_52" data-name="Path 52" d="M520.545,80.4a7.2,7.2,0,0,1-5.218-2.022,7.467,7.467,0,0,1-2.027-5.422,7.3,7.3,0,0,1,2.027-5.379,7.1,7.1,0,0,1,5.218-1.979,7.3,7.3,0,0,1,5.3,1.979,7.094,7.094,0,0,1,2.113,5.465,14.006,14.006,0,0,1-.086,1.42h-10a2.546,2.546,0,0,0,.862,1.592,2.454,2.454,0,0,0,1.6.6,2.96,2.96,0,0,0,1.251-.172,2.485,2.485,0,0,0,.6-.344c.129-.129.3-.3.518-.559h4.83a6.471,6.471,0,0,1-2.5,3.528A8.186,8.186,0,0,1,520.545,80.4Zm1.9-10.413a2.781,2.781,0,0,0-1.854-.645,2.668,2.668,0,0,0-1.811.645,2.945,2.945,0,0,0-.906,1.635H523.3A2.288,2.288,0,0,0,522.442,69.989Z" transform="translate(-291.946 -37.373)" fill="#fff"/>
  <path id="Path_53" data-name="Path 53" d="M558.5,65.729V68.44c1.035-1.893,2.415-2.84,4.183-2.84v4.475H561.6a3.162,3.162,0,0,0-2.286.732,3.374,3.374,0,0,0-.776,2.539v6.842H554.1V65.729Z" transform="translate(-315.152 -37.373)" fill="#fff"/>
  <path id="Path_54" data-name="Path 54" d="M603.4,65.729v2.151a4.755,4.755,0,0,1,4.4-2.281,5.244,5.244,0,0,1,4.054,1.678A6.392,6.392,0,0,1,613.4,71.8v8.477h-4.442V72.356a2.949,2.949,0,0,0-.733-2.151,3.039,3.039,0,0,0-4.054,0,3.1,3.1,0,0,0-.733,2.151V80.23H599v-14.5Z" transform="translate(-340.689 -37.373)" fill="#fff"/>
  <path id="Path_55" data-name="Path 55" d="M652.012,65.672h-2.5v1.893a4.942,4.942,0,0,0-4.269-2.065,6.086,6.086,0,0,0-4.7,2.108,8.3,8.3,0,0,0,0,10.671,6.142,6.142,0,0,0,4.614,2.065,5.052,5.052,0,0,0,4.312-2.281v2.022a3.507,3.507,0,0,1-.819,2.582,2.638,2.638,0,0,1-2.027.818c-1.682,0-2.717-.559-3.105-1.635H639.2a5.346,5.346,0,0,0,2.2,4.131,10.887,10.887,0,0,0,8.668.775,5.6,5.6,0,0,0,2.286-1.592,7.673,7.673,0,0,0,1.682-5.077V67.436A2.08,2.08,0,0,0,652.012,65.672Zm-3.45,9.9a3.19,3.19,0,0,1-2.2.947,3.141,3.141,0,0,1-2.2-.9,3.444,3.444,0,0,1-.949-2.625,3.546,3.546,0,0,1,.949-2.668,3.189,3.189,0,0,1,2.2-.947,3.141,3.141,0,0,1,2.2.9,3.444,3.444,0,0,1,.949,2.625A3.546,3.546,0,0,1,648.562,75.569Z" transform="translate(-363.212 -37.316)" fill="#fff"/>
  <path id="Path_56" data-name="Path 56" d="M583.085,53.475a2.593,2.593,0,1,1,.776-1.85A2.882,2.882,0,0,1,583.085,53.475Zm-4.054,17.3v-14.5h4.442v14.5h-4.442Z" transform="translate(-329.086 -27.916)" fill="#fff"/>
</svg>
